<?xml version="1.0" encoding="UTF-8" standalone="no"?>
<svg width="20px" height="39px" viewBox="0 0 20 39" version="1.1" xmlns="http://www.w3.org/2000/svg" xmlns:xlink="http://www.w3.org/1999/xlink" xmlns:sketch="http://www.bohemiancoding.com/sketch/ns">
    <!-- Generator: Sketch 3.3.3 (12081) - http://www.bohemiancoding.com/sketch -->
    <title>wireframe</title>
    <desc>Created with Sketch.</desc>
    <defs></defs>
    <g id="Page-1" stroke="none" stroke-width="1" fill="none" fill-rule="evenodd" sketch:type="MSPage">
        <g id="Home-Copy" sketch:type="MSArtboardGroup" transform="translate(-279.000000, -6189.000000)">
            <g id="what-we-offer" sketch:type="MSLayerGroup" transform="translate(201.000000, 5146.000000)">
                <g id="what-we-offer-text" transform="translate(0.000000, 412.000000)" sketch:type="MSShapeGroup">
                    <g id="Approach-section-Copy-3" transform="translate(38.000000, 577.000000)">
                        <g id="icon">
                            <g id="wireframe" transform="translate(41.000000, 55.000000)">
                                <g id="face-copy-5" transform="translate(0.000000, 6.000000)">
                                    <path d="M8.94656772,17.8893533 C13.8876206,17.8893533 17.8931354,13.8846852 17.8931354,8.94467667 C17.8931354,4.00466815 13.8876206,0 8.94656772,0 C4.0055148,0 0,4.00466815 0,8.94467667 C0,13.8846852 4.0055148,17.8893533 8.94656772,17.8893533 Z" id="Oval-63" stroke="#4EA4EF" stroke-width="2"></path>
                                    <g id="face-copy-4" transform="translate(4.090909, 4.909091)">
                                        <ellipse id="Oval-64" fill="#4EA4EF" cx="1.09344727" cy="2.18213351" rx="1.09344727" ry="2.18213351"></ellipse>
                                        <path d="M8.50503995,4.36426703 C9.1089342,4.36426703 9.59848722,3.38729257 9.59848722,2.18213351 C9.59848722,0.976974452 9.1089342,0 8.50503995,0 C7.9011457,0 7.41159268,0.976974452 7.41159268,2.18213351 C7.41159268,3.38729257 7.9011457,4.36426703 8.50503995,4.36426703 Z" id="Oval-64-Copy" fill="#4EA4EF"></path>
                                        <path d="M6.40612393,6.2588904 C6.40612393,6.49437094 6.08360639,7.40056998 4.92051269,7.39543996 C3.757419,7.40056998 3.47406072,6.37751785 3.47406072,6.2588904 C3.47406072,5.83705616 4.19605736,6.97631838 4.9205127,6.97631838 C5.64496803,6.97631838 6.40612393,5.83927759 6.40612393,6.2588904 Z" id="Path-105" stroke="#4EA4EF" stroke-width="2"></path>
                                    </g>
                                </g>
                                <g id="lines-copy" stroke="#4EA4EF" stroke-width="2" stroke-linecap="square">
                                    <path d="M0,0.546489104 L17.454962,0.546489104" id="Line"></path>
                                    <path d="M0,29.5104116 L17.454962,29.5104116" id="Line-Copy-6"></path>
                                    <path d="M0,32.7893462 L17.454962,32.7893462" id="Line-Copy-7"></path>
                                    <path d="M0,36.0682809 L17.454962,36.0682809" id="Line-Copy-8"></path>
                                </g>
                            </g>
                        </g>
                    </g>
                </g>
            </g>
        </g>
    </g>
</svg>