<?xml version="1.0" encoding="utf-8"?>
<!-- Generator: Adobe Illustrator 19.1.0, SVG Export Plug-In . SVG Version: 6.00 Build 0)  -->
<svg version="1.1" id="Layer_1" xmlns="http://www.w3.org/2000/svg" xmlns:xlink="http://www.w3.org/1999/xlink" x="0px" y="0px"
	 viewBox="-843 1214.7 32 32" style="enable-background:new -843 1214.7 32 32;" xml:space="preserve">
<style type="text/css">
	.st0{fill:#FFFFFF;}
</style>
<path class="st0" d="M-835.8,1226.3h17.6c0.8,0,1.5-0.7,1.5-1.5c0-0.8-0.7-1.5-1.5-1.5h-17.6c-0.8,0-1.5,0.7-1.5,1.5
	C-837.3,1225.6-836.6,1226.3-835.8,1226.3z M-818.2,1229.2h-17.6c-0.8,0-1.5,0.7-1.5,1.5s0.7,1.5,1.5,1.5h17.6
	c0.8,0,1.5-0.7,1.5-1.5S-817.4,1229.2-818.2,1229.2z M-818.2,1235.1h-17.6c-0.8,0-1.5,0.7-1.5,1.5s0.7,1.5,1.5,1.5h17.6
	c0.8,0,1.5-0.7,1.5-1.5S-817.4,1235.1-818.2,1235.1z M-811,1230.7c0,8.8-7.2,16-16,16s-16-7.2-16-16s7.2-16,16-16
	S-811,1221.9-811,1230.7z"/>
</svg>
