<?xml version="1.0" encoding="utf-8"?>
<!-- Generator: Adobe Illustrator 19.1.0, SVG Export Plug-In . SVG Version: 6.00 Build 0)  -->
<svg version="1.1" id="Layer_1" xmlns:sketch="http://www.bohemiancoding.com/sketch/ns"
	 xmlns="http://www.w3.org/2000/svg" xmlns:xlink="http://www.w3.org/1999/xlink" x="0px" y="0px" viewBox="-569.6 824.3 24.5 18"
	 style="enable-background:new -569.6 824.3 24.5 18;" xml:space="preserve">
<style type="text/css">
	.st0{fill:#A5A5A5;}
</style>
<title>Group</title>
<desc>Created with Sketch.</desc>
<g id="Page-1" sketch:type="MSPage">
	<g id="Contact-overlay" transform="translate(-529.000000, -256.000000)" sketch:type="MSArtboardGroup">
		<g id="Email-_x2B_-Type-_x2B_-Name" transform="translate(510.000000, 152.000000)" sketch:type="MSLayerGroup">
			<g id="Email_1_" transform="translate(1.000000, 85.000000)" sketch:type="MSShapeGroup">
				<g id="Group_1_" transform="translate(16.000000, 15.000000)">
					<g id="Email">
						<g id="Group" transform="translate(2.934783, 4.000000)">
							<g id="Shape">
								<path class="st0" d="M-548.5,842.3H-568c-1.4,0-2.5-1.1-2.5-2.5v-13c0-1.4,1.1-2.5,2.5-2.5h19.5c1.4,0,2.5,1.1,2.5,2.5v13
									C-546,841.2-547.1,842.3-548.5,842.3z M-568,825.3c-0.8,0-1.5,0.7-1.5,1.5v13c0,0.8,0.7,1.5,1.5,1.5h19.5
									c0.8,0,1.5-0.7,1.5-1.5v-13c0-0.8-0.7-1.5-1.5-1.5H-568z"/>
							</g>
							<g id="Shape_1_">
								<polygon class="st0" points="-558,835 -569,825.3 -568.4,824.5 -558,833.6 -547.8,824.7 -547.1,825.5 								"/>
							</g>
						</g>
					</g>
				</g>
			</g>
		</g>
	</g>
</g>
</svg>
