<?xml version="1.0" encoding="UTF-8" standalone="no"?>
<svg width="35px" height="35px" viewBox="0 0 35 35" version="1.1" xmlns="http://www.w3.org/2000/svg" xmlns:xlink="http://www.w3.org/1999/xlink" xmlns:sketch="http://www.bohemiancoding.com/sketch/ns">
    <!-- Generator: Sketch 3.3.3 (12081) - http://www.bohemiancoding.com/sketch -->
    <title>Linkedin</title>
    <desc>Created with Sketch.</desc>
    <defs></defs>
    <g id="Page-1" stroke="none" stroke-width="1" fill="none" fill-rule="evenodd" sketch:type="MSPage">
        <g id="Home-Copy" sketch:type="MSArtboardGroup" transform="translate(-459.000000, -8130.000000)" fill="#FFFFFF">
            <g id="Team" sketch:type="MSLayerGroup" transform="translate(0.000000, 7240.000000)">
                <g id="profiles" transform="translate(351.000000, 404.000000)" sketch:type="MSShapeGroup">
                    <g id="Anthony" transform="translate(17.000000, 0.000000)">
                        <g id="social" transform="translate(91.000000, 486.000000)">
                            <g id="Linkedin">
                                <g id="Group">
                                    <path d="M17.7429,0.1085 C8.2229,0.1085 0.5054,7.826 0.5054,17.346 C0.5054,26.8674 8.2229,34.5835 17.7429,34.5835 C27.2615,34.5835 34.979,26.8674 34.979,17.346 C34.979,7.8267 27.2608,0.1085 17.7429,0.1085 L17.7429,0.1085 Z M27.3434,25.7187 C27.3434,26.4859 26.7064,27.1061 25.9217,27.1061 L9.5291,27.1061 C8.743,27.1061 8.1074,26.4852 8.1074,25.7187 L8.1074,9.1364 C8.1074,8.3706 8.743,7.749 9.5291,7.749 L25.921,7.749 C26.7057,7.749 27.3427,8.3713 27.3427,9.1364 L27.3427,25.7187 L27.3434,25.7187 Z" id="Shape"></path>
                                    <path d="M21.0693,15.0087 C19.5286,15.0087 18.8377,15.855 18.4513,16.4514 L18.4513,16.4801 L18.4324,16.4801 C18.4394,16.4717 18.4464,16.4612 18.4513,16.4514 L18.4513,15.2138 L15.5463,15.2138 C15.5848,16.0328 15.5463,23.9526 15.5463,23.9526 L18.4513,23.9526 L18.4513,19.0715 C18.4513,18.809 18.4702,18.5507 18.5472,18.3631 C18.7579,17.8423 19.236,17.2991 20.0375,17.2991 C21.0903,17.2991 21.5103,18.1013 21.5103,19.2759 L21.5103,23.9519 L24.4153,23.9519 L24.4153,18.942 C24.4146,16.2568 22.9803,15.0087 21.0693,15.0087 L21.0693,15.0087 Z" id="Shape"></path>
                                    <path d="M12.5048,10.9984 C11.5115,10.9984 10.8605,11.6522 10.8605,12.5097 C10.8605,13.3476 11.4905,14.0203 12.4663,14.0203 L12.4852,14.0203 C13.4981,14.0203 14.1288,13.3476 14.1288,12.5097 C14.1099,11.6522 13.4988,10.9984 12.5048,10.9984 L12.5048,10.9984 Z" id="Shape"></path>
                                    <rect id="Rectangle-path" x="11.0334" y="15.2138" width="2.9057" height="8.7388"></rect>
                                </g>
                            </g>
                        </g>
                    </g>
                </g>
            </g>
        </g>
    </g>
</svg>