<?xml version="1.0" encoding="utf-8"?>
<!-- Generator: Adobe Illustrator 19.0.0, SVG Export Plug-In . SVG Version: 6.00 Build 0)  -->
<svg version="1.1" id="Layer_1" xmlns:sketch="http://www.bohemiancoding.com/sketch/ns"
	 xmlns="http://www.w3.org/2000/svg" xmlns:xlink="http://www.w3.org/1999/xlink" x="0px" y="0px" viewBox="-92 173.9 411 495"
	 style="enable-background:new -92 173.9 411 495;" xml:space="preserve">
<title>palm-R</title>
<desc>Created with Sketch.</desc>
<g>
	<path d="M67.6,302.8c-0.8,0.9-1.3,1.4-1.3,1.4C66.7,303.7,67.2,303.2,67.6,302.8z"/>
	<path d="M-91.3,352.8c0.1,0.7,0.1,1.1,0.1,1.1C-91.2,353.5-91.2,353.2-91.3,352.8z"/>
	<path d="M-21.6,367.2c0.6,0.5,0.9,0.7,0.9,0.7C-21,367.7-21.3,367.5-21.6,367.2z"/>
	<path d="M-19,359.6c1.5,0.2,2.5,0.3,2.5,0.3C-16.8,359.7-17.7,359.6-19,359.6z"/>
	<path d="M-72,339.9c0,0,3-3,8.5-7.6C-66.7,334.8-69.5,337.4-72,339.9z"/>
	<path d="M-26.1,360.2c0.2,0.5,0.3,0.7,0.3,0.7C-25.9,360.6-26,360.4-26.1,360.2z"/>
	<path d="M-15.5,355.6c0.5,2.1,1.1,3.3,1.1,3.3C-14.8,357.8-15.2,356.7-15.5,355.6z"/>
	<path d="M-5.8,350.3c0.1,1,0.2,1.6,0.2,1.6C-5.7,351.4-5.8,350.8-5.8,350.3z"/>
	<path d="M19.2,357.6c0.1,0.2,0.2,0.3,0.2,0.3C19.3,357.8,19.3,357.7,19.2,357.6z"/>
	<path d="M-83.8,328.7c-0.2,0.8-0.2,1.2-0.2,1.2C-83.9,329.5-83.9,329.1-83.8,328.7z"/>
	<path d="M-81.5,321.9c-1,2.1-1.8,4.4-2.3,6.8C-83.5,327.4-82.9,325-81.5,321.9z"/>
	<path d="M-51,315.9c0,0,24.4-17.9,46.3-27.5C-19.7,293.9-40.9,303.4-51,315.9z"/>
	<path d="M239.6,254.8c0.1,0.1,0.3,0.2,0.4,0.3C240,255.1,239.9,255,239.6,254.8z"/>
	<path d="M200.2,280c0.2,0.1,0.4,0.2,0.6,0.3C200.6,280.2,200.4,280.1,200.2,280z"/>
	<path d="M200.7,280.3c0.8,0.4,1.3,0.6,1.3,0.6C201.6,280.7,201.1,280.5,200.7,280.3z"/>
	<path d="M191.8,282.8c1,0.8,2.1,1.5,3.2,2.1C195,284.9,193.7,284.2,191.8,282.8z"/>
	<path d="M29.8,369.8c-2.3,0.1-3.8,0.1-3.8,0.1C27.2,369.9,28.5,369.9,29.8,369.8z"/>
	<path d="M41.4,338c0.1,0.1,0.3,0.1,0.4,0.2C41.7,338.2,41.6,338.1,41.4,338z"/>
	<path d="M41.9,338.2C41.9,338.2,41.8,338.2,41.9,338.2C41.8,338.2,41.9,338.2,41.9,338.2z"/>
	<path d="M54,376.9l-3.9,5.2c-8,24.5,1.8,32.8,1.8,32.8C41.7,400.1,54,376.9,54,376.9z"/>
	<path d="M43.3,392.9c-0.7,11.2-4.3,26-4.3,26c4.3-8.9,6-28,6-28L43.3,392.9z"/>
	<path d="M38.8,400.2c-1.8,5.8-1.8,16.7-1.8,16.7c1.3-2.6,3.1-19,3.1-19L38.8,400.2z"/>
	<path d="M92.3,376.1c0.1,1.2,0.2,1.8,0.2,1.8C92.4,377.3,92.4,376.7,92.3,376.1z"/>
	<path d="M118,214.9c0.2-0.2-6.7-6.3-15.6-13.1c-8.7-7.1-16.5-11.9-16.4-11.9c0,0.1,6.8,6,15.5,13.1
		C110.5,209.8,118.2,214.6,118,214.9z"/>
	<path d="M69,266.9C69,266.9,69,266.9,69,266.9C69,266.9,69,266.9,69,266.9z"/>
	<path d="M119,230.9c-0.1,0.1-6.1-7.5-16-13.6c-9.9-5.8-18.3-9.7-17.9-10.4c-0.5,0.6,7.3,5.9,17.2,11.7
		C111.9,224.6,118.9,231,119,230.9z"/>
	<path d="M99.6,231.1c-11.4-5.5-21.7-7.1-21.6-7.2c0,0.2,9.7,3.1,20.9,8.6C110,238.1,119,243,119,242.9
		C119,243,110.8,236.8,99.6,231.1z"/>
	<path d="M119,226.9c0,0.1-6-7.2-15.3-13.9c-8.9-7.2-17.8-10.2-17.7-10.1c0,0,8.1,4.3,16.9,11.4C112,220.9,118.9,226.9,119,226.9z"
		/>
	<path d="M107.8,192.6c5.2,6.7,9.1,12.3,9.2,12.3c0,0-2.8-6.5-8-13.3c-4.7-6.5-11.7-12-10.9-8.8C97.5,179.8,103.1,186.2,107.8,192.6
		z"/>
	<path d="M71,250.9C71,250.9,71,250.9,71,250.9C71,250.9,71,250.9,71,250.9z"/>
	<path d="M137,185.9c0.1,0.1-4.5,5-9.8,11.6c-5.3,6.5-7.8,13.3-7,13.4c-0.7-0.3,3-5.9,8.3-12.5C133.7,192,137.1,185.9,137,185.9z"/>
	<path d="M116,192.9c0.1-0.1,1.1-4.2,2.3-9.4c1.9-4.9,1.4-9.7,1.1-9.6c0.3,0.2-0.7,4-2.6,9.3C115.6,188.4,116.1,193,116,192.9z"/>
	<path d="M159,227.9C159,227.9,159,227.9,159,227.9C159,227.9,159,227.9,159,227.9z"/>
	<path d="M311.6,319.2c-16.7-14.2-53.2-25.1-53.2-25.1c29.9,5.1,60.6,26.6,60.6,26.6c-13.5-10.5-27.6-19.1-59.9-27.9
		c-22.1-6-52.7-7-76.1-5.1c-1.3-0.7-3.1-1.8-5.1-3.3c-0.9-1-1.9-2.4-3-4c5.3,4.9,10.1,6.3,10.1,6.3c-5.7-2.9-9.8-6.9-12.6-10.5
		c-0.9-1.8-1.6-3.7-2.2-5.8c0.4,0,0.7,0,1,0c3.6,5.4,10.4,13.1,20.8,16.3c0,0-12.3-5.4-19.4-16.3c1,0,1.7,0,2.1,0
		c3.2,4,8.1,8.9,15.3,12.3c0,0-14.5-8.9-18.3-19.4c0.5-0.4,1-0.7,1.5-1.1c4.5,10.6,13.2,17,17.8,19.8c0.3,0.2,0.6,0.4,0.8,0.6
		c-0.2-0.1-0.4-0.3-0.5-0.4c1.7,1,2.7,1.5,2.7,1.5c-2.3-1.4-4.4-3-6.2-4.6c-6.7-6.5-12-15.3-13.4-17.7c0.1-0.1,0.3-0.2,0.4-0.3
		c8.5,15.8,29.2,23.6,29.2,23.6c-16.1-6.7-25.3-19.8-28.1-24.4c0.2-0.1,0.4-0.3,0.6-0.4c5.4,9.6,18.8,17.3,23.7,19.9
		c-12.3-6.5-19.4-16.4-21.9-20.3l3.6,1.9c14.2,18.7,34.2,21.4,34.2,21.4c-15.1-3.3-26-13.5-31.7-20.1l2.7,1.4
		c7.9,8.2,18,10.7,18,10.7c-5.2-2.4-9.3-5.2-12.5-7.9l6.8,3.5c5,3.2,8.7,4.4,8.7,4.4c-13.2-7.1-21.3-16.9-23.7-20
		c0.8-0.5,1.6-1,2.4-1.4c0.1,0.1,0.2,0.2,0.3,0.3c0,0,0,0,0,0.1l0,0c12.3,14.8,25,18,25,18c-6.4-2.5-12.6-7.4-17.3-11.7
		c10.3,8.9,20.3,12.7,20.3,12.7c-15.3-8.2-24.3-17.8-26.5-20.3c0.3-0.2,0.7-0.3,1-0.5c14.4,16.5,30.5,22.8,30.5,22.8
		c-14.4-7.1-26.7-20.1-29.6-23.3c0.4-0.2,0.8-0.4,1.2-0.5c6.5,6.2,15.7,12.3,21.4,15.8c0,0,0,0,0,0l0,0c2.2,1.4,3.8,2.3,4.6,2.8
		l3.4,3.2l-23.6-24l-0.3,0.1c0.3-0.1,0.7-0.2,1-0.3l27.8,24.3l-25.9-24.1l11.7,8.8c2.5,3,4.3,5.3,4.3,5.3c-0.8-1.3-1.7-2.7-2.6-4
		l10.6,8l-11.7-9.5c-3.2-4.2-6.8-8-8.7-10c0.8-0.1,1.6-0.3,2.3-0.4c4.5,3.6,16.2,16.9,16.2,16.9c-1.6-2.5-4.7-6.3-7.7-9.7l2.7,2.7
		l-8.7-10.2c0,0,0.1,0,0.1,0c5.9,5,18.6,20.2,18.6,20.2c-5.1-7.9-14.6-17.8-17.1-20.3c1.3-0.1,2.5-0.1,3.7-0.1
		c7.9,5,16.4,16.4,16.4,16.4c-4.3-8.1-10.9-13.7-14.4-16.3c0.7,0,1.5,0.1,2.2,0.2c7.7,4.2,16.2,11.1,16.2,11.1
		c-4.7-5.1-10.5-8.8-14.2-10.9c0.6,0.1,1.1,0.2,1.7,0.3c5.5,2.1,12.6,5.6,12.6,5.6c-2.3-1.7-4.7-3.1-6.8-4.1
		c6.7,2.1,11.1,5.1,12.4,6c-6.8-5.1-13.5-8-20.1-9.2c7.3,0.4,14.5,3.1,14.5,3.1c-8.2-3.8-15-4-18.8-3.6c0,0-0.1,0-0.1,0l-1.1-0.1
		c0,0,0.1,0,0.1,0c-0.2,0-0.5,0-0.7,0c4-1.4,11.6-1.6,11.6-1.6c-6.8-1.1-11.1,0.4-12.9,1.3c0.8-1.5,2.8-2.4,4.5-3
		c2.1,0.2,3.4,0.6,3.4,0.6c-1.1-0.3-2.1-0.6-3-0.7c0.3-0.1,0.5-0.2,0.7-0.2c2-0.1,3.3,0.1,3.3,0.1c-0.8-0.1-1.7-0.2-2.4-0.3
		c0.3-0.1,0.4-0.1,0.4-0.1c-0.4,0-0.7,0-1.1,0.1c-1.5-0.1-2.9-0.1-4.1,0c-9.5-0.8-13.9,3.9-15.3,6c-1,0.3-2,0.6-3,1
		c0.8-3,4.2-10,17.5-8.6c0,0-15.4-3.7-18.7,9c-0.7,0.2-1.3,0.5-2,0.8c0.9-6.7,10.7-10.3,10.7-10.3c-3.5,0.5-6,1.8-7.8,3.3
		c-0.7,0.3-1.8,0.9-3,1.8c-0.6,0.3-1.3,0.6-2,1c1.1-0.8,1.8-1.2,1.8-1.2c-1.8,0.6-3.5,1.5-4.9,2.6c-2.8,0.7-6.6,2.3-10.2,5.9
		c-1.3,0.7-2.5,1.4-3.7,2.2c2.8-3.5,5.9-5.7,5.9-5.7c-4.2,2.1-6.9,5-8.7,7.8c-4,3.3-6.9,7.1-8.8,9.9c-0.8,0.9-1.6,1.8-2.2,2.6
		c-3.8-0.2-8.2-0.3-12.8-0.3c-0.9,0-1.7,0-2.5,0c0,0,0,0,0,0c0,0,0,0-0.1,0c-0.7,0-1.4,0-2,0c0.1,0,0.1-0.1,0.1-0.1c0,0,0,0-0.1,0.1
		c-0.6,0-1.2,0-1.8,0c1.8-1.3,3-2.1,2.9-2.1c0,0.1-1.6,0.8-4,2.1c-1.3,0-2.5,0.1-3.7,0.1c3.2-2.7,5.5-4.4,5.6-4.2
		c-0.1-0.3-3.3,1.3-7.1,4.3c-0.1,0-0.2,0-0.3,0c4.7-4.3,8.5-7.3,8.4-7.3c0,0-4.9,2.7-10.1,7.4c-0.5,0-1,0-1.5,0.1
		c3.8-3.6,6.3-6.8,6.6-6.4c-0.3-0.4-3.9,2.6-8.1,6.5c-0.1,0-0.1,0-0.2,0c0.6-0.6,1.3-1.2,2-1.9c3-3,5.7-5.6,7.4-7.1
		c0.9-0.4,1.8-0.8,2.8-1.2c13-6.7,23.8-11.1,24.1-10.1c-0.1-1.1-11.8,2-24.7,8.7c-0.4,0.2-0.7,0.3-1.1,0.5c1.1-0.9,1.7-1.4,1.8-1.4
		c0-0.1-1.5,0.7-3.7,2.2c-0.9,0.4-1.7,0.8-2.5,1.2c0,0,0,0,0.1-0.1c2-1.1,4.2-2.4,6.3-3.6c13.8-6.5,24.5-12.6,24.8-11.7
		c-0.2-1-11.8,3.8-25.5,10.3c-0.7,0.4-1.3,0.8-2,1.1c1-1,1.5-1.6,1.5-1.6c0,0-1.4,1-3.4,2.8c-2.2,1.3-4.2,2.6-6.2,3.7
		c2.9-3.6,5.4-5.6,5.6-5.5c-0.1-0.3-4.6,2.1-8,7c-0.3,0.2-0.6,0.4-0.9,0.6c0.3-0.3,0.6-0.7,0.9-1.1c1.5-1.7,2.8-3.4,3.8-4.9
		c2-1.2,4.1-2.4,6.4-3.6c12.1-7,22-12.9,21.9-13c0,0.1-10.4,4.6-22.7,11.7c-1.3,0.7-2.6,1.4-3.8,2.2c0.3-0.6,0.5-0.9,0.5-0.9
		c0,0-0.4,0.5-1.1,1.2c-2.6,1.6-4.9,3.2-7,4.8c0.5-1,1-1.8,1.5-2.6c2.9-2.2,6.2-4.6,9.9-7c11.8-8,22.7-12.3,22.6-12.4
		c0.1,0-11.6,3-23.5,11.1c-4.9,3.2-8.9,6.5-12.1,9.4c0.3-0.4,0.5-0.8,0.8-1.2c2.4-4.3,4.6-7.4,4.8-7.4c0-0.1-3.2,2.5-5.6,6.8
		c-0.9,1.3-1.6,2.6-2.1,3.8c-0.2,0.2-0.5,0.5-0.7,0.7c0.5-1.4,1.5-3.5,3.1-5.7c1.5-2.1,2.9-3.9,3.9-5c0.1-0.1,0.2-0.2,0.3-0.3
		c2.4-1.3,5.1-2.8,8-4.3c10.4-5.6,19.1-9.8,19-10c0.1,0.1-9.1,2.9-19.4,8.5c0.7-0.5,1.4-1,2.2-1.5c10.9-7.6,20.2-13.1,20.3-13
		c0-0.1-4.7,1.8-11.1,5.5c6.3-4.4,10.8-7.2,11-7.4c-0.6,0.4-10.5,4.8-21,12.8c-3.8,3-7.2,6-10,8.7c-0.6,0.3-1.1,0.7-1.6,1
		c0.9-1.6,1.6-2.5,1.7-2.5c0-0.1-1.7,1.2-3.3,3.6c-0.6,0.4-1.2,0.8-1.8,1.1c0.1-0.2,0.2-0.4,0.3-0.6c0.7-1.5,1.4-2.9,1.9-4
		c3.1-2.7,7.5-6.3,12.7-10.1c10.4-7.3,19.2-13.1,19.2-13c-0.1-0.1-8,3.6-17.6,10.1c10.6-8.7,19.6-15.1,19.6-15.1
		c0-0.1-10.2,5.3-21.2,14.4c-7,6.2-12.7,12-15.6,15.4c0.6-1.6,0.8-3.2,0.9-4.3c3-3.3,7.9-8.3,14.2-13.5c10-9,19.7-14,19.8-14
		c0.1-0.1-10.6,3.7-20.7,12.9c-6,4.9-10.5,10.2-13.2,13.7c0-0.4-0.1-0.6-0.1-0.6c0.1,0.1,0,0.4-0.1,1c-0.7,0.9-1.3,1.7-1.7,2.4
		c0.1-1.3,0.2-2.7,0.3-4c2.4-2.6,7.7-7.8,15-13.1c9.1-8.3,17.6-13.3,17.7-13.3c0-0.1-9.5,3.8-18.6,12.1c-6.9,5-11.8,10.7-14,13.7
		c0-0.4,0-0.8,0.1-1.2c2.5-2.5,8.1-8.2,15-14.4c8.9-9,17.6-14.1,17.6-14.2c0.1,0-9.6,4-18.6,13c-6.7,6-11.7,12.1-14,15.1
		c0-1,0.1-2,0.1-3c1.7-2,7-7.6,13.7-13.4c8.5-7.4,15.2-13.4,15.7-12.7c-0.4-0.8-8.3,4.2-16.7,11.6c-6.7,5.8-11.2,11.8-12.7,14.2
		c0-1.5,0-3.1,0-4.5c1.8-1.9,7.4-7.3,14.4-13.4c8.4-7.6,16.1-12.8,16-12.9c0.1,0.1-8.5,4.1-17,11.8c-6.9,6-11.8,12.1-13.4,14.3
		c0-0.6,0-1.1,0-1.7c1.5-1.7,6.2-7,12.4-12.6c7.3-7.1,14.1-11.8,14-11.9c0,0-1.2,0.6-3.3,1.8c3.2-2.3,5.3-3.8,5.3-3.8
		c0.1,0.2-8.3,3.8-16.9,11c-5.7,4.9-9.7,10.1-11.7,12.9c0-0.5,0-1-0.1-1.5c1.3-1.8,5.7-7,12-12.5c7.1-7.1,13.3-12.2,13.6-11.9
		c-0.2-0.5-7.5,3.7-14.7,10.8c-0.9,0.8-1.7,1.5-2.5,2.3c1.3-1.3,2.6-2.7,4.1-4.1c7.4-7.4,14.1-12.9,14-13c0.1,0.1-7.6,4.4-15.1,12
		c-6.5,6.4-10.5,12.8-11.6,14.5c-0.1-1-0.1-2-0.2-3c1.6-2.1,4.9-6.3,9.2-10.6c6.1-6.4,10.2-12.4,10.7-11.8c-0.1-0.1-0.3,0-0.6,0.2
		c2.7-2.7,4.5-4.3,4.6-4.2c-0.2-0.3-7,4.2-13.6,11.5c-6.5,6.5-10.1,13.3-10.4,14.3c0-0.3-0.1-0.6-0.1-0.9c0,0,0.1,0,0.1,0
		c0,0,0,0-0.1-0.1c-0.1-1.2-0.2-2.4-0.4-3.6c1.6-1.8,6.2-6.7,11.6-12.6c6.7-7.4,12.7-12.8,12.8-12.6c-0.1-0.2-7.1,4.1-13.9,11.6
		c-5.3,5.8-9.2,11.3-10.5,13.4c-0.1-0.7-0.2-1.4-0.3-2.1c0.1-0.3,0.3-0.8,0.6-1.3c1.7-2.2,5.6-7.1,11-12.3
		c6.8-7.3,12.2-13.4,12.2-13.4c0,0-6.4,5.1-13.3,12.4c-0.3,0.3-0.5,0.5-0.7,0.8c4.4-6.5,8.8-10.3,9.1-10.1c-0.1-0.4-6.8,3.4-11.5,11
		c-4.5,4.6-6.7,9.8-7.3,12.4c-0.3-2-0.6-4-0.9-5.9c0.4,0.3,0.7,0.4,0.7,0.5c0,0-0.3-0.2-0.7-0.7c-0.1-0.4-0.1-0.8-0.2-1.2
		c0.8-2.3,2.2-5.6,3.9-9.2c3-6.5,7-10.9,7-10.9c0.1,0-5.2,3.4-8.4,10.3c-1.5,3-2.3,5.9-2.8,8.2c-0.2-1-0.4-1.9-0.6-2.9
		c0.5-1.3,2.5-5.6,5.9-10.2c3.5-6,6.7-10.4,6.9-10.3c-0.1-0.2-4.8,3.6-8.2,9.6c-3.3,4.4-4.4,8.9-4.7,10.6c-0.2-1-0.4-1.9-0.6-2.8
		c0.6-2,1.9-5.7,4.4-9.4c3.6-5.6,7.2-9.9,7.1-10c0.1,0-4.7,3.3-8.4,9.2c-2.2,3.4-3.1,6.7-3.4,9c-0.2-0.8-0.4-1.5-0.6-2.2
		c0-0.1,0.1-0.2,0.1-0.2c0.2,0.2,0.3,0.3,0.3,0.3c0,0-0.1-0.1-0.3-0.4c0.6-1.8,1.6-4.4,3.1-7.2c1.9-5.5,4.1-9.4,4.2-9.4
		c0-0.1-1,0.8-2.2,2.5c0.7-2.1,1.2-3.5,1.2-3.5c0.1,0.1-2.7,3.4-4.6,8.6c-1.2,3.3-1.8,6.4-2.1,8.1c-3.6-13.4-7.9-21.2-8.2-20.6
		c0.3-0.5,3.5,5.9,6.6,16.9c-0.8-1.4-2.5-4.1-5.1-6.4c-3.2-3.8-6.5-6.6-6.5-6.5c0,0,1.1,1.9,3,4.5c-4-4.7-7.9-7.7-8-7.5
		c0.2-0.1,4.1,4.6,8.8,11c3.4,4,6.9,7.1,8.7,8.8c0.2,0.6,0.3,1.3,0.5,2c-0.1,0.8,0,1.3,0,1.2c0,0,0-0.2,0.1-0.6
		c0.7,3.1,1.3,6.4,1.9,9.9c-0.4-0.4-0.9-0.8-1.4-1.2c-1.9-2.5-4.9-6.4-8.2-10.8c-5.9-7.8-13.5-11.3-13.4-11.2c0,0,6.4,4.5,12.2,12.2
		c1.6,2.1,3.2,4,4.6,5.6c-1.6-1.7-3.4-3.5-5.4-5.4c-7.2-7.4-14.9-10.8-14.4-11.4c-0.4,0.5,5.9,4.9,12.7,11.8
		c-7.4-5.9-14.7-8.9-14.7-8.8c0.1,0,6.9,4.3,14.8,10.7c2.7,1.9,5.2,3.6,7.4,5c2.7,2.5,4.8,4.4,6,5.4c-0.1,0.5-0.1,0.8-0.1,0.8
		c0,0,0.1-0.2,0.2-0.7c0.1,0.1,0.1,0.1,0.2,0.2c0.1,0.7,0.2,1.4,0.3,2.1c-2.3-2.1-7.4-6.5-13.7-10.8c-7.9-7.1-15.9-11.1-16-10.8
		c0.2-0.2,7,4.9,15.1,12c6.6,4.5,12.3,8.3,14.7,10c0.3,2.4,0.6,4.9,0.8,7.5c-2.6-2.5-8.5-7.9-16.3-13c-10-7.7-19.2-12.7-19.3-12.5
		c0.2-0.1,8.3,5.9,18.4,13.7c8,5.2,14.5,10.1,17.3,12.2c0.1,0.9,0.2,1.9,0.2,2.9c-2.4-2.4-8.2-7.9-16-13.1
		C93.6,202.5,84,198.7,84,198.9c0.1-0.2,8.8,4.8,18.9,11.9c8,5.3,14.4,10.2,16.9,12.2c0.1,2.3,0.2,4.7,0.3,7.1
		c-2.3-3.2-9-10-18.4-15.7c-6.3-3.5-12-6.6-16.3-8.7c-4.4-2-7.5-1.7-7.5-1.9c0,0.2,3,0.3,7.1,2.5c4,2.3,9.7,5.8,15.9,9.3
		c9.4,5.7,16.8,12,19.1,14.7c0,0.1,0,0.2,0,0.2c-0.1,0.1-0.2,0.2-0.2,0.2c0,0,0.1-0.1,0.2-0.1c0,0.8,0,1.5,0,2.3
		c-2.3-2.3-9.2-9.1-19.3-14.7c-12.7-6.6-23.3-10.6-22.8-11.4c-0.6,0.8,9.6,6.3,22,12.7c10.1,5.6,17.7,11.7,20.1,13.6
		c0,1.6,0,3.1-0.1,4.8c-2.1-2.2-7.9-8.4-16.1-14c-10.8-6.6-21-8.4-21-8.1c0-0.3,9.7,3,20.2,9.4c8.2,5.5,14.6,11,16.9,12.9
		c0,0.9-0.1,1.8-0.1,2.7c-2.6-2.3-10-8.2-19.6-14c-12.7-6.3-23.4-9.7-23.4-10c-0.2,0.3,10.2,5.2,22.6,11.4c2.6,1.5,5,3,7.3,4.4
		c-2.6-1.4-5.5-2.8-8.6-4.1c-13-5.1-23.3-9.6-23.3-9.7c-0.1,0.1,9.7,6.1,22.8,11.2c12.6,4.9,21.7,11.4,22.2,11.8
		c-0.1,1.6-0.2,3.3-0.3,5c-0.9-0.8-2.3-1.9-4.1-3.2c-0.3-0.6-0.5-0.8-0.5-0.7c0.1-0.1,0.2,0.2,0.5,0.7c-3.6-2.6-8.7-6.1-15-9
		c-12-6.4-22.6-9.5-22.5-9.7c-0.1,0.1,9.9,4.6,21.8,11c6.7,3.2,12.3,6.5,16.1,8.9c0.4,1,0.8,2.3,1.3,4c-1-0.5-2.3-1.2-4-1.9
		c-1.3-1.2-2.2-2-2.2-2c0,0,0.3,0.5,0.9,1.4c-0.3-0.2-0.7-0.3-1-0.5c-3.6-2.8-8.3-6-13.9-8.9c-13.2-7.5-25.1-10.8-25-11
		c-0.1,0.2,11.2,4.9,24.3,12.3c3.2,1.6,6.1,3.3,8.7,4.9c-2.6-1.2-5.4-2.4-8.4-3.7c-12.4-6-23.5-8.1-23.6-7.4
		c0.2-0.6,10.6,2.8,23,8.8c5.4,2.3,10.4,4.3,14.3,5.7c0,0,0,0,0,0c1,1.4,2.5,3.5,4.1,6c-1-0.6-2.2-1.2-3.4-1.9
		c-1.6-1.5-2.8-2.2-3-1.6c-3-1.6-6.5-3.3-10.2-4.9c-11.1-7.1-21.8-9.6-21.8-9.3c0.1-0.2,9.9,3.5,21.1,10.6
		c5.3,2.3,10.1,4.5,13.9,6.2c1.2,1.4,2.5,3.3,3.7,5.1c0.4,0.6,0.9,1.2,1.3,1.8c-1-0.6-2.3-1.5-3.9-2.5c-3.4-4.3-7.1-6.3-7.1-6.2
		c0,0,2.1,1.7,4.6,4.7c-3.9-2.4-8.9-5.4-14.4-8.6c-12.5-8-24.2-11.6-24.2-11c0.2-0.4,11,4.4,23.5,12.4c1,0.5,1.9,1.1,2.8,1.6
		c-0.4-0.2-0.7-0.4-1.1-0.5c-13-8-25.3-10.7-25.2-10.5c0.1-0.2,11.6,3.9,24.5,11.8c4.7,2.3,9,4.5,12.7,6.3c0.9,0.8,1.8,1.8,2.7,2.8
		c-1.3-0.6-2.7-1.3-4.2-2c-2.8-2-4.8-3-4.8-3c0,0,1,0.7,2.5,1.9c-3.4-1.5-7.2-3-11.4-4.4c-14.1-5.8-26.2-8.4-26.1-8.6
		c0,0.1,11.5,4.2,25.5,9.9c2.3,0.8,4.6,1.6,6.8,2.4c0.1,0.1,0.2,0.2,0.3,0.3c-1.9-0.8-4-1.5-6.1-2.2c-14.1-5.6-26.5-5.5-26.5-5.3
		c0-0.1,6.3,0.6,15.1,3.1c0.6,0.7,7.5,3.5,16,6.7c0.4,0.3,0.8,0.6,1.3,1c-0.6-0.3-1.2-0.5-1.8-0.8c-10.8-5.4-20.6-7.2-20.6-7
		c0.1-0.2,9.2,3.1,20,8.5c2.4,1,4.7,2,6.8,3c0.1,0.1,0.3,0.2,0.4,0.4c-2.8-1.3-5.9-2.7-9.2-4.2c-12.3-6.1-23.4-7.1-24-7.5
		c0.5,0.5,11.3,2.9,23.4,9c2.2,1,4.4,2,6.5,2.8c1.4,1,3.2,2.2,5.3,3.8c-0.3-0.1-0.6-0.1-0.9-0.2c-3.6-2.4-6.4-3.4-6.3-3.4
		c0,0,1.8,1.1,4.4,2.9c-3.7-1.2-7.8-2.6-12.3-3.9c-15.1-3.6-27.2-7.8-27.1-8.1c-0.1,0.3,11.4,5.9,26.7,9.6c0.3,0.1,0.7,0.2,1,0.3
		c-0.3-0.1-0.6-0.1-0.9-0.2c-11.3-2.1-20.7-5.6-24.2-6.5c-11.3-8.5-24-16.4-35.3-21C7,226.2-5.7,224.8-19,224.9
		c0,0,29.1,1.4,50,12.3c0,0-27.7-10.5-44.7-9.7c0,0,29.9,3.4,42.6,10.4c-6.4-1.7-16-3.4-26-2.8c0,0,9.2,0.7,18.9,2.5
		c-7.5-0.4-19.4-0.1-32.6,3.7c0,0,21-3.9,36.8-2.9c4.2,0.9,8.2,2.1,11.4,3.5c-4.5-1-11.6-1.8-21.2-0.7c0,0,8.3-0.3,17.1,0.9
		c-7-0.1-20.1,0.5-33.5,4.8c0,0,22.1-5.2,38.8-3.9c4.1,0.9,8,2.1,10.9,3.9c0,0-15.4-8.6-44.6,4.5c0,0,27.2-11.8,45.7-3.2
		c0,0-13.8-5.4-31.7,1.3c0,0,18.3-4.6,31.9-0.7c-5.3-1.3-18.7-2.3-41.2,10.1c0,0,29.2-15.4,46-7.5c0,0-6.9-1.9-17.8,0.4
		c-5.4,0.2-11.2,1.1-16.8,3.5c0,0,4.7-1.4,11.6-2.1c-6.4,2-13.7,5.6-21.6,11.6c0,0,12-8.6,26.3-11.9c2.2-0.1,4.4-0.1,6.8,0.1
		c-5.6,0.9-12.6,3.2-20.4,8.1c0,0,12.8-7,25.3-7.6c5.5,0.8,11.1,2.5,16.2,5.6c-1.6-0.9-21.4-11.4-51.9,10.5c0,0,32.2-21.2,53.8-8.5
		c0,0-12.9-6.4-29.8-0.2c0,0,17.9-4.7,30,1.3c0.4,0.2,0.9,0.5,1.6,0.9c0.6,0.4,1.2,0.7,1.7,1.2c0,0-3.9-1.8-10.7-2.3
		c-5.6-0.9-12.6-0.9-20.6,1.1c0,0,4.7-0.9,11.2-0.9c-8.5,1-19.3,4.3-31.5,12.6c0,0,21.6-12.8,41-11.9c5,0.8,10.3,2.3,15.1,5.1
		c-3.7-0.6-6.1-1.2-6.4-1.1c0.3,0,3.4,1.2,8.2,2.2c0.9,0.6,1.8,1.3,2.7,2.1c0,0-19.7-13.5-51,8c0,0,28.6-18.4,51.5-6.5
		c0,0-25.7-5.4-43.2,10.2c-5.8-0.6-11.8-1-17.7-0.9c-56.7,0.6-118.8,10.1-110.8,70.9c-0.6-5.6-2.3-31.6,18-47.3
		c-27,27.8-13.1,50.4-13.1,50.4c-9.4-27.7,10.8-47.4,22.4-56c0.7-0.3,1.4-0.7,2.2-1c1.4-0.6,2.9-1.2,4.3-1.7
		c-14.3,8.1-20.9,18-24,24.8c6.9-14.5,25.1-24.2,36.9-29.1c2.4-0.7,4.7-1.3,7.1-1.9c-5.7,2.4-36.4,15.9-40.5,35c0,0,3.6-7.7,15-17.3
		c-11.6,11.8-12,22.3-12,22.3c3.6-25.2,48.8-41.1,57.4-43.9c2-0.3,3.9-0.5,5.8-0.8C-76.7,306.8-75,343.9-75,343.9
		c5.5-40.4,59.8-55.2,77.5-58.9c0.6,0,1.3-0.1,1.9-0.1c-0.4,0.1-0.9,0.3-1.3,0.5c-13.9,3.6-48.9,14.3-61,32.6c0,0,19.9-19,53.8-29.8
		c-0.2,0.1-0.4,0.2-0.6,0.3c0.4-0.2,0.9-0.3,1.3-0.5c3.3-1,6.7-2,10.3-2.8C-26.8,297.7-59,323.9-59,323.9
		c42.4-28.5,66.3-37.1,75-39.5c0.9,0,1.7,0,2.5-0.1c-39.2,14.3-68.4,36.4-82.1,48c27.2-22,76.3-43.5,85.8-47.6
		c-9.4,4.2-53.4,24.8-65,40.9c-7,9.6-1.6,19.9,5.6,28c0.4,0.5,0.9,1,1.4,1.5c5.3,5.6,11.4,10,14.1,12.2c-1.8-1.5-6.3-5.2-10.7-10.1
		c1.8,0.8,3.7,1.3,5.7,1.7c0.2,0.5,0.4,0.9,0.6,1.4c-0.1-0.3-0.3-0.8-0.5-1.3c2.9,0.5,5.6,0.6,7.5,0.8c-2-0.3-4.9-0.9-7.8-1.8
		c-2.6-9.5-4-39.5,62.3-72.8c0.5,0.1,1.1,0.1,1.6,0.2c-12.6,6-63.3,33-52.6,70.4c-2.4-9.7-3.8-39.5,53.8-70
		c-0.4,0.3-0.8,0.6-1.2,0.9c0,0,0.6-0.4,1.7-1.1c0.4,0.1,0.7,0.1,1.1,0.2c-11.3,5.7-49,29.2-45.8,64.7c-0.5-7.3,0.7-37.8,48-64.3
		c1.2,0.2,2.4,0.4,3.6,0.7c-1.3,0.9-2.7,1.9-4.1,3C31.2,296.1,4.3,314.5,0,335.9c0,0,6.6-20.5,41.2-43.2c-1.8,1.6-3.9,3.5-6,5.6
		c-52,40-29.2,60.6-29.2,60.6c-10.6-16.3,4-35.6,19.7-50c-2.7,3.4-5.2,7.1-7.2,11C5.8,335.3,7,346.9,7,346.9
		c1.4-7.1,4.3-13.6,8.1-19.5c-3.4,9.8-3.3,20.3,4,30.2c-1.4-2.1-9.9-15.8,0.5-36.4c2.8-3.4,5.9-6.6,9.1-9.5
		c-8.8,10.7-15.6,23.3-11.7,34.2c0,0-3.2-17.4,20.1-41c7.7-5.7,15.1-9.9,20-12.3c-42.4,25-38.1,53.4-38.1,53.4
		c1-32,37.3-51.1,45.3-55c0.2,0,0.3,0.1,0.5,0.1c-6,4.3-27.5,20.6-34.6,41c-0.2-0.1-0.3-0.1-0.3-0.1c0.1,0,0.2,0.1,0.3,0.1
		c-1.1,3.2-1.9,6.5-2.2,9.9c0,0-0.1,0-0.1,0c0,0,0.1,0,0.1,0c-0.1,1.5-0.2,3-0.1,4.5c-0.7-0.4-1-0.6-1-0.6c0.3,0.2,0.7,0.4,1,0.6
		c0.1,2.5,0.5,5,1.2,7.5c-5.6-1.1-9.3-2.1-9.3-2.1c3.2,1.3,6.4,2.3,9.5,3.1c0.1,0.3,0.2,0.6,0.3,0.9c0,0-0.1-0.3-0.2-0.9
		c2.5,0.6,5,1.2,7.4,1.6c0,1,0.1,2,0.2,3c-8.6,0.2-15.2,0.2-15.2,0.2c5.1,0.5,10.3,0.7,15.3,0.7c0,0.1,0,0.2,0,0.4
		c-7.8,0.3-16.8,0.6-26.4,0.6c0,0,26.4,1.7,45.5,0c-9.8,1.4-25.3,3.3-37.5,3.2c0,0,22.2,1.5,44.3-2.8c-0.8,0.9-1.7,1.9-2.5,2.8
		c-6.2,1.5-20.4,4.6-31.1,5.1c6.2-0.2,18.6-0.8,27.2-2.6c-7.1,2.1-22.5,5.6-36,1.9c0,0,17.8,7,36.9-1c-0.8,1-1.7,2-2.5,2.9
		c-0.5,0.3-1,0.6-1.6,0.9c-0.5,0.2-2.4,0.9-5.1,2c-7.4,1.9-18.6,3.5-30.7,1.1c0,0,11.8,3.1,25.4,1.2c-1.1,0.5-2.1,1-3.3,1.6
		c-5.3,1.6-11.4,2.8-18.2,2.9c0,0,6.1,0.7,14.5-0.9c-5.6,3.1-11.2,6.9-14.5,11.1c0,0,7.1-6.3,18.5-12c3.6-1,7.5-2.4,11.4-4.4
		c0.3-0.1,0.6-0.2,0.9-0.3c-0.9,1.2-1.8,2.3-2.7,3.4c-5.4,2.3-22.1,10.3-30.2,23.3c0,0,8-11.7,29-21.6c-0.2,0.3-0.5,0.6-0.7,1
		c-3.8,1.9-22.4,11.7-26.3,26.7c0,0,5.2-13.5,24.7-24.4c-0.3,0.4-0.6,0.9-0.9,1.3c-5.1,3.9-24.7,20.1-20.1,35.1
		c0,0-2.8-14.1,17.7-31.5c-1.3,2-2.5,4.1-3.5,6c-4.3,4.6-10,12.2-9.9,20.5c0,0,0.2-7.6,8.2-17.1c-3.8,8-5.2,15.2-3.4,21.1
		c0,0-2.1-8.1,8.3-26.3c0.6-0.5,1.2-1.1,1.8-1.6l-0.2-1.1c0.1-0.2,0.2-0.4,0.4-0.6c0.1,13-0.1,24.5-0.1,24.5
		c1.1-6.8,1.6-22.9,1.7-27c2.5-3.9,5.6-8.2,9.3-12.8c0.1,0,0.2-0.1,0.3-0.1c-8.7,24.1-1.3,34.9-1.3,34.9
		c-6.8-15.3,2.6-35.3,4.6-39.3c0.8-0.9,1.5-1.8,2.3-2.7c0.2-0.1,0.5-0.2,0.7-0.3c-11.7,25.5-4.4,37.3-4.4,37.3
		c-6.1-13.4,6.2-38.2,8.4-42.4c0.2-0.2,0.5-0.5,0.7-0.7c0,0,0,0,0.1,0l0.2-0.2c0.2-0.3,0.5-0.5,0.8-0.8c0.3,0,0.5-0.1,0.7-0.1
		c-15.6,30.5-8.2,45.3-8.2,45.3c-6.2-18.1,10-46.3,12-49.7c-20.6,36.4-8,57.7-8,57.7c-9.3-22.3,6.6-52.7,11.7-61.5
		c0.3-0.1,0.6-0.3,0.9-0.4l1.6-1.7c0,0-0.4,0.1-1.1,0.4c1.1-1.1,2.2-2.2,3.3-3.3c0.2-0.1,0.5-0.2,0.7-0.2
		c-23.5,40.3-14.1,60.7-14.1,60.7c-7.3-24.5,18.1-65,18.1-65l-0.4,0.3c0.1-0.1,0.2-0.2,0.4-0.4c0.2-0.1,0.4-0.1,0.5-0.2
		c-25.8,44.3-13.6,60.2-13.6,60.2c-8.8-17.4,11.6-55,15.5-61.9l0.6-0.6c0,0-0.1,0-0.3,0.1c0.1-0.1,0.1-0.2,0.2-0.3
		c0.1,0,0.1-0.1,0.2-0.1c0.9-0.2,1.4-0.3,1.4-0.3l0.7-0.9c-31.3,54.1-7.3,72.1-7.3,72.1c-11.3-13.6-7.5-34.2-1.6-50.4
		c-3,10.2-4.7,21.8-1.2,31.4c0,0-4.9-18.2,8.2-47.4c2.7-5.3,4.8-8.6,4.8-8.6l-0.6,0.6l0.4-0.9c1.3-1.2,2.7-2.4,4.1-3.7
		c0.3-0.1,0.6-0.1,1-0.2c-5,7.1-26.1,40.2-6.9,69.1c0,0-18.9-29.9,9.6-71.4l0.4-0.4c0,0-0.1,0-0.2,0.1c0.1-0.1,0.1-0.2,0.2-0.3
		l-0.6,0.4c-0.2,0.1-0.5,0.1-0.8,0.2c0.5-0.4,1-0.9,1.5-1.3c0.6,0.1,1.2,0.2,1.8,0.3c-0.1,0.1-0.2,0.3-0.3,0.4
		c0,0-21.9,31.9-11.9,62.9c0,0-4.8-20.3,5.2-46.6c-3.3,9.5-5.7,21-4.5,32.9c-0.4-5.4-0.1-22.9,14.6-49.7c0,0,0.1,0,0.1,0
		c-5.5,10.1-12.5,25.7-10.8,38.4c0,0-0.1-15.1,12.2-38.7c0.6-0.1,1.1-0.3,1.6-0.4c-4.4,9.6-8,24.1-1.6,40.1c0,0-6.1-16.2,4.7-41.5
		c0.2-0.1,0.5-0.3,0.7-0.4c-2.7,7.1-4.3,16.1-1.3,25c0,0-1.1-10.4,2.7-23.1c0.4,3.6,0.9,7.2,1.5,10.7c3,19.1,0,43.2,1,52.7
		c1,9.5,0,48.7,0,60.8s-1.5,38.7-0.5,44.2c1,5.5-0.5,11.5,1,28.1s1.5,33.1,1,39.2c-0.5,6-1.5,27.6-0.5,36.7c1,9,0.5,24.6,1,30.1
		c0.5,5.5,0.5,40.7,0.5,40.7h19.8c0,0-4.6-77.8-4.1-96.4c0.5-18.6-1-48.2-1.5-56.7c-0.5-8.5-5.1-50.2-3.1-62.8c2-12.6,1-64.3,0-77.8
		c-0.3-4.5-0.9-11.6-1.5-19.4c0.1-0.5,0.2-1.4,0.4-2.6c0.2,0.9,0.3,1.7,0.5,2.2c0.1,0.8,0.1,1.2,0.2,1.2l0-0.5l0,0.1l0-0.3
		c0.2-1.9,0.8-7.5,1.9-14.2c0.4-4.2,1.2-7.7,1.6-10.4c0.1-0.3,0.1-0.7,0.1-1c0.1,0,0.2,0,0.2,0c0.3,0,0.6,0,0.9,0c0,0.1,0,0.3,0,0.4
		c-0.7,2.7-1.7,6.7-2.4,11.5c-0.2,1-0.4,2.1-0.5,3.2c-0.2,2.6-0.2,5-0.1,7.2c-0.1,6.1,0.2,10.3,0.1,10.3c0.1,0,0.3-1.7,0.6-4.4
		c0.5,2.9,1.1,4.8,1,5c0.1-0.3-0.5-2.9-0.8-6.9c0.3-3.2,0.6-7.2,0.9-11.7c0.7-6.1,1.4-11.5,1.9-14.7c0.2,0,0.4,0,0.6-0.1
		c-0.1,0.9-0.4,2.3-0.8,4c-0.8,3-1.4,7.5-1.4,12.3c-0.3,4.7,0.1,9.3,0.9,12.3c0.7,3.1,0.8,5,0.8,5c0,0,0.3-2,0-5.1
		c-0.4-3.2-0.4-7.3-0.1-12.2c0-4.8,0.2-9,0.6-12.2c0.2-1.9,0.2-3.3,0.2-4.2c0.1,0,0.1,0,0.2,0c0.5,0.5,1,1,1.5,1.6
		c-0.6,2.7-2.1,9.2-2.1,17c-0.7,10.3,1.7,18.5,1.6,18.4c0,0-0.1-1.8-0.3-4.8c0.8,5.1,2.1,8.5,2.1,8.8c0.1-0.4-1.1-5.7-1.1-13.1
		c0.4,2.8,1,5.4,1.6,7.6c0.9,6.5,2.6,10.8,2.5,10.7c0,0-0.4-1.9-0.8-5.1c0.8,2.2,1.3,3.5,1.3,3.7c0.1-0.3-0.8-3.5-1.8-8.3
		c-0.3-3.2-0.5-7-0.4-11.1c0-1.1,0-2.1,0.1-3.2c0,1.5,0,3,0,4.6c-0.1,12.4,4.1,21.8,4.3,21.6c-0.2,0-2.8-9.5-2.7-21.6
		c-0.1-6.1-0.4-11.6-0.3-15.5c0-2.3,0.3-4.1,0.6-5.2c0.6,0.6,1.3,1.3,1.9,1.9l-0.1,0.4c-0.2,1.1-0.7,2.7-0.8,4.7
		c-0.5,4-0.8,9.6-0.6,15.7c0.2,12.4,3.1,22.1,3.1,22c0,0-0.8-6-1.3-14.4c1.1,6.4,2.9,10.7,3,10.6c-0.1,0-2.2-8.5-2.1-19.3
		c-0.6-8.1,0.1-15.1,0.5-18l0.9,0.9c-0.3,0.9-0.8,2.4-0.9,4.5c0,3.4-0.3,8.1,0.5,13.3c0.1,0.5,0.2,1,0.3,1.5c0,0.4,0,0.7,0.1,1.1
		c0.4,11.1,3.7,19.6,3.7,19.5c0,0-1.1-5.4-1.7-13.1c1.7,5.4,3.5,8.8,3.4,8.9c0.2,0-2-7.3-3.8-16.5c-0.5-8.8-0.8-16.1-0.3-18
		c0.4,0.4,0.8,0.8,1.1,1.2c-0.4,1.9-1.4,7-0.5,13c0.4,2.6,1,5.1,1.5,7.1c1.3,6.8,3,11.7,3,11.7c0.1,0-0.8-7.2-2.1-15.8
		c-1-7-1-12.9-1-15c0.5,0.5,0.9,0.9,1.4,1.4c-0.3,1.5-0.5,4.7,0.5,8.2l0.1,0.5l0,0.6c0,5.1,1.2,9.1,1.2,9.1c0,0-0.3-3-0.4-7.1
		c0.3,1,0.6,1.9,0.9,2.7c-0.1,1.7,0,3.6,0,5.5c0.4,9.5,2.6,16.9,2.6,16.9c0,0-0.6-7.4-1-16.5c0.3,1.4,0.6,2.2,0.7,2.1
		c-0.2,0-0.7-4.3-1-9.7c0-1.4-0.1-2.7-0.1-3.9c0-1.3,0.1-2.5,0.1-3.5c0-0.5,0-0.9-0.1-1.2l0-0.1c0.4,0.4,0.8,0.8,1.1,1.2
		c0,1.6-0.1,4.9,0.2,8.9l0,0.4c-0.1,2.8-0.2,6.1,0,9.7c0.3,9.6,2.7,17.1,2.6,17.1c0,0-0.1-1.7-0.4-4.5c1.1,4.3,2.4,7,2.4,7
		c0.1,0-2.1-8-2.5-18c0-1,0-2,0-2.9l0.1,0.1c0.1,2,0.3,4.2,0.6,6.4c1.4,11.1,6.4,19,6.3,19.6c0.2-0.6-3.4-8.9-4.8-19.8
		c-0.8-5.6-1.2-10.6-0.8-14.3c0.3-2.3,0.7-4,0.9-5c0.7,0.7,1.4,1.4,2,2l-0.2,0.4l0.3-0.3c0.4,0.4,0.8,0.8,1.2,1.2
		c-0.4,0.5-1.1,1.6-1.7,3.3c-0.8,2.5-1,6-0.7,9.9c0.8,7.7,3.2,13.5,3.1,13.5c0.1,0-0.7-6.2-1.5-13.7c-0.3-3.7-0.5-7.1-0.1-9.5
		c0.3-1.5,0.7-2.6,0.9-3.2l0.2-0.1c0.4,0.4,0.8,0.8,1.1,1.1l0,0.1c-0.4,0.7-1,1.7-1.3,3.3c-0.6,2.7-0.5,6.6,0,10.8
		c0,0.9,0.1,1.9,0.2,2.8c0.5,9.2,2.9,16.3,2.8,16.3c0,0-0.3-3.4-0.7-8.4c0.8,2.5,1.4,4.1,1.4,4.3c0-0.2-0.8-3.1-1.6-7.4
		c-0.1-1.6-0.2-3.2-0.3-5c-0.1-0.5-0.1-1.1-0.1-1.6l0,0.1c1.4,8.6,3.6,15.2,3.4,15.3c0.2,0-1.3-6.9-2.7-15.4
		c-0.4-2.3-0.7-4.5-0.8-6.5c0.2-3.4,0.7-6.1,1.2-7.2l0.7,0.8c-0.4-0.2-0.7-0.2-0.6-0.3c0,0,0.3,0.2,0.8,0.4l0.8,1
		c-0.5,1.9-1.8,8-0.8,15.4c1.1,8.8,3.1,15.7,3,15.7c0.1,0-1.1-7.1-2.3-15.8c-1-7.2-0.2-13.3,0.1-15.2c0.3,0.4,0.6,0.8,1,1.2
		c-0.3,2.1-1.1,8-0.3,15.1c1.1,8.7,2.9,15.6,2.8,15.6c0.1,0-0.9-7.1-2.1-15.7c-0.8-6.8-0.5-12.7-0.4-14.9c0.5,0.6,1,1.3,1.5,2
		c-0.1,0.8-0.3,2.1-0.6,3.6c-0.3,3,0.1,7.2,0.8,11.7c0.7,4.5,1.5,8.6,2,11.6c0.6,3,1.7,4.6,1.6,4.6c0,0-0.8-1.7-1.3-4.7
		c-0.4-3-0.9-7.1-1.6-11.6c-0.7-4.5-1.3-8.6-1.2-11.6c0.2-1.5,0.3-2.7,0.4-3.5c0.5,0.7,1,1.4,1.5,2.1c0.1,2.5,0.3,6.9,1.5,12
		c1.8,7.6,3.5,13.7,3.5,13.7c0,0-0.9-6.3-2.7-13.8c-1.1-4.6-1.6-8.9-2-11.4l0.5,0.7c0.6,1.8,1.4,4.3,2.2,6.9c2,5.5,4,9.8,4.1,10.1
		c0-0.2-1.4-4.8-3.3-10.3c-0.6-1.9-1.2-3.6-1.8-5c5.7,8.2,11,17.1,11,17.1c-0.3-0.6-3.9-9.8-10.2-19.1c0.9,0.9,1.9,2,3,3.1
		c4.3,3.8,6.8,7.5,6.6,7.7c0.2-0.1-1-2.9-3.7-5.9c3,3.2,5,5.9,5.2,6c-0.3-0.3-2.4-4.5-6.6-8.5c-2-1.8-3.9-3.2-5.5-4.2l-0.3-0.2
		c-0.8-1.1-1.5-2.1-2.4-3.1l0.2,0c2,1.1,4.4,2.6,6.8,4.5c2.9,2.5,5.3,5,7,6.9c1.3,2.1,2.3,3.4,2.3,3.3c-0.1,0-0.8-1.3-2-3.6
		c-1.6-2-3.8-4.7-6.8-7.2c-1.2-0.9-2.4-1.7-3.5-2.4c1.3,0.6,2.8,1.1,4.4,1.6c5.9,2,10.5,4,10.4,4.3c0.2-0.2-4.2-3-10.1-5
		c-2-0.7-3.9-1.3-5.5-1.9l16.2,2.9l-20.9-5.2l-0.8-1c1.3-0.1,6.3,0.9,12,2.1c6.8,1.5,11.8,4.3,11.8,4.3c0,0-4.7-3.4-11.6-5
		c-5.9-1.2-11-1.7-12.2-1.4l-0.1-0.1c2.1-0.2,6-0.3,10.6,0.4c6.2,1.2,11.3,3,11.6,3.5c-0.2-0.5-4.9-3-11.5-4.3
		c-4.7-0.7-8.8-0.2-10.8,0.2c-0.4-0.4-0.7-0.8-1.1-1.2c2-0.5,8.1-0.7,15.2,0.2h0c1.2,0.5,2.3,1,3.3,1.3c2.4,0.9,3.7,1.8,3.7,1.8
		c0,0-1.2-1.2-3.5-2.6c7,1.4,11.8,3.9,11.7,3.9c0.1,0-5.5-3.7-13.6-5c-0.5-0.3-1-0.5-1.5-0.8c3.8,0.3,6.3,1,6.3,1.1
		c0.2-0.1-4.4-2.7-10.7-2.8c-0.5-0.1-1-0.3-1.5-0.4c-1.3-0.3-2.6-0.5-3.8-0.6c2.1-0.2,4.4-0.2,6.8,0.1c2.2,0.3,4.3,0.7,6.2,1.1
		c2.1,0.9,3.3,1.6,3.3,1.6c0,0-0.6-0.5-1.7-1.3l0.7,0.1c3.9,2.2,6.2,4.1,6.5,4.2c-0.2-0.1-2.1-1.8-5.2-3.9c4.4,0.9,7.3,1.7,7.2,1.9
		c0.1-0.1-3.2-1.8-8.4-3.3c-1.4-0.9-3.9-2.5-7.2-4.2c3,0.5,4.9,1.2,4.9,1.2c0.1,0.1-3.3-2.3-8.6-2.9c-1.3-0.6-2.8-1.2-4.3-1.8
		c-4.9-1.7-9.6-2.1-13-2c-2.6,0.1-4.2,1-4.8,1.4l-1-1c1.3-0.3,3.8-0.8,6.8-0.9c3.9,0.3,9,0.9,14.3,2.3c11.9,3.1,20.8,8.1,20.8,7.9
		c0,0.2-8.5-5.5-20.6-8.7c-2.2-0.6-4.3-1-6.4-1.3c2.8,0.2,5.3,0.4,7.2,0.8c2.4,0.5,3.8,1.2,3.9,1.1c0,0-1.3-0.8-3.8-1.5
		c-2.4-0.7-5.9-1.1-9.7-1.4c-2.6-0.2-4.9-0.1-6.9,0.2h0c-3-0.1-5,0.7-5.9,1.1c-0.5-0.6-1.1-1.1-1.6-1.7c1.7-0.4,4.5-0.9,7.8-0.8
		c2.6,0,5,0.4,6.7,0.7c1.7,0.3,2.8,0.1,2.8,0.1c0,0-1.1,0-2.7-0.4c-1.6-0.5-4.1-1.1-6.8-1.1c-3.5-0.1-6.4,0.7-8,1.4
		c-0.6-0.6-1.2-1.2-1.8-1.9l0.5-0.3c1.1-0.3,2.7-0.7,4.7-1l0.6,0c4.1,0.4,9.8,1.7,15.9,3.1c12.4,3,21.6,7.7,21.6,7.6
		c0,0.1-9-5.4-21.4-8.4c-5.3-1.3-10.1-2.2-14.1-2.6c2-0.1,4.3,0,6.7,0.5c8.6,1.7,15.5,3.5,15.4,3.8c0.1-0.2-6.6-2.8-15.3-4.5
		c-4.1-0.7-7.7-0.4-10.4,0.2c-1.4,0.1-2.4,0.5-3.2,0.9c-0.4,0.2-0.8,0.3-1.1,0.5c-0.5-0.5-0.9-1-1.4-1.5c0.8-0.5,2.7-1.6,5.8-1.6
		c4.1,0.1,9.8,0.8,15.9,1.9c12.4,2.3,21.7,6.8,21.7,6.7c0,0.1-8.9-5.5-21.5-7.9c-1-0.2-2-0.3-2.9-0.5c10.9,1.1,19.3,4.6,19.3,4.5
		c0,0.1-8.2-4.6-19.6-5.7c-0.4,0-0.9-0.1-1.3-0.1c0-0.4-0.1-0.8-0.1-1.2c1.4,0.3,2.2,0.8,2.3,0.7c0,0-0.8-0.6-2.3-1
		c0-0.2,0-0.5-0.1-0.7c10,1.9,18.2,4,18.6,4.5c-0.3-0.4-7.1-3.4-16.7-5.6c0-0.1,0-0.2,0-0.4c2.5,0.1,4.8,0.3,6.6,0.5
		c3.2,0.5,5,1.2,5,1.2c0,0-1.7-1.1-4.9-2c-1.9-0.5-4.2-0.9-6.9-1.2c0-0.2,0-0.3-0.1-0.5c0,0.2,0,0.3,0,0.5c-0.7-0.1-1.4-0.1-2.2-0.2
		c-0.1-0.3-0.1-0.7-0.2-1c0.8,0,1.5,0.1,2.3,0.1c0,0.2,0.1,0.4,0.1,0.6c0-0.2,0-0.4-0.1-0.6c2.5,0.2,4.7,0.4,6.5,0.7
		c3.4,1,5.7,1.5,5.7,1.4c0,0-1.8-0.7-4.7-1.9c0-0.2,0-0.5,0-0.7c1.3,0.5,2.1,0.8,2.2,0.9c-0.2-0.1-0.9-0.5-2.2-1.1
		c-0.1-1-0.1-2-0.2-2.9c0.8,0.2,1.2,0.3,1.2,0.3c0,0-0.4-0.2-1.2-0.5c-0.3-2.9-0.8-5.6-1.5-8c1.8,4.4,2.5,7.8,2.5,7.8
		c-1.6-12.2-6.7-19.7-11.4-24.1c-2.8-3-5.2-4.5-6.1-5c0.3,0.1,0.6,0.2,0.8,0.2c16.2,6.3,21.6,31,21.6,31c-0.2-1.3-0.4-2.5-0.6-3.7
		c0.7,2,1,3.3,1,3.3c-4.3-21.8-14.6-29.4-20.3-31.9c1.3,0.3,2.6,0.7,3.8,1.2c5.7,3.1,10.6,8.7,14.4,14.5c5.3,9.1,7.6,18.6,7.6,18.6
		c-0.7-3.5-1.5-6.7-2.4-9.5c3.4,6.7,5.2,12.1,5.2,12.1c-2.3-8.3-5.2-15-8.4-20.2c-2.1-4.3-4.4-7.6-6.6-10.2
		c11.4,9.9,16.8,24,16.8,24c-0.5-1.8-1.1-3.6-1.8-5.2c4,8,6.2,14.5,6.2,14.5c-6.7-24.4-17.7-35.4-26.6-40.3c2.4,1,4.7,2.4,6.8,3.9
		c1.9,1.4,3.6,2.9,5.3,4.5c12.8,15.2,18.4,39.6,18.4,39.6c-2.6-12.6-6.1-22.1-9.8-29.3c5.3,7.8,7.9,14.5,7.9,14.5
		c-0.9-3-1.9-5.8-3-8.3c2.9,4.5,4.4,7.8,4.4,7.8c-4.4-11.7-10.2-19.5-15.8-24.8c-0.9-0.9-1.8-1.8-2.8-2.6c-3.3-3.5-6.2-5.7-8.4-6.9
		c3.3,1.3,6.5,3.2,9.5,5.4c4.5,3.9,8.3,8.9,11.5,13.8c9.3,15.9,13.5,34.4,13.5,34.4c-1.2-6.1-2.7-11.5-4.2-16.4
		c0.9,2.3,1.4,3.7,1.4,3.7c-1.9-8.7-5-15.9-8.6-21.6c5.6,7.4,9.4,14.3,10.5,16.6c0.6,1.7,0.9,2.7,0.9,2.7
		c-3-17.5-15.5-29.3-24.3-35.7c-2.8-2.5-5.3-4-7-4.9c0.6,0.1,1.2,0.2,1.8,0.3c21.6,9,34.1,45.7,34.1,45.7
		c-5.3-24.3-18.7-37.3-28.3-43.8c0.3,0.1,0.7,0.3,1,0.4c22.7,14.8,30.4,40.7,30.4,40.7c-2-12-8-21.6-14.6-28.8
		c11.6,12.3,17,27.3,17,27.3c-9.5-28.9-25.7-38.7-34.9-42c-1.2-0.8-2.2-1.3-2.9-1.7c0.8,0,1.5,0.1,2.3,0.2
		c30.4,7.7,44.2,46.4,44.2,46.4c-7.4-22.9-18.6-35-28-41.3c0.6,0.3,1.1,0.6,1.6,0.9c18.9,13,29.9,40.2,29.9,40.2
		c-5.5-16.5-13.3-27.2-20.6-34.2c6.1,4.6,9.9,8.8,9.9,8.8c-6-7.6-12.6-12.5-18.5-15.6c-6.7-4.3-11.6-5.4-11.6-5.4
		c15.2,0,29.3,15.4,32.8,19.5c11.4,14.2,17.8,30.2,17.8,30.2c-6-18.2-14.5-30.1-22.4-37.8c1.2,0.9,2.3,1.8,3.3,2.6
		c12.2,13.5,18.5,31.2,18.5,31.2c-12.8-42.1-39-46.4-41.1-46.6c3.2,0.3,6.3,1,9.2,2c7.2,3.1,13.5,8.3,18,12.7
		c6.5,8.2,10.3,16.7,10.3,16.7c-1.7-4.6-3.7-8.5-5.7-11.9c1.3,1.5,2.1,2.5,2.1,2.5c-1.4-2.2-2.9-4.2-4.4-6c-1.8-2.6-3.6-4.7-5.3-6.6
		c2,1.3,3.9,2.7,5.6,4.1c0.8,0.8,1.6,1.7,2.4,2.6c10,12.9,14.6,27.9,14.6,27.9c-1.8-6.4-3.9-12-6.3-16.7
		c7.4,11.7,11.2,22.6,11.2,22.6c-3.6-12.1-8.2-21.3-13.1-28.4c3.6,3.7,5.6,6.5,5.6,6.5c-2.9-5.1-6.6-9.3-10.5-12.8
		c-2.5-2.9-5.1-5.3-7.5-7.3c-5.7-5.3-10.4-7.5-11.4-7.9c1.8,0.5,3.6,1.1,5.3,1.8c7.8,3.6,14.7,10.8,20.1,18
		c4.8,7.2,7.5,13.4,7.5,13.4c-0.8-2.3-1.7-4.4-2.7-6.4c4.6,7.1,7.2,12.8,7.2,12.8c-3.7-8.4-7.6-15.1-11.2-20.3
		c-2.6-4.2-5.3-7.7-7.8-10.5c2.5,1.7,4.8,3.5,7,5.3c12,14.7,17.5,33,17.5,33c-3.3-12.4-8.1-21.8-13-28.9c0.6,0.6,1.2,1.1,1.7,1.6
		c2.4,2.6,3.8,4.3,3.8,4.3c-0.2-0.4-0.5-0.8-0.7-1.2c3.5,3.7,5.4,6.4,5.4,6.4c-3.2-5.7-7.4-10.5-11.8-14.5c-1.4-1.5-2.9-2.9-4.3-4.2
		c-2-2.2-4-4.1-5.8-5.7c6.6,3.8,12.3,9.1,16.9,14.3c8.6,11.3,13.8,22.8,13.8,22.8c-2.5-5.7-5-10.7-7.6-15c3.7,5.1,5.8,8.8,5.8,8.8
		c-3-5.6-6.2-10.3-9.3-14.3c-4.1-6.3-8.1-10.9-11.7-14.3c15,11.1,29,28.1,29,28.1c-2.9-4.2-6.1-8-9.3-11.5c-2.4-3.8-5-7-7.6-9.8
		c3.4,2.4,5.7,4.2,5.7,4.2c-3.3-3.2-6.5-5.8-9.5-8c-2.3-2.1-4.6-3.9-6.8-5.3c1.5,0.5,3.1,1.1,4.8,1.8c16.3,11.7,27,31.1,27,31.1
		c-7.3-13.7-15-22.7-21.8-28.6c9,6.1,18.3,14.8,24.5,20.9c3.8,4.2,6.1,7.1,6.1,7.1c-0.7-1.1-1.5-2.1-2.2-3.1c2,2.1,3.2,3.3,3.2,3.3
		c-2.9-3.9-5.9-7.4-8.9-10.5c-4.2-4.9-8.5-9.1-12.4-12.7c7.4,4.1,13,7.7,13,7.7c-2.1-1.8-4.2-3.5-6.4-5c-3.6-3.4-7.1-6.1-10.2-8.3
		c3.5,1.2,7.1,2.6,10.8,4.2c14.7,11.5,28.5,26.9,28.5,26.9c-8.1-11-17-19.3-24.3-25c5.4,2.5,10.4,5.1,14.4,7.3
		c0.5,0.3,0.8,0.5,0.8,0.5c-0.1-0.1-0.2-0.2-0.3-0.2c4.7,2.5,7.7,4.4,7.7,4.4c-3.3-2.8-7.5-5.4-12-7.9c-2.7-2.1-5.4-3.9-8.1-5.6
		c15.5,6.9,27,14.8,27,14.8c-8.8-6.7-17.8-12.6-32.8-18.2c-3.7-2-7.1-3.6-10.1-4.8C278.5,299.2,311.6,319.2,311.6,319.2z
		 M108.7,185.8c3,2.7,5.4,5,6.1,5.8c0.2,0.7,0.4,1.5,0.6,2.2C113.9,192,111.5,189,108.7,185.8z M118.2,207.7c0,0.1,0,0.2,0,0.2
		c-0.1-0.1-0.2-0.3-0.4-0.5C118,207.5,118.1,207.6,118.2,207.7z M115.9,206.2c0.2,0.1,0.3,0.2,0.5,0.3c0.7,0.7,1.3,1.3,1.8,1.7
		c0,0.2-0.1,0.4-0.1,0.6C117.6,208.2,116.9,207.3,115.9,206.2z M118.3,209c0,0,0-0.1,0-0.1C118.4,209,118.4,209.1,118.3,209
		C118.4,209.1,118.3,209.1,118.3,209z M159.9,367.4l0-0.8l0,0.9L159.9,367.4z M158.9,361.9c-0.3-5.8-0.6-9.9-0.7-9.9
		c0,0-0.1,0.7-0.2,2c-0.1-1.5-0.3-2.7-0.4-3.6c1.1,1.1,2.2,2.2,3.2,3.2C160.4,355,159.5,358,158.9,361.9z M159.1,349.7
		c1.1-0.3,3.6-0.4,6.9,0c-0.4,0.1-0.8,0.2-1.2,0.3c-1.8,0.6-3,1.3-3.6,1.8C160.5,351.1,159.8,350.4,159.1,349.7z M160.5,359.8
		c-0.2,0.9-0.4,1.9-0.5,3c0.3-4.2,0.7-7.4,1-9c0.4,0.4,0.7,0.7,1,1C161.7,355.8,161.1,357.5,160.5,359.8z M161.3,351.9
		c0.8-0.4,2-0.9,3.7-1.2c1.9-0.3,4.2-0.1,6.9,0.4c-3.6,1-6.1,2.9-7.3,4C163.5,354.1,162.4,353.1,161.3,351.9z M165.5,358.4
		L165.5,358.4L165.5,358.4L165.5,358.4z M166.6,357.1c0.3,0,0.7,0,1.1,0l-0.8,0.4L166.6,357.1z M166.3,365.7c-0.2,0.9-0.4,1.9-0.6,3
		c-0.2-2.2-0.2-4.2,0.1-5.8c0.2-1.3,0.6-2.3,0.9-3C166.5,361,166.3,363,166.3,365.7z M166.7,364.1c-0.1-2,0-3.6,0.1-4.3l0.1-0.2
		l0.1,0.1c0.4,0.4,0.8,0.8,1.2,1.2C167.7,361.5,167.2,362.6,166.7,364.1z M167.7,358.2l-0.5-0.4c0.6-0.2,1.4-0.4,2.3-0.7
		c1.2,0,2.7,0.1,4.2,0.3c-1.2,0.1-2.3,0.3-3.2,0.6c-0.9,0.3-1.6,0.6-2.1,0.9L167.7,358.2z M179.2,358.8c0.4,0,0.9,0,1.3,0
		c0.5,0.1,1,0.3,1.4,0.4c-6-0.4-10.8,0.2-12.5,0.8l-0.8-0.8c0.5-0.1,1.2-0.3,2-0.4C172.8,358.5,175.8,358.7,179.2,358.8z
		 M182.2,354.7c-5-0.5-9.3,0.4-12.3,1.5c-1.5,0.1-2.8,0.4-3.6,0.6l-0.5-0.5c1.5-0.7,3.9-1.4,6.7-1.6c4-0.4,7.4-0.7,8.6-0.7
		c0.5,0.2,1,0.5,1.4,0.7L182.2,354.7z M181.4,352.1c3.8,1.7,6.8,3.3,8.6,4.3c-0.5-0.1-1-0.3-1.5-0.4c-2.1-1.2-4.6-2.4-7.4-3.5
		l-1-0.5C180.6,352,181,352.1,181.4,352.1z M180,353.6c-1.7-0.4-4.5-0.7-7.7-0.4c-3.3,0.2-5.7,1.6-7,2.7l-0.6-0.6
		c1.8-1,5.8-2.9,10.9-3.3l0.8,0.2C177.7,352.6,178.9,353.1,180,353.6z M162.5,347.2c3.3,0.1,8,0.7,12.7,2.4c0.8,0.3,1.5,0.6,2.3,0.9
		c-0.6,0-1.1,0-1.7,0c-2.4-0.6-4.9-1-7-1c-4.7-0.6-8.3-0.4-9.7,0.2c-0.5-0.5-0.9-0.9-1.4-1.4C158.3,347.9,160,347.1,162.5,347.2z
		 M160.2,346.2c-1.6,0.3-2.8,0.7-3.6,1l-0.2-0.2C157.1,346.7,158.4,346.3,160.2,346.2z M156.1,348.9v0.4c-0.3,1.7-0.8,4.8-1,8.6
		c-0.3-1.2-0.6-2.5-1-3.9c0-2.8,0.3-5.3,0.4-6.8C155,347.8,155.6,348.3,156.1,348.9z M152.9,345.6c0.5,0.5,1,1,1.4,1.4
		c-0.2,1.1-0.6,2.7-0.8,4.6C152.9,349.1,152.8,346.9,152.9,345.6z M152.9,343l-0.2,0.2l-0.1-0.1L152.9,343z M251.4,298.1
		c0.7,0.5,1.3,1,2,1.5c-1.6-0.8-3.2-1.4-4.6-2C249.7,297.7,250.6,297.9,251.4,298.1z M248.1,295.6c0.1,0.1,0.2,0.1,0.2,0.2
		c-0.7-0.2-1-0.3-1-0.3C247.6,295.5,247.8,295.6,248.1,295.6z M248.2,293.9c2.7,0.6,5.6,1.6,8.6,2.9c-2.1-0.6-4.4-1.3-6.7-1.9
		C249.4,294.5,248.8,294.2,248.2,293.9z M223.9,290.1c-0.3,0-0.7-0.1-1-0.1c-0.5-0.2-0.8-0.4-0.8-0.4
		C222.7,289.8,223.3,289.9,223.9,290.1z M222,298.7c-0.7-0.4-1.4-0.8-2.1-1.2c-0.5-0.5-1.1-0.9-1.6-1.3
		C219.5,296.9,220.8,297.7,222,298.7z M206.9,291.7c1.7,0.4,3.4,1.1,5,1.9C209.3,292.5,207.4,291.9,206.9,291.7z M206.2,295
		c3,1.4,5.8,3.1,8.5,5.2c-1.8-1.2-3.6-2.3-5.3-3.3C208.2,296.2,207.2,295.5,206.2,295z M171.6,329.2c-0.7-0.3-1.4-0.6-2.2-0.8
		c-0.1-0.4-0.2-0.9-0.3-1.3c1.2,0.2,2.3,0.5,3.4,0.7c0.1,0.7,0.2,1.3,0.3,1.7C172.4,329.4,172,329.3,171.6,329.2z M172.8,329.7
		C172.8,329.7,172.8,329.7,172.8,329.7C172.8,329.7,172.8,329.7,172.8,329.7C172.8,329.7,172.8,329.7,172.8,329.7z M155.3,334.8
		C155.3,334.7,155.3,334.7,155.3,334.8c0.1-0.1,0.2-0.1,0.4-0.1C155.5,334.7,155.4,334.7,155.3,334.8z M155.2,334
		c0-0.3-0.1-0.6-0.1-0.8c2.3-0.3,4.9-0.6,7.6-0.7c0.4,0,0.9,0,1.3,0c0.1,0.3,0.2,0.6,0.2,0.9c-1.2,0-2.4,0.1-3.5,0.2
		C159.5,333.6,157.5,333.7,155.2,334z M154.4,328.5c0-0.1,0-0.2-0.1-0.3c0.8,0,1.6,0.1,2.5,0.1c1.2,0,2.3,0,3.5,0.1
		c0.1,0.4,0.2,0.7,0.3,0.9c-1.8,0-3.8,0-6,0.3c0-0.2-0.1-0.4-0.1-0.6c3.2,0,5.4,0.3,5.4,0.2C159.9,329.4,157.7,328.7,154.4,328.5z
		 M128.6,335.7c0-0.3,0-0.7-0.1-1c0-0.3,0.1-0.6,0.2-1c0.1-0.5,0.2-1,0.3-1.5C128.8,333.3,128.6,334.5,128.6,335.7z M59.3,345.6
		c0.1-0.8,0.3-1.6,0.5-2.4c1.1,0.2,2.2,0.3,3.3,0.4c0,0.8,0,1.3,0,1.3c0-0.4,0.1-0.9,0.1-1.3c1.3,0.1,2.6,0.2,3.9,0.3c0,0,0,0,0,0
		c0,0,0,0,0,0c2.2,0.1,4.4,0,6.6-0.2c-0.2,0.8-0.4,1.4-0.5,1.7C69.2,345.8,64.4,346,59.3,345.6z M69.1,355.7
		c-10.3,2-22.2,1.1-31.7-0.2c0.1-1.3,0.2-2.7,0.4-4.2c7.5,2.8,14.5,3.7,20.3,3.7c0,0.3,0,0.7,0,1c0,0,0-0.4,0-1c6.2,0,11-1,13.2-1.6
		C70.6,354.1,69.8,354.9,69.1,355.7z M40.8,337.8c0.2-0.5,0.4-1.1,0.6-1.7c1.4,0.4,2.9,0.8,4.3,1.2c-0.2,0.7-0.3,1.4-0.5,2
		c-1.1-0.3-2.2-0.7-3.3-1.1c1,0.4,2.1,0.8,3.3,1.2c-0.2,1.1-0.4,2.2-0.6,3.1c-1.6-0.5-3.1-1.1-4.6-1.8
		C40.2,339.8,40.5,338.8,40.8,337.8c0.2,0.1,0.4,0.2,0.6,0.3C41.2,338,41,337.9,40.8,337.8z M111.1,264.6c-0.2-0.2-0.5-0.4-0.7-0.6
		c-1.1-1-2.2-1.9-3.2-2.8c1.4,0.5,2.7,1,3.9,1.4c0.4,0.4,0.8,0.7,1.2,1.1c1.8,1.3,3.5,2.6,5,3.7c0,0,0,0.1,0,0.1
		c-0.1,0.2-0.2,0.3-0.2,0.3c0,0,0.1-0.1,0.2-0.2c0,0.3,0,0.5,0,0.8c-0.7-0.3-1.9-0.8-3.3-1.5c-0.2-0.2-0.4-0.4-0.6-0.6
		c2.4,1,3.8,1.6,3.8,1.4C116.9,268,114.7,266.7,111.1,264.6z M118.4,252.4c0.4,0.3,0.6,0.5,0.6,0.5c0,0.2-0.1,0.5-0.1,0.7
		c-0.1-0.2-0.2-0.4-0.4-0.7C118.5,252.7,118.4,252.5,118.4,252.4z M118,252.1C118,252.1,118,252.1,118,252.1
		C118,252.1,118,252.1,118,252.1C118,252.1,118,252.1,118,252.1z M118.9,253.7c0,0.1,0,0.3-0.1,0.4c-0.1-0.2-0.1-0.4-0.2-0.6
		C118.8,253.6,118.8,253.7,118.9,253.7z M118.7,255.1c0,0.1,0,0.2,0,0.3c-0.2,0.2-0.4,0.3-0.5,0.4c-0.4-0.5-0.8-1-1.2-1.6
		c0.8,0.3,1.3,0.5,1.7,0.6C118.6,254.9,118.7,255,118.7,255.1z M118.6,255.6c0,0.3-0.1,0.5-0.1,0.8c-0.1-0.2-0.3-0.3-0.4-0.5
		C118.2,255.8,118.4,255.7,118.6,255.6z M121,264.9c0,0,0-0.2,0.1-0.4c0.7-0.5,1.5-1.1,2.4-1.7c-0.5,1.3-0.9,2.6-1.1,3.6
		c-0.5,0.3-0.9,0.6-1.3,0.9c-0.1-0.5-0.1-0.9-0.2-1.4c0,0,0.1,0.1,0.1,0.1c0,0,0-0.1-0.1-0.2c0-0.3-0.1-0.7-0.1-1
		c0.1-0.1,0.2-0.1,0.2-0.2C121,264.8,121,264.9,121,264.9z M128.3,265.3c-1.5,1.6-2.8,3.1-3.8,4.5c-0.3,0-0.7,0-1,0.1
		c0.6-1,1.5-2.1,2.5-3.3C126.8,266.1,127.6,265.7,128.3,265.3z M124.9,270.3c0.2,0,0.4,0,0.6,0c-1.4,1.6-2.4,2.9-2.9,3.7
		c-0.3-0.1-0.5-0.2-0.8-0.2c-0.1-1.1-0.2-2.2-0.3-3.2c0.3,0.3,0.6,0.5,0.9,0.7c-0.3,1-0.4,1.6-0.3,1.6c-0.1-0.1,0.1-0.6,0.5-1.4
		c0.3,0.2,0.4,0.4,0.4,0.4c0,0-0.1-0.2-0.4-0.5c0.2-0.3,0.4-0.7,0.6-1.1c0.3,0,0.6,0,0.9,0c-1.5,2.1-2.2,3.5-2.1,3.6
		C122,273.8,123,272.4,124.9,270.3z M168,261.6c-0.4,1.1-0.6,2.1-0.8,2.8c-2.1,1.6-4.2,3.2-6.3,4.9c-0.1,0-0.1,0-0.2,0
		c0.3-0.7,0.7-1.4,1.1-2.1C163.7,265.2,165.8,263.3,168,261.6z M184.9,252.8c0.5-1.5,1.8-4.3,4.3-6.6c0.3-0.1,0.6-0.1,1-0.2
		c-1.2,1.4-2.3,3.2-2.8,5.5C186.5,251.9,185.7,252.3,184.9,252.8z M184.8,250.3c-0.4,0.2-0.8,0.3-1.2,0.5c1.1-1.2,2.2-2.3,3.3-3.2
		C186.2,248.4,185.5,249.3,184.8,250.3z M184.7,250.6c-0.5,0.9-1,1.9-1.3,3c-1,0.6-2,1.2-3,1.8c0.7-1.3,1.6-2.6,2.6-3.8
		C183.6,251.1,184.2,250.8,184.7,250.6z M178.7,256.3c-1.7,1.1-3.5,2.2-5.2,3.4c0.5-1,1.3-2.4,2.3-3.9c1.9-1.2,3.6-2.3,5.1-3.2
		C180,254.1,179.2,255.4,178.7,256.3z M170.4,262c-0.6,0.4-1.1,0.8-1.7,1.2c0.2-1,0.5-2.1,1-3c0.9-0.7,1.7-1.3,2.6-1.9
		C171.6,259.5,171,260.7,170.4,262z M167.2,266.9l-1.2,1.3c0.3,0.5,0.5,1.1,0.8,1.6c-0.6-0.1-1.2-0.1-1.8-0.1
		c-0.1-0.3-0.1-0.6-0.2-0.9c1.1-0.9,2.3-1.8,3.4-2.6c0.2,0.9,0.5,2.2,1,3.9c-0.2,0-0.5,0-0.7-0.1
		C167.6,268.1,167.2,266.9,167.2,266.9z M58.7,286.6c9.1-4.3,22-8.5,30.9-3.1c-0.8-0.4-10.8-5.4-26.1,4.3
		C62,287.4,60.3,287,58.7,286.6z M122,270.8c0-0.1,0-0.3,0.1-0.5c0.2,0,0.4,0,0.5,0c-0.1,0.3-0.2,0.6-0.3,0.8
		C122.3,271,122.2,270.9,122,270.8z M122,270.8c-0.1-0.1-0.3-0.3-0.4-0.4c0.2,0,0.3,0,0.5,0C122,270.5,122,270.7,122,270.8z
		 M122.2,274.7c0.3,0.1,0.5,0.2,0.8,0.3c-0.7,1.1-1,1.8-1,1.8c0,0,0.4-0.7,1.3-1.7c0.1,0,0.2,0.1,0.3,0.1c-1.1,1.5-1.6,2.6-1.6,2.6
		c0,0,0.8-0.9,2.1-2.4c0.4,0.2,0.9,0.4,1.4,0.6c-0.4,0.5-0.7,0.9-1,1.3c-0.8,0.4-1.5,1-2.2,1.5c-0.1-0.1-0.2-0.2-0.3-0.3
		c0-0.6,0-1.3-0.1-1.9c0.1,0.1,0.1,0.1,0.1,0.1c0,0,0-0.1-0.1-0.1c0-0.7-0.1-1.5-0.1-2.2C121.9,274.6,122,274.6,122.2,274.7
		c-0.1,0.1-0.2,0.2-0.1,0.2C122,274.9,122,274.8,122.2,274.7z M122.7,274.1c0.7-0.7,2-2,3.5-3.5c-1.2,1.4-2.1,2.7-2.8,3.7
		C123.2,274.3,122.9,274.2,122.7,274.1z M165.6,328.2c-0.7-0.1-1.3-0.2-2.1-0.2c0-0.1,0-0.2-0.1-0.3
		C164.2,327.8,164.9,328,165.6,328.2C165.6,328.2,165.6,328.2,165.6,328.2z M75.5,337.8c-0.3,0-0.6,0.1-1,0.1
		c-1.4-0.1-2.8-0.3-4.2-0.5c0.2-0.3,0.4-0.6,0.5-0.9c1.6,0.4,3.2,0.7,4.8,1C75.6,337.5,75.5,337.7,75.5,337.8z M75.9,337.5
		c0.4,0.1,0.8,0.1,1.2,0.2c-0.4,0.1-0.9,0.1-1.3,0.2C75.8,337.7,75.9,337.6,75.9,337.5z M95.7,284.9c0.8,0.3,1.7,0.7,2.7,1.2
		c-0.2,0.7-0.3,1.4-0.3,2.1c-0.2-0.1-0.3-0.2-0.5-0.3C97,286.9,96.4,285.9,95.7,284.9z M120.7,270c-0.2,0-0.3,0-0.5,0
		c0.1-0.1,0.2-0.1,0.3-0.2C120.5,269.9,120.6,270,120.7,270z M118.7,267.4c0-0.2,0-0.5,0-0.7c0.5,0.5,0.9,0.9,1.3,1.2
		c-0.2,0.1-0.3,0.2-0.5,0.3C119.3,268,119,267.7,118.7,267.4z M117.3,266c-0.1-0.1-0.1-0.1-0.2-0.2c0,0,0.1-0.1,0.2-0.1
		C117.3,265.8,117.3,265.9,117.3,266z M120.2,269.7c-0.2,0.2-0.4,0.3-0.5,0.5c-0.5,0.1-0.9,0.1-1.1,0.2c0-0.4,0.1-0.8,0.1-1.2
		c0.1-0.1,0.3-0.2,0.5-0.2C119.5,269.1,119.8,269.4,120.2,269.7z M117,271.8c-0.5-0.5-1.1-1-1.7-1.5c0.7,0.2,1.2,0.3,1.7,0.4
		C117,271.1,117,271.5,117,271.8z M113.2,269.8c1.4,1,2.7,2,3.8,2.9c0,0,0,0.1,0,0.1c0,0-0.3,0-0.8,0.1c-1.1-1-2.4-2.1-3.8-3.1
		C112.7,269.8,113,269.8,113.2,269.8z M117,272.9c0,0.3,0,0.5,0,0.8c-0.2-0.2-0.5-0.4-0.7-0.6C116.7,272.9,117,272.9,117,272.9z
		 M117,274.8c0,0.5,0,1,0,1.5c-0.8-0.9-1.8-1.8-2.8-2.8c0.3-0.1,0.6-0.1,0.9-0.2C115.8,273.8,116.4,274.3,117,274.8z M143.1,287.9
		c0.1,0.9,0.2,1.7,0.3,2.5c-0.3,0.1-0.6,0.2-1,0.4c0.2-0.8,0.3-1.7,0.3-2.5C142.8,288.2,142.9,288,143.1,287.9z M140.2,295.4
		c0,0,0.1,0,0.1-0.1c0.1,0.9,0.3,1.8,0.6,2.8c-0.9-0.3-1.7-0.6-2.7-0.7C139,296.8,139.6,296.1,140.2,295.4z M141.2,293.8
		c0.1-0.1,0.2-0.1,0.3-0.2c0,0.1,0,0.2,0,0.3c-0.2,0.1-0.4,0.2-0.5,0.2C141.1,294.1,141.2,293.9,141.2,293.8z M140.9,295.1
		c0.3-0.1,0.6-0.3,0.8-0.4c0.3,1.5,0.6,2.8,1,4c-0.1,0-0.2,0.1-0.2,0.1c-0.2-0.1-0.5-0.2-0.7-0.3
		C141.4,297.4,141.1,296.2,140.9,295.1z M146.2,301.2c-0.1-0.1-0.2-0.1-0.3-0.2c0.3,0.1,0.6,0.2,0.9,0.3c0,0.1,0.1,0.2,0.1,0.2
		C146.7,301.4,146.4,301.3,146.2,301.2z M144.9,297.4c-0.6,0.3-1.2,0.6-1.8,0.9c-0.4-1.4-0.7-2.7-0.9-4c0.6-0.3,1.1-0.6,1.6-0.8
		c0.3,1.4,0.7,2.7,1.1,3.8C145,297.4,145,297.4,144.9,297.4z M142.3,293.6c0-0.1,0-0.2,0-0.3c0.5-0.3,1-0.5,1.5-0.7
		c0,0.1,0.1,0.3,0.1,0.4C143.3,293.2,142.8,293.4,142.3,293.6z M142.2,292.5c0-0.3,0-0.5,0-0.8c0,0,0-0.1,0-0.1
		c0.5-0.2,0.9-0.4,1.3-0.6c0.1,0.3,0.1,0.6,0.1,0.9C143.1,292.1,142.7,292.3,142.2,292.5z M159.8,318.6c0.4-0.1,0.8-0.1,1.1-0.2
		c0.7,1.2,1.4,2.5,2,3.7c-0.5-0.1-1-0.2-1.6-0.4C160.9,320.6,160.3,319.6,159.8,318.6z M159.6,318.2c-0.4-0.7-0.8-1.3-1.1-1.9
		c0.3-0.1,0.7-0.2,1-0.3c0.5,0.7,0.9,1.4,1.3,2.1C160.4,318.1,160,318.1,159.6,318.2z M158.2,315.9c-2.4-3.8-5.2-6.8-7.8-9.1
		c-0.1-0.2-0.2-0.4-0.3-0.6c0.2,0.1,0.4,0.3,0.5,0.4c0.2,0.2,0.3,0.3,0.3,0.3c0-0.1-0.1-0.1-0.1-0.2c3.3,2.6,6.1,5.7,8.3,9
		C158.9,315.8,158.6,315.8,158.2,315.9z M147.5,301.5c1.2,0.5,2.4,0.9,3.5,1.5c0.2,0.3,0.4,0.6,0.6,0.9c-1.4-0.9-2.7-1.6-3.9-2.1
		C147.6,301.7,147.5,301.6,147.5,301.5z M148.5,299.8c0.3,0,0.6,0.1,0.8,0.1c0,0.1,0.1,0.1,0.1,0.2
		C149.1,299.9,148.8,299.8,148.5,299.8z M148.6,295.5c-0.4-1.2-0.7-2.5-1-3.9c0.2-0.1,0.3-0.2,0.4-0.2c0.2,1.2,0.6,2.6,0.9,3.9
		C148.8,295.4,148.7,295.5,148.6,295.5z M147.8,295.9c-0.7,0.3-1.3,0.7-2,1c-0.4-1.4-0.7-2.7-0.9-3.9c0.7-0.4,1.3-0.7,1.9-1
		C147.1,293.3,147.4,294.6,147.8,295.9z M144.9,292.6c0-0.2-0.1-0.3-0.1-0.4c0.7-0.3,1.3-0.6,1.9-0.8c0,0.2,0.1,0.3,0.1,0.5
		C146.2,292,145.6,292.3,144.9,292.6z M144.7,291.6c-0.1-0.3-0.1-0.7-0.1-1c0.7-0.3,1.3-0.6,1.8-0.9c0.1,0.4,0.1,0.8,0.2,1.2
		C146,291.1,145.4,291.3,144.7,291.6z M144.5,290.1c-0.2-1.4-0.2-2.6-0.3-3.3c0.1-0.1,0.3-0.3,0.4-0.4c0.5-0.3,0.9-0.5,1.3-0.8
		c0,0.8,0.1,2.2,0.4,3.9C145.9,289.6,145.2,289.8,144.5,290.1z M85.4,297.4C85.4,297.4,85.3,297.4,85.4,297.4
		c-1.3,0.4-2.6,0.8-3.9,1.3c1.6-0.9,2.8-1.4,3.2-1.6C85,297.2,85.2,297.3,85.4,297.4z M86.6,316.5c-2.7-0.2-4.9-0.4-6.2-0.6
		c2.9-2.9,6.3-5.6,10-7.8c-0.3,1.1-0.4,2.2-0.4,3.4c0,0.5,0,1,0.1,1.5c0,0.1-0.1,0.1-0.1,0.2c-0.8,0.9-1.5,1.7-2.2,2.6
		C87.4,315.9,87,316.2,86.6,316.5z M76.4,317c-0.8-0.2-1.5-0.3-2-0.5c5.5-6.9,11.6-11.5,15.2-13.9c1.4-0.5,2.9-1,4.3-1.3
		c-0.1,0.1-0.2,0.2-0.2,0.3c-5.6,3.3-10,7.3-13.4,11.5C79,314.2,77.7,315.5,76.4,317z M91.7,304.6c-0.1,0.2-0.2,0.3-0.3,0.5
		c-1.2,0.7-2.5,1.4-3.8,2.3C89.1,306.3,90.4,305.3,91.7,304.6z M92.1,299.9l-0.1-0.1C92,299.8,92.1,299.9,92.1,299.9
		C92.1,299.9,92.1,299.9,92.1,299.9z M90.2,299.1c-9.5,5.4-15.7,12.4-19.7,19.4c-0.4-0.2-0.8-0.3-1.2-0.5
		c4.4-7.2,10.4-14.2,18.8-19.7C88.8,298.6,89.5,298.9,90.2,299.1z M69.9,319.7c-0.2,0.4-0.5,0.9-0.7,1.3c-0.4-0.2-0.8-0.3-1.3-0.5
		c0.3-0.5,0.5-0.9,0.8-1.4C69.1,319.3,69.5,319.5,69.9,319.7z M67.8,320.6c0.3,0.2,0.7,0.4,1.2,0.6c-0.3,0.5-0.5,1-0.7,1.5
		c-0.5-0.2-0.9-0.3-1.4-0.5C67.2,321.7,67.5,321.1,67.8,320.6z M67.8,323.8c-0.1,0.2-0.2,0.5-0.3,0.7c-0.5-0.2-0.9-0.4-1.4-0.6
		c0.1-0.3,0.2-0.5,0.4-0.8C67,323.4,67.4,323.6,67.8,323.8z M66.8,326.4c-0.7,1.7-1.2,3.4-1.7,5c-0.6-0.2-1.3-0.3-1.9-0.5
		c0.6-1.7,1.3-3.4,2.1-5.1C65.8,325.9,66.3,326.2,66.8,326.4z M67.9,326.9c0.5,0.2,1,0.4,1.5,0.6c-0.7,1.4-1.3,2.9-1.8,4.4
		c-0.6-0.1-1.1-0.2-1.7-0.4C66.5,329.9,67.1,328.4,67.9,326.9z M68.8,325c0.1-0.2,0.2-0.4,0.4-0.7c0.5,0.2,1,0.4,1.5,0.6
		c-0.1,0.2-0.2,0.4-0.3,0.6C69.8,325.4,69.3,325.2,68.8,325z M69.9,323.2c0.3-0.4,0.5-0.8,0.8-1.3c0.5,0.2,1,0.4,1.5,0.6
		c-0.2,0.4-0.5,0.8-0.7,1.1C70.9,323.5,70.4,323.3,69.9,323.2z M70.8,321.6c0.2-0.4,0.5-0.8,0.7-1.1c0.5,0.2,1,0.5,1.6,0.7
		c-0.2,0.3-0.4,0.6-0.7,1C71.9,321.9,71.4,321.8,70.8,321.6z M72.4,319.3c0.6-0.9,1.2-1.7,1.8-2.5c0.6,0.3,1.1,0.6,1.7,0.8
		c-0.6,0.7-1.2,1.5-1.8,2.3C73.5,319.7,72.9,319.5,72.4,319.3z M80.2,316c1.7,0.6,3.5,1,5.3,1.3c-0.4,0.4-0.9,0.7-1.3,1.1
		c-2-0.3-3.8-0.6-5.4-0.9C79.3,317,79.7,316.5,80.2,316z M96.7,298.9c-0.1,0-0.3,0-0.4,0c-1.3-0.5-2.6-1.1-3.9-1.6
		c1.1,0,2.3,0,3.4,0.2c0.2,0.1,0.5,0.3,0.8,0.4c0.3,0.1,0.7,0.3,1,0.4C97.3,298.6,97,298.7,96.7,298.9z M96.6,297.7
		c0.2,0,0.4,0.1,0.6,0.1c0.3,0.1,0.6,0.2,0.9,0.3c0,0-0.1,0-0.1,0C97.5,298,97,297.8,96.6,297.7z M98.3,294.7
		c-0.4-0.2-0.8-0.3-1.1-0.5c0.5,0.2,0.9,0.3,1.4,0.5C98.6,294.7,98.5,294.7,98.3,294.7z M97.5,296.5c-0.6-0.2-1.2-0.4-1.8-0.6
		c1.3,0.2,2.6,0.5,3.9,0.9C99.5,296.8,98.8,296.7,97.5,296.5z M93.9,296.3c-1.1,0-2.3,0.1-3.6,0.2c-0.6-0.2-1.2-0.5-1.8-0.7
		c1-0.1,2.1-0.2,3.2-0.2C92.3,295.8,93.1,296.1,93.9,296.3z M72.2,304.6c0.2-0.1,0.3-0.2,0.5-0.4c1.9-1.2,5.5-3.3,9.8-4.8
		c-3.9,3-10.2,8.8-15.4,17.7c-1.4-0.6-2.6-1.2-3.5-1.7C66,311.6,68.8,308,72.2,304.6z M66.7,317.9c-0.7,1.1-1.3,2.3-1.9,3.6
		c-2.4-0.9-3.8-1.6-3.8-1.6c1.2,0.8,2.3,1.5,3.5,2.2c-0.1,0.3-0.3,0.6-0.4,0.9c-1.2-0.6-2.5-1.2-3.7-1.9c0.9-1.8,1.9-3.6,3.1-5.3
		C64.5,316.5,65.6,317.2,66.7,317.9z M63.3,324.7c-0.7,1.8-1.4,3.6-2.1,5.6c-1.5-0.5-2.9-1.1-4.3-1.8c0.8-2,1.7-4,2.7-6
		C60.8,323.2,62,323.9,63.3,324.7z M61.2,330.5c-0.2,0.6-0.4,1.3-0.6,2c-1.5-0.6-2.9-1.2-4.4-2c0.2-0.7,0.5-1.3,0.8-2
		C58,329.1,59.5,329.8,61.2,330.5z M60.5,332.8c-0.2,0.7-0.4,1.3-0.5,2c-1.6-0.5-3.2-1.1-4.7-1.7c0.3-0.8,0.6-1.7,0.9-2.5
		C57.3,331.3,58.8,332,60.5,332.8z M62.3,333.6c0.7,0.3,1.4,0.5,2.1,0.8c-0.1,0.6-0.2,1.1-0.3,1.6c-0.8-0.2-1.5-0.4-2.3-0.6
		C61.9,334.8,62.1,334.2,62.3,333.6z M62.4,333.2c0.2-0.6,0.4-1.3,0.7-1.9c0.6,0.2,1.2,0.5,1.9,0.7c-0.2,0.7-0.3,1.3-0.5,1.9
		C63.8,333.7,63.1,333.4,62.4,333.2z M65.7,332.2c0.6,0.2,1.1,0.4,1.7,0.5c-0.1,0.4-0.2,0.8-0.4,1.2c0,0,0.2-0.4,0.6-1.1
		c0.7,0.2,1.5,0.4,2.2,0.6c-0.2,0.7-0.4,1.3-0.5,1.8c-1.4-0.3-2.8-0.7-4.3-1.1C65.2,333.4,65.4,332.8,65.7,332.2z M68,332
		c0.6-1,1.5-2.4,2.5-4.1c0.3,0.1,0.7,0.2,1,0.4c-0.6,1.5-1.1,2.9-1.4,4.1C69.4,332.3,68.7,332.2,68,332z M71.8,326.1
		c0.1-0.2,0.3-0.4,0.4-0.5c0.1,0,0.3,0.1,0.4,0.1c-0.1,0.2-0.2,0.4-0.3,0.6C72.2,326.2,72,326.1,71.8,326.1z M73.3,324.1
		c0.1-0.1,0.2-0.3,0.3-0.4C73.5,323.8,73.4,324,73.3,324.1C73.3,324.1,73.3,324.1,73.3,324.1z M77.9,318.4c1.5,0.6,3.1,1,4.6,1.4
		c-0.7,0.7-1.4,1.3-2.1,2c-1.5-0.4-3-0.8-4.4-1.2C76.7,319.8,77.3,319.1,77.9,318.4z M84.3,320.4c-0.4,0.6-0.8,1.3-1.2,1.9
		c-0.3-0.1-0.5-0.1-0.8-0.2C82.9,321.6,83.6,321,84.3,320.4z M90.4,316c0.1-0.1,0.2-0.1,0.3-0.2c0.1,0.3,0.2,0.5,0.3,0.8
		c-0.3,0-0.6,0-0.9,0C90.2,316.4,90.3,316.2,90.4,316z M152,313.5c0.8,1,1.5,1.9,2.1,2.9l-2.4,0.5c0.2-1.1,0.3-2.2,0.3-3.3
		C152,313.6,152,313.6,152,313.5z M151.6,317.1c1-0.3,1.8-0.5,2.5-0.6c0.1,0.1,0.1,0.2,0.2,0.3c-0.9,0.2-1.8,0.4-2.8,0.7
		C151.6,317.3,151.6,317.2,151.6,317.1z M155.4,316.1c0.1,0,0.2-0.1,0.2-0.1L155.4,316.1c-1.1-1.8-2.4-3.4-3.6-4.7
		c0-0.2-0.1-0.5-0.1-0.7c1.7,1.8,3.2,3.7,4.6,5.6c-0.2,0.1-0.5,0.1-0.7,0.2C155.5,316.4,155.5,316.2,155.4,316.1z M156.6,316.8
		c0.4,0.6,0.7,1.1,1.1,1.7c-0.3,0-0.6,0.1-0.9,0.1c-0.3-0.6-0.6-1.1-0.9-1.6C156.2,316.9,156.4,316.8,156.6,316.8z M161.6,322.4
		c0.6,0.1,1.1,0.1,1.5,0.2c0.2,0.4,0.4,0.8,0.6,1.2c-0.1,0-0.1,0-0.2,0c-0.4-0.1-0.9-0.1-1.4-0.2C162,323.2,161.8,322.8,161.6,322.4
		z M162.3,318.1c0.1,0,0.1,0,0.2,0c0.3,0.6,0.5,1.2,0.8,1.8C163,319.3,162.6,318.7,162.3,318.1z M162.2,317.9
		c-0.5-0.8-1-1.6-1.5-2.3c0.1,0,0.3-0.1,0.4-0.1c0.5,0.8,0.9,1.6,1.3,2.4C162.3,317.9,162.2,317.9,162.2,317.9z M160.6,315.4
		c-3.3-4.9-7.1-8.5-10.1-10.9c4.8,2.9,8.2,6.8,10.6,10.8C160.9,315.3,160.7,315.4,160.6,315.4z M152.1,304.3
		c-0.1-0.3-0.3-0.6-0.5-0.9c0.4,0.2,0.7,0.4,1,0.6c0.3,0.5,0.7,1.1,1.1,1.6C153.2,305.1,152.7,304.6,152.1,304.3z M150.3,300.4
		c0-0.1-0.1-0.2-0.1-0.3c0.2,0,0.4,0.1,0.5,0.1c0.1,0.1,0.1,0.3,0.2,0.4C150.7,300.5,150.5,300.5,150.3,300.4z M148.9,291
		c0.1,0,0.1-0.1,0.1-0.1c0.3,1.2,0.6,2.6,1.1,3.9c-0.1,0-0.1,0.1-0.2,0.1C149.5,293.6,149.2,292.3,148.9,291z M149,290.9
		c0,0,0,0-0.1,0.1c0-0.2-0.1-0.4-0.1-0.6c0,0,0.1,0,0.1,0C148.9,290.5,149,290.7,149,290.9z M148,291.3c-0.1,0.1-0.3,0.1-0.5,0.2
		c0-0.2-0.1-0.4-0.1-0.5c0.2-0.1,0.3-0.1,0.4-0.2C147.9,290.9,148,291.1,148,291.3z M147.4,290.6c-0.1-0.4-0.1-0.9-0.2-1.3
		c0.2-0.1,0.3-0.1,0.4-0.2c0.1,0.5,0.1,0.9,0.2,1.4C147.7,290.5,147.6,290.6,147.4,290.6z M147.6,289c-0.1,0-0.2,0.1-0.4,0.1
		c-0.2-1.4-0.2-2.7-0.1-4.1c0,0,0,0,0,0C147.2,286.1,147.4,287.5,147.6,289z M148.1,284.2C148.1,284.2,148.1,284.2,148.1,284.2
		C148.1,284.2,148.1,284.2,148.1,284.2C148.1,284.2,148.1,284.2,148.1,284.2z M146,285C146,285,146,285.1,146,285
		c-0.1,0.1-0.1,0.1-0.2,0.2C145.9,285.1,145.9,285.1,146,285z M122,279.2c0-0.1,0-0.2,0-0.2c0,0,0.1,0.1,0.1,0.1
		C122.1,279.1,122,279.2,122,279.2z M121.2,280c-0.1,0.1-0.3,0.3-0.4,0.4c-0.3-0.4-0.7-0.8-1.1-1.2c-0.3-0.4-0.7-0.8-1.1-1.3
		c0-0.6,0-1.3,0-1.9c1,0.9,1.9,1.6,2.6,2.2C121.1,278.8,121.2,279.4,121.2,280z M118.5,275.1c0-0.4,0-0.8,0-1.2
		c1.1,0.9,2,1.6,2.6,2.2c0,0.6,0,1.1,0,1.7C120.4,277,119.5,276.1,118.5,275.1z M118.5,271.9c1,0.8,1.8,1.4,2.2,1.7
		c-0.9-0.2-1.6-0.4-2.2-0.5C118.5,272.6,118.5,272.2,118.5,271.9z M118.5,270.4c0.2,0,0.5,0,0.9,0c-0.4,0.3-0.7,0.6-0.9,0.9
		C118.5,270.9,118.5,270.6,118.5,270.4z M117,269.9C117,269.9,117,269.9,117,269.9C117,269.9,117,269.9,117,269.9
		C117,269.9,117,269.9,117,269.9z M115.9,269.9c0.3,0.3,0.6,0.5,1,0.7c-0.5-0.2-1.2-0.4-2.1-0.7c0,0,0,0-0.1-0.1c0,0,0.1,0,0.1,0
		C115.2,269.8,115.6,269.8,115.9,269.9z M110.7,269.9c0,0,0.1,0.1,0.1,0.1c1.5,1.1,2.8,2.1,4.1,3.1c-0.3,0-0.6,0.1-1,0.1
		c-0.9-0.9-1.9-1.8-3-2.6c-0.3-0.2-0.5-0.5-0.8-0.7C110.3,269.9,110.5,269.9,110.7,269.9z M109.8,271C109.8,271,109.8,271,109.8,271
		c-0.7-0.4-1.2-0.7-1.8-1.1c0.2,0,0.4,0,0.5,0C109,270.3,109.4,270.7,109.8,271z M120.5,280.8c-0.3,0.5-0.6,0.9-0.9,1.4
		c-0.3-0.3-0.5-0.6-0.8-0.9c-0.1-0.8-0.1-1.5-0.1-2.3C119.3,279.7,120,280.3,120.5,280.8z M98.6,292.1c0,0,0,0.1,0,0.1
		c-1.2-0.7-3.8-1.9-7.1-2.5c-1.3-0.5-2.3-0.9-3.2-1.2C91.6,288.6,95.1,289.6,98.6,292.1z M96.3,292.9c-1.2-0.4-2.9-0.7-4.9-0.9
		c-2.1-0.7-3.8-1.3-4.9-1.6c1.9-0.2,3.9-0.1,5.9,0.4C93.6,291.4,94.9,292.1,96.3,292.9z M86.2,290.4c0.8,0.4,2,0.9,3.6,1.5
		c-2.4,0-5.1,0.3-8.1,1.4c-0.9-0.3-1.8-0.6-2.8-0.9C80.6,291.6,83.2,290.7,86.2,290.4z M92.3,293.1c1,0.4,2,0.9,3.1,1.4
		c-1.3,0-3,0-5,0.1c-1.8-0.4-3.3-0.6-4.4-0.7c0.5,0.2,0.9,0.4,1.4,0.6c0.4,0.1,0.8,0.2,1.3,0.3c-0.7,0.1-1.4,0.2-2.1,0.3
		c-1.3-0.5-2.6-1-3.9-1.4C85.6,292.9,88.8,292.6,92.3,293.1z M58.1,319.7c-0.1-0.1-0.2-0.1-0.4-0.2c0.5-0.7,1-1.5,1.6-2.2
		C58.9,318.1,58.5,318.9,58.1,319.7z M57.6,321c-0.9,2-1.8,4.2-2.6,6.5c-0.3-0.2-0.7-0.4-1-0.6c0,0,0.3,0.2,1,0.6
		c-0.2,0.7-0.4,1.4-0.7,2.1c-0.4-0.2-0.9-0.5-1.3-0.7c0,0,0.5,0.3,1.3,0.8c-0.3,0.9-0.5,1.9-0.8,2.9c-0.8-0.3-1.5-0.6-2.3-0.9
		c1.6-4.1,3.6-7.7,5.8-11C57.2,320.7,57.4,320.8,57.6,321z M53.2,333.6c-0.3,1.1-0.5,2.3-0.8,3.5c-1-0.1-2-0.3-3-0.4
		c0.4-1.4,0.9-2.8,1.4-4.1C51.7,332.9,52.5,333.3,53.2,333.6z M54.8,334.3c1.6,0.7,3.3,1.2,4.9,1.7c-0.1,0.6-0.3,1.2-0.4,1.8
		c-1.8-0.1-3.6-0.3-5.4-0.6C54.2,336.3,54.5,335.3,54.8,334.3z M61.4,336.5c0.8,0.2,1.6,0.4,2.4,0.6c-0.1,0.3-0.1,0.6-0.2,1
		c-0.9,0-1.8-0.1-2.7-0.1C61.1,337.5,61.2,337,61.4,336.5z M64.2,337.2c1.7,0.4,3.3,0.7,4.8,0.9c-1.7,0-3.4,0-5,0
		C64.1,337.8,64.1,337.5,64.2,337.2z M69.6,337.2c-1.8-0.3-3.5-0.7-5.2-1.1c0.1-0.5,0.3-1,0.4-1.5c1.4,0.5,2.8,1,4.3,1.4
		c-0.1,0.6-0.2,0.9-0.2,0.9c0.1-0.3,0.2-0.6,0.2-0.9c0.3,0.1,0.6,0.2,0.9,0.2C70,336.6,69.8,336.9,69.6,337.2z M69.4,335.2
		c0.2-0.6,0.3-1.2,0.5-1.8c0.5,0.1,1,0.2,1.5,0.3c-0.3,0.6-0.6,1.1-0.9,1.7C70.2,335.4,69.8,335.3,69.4,335.2z M70.3,332.4
		c0.5-1.4,1-2.8,1.5-4c0.8,0.3,1.7,0.5,2.6,0.8c-0.8,1.2-1.6,2.4-2.3,3.5C71.5,332.6,70.9,332.5,70.3,332.4z M72.7,326.3
		c0.1-0.2,0.2-0.4,0.3-0.6c1.1,0.3,2.2,0.6,3.3,0.9c-0.1,0.2-0.3,0.3-0.4,0.5C74.8,326.9,73.7,326.6,72.7,326.3z M73.7,324.2
		c0.2-0.3,0.4-0.7,0.5-1c1.2,0.4,2.5,0.7,4,1c-0.3,0.3-0.5,0.6-0.7,0.9C76.2,324.8,74.9,324.5,73.7,324.2z M74.6,322.6
		c0.1-0.3,0.3-0.5,0.4-0.8c0,0,0,0,0,0c1.4,0.5,2.8,0.9,4.2,1.3c-0.1,0.1-0.2,0.2-0.3,0.3C77.5,323.3,76,323,74.6,322.6z
		 M80.8,323.5c0.2,0,0.3,0.1,0.5,0.1C81.1,323.6,80.9,323.6,80.8,323.5C80.8,323.6,80.8,323.6,80.8,323.5z M84.5,322.6
		c0.5-0.7,1-1.3,1.6-2c-0.3,0.7-0.5,1.4-0.8,2.1C85,322.7,84.8,322.7,84.5,322.6z M89.4,317.8c0.7,0.1,1.4,0.1,2,0.1
		c0.2,0.4,0.4,0.8,0.6,1.2c-1.1,0-2.2-0.1-3.3-0.2C89,318.5,89.2,318.1,89.4,317.8z M151.3,318.2
		C151.3,318.2,151.3,318.2,151.3,318.2c1.2-0.3,2.3-0.6,3.4-0.9c0.3,0.5,0.6,1,0.9,1.5c-1.2,0.2-2.4,0.5-3.7,0.8
		C151.7,319.1,151.5,318.7,151.3,318.2z M152.1,320.3c1.3-0.3,2.6-0.6,3.8-0.9c0.3,0.5,0.6,1,0.9,1.5c-1.4-0.2-3-0.3-4.6-0.4
		C152.2,320.4,152.2,320.4,152.1,320.3z M157.1,319.1c0.3-0.1,0.6-0.1,0.9-0.2c0.5,0.8,1,1.6,1.4,2.4c-0.4-0.1-0.9-0.2-1.3-0.2
		C157.8,320.4,157.5,319.8,157.1,319.1z M159.9,322.2c0.2,0.5,0.5,0.9,0.7,1.3c-0.5,0-1-0.1-1.5-0.1c-0.2-0.5-0.4-0.9-0.6-1.4
		C159,322.1,159.4,322.1,159.9,322.2z M160.8,324.1c0.1,0.2,0.2,0.4,0.3,0.6c-0.6-0.1-1.1-0.2-1.7-0.2c0-0.1-0.1-0.3-0.1-0.4
		C159.8,324,160.3,324,160.8,324.1z M163.1,326.4c0-0.1-0.1-0.3-0.1-0.4c0.6,0.1,1.3,0.2,1.9,0.3c0.1,0.2,0.2,0.4,0.3,0.7
		C164.4,326.8,163.8,326.6,163.1,326.4z M162.6,324.9c-0.1-0.3-0.2-0.5-0.3-0.8c0.4,0,0.8,0,1.2,0.1c0.2,0,0.3,0,0.4,0
		c0.2,0.3,0.3,0.7,0.5,1C163.8,325.1,163.2,325,162.6,324.9z M164.7,322.8c1.2,0.2,1.9,0.3,1.9,0.3c0,0-0.7-0.2-2-0.6
		c-0.5-1.6-1-3.1-1.5-4.5c1.2-0.2,1.9-0.2,1.9-0.1c0-0.1-0.7-0.1-2-0.1c-0.4-0.9-0.8-1.7-1.2-2.6c0.8-0.2,1.3-0.4,1.2-0.4
		c0,0-0.5,0.1-1.3,0.3c-1.9-3.6-4.1-6.3-6.4-8.4c-0.3-0.5-0.7-1.1-1.1-1.9c7.8,5.2,11.8,12.9,13.9,19.3c-0.5-0.1-1.5-0.1-2.9-0.3
		C165,323.6,164.9,323.2,164.7,322.8z M156.4,305.1C156.4,305.1,156.4,305,156.4,305.1c0.1,0.1,0.2,0.1,0.3,0.2
		C156.6,305.2,156.5,305.1,156.4,305.1z M155.5,304.4c-0.5-0.4-1.1-0.8-1.6-1.1C154.5,303.6,155,304,155.5,304.4
		C155.5,304.3,155.5,304.4,155.5,304.4z M152.3,301.3c-0.1-0.2-0.2-0.5-0.3-0.7c0.3,0.1,0.6,0.2,0.9,0.3c0.2,0.4,0.4,0.7,0.7,1
		C153.2,301.7,152.8,301.5,152.3,301.3z M158.1,291.8c-0.9-1.6-1.8-3.5-2.5-5.5c1,2.2,2.1,4,3.2,5.3
		C158.6,291.7,158.3,291.7,158.1,291.8z M155.5,289.5c0.4,0.9,0.9,1.8,1.5,2.7c-0.1,0-0.2,0.1-0.3,0.1c-0.6,0.2-1.2,0.4-1.8,0.6
		c-1.1-1.7-2.2-3.8-3-6.2c0.9,0.3,1.7,0.5,2.3,0.7C154.6,288,155,288.8,155.5,289.5z M154,293.1c-1,0.4-2,0.8-3.1,1.3
		c-0.5-1.4-0.9-2.9-1.2-4.4c0.2-0.1,0.3-0.1,0.3-0.1c0,0-0.1,0-0.3,0.1c-0.3-1.4-0.5-2.8-0.6-4.2c0.5,0.2,1,0.3,1.5,0.5
		C151.2,288.4,152.2,290.8,154,293.1z M148.9,290.2c0,0-0.1,0-0.1,0c-0.3-1.6-0.5-3.2-0.6-4.8c0,0,0,0,0,0
		C148.3,286.7,148.5,288.4,148.9,290.2z M121.1,275.8c-0.6-0.6-1.4-1.5-2.5-2.6c0.6,0.2,1.5,0.5,2.5,1
		C121,274.8,121.1,275.3,121.1,275.8z M120.8,273.6c-0.3-0.4-1.1-1.2-2.3-2.3c0.3-0.3,0.8-0.6,1.3-1c0.3,0,0.6,0,0.9,0
		c0.1,1.1,0.2,2.2,0.2,3.3C120.9,273.6,120.9,273.6,120.8,273.6z M120.6,269.4c-0.3-0.3-0.5-0.6-0.8-0.9c0.2-0.1,0.3-0.2,0.5-0.3
		c0.1,0.1,0.2,0.2,0.3,0.3C120.6,268.8,120.7,269,120.6,269.4C120.7,269.3,120.6,269.3,120.6,269.4z M120.6,268.3
		c-0.1-0.1-0.1-0.1-0.2-0.2c0,0,0.1,0,0.1-0.1C120.6,268.2,120.6,268.3,120.6,268.3z M120.2,267.8c-0.3-0.4-0.8-1-1.3-1.6
		c0.4-0.3,0.8-0.7,1.3-1c0.1,0.8,0.2,1.6,0.3,2.5C120.4,267.7,120.3,267.7,120.2,267.8z M118.8,265.9c0-0.5,0.1-1.1,0.2-1.6
		c0.2-0.2,0.4-0.3,0.6-0.5c0.2,0.3,0.4,0.6,0.6,0.9C119.6,265.1,119.2,265.5,118.8,265.9z M119,263.8c0-0.2,0-0.5,0.1-0.7
		c0.1,0.1,0.2,0.3,0.3,0.4C119.2,263.6,119.1,263.7,119,263.8z M117.5,264.1c-0.5-0.7-1-1.5-1.5-2.3c0.8,0.4,1.3,0.6,1.7,0.8
		C117.5,263.1,117.5,263.6,117.5,264.1z M117.3,265.3c0,0.1,0,0.2,0,0.3c-0.1,0.1-0.2,0.2-0.2,0.2c-0.6-0.5-1.2-1.1-1.8-1.7
		c0.5,0.2,0.9,0.3,1.3,0.4C116.8,264.8,117.1,265.1,117.3,265.3z M118.6,268.5c0.1,0.1,0.1,0.1,0.2,0.2c-0.1,0.1-0.2,0.1-0.2,0.1
		C118.6,268.7,118.6,268.6,118.6,268.5z M117,269.9C117,269.9,117,269.9,117,269.9c-0.1,0-0.1,0-0.1-0.1
		C117,269.8,117,269.8,117,269.9C117,269.8,117,269.8,117,269.9z M108.6,268.6c0,0-0.1-0.1-0.1-0.1c0.2,0.1,0.4,0.1,0.6,0.2
		C108.9,268.7,108.7,268.6,108.6,268.6z M106.1,270c1,0.6,2,1.2,3,1.9c0.8,0.5,1.6,1.1,2.4,1.6c-0.7,0.1-1.5,0.2-2.4,0.3
		c-2.3-1.4-4.4-2.6-6.2-3.7C104,270.1,105.1,270.1,106.1,270z M112.2,274c1.8,1.3,3.5,2.6,4.9,3.8c0,0.7,0.1,1.4,0.1,2.1
		c-1.7-1.6-3.9-3.4-6.5-5.1c-0.2-0.1-0.4-0.2-0.6-0.4C110.9,274.3,111.6,274.1,112.2,274z M100.6,281.7c-3.9-1.9-6.9-3.1-8.1-3.6
		c1.2,0.5,4.3,1.7,8.2,3.4C100.7,281.6,100.7,281.7,100.6,281.7z M98.6,285.3c-1.2-0.5-2.4-0.9-3.4-1.2c0,0-0.1-0.1-0.1-0.1
		c-0.3-0.4-0.6-0.9-1-1.3c1.3,0.7,2.9,1.6,4.6,2.5C98.7,285.2,98.6,285.2,98.6,285.3z M86.3,287.9c-0.2,0-0.3-0.1-0.3,0
		C86,287.9,86.1,287.9,86.3,287.9c-2.8,0.2-6.5,1.1-10.5,3.4c-0.5-0.2-1-0.3-1.5-0.5c4.6-2.4,10.2-4.2,15.8-2.9
		C90.1,288,88.6,287.7,86.3,287.9z M87.7,288.5c0.6,0.3,1.3,0.6,2.2,1c-3.4-0.3-7.3,0.3-11.4,2.7c-0.5-0.2-1.1-0.4-1.6-0.5
		C80,290,83.7,288.6,87.7,288.5z M77.9,294.9c-3.3,1.7-6.8,4.2-10.3,7.9c1.9-1.9,5.8-5.4,11-7.7c0.3,0.1,0.6,0.2,0.9,0.3
		c-1.7,1-5.3,3.3-9.5,7.4c-1.5,1.2-3,2.7-4.4,4.3c0,0,0.6-0.6,1.7-1.5c-1,1.2-2.1,2.4-3.1,3.8c-2.9,3.1-5.4,6.3-7.4,9.5
		c-0.6-0.4-1.1-0.7-1.7-1.1c9-14.2,20.3-22.4,21.6-23.4C77.2,294.6,77.6,294.8,77.9,294.9z M56.3,320c-2.4,3.9-4.2,7.8-5.5,11.4
		c-0.7-0.3-1.4-0.6-2-0.9c1.7-4.3,3.7-8.2,5.9-11.8C55.2,319.1,55.7,319.5,56.3,320z M50.5,332.3c-0.5,1.5-0.9,2.9-1.3,4.2
		c-0.8-0.1-1.6-0.3-2.3-0.4c0.5-1.7,1.1-3.3,1.7-4.8C49.1,331.7,49.8,332,50.5,332.3z M48.8,338c-0.2,0.8-0.4,1.5-0.5,2.2
		c-0.8-0.2-1.6-0.4-2.4-0.7c0.2-0.7,0.4-1.4,0.5-2.1C47.2,337.7,48,337.9,48.8,338z M48.2,340.5c-0.2,1.1-0.4,2.1-0.6,3.1
		c-0.8-0.2-1.7-0.5-2.5-0.8c0.2-1,0.4-2.1,0.7-3.1C46.6,340,47.4,340.3,48.2,340.5z M47.5,344.3c-0.1,0.5-0.1,0.9-0.2,1.4
		c-0.9-0.1-1.7-0.3-2.6-0.5c0.1-0.6,0.2-1.3,0.3-1.9C45.9,343.7,46.7,344,47.5,344.3z M47.3,346.8c-0.1,1-0.2,1.9-0.2,2.6
		c-0.9-0.2-1.8-0.4-2.8-0.6c0.1-0.9,0.2-1.8,0.3-2.6C45.5,346.4,46.4,346.6,47.3,346.8z M47.4,346.8c1.2,0.3,2.5,0.5,3.7,0.8
		c-0.1,0.8-0.1,1.7-0.1,2.5c-1.3-0.2-2.6-0.4-3.9-0.6C47.3,348.5,47.3,347.7,47.4,346.8z M47.6,345.8c0.1-0.5,0.1-0.9,0.2-1.4
		c1.1,0.4,2.3,0.8,3.6,1.2c0,0.3,0,0.5-0.1,0.8C50.1,346.2,48.9,346,47.6,345.8z M47.9,343.6c0.2-1,0.4-2,0.6-3
		c1.1,0.3,2.2,0.6,3.3,0.9c-0.1,1-0.3,1.9-0.3,2.9C50.3,344.2,49.1,344,47.9,343.6z M48.5,340.4c0.2-0.8,0.3-1.5,0.5-2.3
		c1.1,0.2,2.1,0.4,3.1,0.6c-0.1,0.8-0.3,1.6-0.4,2.4C50.7,340.9,49.6,340.6,48.5,340.4z M53.5,338.9c1.9,0.3,3.7,0.5,5.5,0.7
		c-0.1,0.9-0.3,1.7-0.4,2.6c-1.9-0.2-3.8-0.5-5.8-0.8C53.1,340.5,53.3,339.7,53.5,338.9z M60.5,339.7c1,0.1,1.9,0.1,2.9,0.2
		c-0.1,1-0.2,1.9-0.3,2.6c-1,0-2.1-0.1-3.2-0.2C60.1,341.4,60.3,340.6,60.5,339.7z M63.6,339.8c1.7,0.1,3.3,0.1,4.8,0
		c-0.4,1-0.8,1.9-1,2.6c-1.4,0-2.8,0-4.2,0C63.4,341.6,63.5,340.7,63.6,339.8z M76.4,336.3c0.2-0.6,0.5-1.1,0.8-1.6
		c1.7,0.2,3.5,0.3,5.3,0.2c-0.1,0.5-0.1,1.1-0.2,1.6C80.6,336.5,78.6,336.5,76.4,336.3z M76.1,336.3c-1.5-0.1-3.1-0.4-4.8-0.7
		c0.3-0.6,0.7-1.1,1-1.7c1.4,0.3,2.9,0.5,4.4,0.7C76.5,335.2,76.3,335.7,76.1,336.3z M73.1,332.8c0.8-1.2,1.6-2.3,2.4-3.3
		c1,0.3,2.1,0.5,3.2,0.7c-0.5,1-0.9,2-1.3,2.9C76,333,74.6,332.9,73.1,332.8z M77.2,327.5c0.1-0.2,0.3-0.3,0.4-0.5
		c0.8,0.2,1.7,0.3,2.5,0.4c-0.1,0.2-0.2,0.4-0.3,0.6C78.9,327.8,78.1,327.7,77.2,327.5z M79.1,325.3c0.3-0.3,0.6-0.6,0.8-0.9
		c0.6,0.1,1.1,0.2,1.7,0.2c-0.2,0.3-0.4,0.7-0.6,1C80.4,325.5,79.7,325.4,79.1,325.3z M86.9,323c0.3-0.8,0.7-1.6,1.1-2.4
		c1.8,0.2,3.6,0.3,5.4,0.3c0.5,0.6,1,1.1,1.5,1.6c-1.6,0.4-3.3,0.7-5,0.9C88.9,323.3,87.9,323.2,86.9,323z M149.9,321.6
		c0.3,0,0.7,0,1,0c0.3,0.7,0.6,1.3,0.8,2c-0.2,0-0.3,0-0.5,0l-1,0.1c-0.6,0-1.2,0-1.8,0C149,323.1,149.5,322.4,149.9,321.6z
		 M152.6,321.7c1.7,0,3.3,0.1,4.7,0.3c0.3,0.5,0.5,1,0.7,1.5c-1.5,0-3.2,0-4.9,0.1C153,322.9,152.8,322.3,152.6,321.7z M158.4,324
		c0,0.1,0.1,0.2,0.1,0.3c-0.6-0.1-1.2-0.1-1.9-0.2l-0.8-0.1C156.7,324.1,157.6,324,158.4,324z M159.8,325.6c0.6,0.1,1.3,0.1,1.9,0.2
		c0,0.1,0.1,0.2,0.1,0.3C161.2,326,160.5,325.8,159.8,325.6C159.8,325.7,159.8,325.7,159.8,325.6z M162.4,327.4c0,0.1,0,0.1,0.1,0.2
		c0,0.1,0.1,0.2,0.1,0.3c-0.7-0.1-1.4-0.1-2.2-0.2c-0.1-0.3-0.1-0.5-0.2-0.8C160.9,327.1,161.7,327.3,162.4,327.4z M162.8,328.6
		c0.1,0.3,0.2,0.6,0.3,0.9c-0.7-0.1-1.5-0.1-2.3-0.1c-0.1-0.3-0.1-0.6-0.2-0.9C161.3,328.5,162.1,328.6,162.8,328.6z M163.7,328.7
		c0.7,0.1,1.4,0.1,2.1,0.2c0,0.1,0.1,0.3,0.1,0.4c0,0.2,0.1,0.4,0.1,0.6c-0.6-0.1-1.3-0.2-2.1-0.2
		C163.8,329.3,163.7,329,163.7,328.7z M165.3,324.2c1.3,0,2.3,0,2.8,0c0.2,0.6,0.4,1.3,0.6,1.9c-0.9-0.2-1.9-0.4-2.9-0.7
		C165.6,325.1,165.5,324.6,165.3,324.2z M168.4,324.3C168.5,324.3,168.5,324.3,168.4,324.3C168.5,324.3,168.5,324.3,168.4,324.3
		c-1.3-4.7-3.1-8.6-5.2-11.7c-2.1-4.8-5.2-7.9-8.4-9.9c-0.2-0.4-0.5-0.8-0.8-1.3c1.3,0.6,2.5,1.2,3.6,2c8.5,6.8,10.8,19.3,11.2,22.7
		C168.8,325.5,168.6,324.9,168.4,324.3z M161.1,291c-2.1-3.1-4.1-7.1-5-11.7c1.8,4.7,4.3,8.4,6.7,11.3
		C162.3,290.7,161.7,290.9,161.1,291z M159.2,273.1c0.7,2.4,2.9,9.4,7.8,15.5c-4.2-3-8.1-7.4-9.9-13.7
		C157.8,274.3,158.5,273.7,159.2,273.1z M157.6,278.7c1.7,3.1,4.7,7.6,9.6,11.1c-1.2,0.2-2.3,0.4-3.4,0.6
		C160.8,286.2,158.8,281.7,157.6,278.7z M169.4,289.4c-3.2-3.6-6.4-8.4-8.3-14.5c1.4,3.8,4.5,9.8,10.4,14.1
		C170.8,289.2,170.1,289.3,169.4,289.4z M162,272.6c1.9,3.8,6.8,11.6,15.7,15.7c-1.7,0.2-3.3,0.4-4.8,0.6
		C169,285.7,164.2,280.4,162,272.6z M162.3,270.7c0.1-0.1,0.2-0.1,0.3-0.2c0.4,0,0.7,0,1.1,0c1.5,3.4,5.8,11.6,15.7,17.7
		c-0.2,0-0.5,0.1-0.7,0.1C174.1,285.7,166.3,280.2,162.3,270.7z M159.2,270.4c-0.1,0.2-0.2,0.4-0.2,0.4c-0.1,0.1-0.3,0.2-0.4,0.3
		C158.8,270.9,159,270.7,159.2,270.4C159.2,270.4,159.2,270.4,159.2,270.4z M155,276.7c-0.1,1.2-0.3,7.5,5.1,14.5
		c-0.2,0.1-0.4,0.1-0.6,0.2c-3.9-5.1-5.1-11.9-5.4-13.9C154.4,277.2,154.7,277,155,276.7z M153,278.5c0,1.4,0.1,4,1,7.1
		c-0.8-1.8-1.4-3.9-1.9-6.2C152.4,279,152.7,278.8,153,278.5z M154,287c-0.6-0.3-1.4-0.6-2.4-1c-0.5-1.7-0.8-3.6-0.8-5.5
		c0.2-0.2,0.4-0.3,0.5-0.5C151.8,281.6,152.6,284.2,154,287z M150.4,285.4c-0.4-0.2-0.9-0.4-1.3-0.6c0-0.9,0-1.9,0.1-2.8
		c0.3-0.3,0.5-0.5,0.8-0.8C150,282.3,150.1,283.8,150.4,285.4z M145.5,283.2c-0.3-0.1-0.5-0.2-0.8-0.4c1.4-0.9,2.5-1.5,3-1.8
		C146.9,281.8,146.2,282.5,145.5,283.2z M144.6,284.2c-0.4,0.4-0.9,0.9-1.3,1.3c-0.2,0.1-0.5,0.3-0.8,0.4c-0.1-0.5-0.2-1-0.4-1.5
		c0.4-0.2,0.8-0.5,1.1-0.7C143.7,283.9,144.1,284,144.6,284.2z M141.9,283.8c-0.1-0.2-0.2-0.4-0.3-0.7c0.3,0.1,0.6,0.2,0.9,0.3
		C142.3,283.5,142.1,283.7,141.9,283.8z M126.1,275.3c-0.5-0.2-0.9-0.3-1.4-0.5c1.2-1.3,2.8-2.8,4.6-4.4c0.5,0,0.9,0,1.4,0
		C128.9,272.1,127.4,273.8,126.1,275.3z M124.1,274.6c-0.1,0-0.2-0.1-0.3-0.1c1-1.1,2.3-2.6,3.9-4.1c0,0,0.1,0,0.1,0
		C126.3,271.9,125,273.3,124.1,274.6z M122.9,269.8c-0.2,0-0.4,0-0.5,0c0.3-0.5,0.7-1.2,1.3-2c0.2-0.1,0.3-0.2,0.5-0.3
		C123.7,268.4,123.3,269.2,122.9,269.8z M122.2,269.9c-0.3,0-0.5,0-0.8,0.1c0-0.2,0-0.4-0.1-0.6c0.4-0.3,0.9-0.6,1.4-0.9
		C122.5,269,122.3,269.5,122.2,269.9z M122.3,268c0.1-0.3,0.3-0.7,0.4-1.1c0.4-0.2,0.7-0.4,1.1-0.6c-0.2,0.3-0.4,0.7-0.6,1
		C123,267.5,122.7,267.8,122.3,268z M122.1,268.2c-0.3,0.2-0.6,0.4-0.8,0.6c0-0.4-0.1-0.7-0.1-1.1c0.4-0.2,0.7-0.4,1.1-0.6
		C122.2,267.6,122.1,267.9,122.1,268.2z M119.9,263.5c0,0,0.1-0.1,0.1-0.1c0,0.2,0,0.3,0.1,0.5C120,263.7,120,263.6,119.9,263.5z
		 M119.7,263.1c-0.2-0.3-0.3-0.6-0.5-1c0-0.2,0.1-0.3,0.1-0.5c0.2,0.1,0.4,0.2,0.5,0.3c0,0.3,0.1,0.7,0.1,1
		C119.9,262.9,119.8,263,119.7,263.1z M119.3,261.5c0.1-0.5,0.2-1,0.2-1.6c0.1,0.6,0.2,1.3,0.3,1.9
		C119.7,261.7,119.5,261.6,119.3,261.5z M117.8,261.1c-0.1,0.5-0.1,0.9-0.2,1.4c-0.4-0.3-1.1-0.7-2-1.2c-0.5-0.7-1-1.5-1.5-2.3
		c1.3,0.7,2.5,1.2,3.4,1.7C117.6,260.8,117.7,261,117.8,261.1z M116.1,264c-0.5-0.2-1.1-0.5-1.9-0.9c-0.3-0.2-0.5-0.5-0.8-0.7
		c0.7,0.3,1.4,0.6,2,0.9C115.6,263.6,115.8,263.8,116.1,264z M108.9,260.7c-0.6-0.3-1.2-0.5-1.8-0.8c0.6,0.2,1.1,0.4,1.6,0.6
		C108.8,260.5,108.8,260.6,108.9,260.7z M117.1,268.6c0,0.4,0,0.7-0.1,1.1c-0.1,0-0.2,0-0.3,0c-0.3-0.3-0.6-0.6-1-0.9
		c0.8,0.1,1.2,0.2,1.2,0.2c0,0-0.5-0.1-1.5-0.3c-0.2-0.2-0.5-0.5-0.8-0.7C115.8,268.2,116.6,268.4,117.1,268.6z M113.7,268.1
		c-0.5-0.1-1-0.2-1.5-0.3c-0.6-0.5-1.3-1-2-1.5c0.8,0.3,1.5,0.5,2.2,0.8C112.8,267.4,113.2,267.8,113.7,268.1z M114.2,268.5
		c0.4,0.3,0.8,0.6,1.2,0.9c-0.4,0-0.8-0.1-1.3-0.1c-0.4-0.3-0.8-0.7-1.2-1C113.4,268.4,113.8,268.5,114.2,268.5z M111.8,268.8
		c-0.5-0.2-1-0.4-1.5-0.5c-0.1-0.1-0.3-0.2-0.4-0.3c0.3,0,0.6,0.1,0.9,0.1C111.2,268.3,111.5,268.6,111.8,268.8z M106,267.8
		c0.2,0.2,0.4,0.4,0.7,0.5c-0.5-0.1-1.1-0.1-1.6-0.2c-0.7-0.4-1.4-0.8-2.1-1.2C104,267.3,105,267.6,106,267.8z M101.8,270.2
		c1.6,1.1,3.5,2.4,5.7,3.8c-0.6,0.1-1.1,0.1-1.7,0.2c-2.7-1.5-5.1-2.9-7.2-4C99.7,270.2,100.8,270.2,101.8,270.2z M108.6,274.7
		c0.5,0.3,1,0.6,1.5,1c1.3,0.9,2.5,1.7,3.6,2.5c-0.9-0.3-1.8-0.5-2.7-0.6c-1-0.7-2-1.4-3.1-2.1c-0.3-0.2-0.5-0.3-0.8-0.5
		C107.7,274.9,108.2,274.8,108.6,274.7z M107.4,276.3c0.6,0.4,1.3,0.8,1.9,1.2c-0.4,0-0.8,0-1.1,0.1c-1.4-0.8-2.8-1.5-4-2.1
		c0.5-0.1,1-0.2,1.5-0.3C106.2,275.7,106.8,276,107.4,276.3z M106.7,278c-0.7,0.2-1.3,0.4-2,0.7c-1.8-0.9-3.4-1.7-5-2.4
		c1.1-0.2,2.1-0.3,3.1-0.5C104,276.4,105.3,277.2,106.7,278z M103.6,279.2c-0.6,0.3-1.1,0.7-1.6,1.2c-2.9-1.3-5.5-2.4-7.5-3.4
		c0.1,0,0.1,0,0.2,0c1.3-0.2,2.6-0.3,3.8-0.5C100,277.3,101.7,278.2,103.6,279.2z M98.8,279.9c-4-1.4-6.8-2-6.8-2c0,0,0,0,0,0
		c0,0,0,0,0,0c0,0.1,3.3,1.8,8.1,4.5c-0.4,0.6-0.8,1.2-1.1,1.9c-2.1-1.1-4-1.9-5.6-2.6c-1.1-1.4-2.4-2.8-3.8-4.4
		c1.3-0.1,2.6-0.2,4-0.3C95,277.9,96.7,278.9,98.8,279.9z M87.9,280.7c0,0-4-2-10.5-2.4c1.3-0.1,2.7-0.2,4.3-0.4
		C84,278.6,86,279.4,87.9,280.7z M79.3,277.4c-1.9,0.3-3.6,0.7-4.8,0.9c-5.9,0.2-13.3,1.8-21.5,7c-0.9-0.2-1.9-0.4-2.8-0.6
		c5.7-3.2,12.4-6.3,19.2-7.7C72.7,276.8,76,276.8,79.3,277.4z M87.7,281.5c-6.1-2-16.2-2.8-30,4.8c-1.3-0.3-2.7-0.6-4-0.9
		C60.2,282.3,74.6,276.7,87.7,281.5z M59.4,289.6c-5.3,2.6-10,5.3-14.2,7.9c3.2-2.8,6.9-5.6,10.9-8.5l-0.7-0.4
		C56.6,288.9,58,289.2,59.4,289.6z M89,285.1c0,0-9.5-3-20.9,3.9c-1.2-0.3-2.4-0.7-3.6-1C71.5,284.3,81.4,280.8,89,285.1z
		 M89.5,286.6c0,0-7.5-1.5-16.5,3.9c-1.2-0.4-2.4-0.7-3.6-1.1C75.1,286.5,82.6,284.1,89.5,286.6z M69,297.1c-0.4,0.5-0.9,1-1.3,1.6
		c0,0,2.4-2.6,6.2-5.2c0.7,0.2,1.5,0.5,2.3,0.7l-2.4-0.4c-8.8,8.2-15,16.1-19.4,23.3c-0.7-0.5-1.5-1.1-2.2-1.7
		C56.3,309.4,61.8,303.2,69,297.1z M51.8,315.9c0.6,0.6,1.2,1.3,2.1,2c-2.6,4.4-4.5,8.5-5.9,12.2c-1.3-0.6-2.4-1.2-3.4-1.7
		C46.4,324.4,48.8,320.2,51.8,315.9z M47.6,330.8c-0.7,1.8-1.2,3.5-1.7,5.2c-1.5-0.3-2.9-0.6-4.3-0.9c0.7-2,1.6-4.1,2.6-6.3
		C45.4,329.6,46.5,330.2,47.6,330.8z M44.5,343.1c-0.1,0.7-0.2,1.4-0.3,2.1c-1.7-0.3-3.4-0.6-5.2-1c0.2-1,0.5-2.1,0.8-3.2
		C41.2,341.7,42.8,342.4,44.5,343.1z M44.1,346.1c-0.1,1.1-0.1,2-0.1,2.7c-1.8-0.4-3.7-0.9-5.6-1.5c0.1-0.8,0.3-1.6,0.5-2.5
		C40.5,345.2,42.3,345.6,44.1,346.1z M44,349.7c0,0.8,0.1,1.2,0.1,1.2c0-0.4,0.1-0.8,0.1-1.2c0.9,0.3,1.8,0.5,2.8,0.8
		c0,0.9,0,1.3,0,1.3c0-0.4,0.1-0.9,0.1-1.3c1.3,0.3,2.6,0.7,3.9,0.9c0,0.1,0,0.2,0,0.4c0,0,0-0.1,0-0.4c2.2,0.5,4.6,0.9,7,1.1
		c0,0.4,0,0.8,0,1.1c-7.9,0-14.9-1.5-20.2-3.2c0.1-0.9,0.3-1.8,0.4-2.8C39.9,348.3,41.8,349,44,349.7z M58.3,352.6
		c4.9,0.5,9.9,0.3,14.7-1c-0.1,0.1-0.2,0.2-0.2,0.2c-5.1,1.3-9.9,1.9-14.5,1.9C58.2,353.4,58.3,353,58.3,352.6z M75.1,349.4
		c-3.5,0.8-9.1,1.7-16.6,1.3c0.1-0.6,0.1-1.2,0.2-1.9C65.2,349.9,71.2,350.3,75.1,349.4C75.1,349.4,75.1,349.4,75.1,349.4z
		 M58,350.8c-2.1-0.1-4.4-0.3-6.8-0.7c0.1-0.7,0.2-1.5,0.4-2.4c2.2,0.4,4.3,0.8,6.5,1.1C58,349.4,58,350.1,58,350.8z M51.8,346.4
		c0-0.2,0.1-0.5,0.1-0.7c2,0.6,4.1,1,6.2,1.4c0,0,0,0.1,0,0.1C56.2,347.1,54.1,346.8,51.8,346.4z M52.1,344.6
		c0.2-0.9,0.4-1.8,0.6-2.8c1.9,0.5,3.8,0.9,5.8,1.2c-0.1,0.8-0.2,1.6-0.3,2.5C56.3,345.3,54.2,345,52.1,344.6z M67.7,342.5
		c0.4-0.9,0.8-1.8,1.3-2.6c2.1-0.1,4.1-0.2,5.9-0.4c-0.3,0.9-0.6,1.7-0.8,2.5C72.1,342.2,69.9,342.4,67.7,342.5z M75.1,339.5
		c1.6-0.2,3.1-0.4,4.6-0.6c0.9,0,1.7,0,2.4-0.1c0,0.6-0.1,1.1-0.1,1.7c-2.2,0.5-4.8,1.1-7.8,1.4C74.5,341.1,74.8,340.3,75.1,339.5z
		 M82.3,338.8c1.6-0.1,2.9-0.2,4.1-0.4c-0.5,0.4-0.9,0.9-1.4,1.3c-0.9,0.3-1.9,0.5-3,0.8C82.1,340.1,82.2,339.6,82.3,338.8z
		 M90.6,334.5c-2.2,0.8-4.4,1.5-6.7,2c-0.4,0-0.8,0-1.2,0c0.1-0.5,0.2-1,0.4-1.6c2.5,0,5.2-0.3,7.9-0.8
		C90.9,334.2,90.8,334.3,90.6,334.5z M77.9,333.1c0.5-1,1-1.9,1.5-2.8c1.2,0.2,2.4,0.3,3.7,0.5c-0.1,0.8-0.3,1.5-0.4,2.3
		C81.2,333.1,79.6,333.1,77.9,333.1z M80.7,328.1c0.1-0.2,0.2-0.4,0.4-0.6c0.9,0.1,1.8,0.2,2.7,0.3c-0.1,0.2-0.1,0.5-0.2,0.7
		C82.7,328.4,81.7,328.3,80.7,328.1z M82.2,325.8c0.2-0.3,0.5-0.7,0.7-1c0.5,0,1.1,0.1,1.7,0.1c-0.1,0.4-0.2,0.7-0.3,1.1
		C83.6,325.9,82.9,325.9,82.2,325.8z M86.2,324.9c1,0,2,0,3-0.1c3.3,0.2,6.2,0.1,8.7-0.1c0.4,0.2,0.8,0.4,1.2,0.6
		c-4.5,0.9-9.1,1.1-13.4,0.8C85.9,325.7,86,325.3,86.2,324.9z M128.3,331.9c0-0.6-0.1-1.1-0.1-1.7c0.1-0.4,0.2-0.9,0.4-1.3
		c0.2,0.1,0.4,0.2,0.6,0.2C128.9,330,128.6,330.9,128.3,331.9z M146.8,325.6c0.4,0,0.9,0,1.3,0l-1,0.2c-0.2,0-0.4,0.1-0.6,0.1
		C146.6,325.8,146.7,325.7,146.8,325.6z M145.4,326.8c0.6-0.1,1.2-0.2,1.9-0.2c2-0.4,3.8-0.5,5.4-0.5c0.2,0.5,0.4,1,0.5,1.5
		c-3.7,0.1-6.9,0.8-9.4,0.9c-0.5,0.1-1,0.2-1.4,0.2C143.5,328.1,144.5,327.5,145.4,326.8z M153.8,326c1.5,0.2,3,0.4,4.6,0.6
		c0.4,0.1,0.8,0.2,1.2,0.2c0.1,0.3,0.2,0.6,0.4,0.9c-1-0.1-2.1-0.1-3.1-0.1c-0.9-0.1-1.8-0.1-2.7-0.1C154.1,327,154,326.5,153.8,326
		z M153.9,329.8c-3.5,0.7-6.8,1.1-9.1,2.1c-0.9,0.3-1.5,0.7-2.1,1.1c-0.5-0.5-1-1-1.5-1.5c1.8-0.6,4.7-1.5,8.2-2
		c1.5-0.2,2.9-0.3,4.2-0.3C153.8,329.4,153.9,329.6,153.9,329.8z M160.8,330c0.1,0.4,0.2,0.6,0.2,0.6
		C161,330.4,160.9,330.2,160.8,330c0.9,0,1.7,0,2.4,0c0.1,0.3,0.2,0.6,0.3,0.9c-0.3,0-0.6,0-0.9,0c-2.7,0.1-5.3,0.5-7.7,0.9
		c-0.1-0.5-0.1-0.9-0.2-1.3C156.9,330.2,159,330.1,160.8,330z M164,330c0.8,0,1.5,0,2.1,0c0,0.3,0.1,0.5,0.1,0.8
		c0-0.3-0.1-0.5-0.1-0.8c0,0,0.1,0,0.1,0c0.1,0.3,0.2,0.6,0.3,0.9c-0.8,0-1.6-0.1-2.4-0.1C164.1,330.6,164,330.3,164,330z
		 M166,329.8c0-0.2,0-0.3-0.1-0.5c0.1,0.2,0.1,0.3,0.2,0.5C166.1,329.8,166.1,329.8,166,329.8z M166.1,326.5c1,0.2,1.9,0.3,2.8,0.5
		c0.1,0.4,0.2,0.9,0.3,1.3c-0.9-0.3-1.8-0.6-2.8-0.9C166.3,327.1,166.2,326.8,166.1,326.5z M169,326.2c-0.1-6.4-1.8-11.4-3.9-15.2
		c2.2,3.2,3.2,5.8,3.2,5.8c-2-7.2-6-11.7-10.1-14.5c9.3,5.9,12.9,18.6,14.1,24.8C171.3,326.9,170.2,326.5,169,326.2z M172.1,322.7
		c0.5,1.9,0.8,3.5,0.9,4.7c-0.1,0-0.2-0.1-0.3-0.1C172.6,325.7,172.3,324.1,172.1,322.7z M166.9,296.9c3.2,1.1,6.3,2.9,9,5.2
		c-3.7-2.8-7.2-4.4-9.6-5.3C166.6,296.8,166.8,296.9,166.9,296.9z M182.7,287.8c-0.9,0.1-1.7,0.2-2.6,0.2c-4-2.7-8.9-6.6-12.2-11.9
		c2.4,2.9,5.7,6.2,10.4,9.1c0.6,0.5,1.1,1.1,1.7,1.6c0,0-0.5-0.5-1.3-1.3C180,286.3,181.3,287.1,182.7,287.8z M165.6,271.6
		c-0.1-0.4-0.3-0.7-0.4-1.1c0.7,0,1.3,0,1.9,0c1.9,3.6,4.1,6.4,6.2,8.6c1,1.6,2.2,3.3,3.6,4.8C173.1,281,168.6,276.9,165.6,271.6z
		 M170.5,273.6c-0.7-1.1-1.3-2.1-1.7-3.1c0.2,0,0.4,0,0.6,0C169.7,271.5,170.1,272.5,170.5,273.6z M170.1,270
		c-0.2-0.7-0.3-1.4-0.5-2.1c0.4,0.7,0.8,1.4,1.4,2.2C170.7,270.1,170.4,270.1,170.1,270z M174.7,270.5c-0.4,0-1.1-0.1-2.2-0.2
		c-1.1-1.7-2-3.5-2.7-5.4c0.3-0.2,0.6-0.5,0.9-0.7C171.4,265.6,172.7,267.9,174.7,270.5z M178.7,258.5c0.2-0.2,0.5-0.3,0.7-0.5
		c0.3,0.5,0.6,1,1,1.4L178.7,258.5z M182.7,260.9c-1.2-1.5-2-2.6-2.5-3.3c0.4-0.3,0.9-0.6,1.3-0.9c1.1,2.1,2.5,4.1,3.9,5.8
		L182.7,260.9z M198.6,270.1l-7.6-4.4c-4.7-4.3-7.1-8.3-8-9.9c0.1-0.1,0.2-0.1,0.3-0.2C188.3,262.4,193.9,267,198.6,270.1z
		 M192.9,250.5c0.1,0,0.2-0.1,0.3-0.1c2.3,2.4,9.1,8,14.1,12C200.6,257.2,194.9,252.2,192.9,250.5z M217.5,269.6
		c-2.2-1.4-4.4-2.9-6.6-4.5L194,250.1c0.3-0.1,0.6-0.2,0.9-0.3l12.1,11.1l-11.6-11.4c0.2-0.1,0.4-0.2,0.7-0.2L217.5,269.6z
		 M209.8,255.4l-9.1-7.4c0.6-0.2,1.3-0.3,1.9-0.4C204.7,249.5,207.4,252.5,209.8,255.4z M210.2,244.9c-2.4,0.1-4.7,0.4-7,0.9
		c3.6-2.8,8-3.9,11.6-4.4C211.6,242.3,210.5,244,210.2,244.9z M210.9,241.4c-4.7,1-7.6,3.2-9,4.5l-0.9,0.2c0.1,0,0.1,0.1,0.2,0.1
		c-0.5,0.1-1.1,0.3-1.6,0.4C202.5,243,206.9,241.7,210.9,241.4z M188.4,251c0.4-1.4,1.1-3.3,2.5-5.1c0,0,0.1,0,0.1,0c0,0,0,0-0.1,0
		c0.6-0.7,1.3-1.5,2.1-2.1c0.4-0.1,0.7-0.3,1.1-0.4c-2.4,2.7-3,5.7-3.1,6.4C190.1,250.1,189.2,250.6,188.4,251z M195,242.4
		c-0.3,0.3-0.7,0.6-1,1c-0.3,0.1-0.7,0.2-1.1,0.4C193.6,243.2,194.3,242.8,195,242.4z M190.3,245.9c-0.2,0-0.5,0-0.8,0.1
		c0.8-0.7,1.6-1.3,2.6-1.8C191.4,244.7,190.8,245.3,190.3,245.9z M181.8,251.6c-1.5,0.7-3,1.4-4.4,2.2c2.1-2.6,5.1-5.3,8.9-6.8
		C184.5,248.4,183,250.1,181.8,251.6z M176,253.2c-0.8,0.9-1.6,1.8-2.3,2.9c-1.1,0.7-2.1,1.4-3,2.1c0.4-0.8,0.9-1.5,1.4-2.2
		C173.5,254.9,174.8,254,176,253.2z M169.4,258.2c-0.3,0.5-0.5,1-0.7,1.5c-1.7,1.3-3.1,2.7-4.5,4
		C165.9,261.6,167.6,259.8,169.4,258.2z M146.5,270.4c4.2,0,8.3,0,11.9,0c-0.7,1-1.3,1.8-1.7,2.4c-1.7,1.4-3.3,2.9-4.9,4.4
		c0-0.1,0-0.2,0-0.3l-0.4,0.7c-1.2,1.1-2.4,2.3-3.5,3.4c-0.5,0.2-1.8,0.8-3.6,1.7c-0.5-0.2-1-0.4-1.5-0.6c3.8-2.6,6.3-4.2,6.3-4.1
		c0,0-3,1.3-7.1,3.8c-0.5-0.2-0.9-0.4-1.4-0.6c-0.1-0.2-0.3-0.4-0.5-0.6c4.5-3,7.9-4.6,8-4.6c0,0-3.7,1.1-8.5,4c0,0-0.1-0.1-0.1-0.1
		c4.3-3.1,7.6-4.9,7.6-4.8c0,0-3.7,1.3-8.3,4.2c-0.1-0.1-0.3-0.3-0.4-0.4c4.8-3.8,8.7-5.8,8.7-5.9c0,0-4.3,1.6-9.5,5.3
		c-0.7-0.5-1.5-1-2.4-1.3c4.4-3.7,7.6-6.3,7.9-5.9c-0.2-0.4-2.8,1-6.3,3.6c2.1-1.7,3.9-3.1,5.2-4
		C143.4,270.5,144.9,270.5,146.5,270.4z M141.1,270.5c-2.1,1.2-5,3.1-8.1,5.7c-0.1,0-0.3-0.1-0.5-0.1c2.8-2.4,5.4-4.4,7.2-5.6
		C140.2,270.5,140.7,270.5,141.1,270.5z M139,270.5c-2.1,1.1-4.9,2.9-7.8,5.5c0,0,0,0,0,0c0.3-0.2,0.6-0.5,0.8-0.7
		c2.2-1.8,4.3-3.4,6.1-4.7C138.3,270.5,138.7,270.5,139,270.5z M136.7,270.5c-1.7,1.1-3.5,2.4-5.4,3.9c-0.6,0.5-1.2,1-1.7,1.6
		c-0.4,0-0.9,0.1-1.3,0.2c-0.2-0.1-0.4-0.1-0.6-0.2c1-0.9,2.2-1.9,3.4-2.9c1-0.9,1.9-1.7,2.8-2.5
		C134.8,270.4,135.7,270.5,136.7,270.5z M132.4,270.4c-0.4,0.3-0.8,0.7-1.2,1c0.2-0.1,0.3-0.3,0.5-0.4
		C131.8,270.8,132,270.6,132.4,270.4C132.3,270.4,132.3,270.4,132.4,270.4z M136.2,261.3c-0.8,0.6-1.7,1.3-2.6,2.1
		c0.6-0.6,1.2-1.2,1.8-1.7C135.7,261.5,135.9,261.4,136.2,261.3z M130.5,264.8c-1.7,1.7-3.2,3.3-4.4,4.8c-0.2,0-0.4,0-0.6,0
		c1.4-1.6,3.2-3.4,5.3-5.3c0.3-0.3,0.6-0.6,0.8-0.8c0.2-0.1,0.3-0.2,0.5-0.3C131.7,263.7,131.1,264.3,130.5,264.8z M129.7,263.2
		c-0.4,0.2-0.7,0.4-1.1,0.7c0,0,0-0.1,0.1-0.1C129,263.6,129.3,263.4,129.7,263.2z M125.9,265.3c-0.2,0.2-0.4,0.4-0.5,0.6
		c-0.2,0.1-0.3,0.2-0.5,0.3c0.2-0.2,0.4-0.5,0.6-0.7C125.6,265.4,125.7,265.3,125.9,265.3z M127.1,261.7c-0.9,1.1-1.7,2.1-2.3,3.2
		c-0.6,0.4-1.1,0.7-1.6,1c0.5-1.2,1.1-2.6,1.8-4.1c1.4-1,3-2,4.7-3.1C128.9,259.6,128,260.6,127.1,261.7z M125.4,258.9
		c-0.3,0.5-0.6,1-0.9,1.6c-0.1,0.2-0.2,0.5-0.3,0.7c-0.9,0.7-1.8,1.4-2.5,2.1c0.3-0.6,0.7-1.4,1.2-2.3
		C123.7,260.3,124.5,259.6,125.4,258.9z M121.7,261.9c-0.2,0.7-0.4,1.3-0.5,1.7c-0.2,0.2-0.3,0.3-0.5,0.4c-0.1-0.4-0.1-0.8-0.2-1.2
		c0.2-0.1,0.3-0.3,0.5-0.4c0,0.2,0,0.4,0,0.4c0,0,0-0.2,0.1-0.5C121.3,262.3,121.5,262.1,121.7,261.9z M120.4,262.3
		c-0.2-1.2-0.4-2.4-0.6-3.6c0.7,0.7,1.2,1.1,1.2,1.1c0,0-0.5-0.7-1.2-1.7c0.1-0.5,0.1-1,0.2-1.5c0,0.1,0,0.2,0,0.2
		c0,0,0.3-0.9,0.7-2.4c0.1,0,0.2-0.1,0.3-0.1c-0.7,2-1,3.5-1,3.5c0,0,0,0,0,0c0,0,0,0,0,0c0,0,0,0,0,0c0,0,0,0,0,0c0,0,0,0,0,0
		c0,0,0,0,0,0c0,0,0,0,0,0c0.1,0,0.8-0.7,2.2-1.9c-1.2,2.7-1.3,4.9-1.1,4.9c0,0,0.2-0.6,0.6-1.6c-0.3,0.9-0.4,1.7-0.5,2.3
		C120.9,261.9,120.6,262.1,120.4,262.3z M120.2,257.6c0.2-0.2,0.5-0.5,1-1c-0.7,0.8-1.1,1.3-1.2,1.2c0,0,0,0,0,0
		C120,257.8,120.1,257.8,120.2,257.6z M120,257.9C120,257.9,120,257.9,120,257.9C120,257.9,120,257.9,120,257.9
		C120,257.9,120,257.9,120,257.9z M124.3,254.3c0-0.1,0.1-0.2,0.1-0.3c0.1-0.1,0.2-0.2,0.3-0.2C124.6,253.9,124.5,254.1,124.3,254.3
		z M123.8,252.9c-0.2,0.3-0.3,0.6-0.4,0.9c-0.1,0.1-0.1,0.2-0.2,0.4c-1.3,1.4-2.2,2.4-2.7,3.1c0.4-0.7,1.2-2,2-3.6
		C122.8,253.4,123.3,253.2,123.8,252.9z M122.1,251.6c-0.4,0.8-0.7,1.5-0.9,2.2c-0.1,0.1-0.2,0.1-0.3,0.2c0.2-0.9,0.5-1.8,0.8-2.9
		c0.4-0.4,0.9-0.8,1.4-1.3C122.8,250.3,122.5,250.9,122.1,251.6z M122.4,246.1c-0.4,1.1-0.9,2.5-1.6,4.1c0,0.1,0,0.1-0.1,0.2
		c0.1-0.9,0.2-1.9,0.3-2.8C121.4,247.2,121.9,246.7,122.4,246.1z M128.4,222.2c-3.5,3.9-5.9,7.4-6.9,8.9c0-0.6,0-1.2-0.1-1.8
		C122.9,227.8,125.3,225.2,128.4,222.2z M127.2,218.8c-3.1,3.5-5.1,6.7-5.8,8.2c0-0.5-0.1-1-0.1-1.5
		C122,224.6,124.2,222.1,127.2,218.8z M121.2,221.4c-0.1,0.1-0.1,0.3-0.2,0.4c0,0,0,0,0,0C121.1,221.7,121.1,221.6,121.2,221.4z
		 M114.7,237.6c2.4,1.6,4.2,2.8,5.3,3.5c0,0.2,0,0.5,0,0.7C119.7,241.6,117.9,239.9,114.7,237.6z M116,244.8
		c1.5,0.9,2.7,1.7,3.6,2.3c-0.2,1.9-0.4,3.8-0.6,5.8c0,0-0.2-0.3-0.6-0.7c-0.3-1.1-0.6-2.1-0.8-3c1,0.4,1.5,0.6,1.5,0.7
		c0.1-0.1-0.5-0.4-1.6-1C116.9,247.2,116.4,245.8,116,244.8z M117.9,251.8c-0.1-0.1-0.3-0.3-0.5-0.5c-0.6-0.7-1.3-1.5-2.1-2.2
		c-0.3-0.4-0.7-0.8-1-1.1c1.2,0.4,2.2,0.8,2.9,1.1C117.5,249.9,117.7,250.8,117.9,251.8z M115.3,252.1c-1.2-1.8-2.4-3.4-3.5-4.6
		c0.8,0.5,1.5,1,2.1,1.5c0.2,0.2,0.4,0.5,0.6,0.7c1.6,1.4,2.9,2.6,3.7,3.3c0.1,0.5,0.2,1.1,0.4,1.7c-0.4-0.2-1.1-0.5-2.1-1.1
		C116.2,253.2,115.8,252.7,115.3,252.1z M108,249.1c0.1-0.3,0.6,0,1.3,0.7C108.9,249.6,108.5,249.4,108,249.1z M112.7,252.4
		c0.9,0.4,1.7,0.7,2.4,1c1.2,1.5,2.3,2.7,3.2,3.8c0,0.3-0.1,0.6-0.1,0.8c-0.1,0.6-0.2,1.2-0.3,1.7c-0.7-1.2-1.5-2.4-2.4-3.7
		C114.7,254.8,113.7,253.5,112.7,252.4z M116.3,259.1c0.2,0.3,0.4,0.6,0.6,0.9c-1-0.6-2.3-1.4-3.8-2.3c-0.1-0.1-0.1-0.2-0.2-0.3
		C114.4,258.1,115.5,258.6,116.3,259.1z M111.1,256.4c-0.2-0.1-0.5-0.3-0.7-0.4C110.6,256.1,110.8,256.2,111.1,256.4
		C111,256.4,111.1,256.4,111.1,256.4z M112.2,258c0.1,0.2,0.3,0.4,0.4,0.6c0.3,0.5,0.7,1,1,1.5c-0.3-0.3-0.7-0.7-1-1
		c-0.5-0.6-1.1-1.2-1.6-1.7C111.5,257.7,111.9,257.9,112.2,258z M112.2,260.2c0.7,0.8,1.5,1.5,2.2,2.2c-0.8-0.4-1.7-0.9-2.7-1.4
		c-0.7-0.6-1.3-1.2-2-1.8C110.6,259.5,111.5,259.8,112.2,260.2z M99.5,255.3c2,0.7,3.9,1.4,5.6,2.1c0.3,0.3,0.7,0.6,1,0.9
		c-1.9-0.9-4-1.7-6.2-2.6C99.8,255.5,99.7,255.4,99.5,255.3z M88.1,252.9c-3.3-1-5.5-1.6-6-1.9C84,251.6,86,252.2,88.1,252.9z
		 M98.9,258c0.3,0.1,0.6,0.2,0.9,0.3c1.7,0.7,3.3,1.3,4.9,2c0.7,0.7,1.5,1.4,2.3,2.2c-1.7-0.9-3.5-1.8-5.5-2.8
		C100.5,259,99.6,258.4,98.9,258z M107,263.7c1,0.4,1.9,0.8,2.8,1.2c0.2,0.2,0.4,0.3,0.6,0.5c-0.9-0.4-1.8-0.8-2.8-1.3
		C107.4,264.1,107.2,263.9,107,263.7z M103.9,263.9c1.2,0.5,2.3,0.9,3.4,1.3c0.7,0.6,1.4,1.2,2.1,1.8c0.1,0.1,0.2,0.1,0.3,0.2
		c-0.4-0.1-0.7-0.2-1.1-0.2C106.9,265.8,105.3,264.8,103.9,263.9z M43.2,252.1c4.8-0.6,9.7-0.4,14.4,1.1c0,0-3.4-0.9-8.9-0.5
		C46.9,252.4,45.1,252.2,43.2,252.1z M55.9,254.1c1.6,0.3,3.1,0.7,4.5,1.4C60.4,255.4,58.7,254.8,55.9,254.1z M67,257.5
		c3.7,1.5,12.4,5.5,23.5,7.6c3.7,0.6,7.2,1.2,10.3,1.6c0.6,0.4,1.3,0.8,2,1.3c-1.3-0.1-2.7-0.3-4.1-0.4c-0.5-0.3-0.8-0.6-0.7-0.7
		c-0.1,0.1,0.1,0.3,0.5,0.7c-1.7-0.1-3.4-0.2-5.2-0.3c-0.2-0.1-0.3-0.3-0.2-0.3c0,0.1,0,0.2,0.1,0.3c-0.5,0-1,0-1.5-0.1
		c-5.8-0.1-10.9-1-15-2C73.6,262.6,70.4,260,67,257.5z M73.3,266.1C73.3,266.1,73.3,266.1,73.3,266.1
		C73.3,266.1,73.3,266.1,73.3,266.1z M78.4,266.7c3.7,1,8.2,1.8,13.1,2c1.3,0,2.5,0.1,3.7,0.2c0,0,0,0,0,0c-0.6,0-1.2,0-1.9,0
		c-4.7,0.3-9.1,0.2-12.8-0.2C79.9,268,79.1,267.3,78.4,266.7z M93.4,270.4c1.4,0,2.7-0.1,4.1-0.1c1.8,1.2,4.1,2.6,6.7,4.1
		c-0.7,0.1-1.4,0.2-2.2,0.3c-3.5-1.4-6-1.9-6-1.8c0-0.1,1.9,0.6,4.7,1.9c-1.1,0.1-2.3,0.3-3.5,0.4c-3.3-1.4-5.3-2.2-5.3-2.4
		c-0.1,0.1,1.6,1,4.3,2.5c-0.6,0.1-1.2,0.1-1.8,0.2c-0.9,0.1-1.8,0.1-2.7,0.2c-1.1-0.5-1.8-0.9-1.8-0.9c0,0,0.5,0.4,1.4,0.9
		c-1,0.1-2,0.2-3,0.3c-1.9-2-4-4-6.3-6.1C85.4,270.4,89.3,270.7,93.4,270.4z M80.2,273.7c-7.2-1.3-22.6-2.1-38.9,9.7
		c-1.3-0.2-2.6-0.3-3.9-0.5C41.5,280.2,59.5,269.5,80.2,273.7z M-33.5,290c-0.1,0-0.1-0.1-0.2-0.1c0.3-0.1,0.6-0.1,0.9-0.2
		C-33,289.8-33.2,289.9-33.5,290z M-41.4,327.3c10.7-15.3,63.8-40.3,69.8-43.1c0.2,0,0.4,0,0.6,0c-10.6,4.9-47.5,23.1-62.8,48.5
		c-4.2,7-5.6,12.2-5.2,15.9C-43.5,341.7-46,333.8-41.4,327.3z M-27.1,357.7c-5-1.6-10-4.3-10.3-8.7c-0.6-7.7,8-29.1,49.2-53.4
		C-9.4,309.4-36.4,332.7-27.1,357.7z M83.1,275.9c0,0-4.6-1.9-13.2-0.3c-6.6,0.4-15.3,2.4-25,8.3c-0.9-0.1-1.7-0.3-2.6-0.4
		C51.3,278.5,70.2,269.8,83.1,275.9z M45.8,284c0.1,0,0.1-0.1,0.2-0.1l-0.5,0.1c-0.1,0-0.3,0-0.4-0.1c2.4-1.1,8.1-3.5,14.9-5.2
		c-3.4,1.4-7,3.3-11,5.9C47.9,284.3,46.9,284.2,45.8,284z M46.7,286.8c0.2,0,0.4,0.1,0.7,0.1c-0.3,0-0.6,0-1,0
		C46.5,286.9,46.6,286.9,46.7,286.8z M47.8,287c0.1,0,0.2,0,0.3,0.1c0,0,0,0,0,0C47.9,287.1,47.8,287,47.8,287z M49.8,287.4
		c0.2,0,0.4,0.1,0.5,0.1c-0.1,0.1-0.2,0.2-0.3,0.2C49.9,287.7,49.9,287.5,49.8,287.4z M24.4,313.5c2.7-3.9,6-7.9,10.2-12.1
		c8.8-7,16.4-11.9,18.5-13.2c0.2,0,0.3,0.1,0.5,0.1c-0.8,0.6-2.6,2-5,4c-0.2,0.2-0.4,0.3-0.6,0.4c0,0,0.1-0.1,0.4-0.3
		c-3.3,2.7-7.6,6.5-12,11C31.6,306.8,27.7,310.2,24.4,313.5z M68.5,292c0.5,0.1,1,0.3,1.5,0.4c-5.8,3.9-20.4,15.1-28.1,34.6
		c-1.2-0.7-1.9-1.1-1.9-1.1c0.6,0.5,1.2,0.9,1.8,1.3c-0.9,2.3-1.7,4.8-2.4,7.4c-2.8-0.7-5.1-1.3-6.7-1.8C37.1,321,47,306.2,68.5,292
		z M32.4,333.7c0.2,0.1,0.4,0.2,0.6,0.4C32.8,333.9,32.6,333.8,32.4,333.7c0.1-0.2,0.2-0.5,0.2-0.7c2.2,0.9,4.4,1.7,6.6,2.5
		c-0.1,0.5-0.2,1-0.4,1.5c-2.5-1.1-4.5-2.2-5.8-2.9c2,1.1,3.9,2.1,5.8,2.9c-0.2,1-0.4,2-0.6,3c-1.8-0.9-3.5-1.9-5.2-3
		c0,0,1.9,1.4,5.2,3.2c-0.2,1.3-0.4,2.5-0.6,3.8c-2.4-0.5-4.9-1-7.5-1.6C30.5,339.7,31.2,336.8,32.4,333.7z M30,342.5
		c1.7,0.5,4.3,1.2,7.5,2c-0.1,0.8-0.2,1.6-0.3,2.5c-1.1-0.3-2.2-0.7-3.3-1.1c0,0,1.2,0.6,3.2,1.4c-0.1,1-0.1,2-0.2,3
		c-3.3-1.1-5.9-2.2-7.6-3.1C29.6,345.8,29.8,344.2,30,342.5z M29.6,354.1c-0.2-1.5-0.3-3.8-0.1-6.7c2.6,1.4,5.1,2.6,7.6,3.6
		c0,1.5,0,2.9,0,4.4C34.3,355,31.8,354.5,29.6,354.1z M37.3,356.6c14.2,2.3,26.1,0.9,30.7,0.1c-0.3,0.3-0.6,0.6-0.9,0.9
		c-7.7,1.2-20,1.7-29.9,1.9C37.3,358.8,37.3,357.8,37.3,356.6z M37.4,360.5c4.9,0,9.5-0.1,13.7-0.3c-4,0.2-8.6,0.5-13.6,0.7
		C37.4,360.7,37.4,360.6,37.4,360.5z M65.9,359.1c-1.5,0.1-3.8,0.3-6.7,0.5c2.8-0.2,5.1-0.5,6.8-0.7C66,359,65.9,359,65.9,359.1z
		 M69.7,357.2C69.7,357.2,69.7,357.2,69.7,357.2c1.1-1.2,2.3-2.4,3.5-3.7c-0.1,0.1-0.2,0.3-0.2,0.4L69.7,357.2z M76.8,347.7
		c-2,0.4-7.1,0.9-17.9-0.3c0,0,0-0.1,0-0.1c5.9,0.9,12.5,0.9,19.2-1C77.7,346.8,77.3,347.3,76.8,347.7z M80.2,344.4
		c-1.8,0.4-4.2,0.7-7.1,1c0.2-0.6,0.3-1.2,0.5-1.8c3-0.3,6-0.8,9-1.7C81.9,342.7,81,343.6,80.2,344.4z M93.5,331.8
		c-1.9,0.4-5.4,1-9.9,1.2c0.2-0.7,0.4-1.5,0.6-2.2c3.4,0.2,7,0.1,10.8-0.4C94.5,330.8,94,331.3,93.5,331.8z M84.9,328.6
		c0.1-0.2,0.2-0.5,0.2-0.7c6,0.2,11.1-0.7,14.4-1.5c-0.7,0.6-1.3,1.2-2,1.8C94.6,328.6,90.2,329,84.9,328.6z M130.4,340.6
		c-0.8,4.9-0.4,9.2,0,12.1l-0.3,3c-0.3-4.3-0.7-8.8-1-13.2c0.1-1.7,0.1-3.7,0.2-5.7c0-2.7,0.4-5.2,0.9-7.3c0.8,0.2,1.6,0.4,2.4,0.5
		C131.9,332.8,131.1,336.4,130.4,340.6z M134.1,330.3c0,0,0-0.1,0-0.1c0,0,0,0,0,0C134.1,330.3,134.1,330.3,134.1,330.3z M141,329.2
		c0.8-0.2,1.7-0.3,2.8-0.4c2.6,0,5.9-0.5,9.6-0.5c0,0.1,0.1,0.2,0.1,0.2c-1.2,0-2.6,0-4.1,0.2c-3.6,0.5-6.6,1.7-8.3,2.6
		c-0.5-0.5-1-1.1-1.5-1.6C140.1,329.5,140.6,329.4,141,329.2z M139.2,332.7l0.1-0.9l0.1,0.1L139.2,332.7z M139.6,332.2
		c0.5,0.5,1,1,1.5,1.5c-0.4,1.6-1.1,4-1.7,7C139.4,337,139.5,334,139.6,332.2z M141.6,340.8c-0.6,3.1-1.2,7.2-1.4,11.9
		c-0.2-1.6-0.4-3.1-0.5-4.6c0.6-6.1,1.3-11.3,1.6-14.1c0.6,0.6,1.1,1.1,1.7,1.7C142.8,336.7,142.2,338.4,141.6,340.8z M142.8,338.2
		c0.2-1,0.3-1.8,0.4-2.4l0.3,0.3C143.3,336.6,143,337.3,142.8,338.2z M142.9,333.1c0.5-0.3,1.2-0.6,2.1-0.8c2.3-0.8,5.5-1,9.1-1.7
		c0.1,0.5,0.3,0.9,0.4,1.3c-2.2,0.4-4.3,1-5.9,1.4c-1.9,0.4-3.3,0.9-4.3,1.2C143.8,334,143.4,333.6,142.9,333.1z M144.5,334.7
		c1-0.2,2.4-0.4,4.3-0.6c1.7-0.3,3.8-0.6,6.1-0.9c0.1,0.3,0.1,0.6,0.2,0.8c-0.4,0-0.9,0.1-1.3,0.2c-3.6,0.5-6.1,2.3-6.9,3
		C146,336.3,145.3,335.5,144.5,334.7z M145.3,348.2c0-1.8,0-3.4,0-4.9c0-2,0.3-3.6,0.3-4.7l0-0.2c0.4,0.4,0.9,0.9,1.3,1.3
		C146.5,341.2,145.8,344.3,145.3,348.2z M146.9,337.2c0.9-0.5,3.5-1.8,7-2.3c0.5-0.1,0.9-0.1,1.3-0.2c0,0,0,0,0,0.1
		c-0.9,0.3-1.7,0.6-2.4,0.9l-0.9,0.2c-2,0.7-3.5,1.4-4.5,1.8L146.9,337.2z M148,338.3l-0.4-0.4c0.5-0.2,1.2-0.4,2-0.6
		C148.9,337.7,148.3,338.1,148,338.3z M148.1,347.5c-0.1-0.8-0.1-1.5-0.2-2.2c-0.1-2,0.1-3.5,0.3-4.4l0.9,1
		C148.7,342.6,148.4,344.7,148.1,347.5z M151.2,343.9c-0.1,0.7-0.4,2-0.6,3.7c-0.1-1.9-0.1-3.4-0.1-4.3L151.2,343.9z M151.1,341.5
		l-0.9-0.9c0.6-0.3,2-0.6,4-0.8C152.6,340.3,151.6,341.1,151.1,341.5z M168.6,338.9c-9.1-0.7-16.8,0.5-18.4,1.7
		c-0.4-0.4-0.8-0.9-1.2-1.3c0.5-0.3,1.3-0.6,2.4-0.9c2-0.5,4.9-0.7,8.1-0.8c3.2-0.2,6.1-0.3,8.1,0c0.3,0,0.5,0.1,0.8,0.1
		C168.4,338.2,168.5,338.6,168.6,338.9z M168.2,337.3c-0.2-0.1-0.4-0.1-0.6-0.2c-2.1-0.5-5-0.6-8.2-0.4c-3.2,0.2-6.1,0.5-8.2,1.2
		c-1.1,0.4-1.9,0.9-2.4,1.2l-0.8-0.8c0.9-0.4,2.6-1.2,5-1.9c3.2-0.4,7.3-0.6,11.8-0.3c0,0,0,0.1,0,0.1c0,0,0,0,0-0.1
		c0.6,0,1.3,0.1,1.9,0.2c0.5,0.1,0.9,0.2,1.4,0.3C168.1,336.9,168.2,337.1,168.2,337.3z M170.3,335.1c0,0.1,0,0.3,0,0.4
		c-0.7-0.2-1.4-0.3-2.1-0.5c0,0,0,0,0-0.1C168.9,335,169.6,335.1,170.3,335.1z M167.3,333.5c-0.9-0.1-1.8-0.1-2.8-0.1
		c0-0.2-0.1-0.4-0.1-0.6c0.1,0.2,0.1,0.2,0.1,0.2c0-0.2-0.1-0.4-0.1-0.6c0.9,0,1.7,0,2.6,0C167.1,332.8,167.2,333.1,167.3,333.5z
		 M167.4,331c-0.1-0.3-0.1-0.7-0.2-1c0.6,0,0.9,0,0.9-0.1c0,0.1-0.3,0-0.9,0c-0.1-0.3-0.2-0.7-0.3-1c0.7,0.1,1.4,0.1,2,0.2
		c0.2,0.1,0.4,0.1,0.6,0.2c0.1,0.7,0.3,1.3,0.4,1.9C169,331.1,168.2,331.1,167.4,331z M177.5,332.8c-0.2-0.1-0.5-0.2-0.7-0.3
		c-1.9-0.5-4.3-1-6.9-1.3c-0.1-0.6-0.2-1.3-0.3-1.9c1.2,0.4,2.3,0.7,3.4,1.1c0,0.1,0,0.2,0,0.2c0-0.1,0-0.1,0-0.2
		c1.8,0.6,3.3,1.2,4.4,1.6C177.4,332.4,177.4,332.6,177.5,332.8z M177.3,331.8c-1.1-0.6-2.6-1.3-4.4-2c0,0,0,0,0,0
		c1.4,0.3,2.2,0.5,2.2,0.6c0.1-0.1-0.8-0.4-2.2-0.8c0-0.6-0.1-1.1-0.1-1.7c0.1,0,0.2,0,0.3,0.1c0.1,0.7,0.1,1.1,0.1,1.1
		c0-0.4,0-0.7,0-1.1c1.5,0.3,2.7,0.6,3.6,0.9C177,330,177.2,331.1,177.3,331.8z M173.2,327.4c-0.6-15.3-9-23.2-12.7-25.9
		c1.4,0.7,2.7,1.6,3.9,2.6c7.8,6.9,11.1,18.3,12.4,24.6C175.9,328.3,174.6,327.9,173.2,327.4z M218.6,298
		C218.6,298,218.6,298,218.6,298C218.6,298,218.6,298,218.6,298C218.6,298,218.6,298,218.6,298z M230.3,296.3
		c-2-1.2-3.7-2.1-5.2-2.8c-0.4-0.3-0.8-0.6-1.2-0.8c0.9,0.3,1.7,0.6,2.6,0.9C227.8,294.4,229.1,295.4,230.3,296.3z M226.4,292
		c1.7,0.4,3.5,1,5.3,1.7c3.2,2,6.2,4.4,9,7.2c-5.2-4.3-9.8-6.7-13-8C227.2,292.5,226.8,292.2,226.4,292z M229,290.6
		c0.1,0,0.1,0.1,0.2,0.1c0,0,0,0,0,0C229.1,290.7,229,290.7,229,290.6z M257.6,312.5c-6.1-6.3-12.1-11.1-16.1-14.1
		c1.2,0.7,2.3,1.4,3.5,2C250.3,304.8,254.8,309.4,257.6,312.5z M232.2,291.1c-1.6-0.7-2.6-0.9-2.6-0.9c1.4,0.3,2.8,0.7,4.2,1.2
		C233.3,291.3,232.8,291.2,232.2,291.1z M231.8,289.7c3.9,0.4,8.2,1.8,12.4,3.7c-1.5-0.4-3.1-0.7-4.7-1
		C234.8,290.1,231.8,289.7,231.8,289.7z M262.1,307.1c-2.4-1.9-4.6-3.5-6.5-4.8c0.9,0.5,1.9,0.9,2.8,1.4
		C259.6,304.8,260.9,306,262.1,307.1z M265.6,306.3c-2.9-1.9-5.7-3.5-8.5-4.9c-1.3-1.1-2.5-2-3.6-2.9c0.3,0.1,0.5,0.1,0.8,0.2
		C258.8,301.5,262.7,304.2,265.6,306.3z M255.8,298.2c-0.8-0.5-1.6-1-2.4-1.5c3.1,0.8,6.2,1.7,9.2,2.7c1.3,0.9,2.6,1.8,3.9,2.8
		C262.6,300.6,258.8,299.3,255.8,298.2z M270.2,303.7c-1-0.7-1.9-1.3-2.7-1.9c2.6,1.3,5.2,2.7,7.6,4.1
		C273.4,305,271.8,304.3,270.2,303.7z"/>
</g>
</svg>
