<?xml version="1.0" encoding="UTF-8" standalone="no"?>
<svg width="18px" height="17px" viewBox="0 0 18 17" version="1.1" xmlns="http://www.w3.org/2000/svg" xmlns:xlink="http://www.w3.org/1999/xlink" xmlns:sketch="http://www.bohemiancoding.com/sketch/ns">
    <!-- Generator: Sketch 3.3.3 (12081) - http://www.bohemiancoding.com/sketch -->
    <title>home-icon</title>
    <desc>Created with Sketch.</desc>
    <defs></defs>
    <g id="Page-1" stroke="none" stroke-width="1" fill="none" fill-rule="evenodd" sketch:type="MSPage">
        <g id="Home-Copy" sketch:type="MSArtboardGroup" transform="translate(-591.000000, -9619.000000)" fill="#7A7A7A">
            <g id="Footer-Copy-2" sketch:type="MSLayerGroup" transform="translate(-2.000000, 9427.000000)">
                <g id="Anthony-Mann---Found-+-Type-something-+-Email-+-Type-something" transform="translate(259.000000, 156.000000)" sketch:type="MSShapeGroup">
                    <g id="3rd-Floor-+-Drop-by" transform="translate(334.000000, 0.000000)">
                        <g id="home-icon" transform="translate(0.000000, 36.000000)">
                            <path d="M17.7752919,7.42308106 L9.6806845,0.250813442 C9.30349014,-0.0836044808 8.69245171,-0.0836044808 8.32028661,0.250813442 L0.228210254,7.42308106 C-0.148984107,7.75749899 -0.0483989443,8.02859674 0.45452687,8.02859674 L2.9515371,8.02859674 L2.9515371,15.3731071 C2.9515371,15.7733953 3.27843888,16.1052632 3.67824847,16.1052632 L6.73350636,16.1052632 L6.73350636,11.273921 C6.73350636,10.8736329 7.06040814,10.541765 7.46025059,10.541765 L10.545684,10.541765 C10.9479918,10.541765 11.2723954,10.866049 11.2723954,11.273921 L11.2723954,16.1052632 L14.3276533,16.1052632 C14.7299939,16.1052632 15.0543647,15.7759122 15.0543647,15.3731071 L15.0543647,8.02604671 L17.5514078,8.02604671 C18.046839,8.02604671 18.1474242,7.75749899 17.7752919,7.42308106 L17.7752919,7.42308106 Z" id="Shape"></path>
                        </g>
                    </g>
                </g>
            </g>
        </g>
    </g>
</svg>