<?xml version="1.0" encoding="utf-8"?>
<!-- Generator: Adobe Illustrator 19.1.0, SVG Export Plug-In . SVG Version: 6.00 Build 0)  -->
<svg version="1.1" id="Layer_1" xmlns="http://www.w3.org/2000/svg" xmlns:xlink="http://www.w3.org/1999/xlink" x="0px" y="0px"
	 viewBox="-1124 1619.6 32 32" style="enable-background:new -1124 1619.6 32 32;" xml:space="preserve">
<style type="text/css">
	.st0{fill:#FFFFFF;}
</style>
<path class="st0" d="M-1108,1619.6c-8.8,0-16,7.2-16,16s7.2,16,16,16s16-7.2,16-16S-1099.2,1619.6-1108,1619.6z M-1098.5,1642.4
	c0.5,0.5,0.5,1.3,0,1.8s-1.3,0.5-1.8,0l-7.2-7.2l0,0l-7.2,7.2c-0.5,0.5-1.3,0.5-1.8,0s-0.5-1.3,0-1.8l7.2-7.2l-7.2-7.2
	c-0.5-0.5-0.5-1.3,0-1.8l0,0c0.5-0.5,1.3-0.5,1.8,0l7.2,7.2l7.2-7.2c0.5-0.5,1.3-0.5,1.8,0s0.5,1.3,0,1.8l-7.2,7.2L-1098.5,1642.4z"
	/>
</svg>
