<?xml version="1.0" encoding="utf-8"?>
<!-- Generator: Adobe Illustrator 19.1.0, SVG Export Plug-In . SVG Version: 6.00 Build 0)  -->
<svg version="1.1" id="Layer_1" xmlns:sketch="http://www.bohemiancoding.com/sketch/ns"
	 xmlns="http://www.w3.org/2000/svg" xmlns:xlink="http://www.w3.org/1999/xlink" x="0px" y="0px" viewBox="-578.2 828.4 17.2 13.4"
	 style="enable-background:new -578.2 828.4 17.2 13.4;" xml:space="preserve">
<style type="text/css">
	.st0{fill:#7A7A7A;}
</style>
<title>envelope4</title>
<desc>Created with Sketch.</desc>
<g id="Page-1" sketch:type="MSPage">
	<g id="Home-Copy" transform="translate(-259.000000, -9759.000000)" sketch:type="MSArtboardGroup">
		<g id="Footer-Copy-2" transform="translate(-2.000000, 9427.000000)" sketch:type="MSLayerGroup">
			
				<g id="Anthony-Mann---Found-_x2B_-Type-something-_x2B_-Email-_x2B_-Type-something" transform="translate(259.000000, 156.000000)" sketch:type="MSShapeGroup">
				<g id="Email-_x2B_-Type-something" transform="translate(1.000000, 137.000000)">
					<g id="envelope4" transform="translate(1.000000, 39.000000)">
						<g id="Group">
							<path id="Shape" class="st0" d="M-576.4,832.5c0.2,0.2,0.9,0.6,1.9,1.4c1.1,0.8,1.9,1.3,2.5,1.7c0.1,0,0.2,0.1,0.4,0.3
								c0.2,0.1,0.4,0.3,0.5,0.4c0.1,0.1,0.3,0.2,0.5,0.3c0.2,0.1,0.4,0.2,0.5,0.3c0.2,0.1,0.3,0.1,0.5,0.1l0,0l0,0
								c0.1,0,0.3,0,0.5-0.1c0.2-0.1,0.4-0.1,0.5-0.3c0.2-0.1,0.4-0.2,0.5-0.3c0.1-0.1,0.3-0.2,0.5-0.4c0.2-0.1,0.3-0.2,0.4-0.3
								c0.6-0.4,2.1-1.4,4.4-3.1c0.5-0.3,0.8-0.7,1.2-1.2c0.3-0.5,0.5-0.9,0.5-1.4c0-0.4-0.2-0.8-0.5-1.1c-0.3-0.3-0.7-0.4-1.1-0.4
								h-14c-0.5,0-0.9,0.2-1.1,0.5c-0.3,0.3-0.4,0.7-0.4,1.2c0,0.4,0.2,0.8,0.5,1.3C-577.1,831.9-576.8,832.3-576.4,832.5
								L-576.4,832.5z"/>
							<path id="Shape_1_" class="st0" d="M-562,833.6c-2.1,1.4-3.6,2.5-4.7,3.3c-0.4,0.3-0.7,0.5-0.9,0.6c-0.2,0.1-0.5,0.3-0.9,0.5
								c-0.4,0.2-0.7,0.2-1,0.2l0,0l0,0c-0.3,0-0.7-0.1-1-0.2c-0.4-0.2-0.7-0.3-0.9-0.5c-0.2-0.1-0.5-0.4-0.9-0.6
								c-0.9-0.6-2.4-1.7-4.7-3.3c-0.4-0.2-0.7-0.5-1-0.8v7.5c0,0.4,0.1,0.8,0.4,1.1c0.3,0.3,0.7,0.4,1.1,0.4h14
								c0.4,0,0.8-0.1,1.1-0.4c0.3-0.3,0.4-0.7,0.4-1.1v-7.5C-561.3,833-561.6,833.3-562,833.6L-562,833.6z"/>
						</g>
					</g>
				</g>
			</g>
		</g>
	</g>
</g>
</svg>
