<?xml version="1.0" encoding="utf-8"?>
<!-- Generator: Adobe Illustrator 19.0.0, SVG Export Plug-In . SVG Version: 6.00 Build 0)  -->
<svg version="1.1" id="Layer_1" xmlns:sketch="http://www.bohemiancoding.com/sketch/ns"
	 xmlns="http://www.w3.org/2000/svg" xmlns:xlink="http://www.w3.org/1999/xlink" x="0px" y="0px" viewBox="-286 409.9 23 23"
	 style="enable-background:new -286 409.9 23 23;" xml:space="preserve">
<style type="text/css">
	.st0{fill:#A5A5A5;}
	.st1{fill:none;}
</style>
<title>Username</title>
<desc>Created with Sketch.</desc>
<g id="Page-1" sketch:type="MSPage">
	<g id="Contact-overlay" transform="translate(-529.000000, -168.000000)" sketch:type="MSArtboardGroup">
		<g id="Username" transform="translate(528.000000, 167.000000)" sketch:type="MSLayerGroup">
			<g id="Group" transform="translate(1.500000, 1.500000)" sketch:type="MSShapeGroup">
				<g id="Oval">
					<path class="st0" d="M-275,432.4c-6.3,0-11.5-5.2-11.5-11.5s5.2-11.5,11.5-11.5c6.3,0,11.5,5.2,11.5,11.5
						S-268.7,432.4-275,432.4z M-275,410.4c-5.8,0-10.5,4.7-10.5,10.5s4.7,10.5,10.5,10.5c5.8,0,10.5-4.7,10.5-10.5
						S-269.2,410.4-275,410.4z"/>
				</g>
				<g id="Shape">
					<path class="st0" d="M-275,422.9c-2.2,0-4-1.8-4-4c0-2.2,1.8-4,4-4c2.2,0,4,1.8,4,4C-271,421.1-272.8,422.9-275,422.9z
						 M-275,415.9c-1.7,0-3,1.3-3,3s1.3,3,3,3s3-1.3,3-3S-273.3,415.9-275,415.9z"/>
				</g>
				<g id="Path">
					<path class="st0" d="M-266.5,428.4h-1c0-2.3-5-3.5-7.5-3.5c-2.5,0-7.5,1.2-7.5,3.5h-1c0-3.1,5.6-4.5,8.5-4.5
						S-266.5,425.2-266.5,428.4z"/>
				</g>
			</g>
			<g id="Bounds">
				<rect x="-286" y="409.9" sketch:type="MSShapeGroup" class="st1" width="25" height="25">
				</rect>
			</g>
		</g>
	</g>
</g>
</svg>
