<?xml version="1.0" encoding="UTF-8" standalone="no"?>
<svg width="49px" height="47px" viewBox="0 0 49 47" version="1.1" xmlns="http://www.w3.org/2000/svg" xmlns:xlink="http://www.w3.org/1999/xlink" xmlns:sketch="http://www.bohemiancoding.com/sketch/ns">
    <!-- Generator: Sketch 3.3.3 (12081) - http://www.bohemiancoding.com/sketch -->
    <title>final piece</title>
    <desc>Created with Sketch.</desc>
    <defs></defs>
    <g id="Page-1" stroke="none" stroke-width="1" fill="none" fill-rule="evenodd" sketch:type="MSPage">
        <g id="Home-Copy" sketch:type="MSArtboardGroup" transform="translate(-324.000000, -6274.000000)" fill="#4EA4EF">
            <g id="what-we-offer" sketch:type="MSLayerGroup" transform="translate(0.000000, 320.000000)">
                <g id="what-we-offer-text" transform="translate(201.000000, 5558.000000)" sketch:type="MSShapeGroup">
                    <g id="Approach-section-Copy-2" transform="translate(38.000000, 366.000000)">
                        <path d="M104.481833,69.3437413 L117.594793,76.9145003 C117.594793,76.9145003 132.608108,50.9103466 132.60771,50.9107448 C133.725308,48.9753538 133.061995,46.5004741 131.126604,45.3832745 L105.123247,30.3699597 L97.5548767,43.4781427 C96.8457775,43.0688479 96.4540012,42.3247118 96.4512141,41.557085 C96.3954736,39.6300551 95.3714404,37.7754879 93.578984,36.7407047 C90.8301794,35.153692 87.3153406,36.0957071 85.7283279,38.8445117 C84.1413153,41.5933163 85.0829322,45.1081552 87.8321349,46.6951678 C89.6198135,47.7275621 91.7315835,47.6897382 93.4264939,46.7811675 C94.0925932,46.399743 94.9410438,46.3678912 95.650143,46.7775842 L88.0865507,59.8778042 L101.182789,67.4390076 C101.592084,66.7299084 101.56063,65.8814578 101.179206,65.2153585 C100.270237,63.5204481 100.232811,61.4086781 101.265206,59.6209996 C102.852218,56.8717968 106.367057,55.9301799 109.115862,57.5171925 C111.864666,59.1042052 112.806681,62.619044 111.219669,65.3678486 C110.184885,67.160305 108.330318,68.1843382 106.403288,68.2400787 C105.635662,68.2428658 104.891525,68.6346421 104.481833,69.3437413" id="final-piece"></path>
                    </g>
                </g>
            </g>
        </g>
    </g>
</svg>