<?xml version="1.0" encoding="UTF-8" standalone="no"?>
<svg preserveAspectRatio="none" width="28px" height="14px" viewBox="0 0 28 14" version="1.1" xmlns="http://www.w3.org/2000/svg" xmlns:xlink="http://www.w3.org/1999/xlink" xmlns:sketch="http://www.bohemiancoding.com/sketch/ns">
    <!-- Generator: Sketch 3.3.3 (12081) - http://www.bohemiancoding.com/sketch -->
    <title>dude-eyes</title>
    <desc>Created with Sketch.</desc>
    <defs></defs>
    <g id="Page-1" stroke="none" stroke-width="1" fill="none" fill-rule="evenodd" sketch:type="MSPage">
        <g id="Home-Copy" sketch:type="MSArtboardGroup" transform="translate(-973.000000, -5372.000000)" fill="#4EA4EF">
            <g id="what-we-offer" sketch:type="MSLayerGroup" transform="translate(201.000000, 5146.000000)">
                <g id="illus" transform="translate(66.000000, 146.000000)" sketch:type="MSShapeGroup">
                    <g id="dude-bits" transform="translate(692.000000, 80.000000)">
                        <g id="dude-eyes" transform="translate(14.089669, 0.116570)">
                            <path d="M27.550862,7.05528715 C27.483816,10.3762194 26.3404597,13.0193205 24.9398284,13.0193205 C23.4960778,13.0193205 22.3256867,10.2109756 22.3256867,6.74670668 C22.3256867,3.28243775 23.4960778,0.474092902 24.9398284,0.474092902 C25.6426363,0.474092902 26.2806669,1.13957965 26.7504438,2.22226235 C25.8527326,2.60854622 25.2241736,3.50104482 25.2241736,4.54035125 C25.2241736,5.86758082 26.2492375,6.95539389 27.550862,7.05528715 Z" id="Oval-64-Copy"></path>
                            <path d="M5.59192671,7.062416 C5.52338974,10.3800012 4.38066763,13.0193205 2.9810387,13.0193205 C1.53728814,13.0193205 0.366897071,10.2109756 0.366897071,6.74670668 C0.366897071,3.28243775 1.53728814,0.474092902 2.9810387,0.474092902 C3.66691598,0.474092902 4.29109929,1.10790268 4.75741182,2.14474662 C3.75225231,2.47683761 3.02690083,3.42388697 3.02690083,4.54035125 C3.02690083,5.93344389 4.15622555,7.06276861 5.54931819,7.06276861 C5.56354886,7.06276861 5.57775201,7.06265077 5.59192671,7.062416 Z" id="Oval-64"></path>
                        </g>
                    </g>
                </g>
            </g>
        </g>
    </g>
</svg>