<?xml version="1.0" standalone="no"?>
<!DOCTYPE svg PUBLIC "-//W3C//DTD SVG 1.1//EN" "http://www.w3.org/Graphics/SVG/1.1/DTD/svg11.dtd">
<svg preserveAspectRatio="none" width="100%" height="100%" viewBox="0 0 149 126" version="1.1" xmlns="http://www.w3.org/2000/svg" xmlns:xlink="http://www.w3.org/1999/xlink" xml:space="preserve" style="fill-rule:evenodd;clip-rule:evenodd;stroke-linejoin:round;stroke-miterlimit:1.41421;">
    <g transform="matrix(5.15464,0,0,5.15464,-76.3889,-86.0313)">
        <path d="M29.318,29.952L29.351,29.952L29.384,29.951L29.417,29.95L29.449,29.949L29.481,29.948L29.513,29.946L29.544,29.944L29.575,29.942L29.606,29.939L29.636,29.937L29.666,29.934L29.696,29.93L29.726,29.927L29.755,29.923L29.784,29.919L29.813,29.914L29.842,29.91L29.87,29.905L29.898,29.9L29.926,29.895L29.953,29.889L29.981,29.884L30.008,29.878L30.035,29.872L30.061,29.865L30.088,29.859L30.114,29.852L30.14,29.845L30.165,29.838L30.191,29.83L30.216,29.822L30.241,29.815L30.266,29.807L30.29,29.798L30.315,29.79L30.339,29.781L30.363,29.773L30.387,29.763L30.411,29.754L30.434,29.745L30.457,29.735L30.481,29.726L30.503,29.716L30.526,29.705L30.549,29.695L30.571,29.685L30.594,29.674L30.616,29.663L30.638,29.652L30.659,29.641L30.681,29.63L30.702,29.618L30.724,29.606L30.745,29.594L30.766,29.582L30.787,29.57L30.807,29.558L30.828,29.545L30.848,29.532L30.869,29.52L30.889,29.506L30.909,29.493L30.929,29.48L30.949,29.466L30.968,29.453L30.988,29.439L31.007,29.425L31.026,29.411L31.046,29.396L31.065,29.382L31.083,29.367L31.102,29.352L31.121,29.337L31.139,29.322L31.158,29.307L31.176,29.292L31.194,29.276L31.212,29.26L31.23,29.245L31.248,29.229L31.265,29.212L31.283,29.196L31.3,29.18L31.317,29.163L31.335,29.147L31.352,29.13L31.369,29.113L31.385,29.096L31.402,29.079L31.419,29.061L31.435,29.044L31.452,29.026L31.468,29.009L31.484,28.991L31.5,28.973L31.516,28.955L31.531,28.937L31.547,28.919L31.563,28.9L31.578,28.882L31.593,28.863L31.608,28.845L31.624,28.826L31.638,28.807L31.653,28.788L31.668,28.769L31.683,28.75L31.697,28.731L31.711,28.712L31.726,28.692L31.74,28.673L31.754,28.653L31.768,28.634L31.781,28.614L31.795,28.595L31.808,28.575L31.822,28.555L31.835,28.535L31.848,28.515L31.861,28.495L31.874,28.475L31.887,28.455L31.9,28.435L31.912,28.415L31.925,28.394L31.936,28.375L31.961,28.333L31.985,28.293L32.008,28.252L32.031,28.211L32.053,28.17L32.075,28.129L32.097,28.088L32.118,28.047L32.138,28.006L32.158,27.965L32.177,27.924L32.196,27.884L32.215,27.843L32.233,27.803L32.251,27.763L32.261,27.74L26.271,27.74L26.291,27.783L26.311,27.823L26.331,27.864L26.352,27.905L26.373,27.947L26.395,27.988L26.417,28.029L26.44,28.071L26.463,28.112L26.487,28.154L26.511,28.195L26.536,28.237L26.561,28.278L26.587,28.32L26.613,28.362L26.626,28.381L26.639,28.402L26.653,28.422L26.666,28.443L26.68,28.463L26.694,28.484L26.708,28.504L26.722,28.524L26.736,28.544L26.751,28.564L26.765,28.585L26.78,28.604L26.794,28.624L26.809,28.644L26.824,28.664L26.839,28.684L26.854,28.703L26.869,28.723L26.885,28.742L26.9,28.762L26.916,28.781L26.932,28.8L26.948,28.819L26.964,28.838L26.98,28.857L26.996,28.876L27.012,28.895L27.029,28.914L27.045,28.932L27.062,28.95L27.079,28.969L27.096,28.987L27.113,29.005L27.13,29.023L27.147,29.041L27.165,29.058L27.182,29.076L27.2,29.093L27.217,29.111L27.235,29.128L27.253,29.145L27.271,29.162L27.29,29.179L27.308,29.195L27.326,29.212L27.345,29.228L27.364,29.244L27.382,29.26L27.401,29.276L27.42,29.292L27.439,29.308L27.459,29.323L27.478,29.338L27.498,29.354L27.517,29.369L27.537,29.383L27.557,29.398L27.577,29.413L27.597,29.427L27.617,29.441L27.637,29.455L27.658,29.469L27.679,29.483L27.699,29.496L27.72,29.51L27.741,29.523L27.762,29.536L27.783,29.549L27.805,29.562L27.826,29.574L27.848,29.587L27.87,29.599L27.892,29.611L27.914,29.623L27.936,29.634L27.958,29.646L27.981,29.657L28.004,29.668L28.026,29.679L28.049,29.69L28.072,29.7L28.096,29.71L28.119,29.721L28.143,29.731L28.166,29.74L28.19,29.75L28.214,29.759L28.239,29.769L28.263,29.778L28.288,29.786L28.313,29.795L28.338,29.803L28.363,29.812L28.388,29.82L28.414,29.827L28.439,29.835L28.465,29.842L28.491,29.849L28.518,29.856L28.544,29.863L28.571,29.87L28.598,29.876L28.625,29.882L28.653,29.888L28.68,29.893L28.708,29.899L28.736,29.904L28.764,29.909L28.793,29.913L28.822,29.918L28.851,29.922L28.88,29.926L28.91,29.929L28.94,29.933L28.97,29.936L29,29.939L29.031,29.941L29.061,29.944L29.093,29.946L29.124,29.947L29.156,29.949L29.188,29.95L29.22,29.951L29.252,29.952L29.285,29.952L29.318,29.952ZM29.325,31.952L29.274,31.952L29.223,31.952L29.172,31.951L29.121,31.949L29.07,31.947L29.02,31.945L28.97,31.942L28.92,31.939L28.87,31.935L28.821,31.931L28.772,31.926L28.723,31.921L28.674,31.915L28.626,31.909L28.578,31.903L28.53,31.896L28.482,31.889L28.434,31.881L28.387,31.873L28.34,31.864L28.293,31.855L28.247,31.846L28.201,31.836L28.155,31.826L28.109,31.815L28.063,31.804L28.018,31.793L27.973,31.781L27.929,31.769L27.884,31.756L27.84,31.743L27.796,31.73L27.753,31.716L27.709,31.702L27.666,31.688L27.623,31.673L27.581,31.658L27.539,31.642L27.497,31.626L27.455,31.61L27.414,31.593L27.373,31.576L27.332,31.559L27.291,31.542L27.251,31.524L27.211,31.506L27.172,31.487L27.132,31.468L27.093,31.449L27.054,31.43L27.016,31.41L26.978,31.39L26.94,31.37L26.902,31.349L26.865,31.328L26.828,31.307L26.791,31.286L26.755,31.264L26.719,31.242L26.683,31.22L26.647,31.198L26.612,31.175L26.577,31.152L26.543,31.129L26.508,31.106L26.474,31.083L26.441,31.059L26.407,31.035L26.374,31.011L26.341,30.987L26.308,30.962L26.276,30.937L26.244,30.912L26.212,30.887L26.181,30.862L26.15,30.837L26.119,30.811L26.088,30.785L26.058,30.759L26.028,30.733L25.998,30.707L25.969,30.681L25.94,30.654L25.911,30.628L25.882,30.601L25.854,30.574L25.826,30.547L25.798,30.52L25.771,30.493L25.743,30.465L25.716,30.438L25.69,30.41L25.663,30.383L25.637,30.355L25.611,30.327L25.585,30.299L25.56,30.271L25.535,30.243L25.51,30.215L25.485,30.187L25.461,30.159L25.437,30.13L25.413,30.102L25.389,30.073L25.366,30.045L25.343,30.016L25.32,29.988L25.297,29.959L25.275,29.93L25.252,29.901L25.23,29.873L25.209,29.844L25.187,29.815L25.166,29.786L25.145,29.757L25.124,29.728L25.104,29.7L25.083,29.671L25.063,29.642L25.043,29.613L25.024,29.584L25.004,29.555L24.985,29.526L24.966,29.497L24.947,29.468L24.928,29.438L24.892,29.382L24.856,29.324L24.821,29.267L24.787,29.21L24.754,29.153L24.722,29.096L24.69,29.039L24.659,28.983L24.629,28.927L24.6,28.871L24.571,28.815L24.543,28.76L24.516,28.705L24.49,28.651L24.464,28.597L24.439,28.543L24.414,28.49L24.391,28.438L24.368,28.386L24.345,28.334L24.323,28.283L24.302,28.233L24.282,28.183L24.262,28.134L24.243,28.085L24.224,28.037L24.206,27.99L24.189,27.943L24.172,27.898L24.155,27.853L24.14,27.808L24.125,27.765L24.11,27.722L24.096,27.681L24.082,27.64L24.069,27.6L24.057,27.561L24.045,27.523L24.033,27.486L24.022,27.449L24.011,27.413L23.992,27.347L23.974,27.284L23.958,27.226L23.944,27.172L23.932,27.124L23.921,27.08L23.912,27.041L23.904,27.008L23.898,26.981L23.893,26.959L23.641,25.74L34.794,25.74L34.594,26.923L34.59,26.945L34.585,26.973L34.579,27.006L34.571,27.044L34.562,27.088L34.551,27.137L34.539,27.191L34.525,27.249L34.51,27.312L34.493,27.378L34.484,27.414L34.474,27.45L34.464,27.487L34.453,27.525L34.442,27.564L34.431,27.604L34.419,27.645L34.406,27.687L34.393,27.729L34.379,27.773L34.365,27.817L34.351,27.862L34.335,27.908L34.32,27.954L34.303,28.002L34.287,28.049L34.269,28.098L34.251,28.147L34.232,28.197L34.213,28.248L34.193,28.299L34.173,28.35L34.152,28.402L34.13,28.455L34.107,28.508L34.084,28.562L34.06,28.616L34.036,28.671L34.011,28.726L33.985,28.781L33.958,28.836L33.931,28.892L33.903,28.949L33.874,29.005L33.844,29.062L33.814,29.119L33.782,29.176L33.75,29.234L33.717,29.292L33.684,29.349L33.65,29.406L33.632,29.436L33.614,29.465L33.596,29.494L33.578,29.523L33.559,29.552L33.54,29.582L33.521,29.611L33.502,29.64L33.483,29.669L33.463,29.698L33.443,29.727L33.423,29.756L33.403,29.785L33.383,29.814L33.362,29.843L33.341,29.872L33.32,29.901L33.298,29.93L33.276,29.959L33.254,29.987L33.232,30.016L33.21,30.045L33.187,30.074L33.164,30.102L33.141,30.131L33.117,30.159L33.093,30.188L33.069,30.216L33.045,30.244L33.02,30.273L32.996,30.301L32.971,30.329L32.945,30.357L32.92,30.385L32.894,30.413L32.868,30.44L32.841,30.468L32.814,30.495L32.787,30.523L32.76,30.55L32.733,30.577L32.705,30.604L32.677,30.631L32.648,30.658L32.619,30.684L32.59,30.711L32.561,30.737L32.532,30.763L32.502,30.789L32.472,30.815L32.441,30.841L32.41,30.866L32.379,30.892L32.348,30.917L32.316,30.942L32.284,30.967L32.252,30.991L32.22,31.016L32.187,31.04L32.154,31.064L32.12,31.088L32.087,31.111L32.053,31.134L32.018,31.158L31.984,31.18L31.949,31.203L31.913,31.225L31.878,31.248L31.842,31.269L31.806,31.291L31.769,31.312L31.732,31.334L31.695,31.354L31.658,31.375L31.62,31.395L31.582,31.415L31.544,31.435L31.505,31.454L31.467,31.473L31.427,31.492L31.388,31.511L31.348,31.529L31.308,31.547L31.268,31.564L31.227,31.581L31.186,31.598L31.145,31.615L31.103,31.631L31.061,31.647L31.019,31.662L30.977,31.677L30.934,31.692L30.891,31.706L30.848,31.72L30.804,31.734L30.76,31.747L30.716,31.76L30.672,31.773L30.627,31.785L30.582,31.796L30.537,31.808L30.492,31.819L30.446,31.829L30.4,31.839L30.354,31.849L30.307,31.858L30.26,31.867L30.213,31.875L30.166,31.883L30.119,31.891L30.071,31.898L30.023,31.905L29.974,31.911L29.926,31.917L29.877,31.922L29.828,31.927L29.779,31.932L29.729,31.936L29.68,31.94L29.63,31.943L29.58,31.945L29.529,31.948L29.479,31.95L29.428,31.951L29.377,31.952L29.325,31.952Z" style="fill:rgb(78,164,239);"/>
    </g>
</svg>
