<?xml version="1.0" standalone="no"?>
<!DOCTYPE svg PUBLIC "-//W3C//DTD SVG 1.1//EN" "http://www.w3.org/Graphics/SVG/1.1/DTD/svg11.dtd">
<svg width="100%" height="100%" viewBox="0 0 71 122" version="1.1" xmlns="http://www.w3.org/2000/svg" xmlns:xlink="http://www.w3.org/1999/xlink" xml:space="preserve" style="fill-rule:evenodd;clip-rule:evenodd;stroke-linejoin:round;stroke-miterlimit:1.41421;">
    <g transform="matrix(1,0,0,1,22.5,0)">
        <path d="M4.16,8.848C4.16,3.961 8.128,0 13,0C17.882,0 21.84,3.955 21.84,8.848L21.84,113.152C21.84,118.039 17.872,122 13,122C8.118,122 4.16,118.045 4.16,113.152L4.16,8.848Z" style="fill:rgb(78,164,239);"/>
    </g>
    <g transform="matrix(1,0,0,1,22.5,0)">
        <clipPath id="_clip1">
            <path d="M-22.5,23.047L48.5,23.047L48.5,93.991L-22.5,93.991L-22.5,23.047ZM2.5,53.543C2.5,50.511 4.965,48.047 7.995,48.047L18.005,48.047C21.04,48.047 23.5,50.508 23.5,53.543L23.5,63.495C23.5,66.527 21.035,68.991 18.005,68.991L7.995,68.991C4.96,68.991 2.5,66.53 2.5,63.495L2.5,53.543ZM-2.5,53.543L-2.5,63.495C-2.5,69.291 2.199,73.991 7.995,73.991L18.005,73.991C23.795,73.991 28.5,69.289 28.5,63.495L28.5,53.543C28.5,47.746 23.801,43.047 18.005,43.047L7.995,43.047C2.205,43.047 -2.5,47.749 -2.5,53.543Z"/>
        </clipPath>
        <g clip-path="url(#_clip1)">
            <clipPath id="_clip2">
                <path d="M0,53.543C0,49.127 3.588,45.547 7.995,45.547L18.005,45.547C22.42,45.547 26,49.127 26,53.543L26,63.495C26,67.911 22.412,71.491 18.005,71.491L7.995,71.491C3.58,71.491 0,67.91 0,63.495L0,53.543Z"/>
            </clipPath>
            <g clip-path="url(#_clip2)">
                <path d="M0,53.543C0,49.127 3.588,45.547 7.995,45.547L18.005,45.547C22.42,45.547 26,49.127 26,53.543L26,63.495C26,67.911 22.412,71.491 18.005,71.491L7.995,71.491C3.58,71.491 0,67.91 0,63.495L0,53.543Z" style="fill:white;"/>
            </g>
        </g>
    </g>
    <g transform="matrix(1,0,0,1,22.5,0)">
        <clipPath id="_clip3">
            <path d="M0,53.543C0,49.127 3.588,45.547 7.995,45.547L18.005,45.547C22.42,45.547 26,49.127 26,53.543L26,63.495C26,67.911 22.412,71.491 18.005,71.491L7.995,71.491C3.58,71.491 0,67.91 0,63.495L0,53.543Z"/>
        </clipPath>
        <g clip-path="url(#_clip3)">
            <path d="M8.011,66.491L17.989,66.491L18.044,66.49L18.084,66.489L18.123,66.488L18.162,66.486L18.201,66.484L18.239,66.482L18.277,66.478L18.315,66.475L18.353,66.471L18.39,66.466L18.427,66.461L18.464,66.456L18.501,66.45L18.538,66.444L18.574,66.437L18.61,66.43L18.646,66.422L18.682,66.414L18.718,66.406L18.753,66.397L18.788,66.387L18.824,66.378L18.858,66.368L18.893,66.357L18.928,66.346L18.962,66.335L18.996,66.323L19.03,66.311L19.064,66.298L19.098,66.285L19.131,66.271L19.165,66.257L19.198,66.243L19.231,66.228L19.264,66.213L19.296,66.198L19.329,66.182L19.361,66.166L19.393,66.149L19.425,66.132L19.457,66.115L19.488,66.097L19.52,66.078L19.55,66.06L19.581,66.041L19.612,66.022L19.642,66.002L19.673,65.982L19.703,65.961L19.732,65.94L19.762,65.919L19.791,65.898L19.82,65.876L19.849,65.853L19.877,65.831L19.905,65.808L19.933,65.784L19.961,65.761L19.988,65.737L20.015,65.712L20.042,65.688L20.069,65.663L20.095,65.638L20.121,65.612L20.146,65.586L20.172,65.56L20.197,65.533L20.221,65.507L20.246,65.479L20.27,65.452L20.293,65.425L20.317,65.397L20.34,65.368L20.362,65.34L20.385,65.311L20.406,65.282L20.428,65.253L20.449,65.224L20.47,65.194L20.491,65.164L20.511,65.134L20.53,65.104L20.55,65.073L20.569,65.042L20.587,65.011L20.606,64.98L20.624,64.948L20.641,64.917L20.658,64.885L20.675,64.853L20.691,64.821L20.707,64.788L20.722,64.756L20.738,64.723L20.752,64.69L20.766,64.657L20.78,64.623L20.794,64.59L20.807,64.556L20.82,64.522L20.832,64.488L20.844,64.454L20.855,64.42L20.866,64.385L20.877,64.35L20.887,64.316L20.897,64.281L20.906,64.245L20.915,64.21L20.923,64.174L20.931,64.138L20.939,64.102L20.946,64.066L20.953,64.029L20.959,63.993L20.965,63.956L20.971,63.919L20.976,63.881L20.98,63.844L20.984,63.806L20.988,63.768L20.991,63.73L20.994,63.692L20.996,63.653L20.998,63.614L20.999,63.574L21,63.535L21,63.479L21,53.559L21,53.503L20.999,53.463L20.998,53.424L20.996,53.384L20.994,53.346L20.991,53.307L20.988,53.269L20.984,53.23L20.98,53.192L20.976,53.155L20.971,53.118L20.965,53.08L20.959,53.043L20.953,53.007L20.946,52.97L20.939,52.934L20.931,52.898L20.923,52.862L20.915,52.826L20.906,52.791L20.897,52.755L20.887,52.72L20.877,52.685L20.866,52.65L20.855,52.616L20.844,52.581L20.832,52.547L20.82,52.513L20.807,52.479L20.794,52.445L20.78,52.412L20.767,52.378L20.752,52.345L20.738,52.312L20.723,52.279L20.707,52.247L20.691,52.214L20.675,52.182L20.658,52.15L20.641,52.118L20.624,52.087L20.606,52.055L20.588,52.024L20.569,51.993L20.55,51.962L20.531,51.932L20.511,51.902L20.491,51.871L20.471,51.842L20.45,51.812L20.429,51.783L20.407,51.753L20.385,51.725L20.363,51.696L20.341,51.668L20.318,51.639L20.294,51.612L20.271,51.584L20.247,51.557L20.223,51.53L20.198,51.503L20.173,51.477L20.148,51.45L20.123,51.425L20.097,51.399L20.071,51.374L20.044,51.349L20.017,51.324L19.99,51.3L19.963,51.276L19.936,51.253L19.908,51.229L19.88,51.206L19.851,51.184L19.823,51.162L19.794,51.14L19.765,51.118L19.735,51.097L19.705,51.076L19.676,51.056L19.646,51.036L19.615,51.016L19.585,50.997L19.554,50.978L19.523,50.959L19.492,50.941L19.46,50.923L19.429,50.906L19.397,50.889L19.365,50.872L19.333,50.856L19.3,50.84L19.268,50.825L19.235,50.81L19.202,50.795L19.169,50.781L19.136,50.767L19.102,50.753L19.068,50.74L19.034,50.728L19,50.715L18.966,50.704L18.932,50.692L18.897,50.681L18.862,50.671L18.827,50.66L18.792,50.651L18.757,50.641L18.721,50.632L18.686,50.624L18.65,50.616L18.614,50.608L18.577,50.601L18.541,50.594L18.504,50.588L18.467,50.582L18.43,50.577L18.392,50.572L18.355,50.567L18.317,50.563L18.279,50.559L18.24,50.556L18.202,50.553L18.163,50.551L18.124,50.55L18.084,50.548L18.045,50.548L17.989,50.547L8.011,50.547L7.956,50.548L7.916,50.548L7.877,50.55L7.838,50.551L7.799,50.553L7.761,50.556L7.723,50.559L7.685,50.563L7.647,50.567L7.61,50.571L7.573,50.576L7.536,50.582L7.499,50.588L7.462,50.594L7.426,50.601L7.39,50.608L7.354,50.616L7.318,50.624L7.282,50.632L7.247,50.641L7.212,50.65L7.177,50.66L7.142,50.67L7.107,50.681L7.072,50.692L7.038,50.703L7.004,50.715L6.97,50.727L6.936,50.74L6.902,50.753L6.869,50.766L6.835,50.78L6.802,50.795L6.769,50.809L6.736,50.824L6.704,50.84L6.671,50.856L6.639,50.872L6.607,50.889L6.575,50.906L6.543,50.923L6.512,50.941L6.48,50.959L6.449,50.978L6.419,50.997L6.388,51.016L6.358,51.036L6.327,51.056L6.298,51.077L6.268,51.097L6.238,51.119L6.209,51.14L6.18,51.162L6.151,51.184L6.123,51.207L6.095,51.23L6.067,51.253L6.039,51.277L6.012,51.301L5.985,51.325L5.958,51.35L5.931,51.375L5.905,51.4L5.879,51.426L5.854,51.452L5.828,51.478L5.803,51.504L5.779,51.531L5.754,51.558L5.73,51.586L5.707,51.613L5.683,51.641L5.66,51.669L5.638,51.698L5.615,51.726L5.594,51.755L5.572,51.785L5.551,51.814L5.53,51.844L5.509,51.874L5.489,51.904L5.469,51.934L5.45,51.965L5.431,51.996L5.412,52.027L5.394,52.058L5.376,52.089L5.359,52.121L5.342,52.153L5.325,52.185L5.309,52.217L5.293,52.249L5.278,52.282L5.262,52.315L5.248,52.348L5.234,52.381L5.22,52.414L5.206,52.448L5.193,52.481L5.18,52.515L5.168,52.549L5.156,52.583L5.145,52.618L5.134,52.653L5.123,52.687L5.113,52.722L5.103,52.757L5.094,52.793L5.085,52.828L5.077,52.864L5.069,52.9L5.061,52.936L5.054,52.972L5.047,53.008L5.041,53.045L5.035,53.082L5.029,53.119L5.024,53.156L5.02,53.194L5.016,53.232L5.012,53.269L5.009,53.308L5.006,53.346L5.004,53.385L5.002,53.424L5.001,53.463L5,53.503L5,53.559L5,63.479L5,63.535L5.001,63.575L5.002,63.614L5.004,63.653L5.006,63.692L5.009,63.731L5.012,63.769L5.016,63.807L5.02,63.845L5.024,63.883L5.029,63.92L5.035,63.957L5.041,63.994L5.047,64.031L5.054,64.068L5.061,64.104L5.069,64.14L5.077,64.176L5.085,64.212L5.094,64.247L5.103,64.283L5.113,64.318L5.123,64.353L5.134,64.388L5.145,64.422L5.156,64.456L5.168,64.491L5.18,64.525L5.193,64.559L5.206,64.592L5.22,64.626L5.233,64.659L5.248,64.692L5.262,64.725L5.277,64.758L5.293,64.791L5.309,64.823L5.325,64.855L5.342,64.887L5.359,64.919L5.376,64.951L5.394,64.982L5.412,65.014L5.431,65.045L5.45,65.075L5.469,65.106L5.489,65.136L5.509,65.166L5.529,65.196L5.55,65.226L5.571,65.255L5.593,65.284L5.615,65.313L5.637,65.342L5.659,65.37L5.682,65.398L5.706,65.426L5.729,65.454L5.753,65.481L5.777,65.508L5.802,65.535L5.827,65.561L5.852,65.587L5.878,65.613L5.903,65.639L5.929,65.664L5.956,65.689L5.983,65.713L6.01,65.738L6.037,65.761L6.064,65.785L6.092,65.808L6.12,65.831L6.149,65.854L6.177,65.876L6.206,65.898L6.235,65.92L6.265,65.941L6.294,65.961L6.324,65.982L6.354,66.002L6.385,66.022L6.415,66.041L6.446,66.06L6.477,66.079L6.508,66.097L6.54,66.114L6.571,66.132L6.603,66.149L6.635,66.166L6.667,66.182L6.7,66.198L6.732,66.213L6.765,66.228L6.798,66.243L6.831,66.257L6.864,66.271L6.898,66.284L6.932,66.297L6.966,66.31L7,66.322L7.034,66.334L7.068,66.346L7.103,66.357L7.138,66.367L7.173,66.377L7.208,66.387L7.243,66.396L7.279,66.405L7.314,66.414L7.35,66.422L7.387,66.43L7.423,66.437L7.459,66.443L7.496,66.45L7.533,66.456L7.57,66.461L7.608,66.466L7.645,66.471L7.683,66.475L7.721,66.478L7.76,66.482L7.798,66.484L7.837,66.486L7.876,66.488L7.916,66.489L7.955,66.49L8.011,66.491ZM7.979,76.491L7.829,76.49L7.662,76.486L7.496,76.481L7.331,76.474L7.165,76.464L7.001,76.453L6.836,76.439L6.673,76.424L6.509,76.406L6.346,76.386L6.184,76.365L6.022,76.341L5.861,76.316L5.701,76.288L5.541,76.258L5.381,76.227L5.223,76.193L5.065,76.158L4.908,76.12L4.751,76.081L4.595,76.04L4.44,75.997L4.286,75.952L4.133,75.906L3.98,75.857L3.828,75.807L3.677,75.754L3.527,75.701L3.378,75.645L3.229,75.587L3.082,75.528L2.935,75.467L2.789,75.405L2.645,75.34L2.501,75.274L2.358,75.206L2.217,75.137L2.076,75.066L1.936,74.993L1.797,74.919L1.66,74.843L1.523,74.766L1.387,74.687L1.253,74.606L1.119,74.524L0.987,74.44L0.856,74.355L0.726,74.268L0.597,74.18L0.469,74.09L0.342,73.999L0.217,73.906L0.093,73.812L-0.031,73.716L-0.153,73.619L-0.273,73.521L-0.393,73.421L-0.511,73.32L-0.628,73.217L-0.744,73.113L-0.858,73.008L-0.971,72.901L-1.083,72.793L-1.194,72.684L-1.303,72.573L-1.411,72.462L-1.518,72.348L-1.623,72.234L-1.727,72.118L-1.83,72.001L-1.931,71.883L-2.031,71.763L-2.129,71.643L-2.226,71.521L-2.322,71.398L-2.416,71.273L-2.509,71.148L-2.6,71.021L-2.69,70.893L-2.778,70.764L-2.865,70.634L-2.95,70.503L-3.034,70.371L-3.116,70.237L-3.196,70.103L-3.275,69.967L-3.353,69.83L-3.429,69.693L-3.503,69.554L-3.576,69.414L-3.647,69.273L-3.716,69.132L-3.784,68.989L-3.85,68.845L-3.914,68.701L-3.977,68.555L-4.038,68.408L-4.097,68.261L-4.154,68.112L-4.21,67.963L-4.264,67.813L-4.316,67.662L-4.367,67.51L-4.415,67.357L-4.462,67.204L-4.507,67.05L-4.55,66.895L-4.591,66.739L-4.63,66.582L-4.667,66.425L-4.703,66.267L-4.736,66.109L-4.768,65.949L-4.797,65.789L-4.825,65.629L-4.851,65.468L-4.874,65.306L-4.896,65.144L-4.916,64.981L-4.933,64.818L-4.949,64.654L-4.962,64.489L-4.974,64.325L-4.983,64.16L-4.991,63.994L-4.996,63.828L-4.999,63.662L-5,63.511L-5,53.527L-4.999,53.376L-4.996,53.209L-4.991,53.043L-4.983,52.878L-4.974,52.712L-4.962,52.547L-4.949,52.383L-4.933,52.219L-4.915,52.056L-4.896,51.893L-4.874,51.73L-4.85,51.568L-4.824,51.407L-4.797,51.247L-4.767,51.086L-4.735,50.927L-4.702,50.768L-4.666,50.61L-4.629,50.453L-4.59,50.296L-4.548,50.141L-4.505,49.986L-4.46,49.831L-4.414,49.678L-4.365,49.525L-4.315,49.373L-4.262,49.222L-4.208,49.072L-4.152,48.923L-4.095,48.774L-4.036,48.627L-3.975,48.48L-3.912,48.334L-3.847,48.19L-3.781,48.046L-3.713,47.903L-3.644,47.762L-3.573,47.621L-3.5,47.481L-3.426,47.342L-3.35,47.205L-3.272,47.068L-3.193,46.932L-3.112,46.798L-3.03,46.665L-2.946,46.532L-2.861,46.401L-2.774,46.271L-2.686,46.142L-2.596,46.014L-2.505,45.888L-2.412,45.762L-2.318,45.638L-2.222,45.515L-2.125,45.393L-2.027,45.272L-1.927,45.153L-1.825,45.035L-1.723,44.918L-1.619,44.802L-1.514,44.688L-1.407,44.575L-1.299,44.463L-1.19,44.352L-1.079,44.243L-0.967,44.135L-0.854,44.028L-0.739,43.923L-0.624,43.819L-0.507,43.717L-0.388,43.616L-0.269,43.516L-0.148,43.418L-0.026,43.321L0.097,43.225L0.221,43.131L0.347,43.038L0.473,42.947L0.601,42.857L0.73,42.769L0.86,42.683L0.991,42.597L1.123,42.514L1.257,42.432L1.391,42.351L1.527,42.272L1.663,42.195L1.801,42.119L1.94,42.044L2.079,41.972L2.22,41.901L2.362,41.831L2.504,41.764L2.648,41.698L2.793,41.633L2.938,41.571L3.085,41.51L3.232,41.451L3.38,41.393L3.53,41.337L3.68,41.283L3.831,41.231L3.982,41.181L4.135,41.132L4.288,41.086L4.442,41.041L4.597,40.998L4.753,40.957L4.909,40.918L5.066,40.88L5.224,40.845L5.383,40.811L5.542,40.78L5.702,40.75L5.862,40.722L6.023,40.697L6.185,40.673L6.347,40.651L6.51,40.632L6.673,40.614L6.837,40.598L7.001,40.585L7.166,40.573L7.331,40.564L7.496,40.557L7.662,40.551L7.829,40.548L7.979,40.547L18.021,40.547L18.171,40.548L18.338,40.551L18.504,40.557L18.669,40.564L18.834,40.573L18.999,40.585L19.164,40.598L19.327,40.614L19.491,40.632L19.654,40.651L19.816,40.673L19.978,40.697L20.139,40.722L20.299,40.75L20.459,40.779L20.618,40.811L20.777,40.845L20.935,40.88L21.092,40.917L21.249,40.957L21.405,40.998L21.56,41.041L21.714,41.086L21.867,41.132L22.02,41.181L22.172,41.231L22.323,41.283L22.473,41.337L22.622,41.393L22.771,41.45L22.918,41.51L23.065,41.57L23.211,41.633L23.355,41.698L23.499,41.764L23.642,41.831L23.783,41.901L23.924,41.972L24.064,42.044L24.203,42.119L24.34,42.195L24.477,42.272L24.613,42.351L24.747,42.432L24.881,42.514L25.013,42.598L25.144,42.683L25.274,42.77L25.403,42.858L25.531,42.948L25.658,43.039L25.783,43.132L25.907,43.226L26.03,43.321L26.153,43.418L26.273,43.517L26.393,43.617L26.511,43.718L26.628,43.82L26.744,43.924L26.858,44.03L26.971,44.136L27.083,44.244L27.194,44.354L27.303,44.464L27.411,44.576L27.518,44.689L27.623,44.804L27.727,44.92L27.83,45.037L27.931,45.155L28.031,45.274L28.129,45.395L28.226,45.517L28.322,45.64L28.416,45.765L28.509,45.89L28.6,46.017L28.69,46.145L28.778,46.274L28.864,46.404L28.95,46.535L29.034,46.667L29.116,46.801L29.196,46.935L29.275,47.071L29.353,47.207L29.429,47.345L29.503,47.484L29.576,47.624L29.647,47.764L29.716,47.906L29.784,48.049L29.85,48.193L29.914,48.337L29.977,48.483L30.038,48.629L30.097,48.777L30.154,48.925L30.21,49.075L30.264,49.225L30.316,49.376L30.367,49.528L30.415,49.68L30.462,49.834L30.507,49.988L30.55,50.143L30.591,50.299L30.63,50.455L30.667,50.613L30.703,50.77L30.736,50.929L30.768,51.088L30.797,51.248L30.825,51.409L30.851,51.57L30.874,51.732L30.896,51.894L30.916,52.057L30.933,52.22L30.949,52.384L30.962,52.548L30.974,52.713L30.983,52.878L30.991,53.044L30.996,53.21L30.999,53.376L31,53.527L31,63.511L30.999,63.662L30.996,63.828L30.991,63.994L30.983,64.16L30.974,64.325L30.962,64.49L30.949,64.655L30.933,64.819L30.915,64.982L30.896,65.145L30.874,65.308L30.85,65.469L30.824,65.631L30.797,65.791L30.767,65.951L30.735,66.111L30.702,66.269L30.666,66.427L30.629,66.585L30.59,66.741L30.548,66.897L30.505,67.052L30.46,67.207L30.414,67.36L30.365,67.513L30.315,67.665L30.262,67.816L30.208,67.966L30.152,68.115L30.095,68.263L30.036,68.411L29.975,68.558L29.912,68.703L29.847,68.848L29.781,68.992L29.713,69.134L29.644,69.276L29.573,69.417L29.5,69.557L29.426,69.695L29.35,69.833L29.272,69.97L29.193,70.105L29.112,70.24L29.03,70.373L28.946,70.505L28.861,70.637L28.774,70.767L28.686,70.896L28.596,71.023L28.505,71.15L28.412,71.275L28.318,71.4L28.222,71.523L28.125,71.645L28.027,71.765L27.927,71.885L27.825,72.003L27.723,72.12L27.619,72.235L27.514,72.35L27.407,72.463L27.299,72.575L27.19,72.686L27.079,72.795L26.967,72.903L26.854,73.009L26.739,73.115L26.624,73.218L26.507,73.321L26.388,73.422L26.269,73.522L26.148,73.62L26.026,73.717L25.903,73.813L25.779,73.907L25.653,73.999L25.527,74.091L25.399,74.18L25.27,74.268L25.14,74.355L25.009,74.44L24.877,74.524L24.743,74.606L24.609,74.687L24.473,74.766L24.337,74.843L24.199,74.919L24.06,74.993L23.921,75.066L23.78,75.137L23.638,75.206L23.496,75.274L23.352,75.34L23.207,75.404L23.062,75.467L22.915,75.528L22.768,75.587L22.62,75.645L22.471,75.7L22.32,75.754L22.169,75.806L22.018,75.857L21.865,75.905L21.712,75.952L21.558,75.997L21.403,76.04L21.247,76.081L21.091,76.12L20.933,76.158L20.776,76.193L20.617,76.226L20.458,76.258L20.298,76.288L20.138,76.315L19.977,76.341L19.815,76.365L19.653,76.386L19.49,76.406L19.327,76.424L19.163,76.439L18.999,76.453L18.834,76.464L18.669,76.474L18.504,76.481L18.338,76.486L18.171,76.49L18.021,76.491L7.979,76.491Z" style="fill:rgb(78,164,239);"/>
        </g>
    </g>
</svg>
