<?xml version="1.0" encoding="UTF-8" standalone="no"?>
<svg width="152px" height="152px" viewBox="0 0 152 152" version="1.1" xmlns="http://www.w3.org/2000/svg" xmlns:xlink="http://www.w3.org/1999/xlink" xmlns:sketch="http://www.bohemiancoding.com/sketch/ns">
    <!-- Generator: Sketch 3.3.3 (12081) - http://www.bohemiancoding.com/sketch -->
    <title>icon</title>
    <desc>Created with Sketch.</desc>
    <defs>
        <circle id="path-1" cx="76" cy="76" r="76"></circle>
    </defs>
    <g id="Page-1" stroke="none" stroke-width="1" fill="none" fill-rule="evenodd" sketch:type="MSPage">
        <g id="Home-Copy" sketch:type="MSArtboardGroup" transform="translate(-241.000000, -6356.000000)">
            <g id="what-we-offer" sketch:type="MSLayerGroup" transform="translate(201.000000, 5146.000000)">
                <g id="what-we-offer-text" transform="translate(0.000000, 412.000000)">
                    <g id="Approach-section-Copy-4" transform="translate(40.000000, 798.000000)">
                        <g id="icon">
                            <mask id="mask-2" sketch:name="Mask" fill="white">
                                <use xlink:href="#path-1"></use>
                            </mask>
                            <use id="Mask" opacity="0.445429104" fill="#4EA4EF" sketch:type="MSShapeGroup" xlink:href="#path-1"></use>
                            <g id="big-scrn-copy" mask="url(#mask-2)">
                                <g transform="translate(14.000000, 37.000000)">
                                    <rect id="frm" fill="#4EA4EF" sketch:type="MSShapeGroup" x="0" y="0" width="125" height="75" rx="6"></rect>
                                    <rect id="scrn" fill="#FFFFFF" sketch:type="MSShapeGroup" x="7" y="6" width="111" height="61"></rect>
                                    <g id="face-copy-6" stroke-width="1" fill="none" sketch:type="MSLayerGroup" transform="translate(27.000000, 20.000000)">
                                        <path d="M8.94656772,17.8893533 C13.8876206,17.8893533 17.8931354,13.8846852 17.8931354,8.94467667 C17.8931354,4.00466815 13.8876206,0 8.94656772,0 C4.0055148,0 0,4.00466815 0,8.94467667 C0,13.8846852 4.0055148,17.8893533 8.94656772,17.8893533 Z" id="Oval-63" stroke="#4EA4EF" stroke-width="2" sketch:type="MSShapeGroup"></path>
                                        <g id="face-copy-4" transform="translate(4.090909, 4.909091)" sketch:type="MSShapeGroup">
                                            <ellipse id="Oval-64" fill="#4EA4EF" cx="1.09344727" cy="2.18213351" rx="1.09344727" ry="2.18213351"></ellipse>
                                            <path d="M8.50503995,4.36426703 C9.1089342,4.36426703 9.59848722,3.38729257 9.59848722,2.18213351 C9.59848722,0.976974452 9.1089342,0 8.50503995,0 C7.9011457,0 7.41159268,0.976974452 7.41159268,2.18213351 C7.41159268,3.38729257 7.9011457,4.36426703 8.50503995,4.36426703 Z" id="Oval-64-Copy" fill="#4EA4EF"></path>
                                            <path d="M6.40612393,6.2588904 C6.40612393,6.49437094 6.08360639,7.40056998 4.92051269,7.39543996 C3.757419,7.40056998 3.47406072,6.37751785 3.47406072,6.2588904 C3.47406072,5.83705616 4.19605736,6.97631838 4.9205127,6.97631838 C5.64496803,6.97631838 6.40612393,5.83927759 6.40612393,6.2588904 Z" id="Path-105" stroke="#4EA4EF" stroke-width="2"></path>
                                        </g>
                                    </g>
                                    <g id="lines" stroke-width="1" fill="none" sketch:type="MSLayerGroup" transform="translate(26.000000, 20.000000)" stroke-linecap="square">
                                        <path d="M34,1.45932182 L77,1.45932182" id="Line" stroke="#4EA4EF" stroke-width="2" sketch:type="MSShapeGroup"></path>
                                        <path d="M0,27.1813439 L77.6394453,27.1813439" id="Line-Copy-9" stroke="#4EA4EF" stroke-width="2" opacity="0.369169776" sketch:type="MSShapeGroup"></path>
                                        <path d="M34,7.88982735 L64.0546105,7.88982735" id="Line-Copy-6" stroke="#4EA4EF" stroke-width="2" sketch:type="MSShapeGroup"></path>
                                        <path d="M0,34.9898149 L28.9988323,34.9898149" id="Line-Copy-10" stroke="#4EA4EF" stroke-width="2" sketch:type="MSShapeGroup"></path>
                                        <path d="M34,12.0237238 L64.0546105,12.0237238" id="Line-Copy-7" stroke="#4EA4EF" stroke-width="2" sketch:type="MSShapeGroup"></path>
                                        <path d="M0,39.1237113 L28.9988323,39.1237113" id="Line-Copy-11" stroke="#4EA4EF" stroke-width="2" sketch:type="MSShapeGroup"></path>
                                        <path d="M34,16.1576202 L64.0546105,16.1576202" id="Line-Copy-8" stroke="#4EA4EF" stroke-width="2" sketch:type="MSShapeGroup"></path>
                                        <path d="M0,43.2576078 L28.9988323,43.2576078" id="Line-Copy-12" stroke="#4EA4EF" stroke-width="2" sketch:type="MSShapeGroup"></path>
                                    </g>
                                    <rect id="Rectangle-121" opacity="0.201317631" fill="#4EA4EF" sketch:type="MSShapeGroup" x="60" y="54" width="43" height="14"></rect>
                                    <g id="menu" stroke-width="1" fill="none" sketch:type="MSLayerGroup" transform="translate(72.000000, 11.000000)" stroke-linecap="square">
                                        <path d="M0,0.690763052 L6.33495519,0.690763052" id="Line" stroke="#4EA4EF" stroke-width="2" sketch:type="MSShapeGroup"></path>
                                        <path d="M13.1224072,0.690763052 L19.0222435,0.690763052" id="Line" stroke="#4EA4EF" stroke-width="2" sketch:type="MSShapeGroup"></path>
                                        <path d="M24.4348271,0.690763052 L30.3346634,0.690763052" id="Line-Copy-13" stroke="#4EA4EF" stroke-width="2" sketch:type="MSShapeGroup"></path>
                                    </g>
                                    <path d="M75.925,88.2918407 C74.192,86.5030464 74.007,83.8177504 74.007,83.8177504 L73.358,77.9897882 L52.643,77.9897882 L51.991,83.8149444 C51.991,83.8149444 51.81,86.5030464 50.077,88.2904377 C48.345,90.0792321 46.978,91.6140878 48.345,91.8736383 C49.662,92.1233681 62.085,91.896086 63.001,91.8736383 C63.919,91.896086 76.339,92.1233681 77.656,91.8736383 C79.021,91.6154908 77.654,90.083441 75.925,88.2918407 L75.925,88.2918407 Z" id="Shape" fill="#4EA4EF" sketch:type="MSShapeGroup"></path>
                                </g>
                            </g>
                            <g id="brsh" mask="url(#mask-2)">
                                <g transform="translate(91.000000, 96.000000)" id="Group">
                                    <g transform="translate(10.523648, 12.504157) rotate(90.000000) translate(-10.523648, -12.504157) translate(8.023648, 9.504157)">
                                        <path d="M0.0348429421,2.94087057 C0.676530442,3.20364835 1.25834294,3.60321625 1.71296794,4.14735205 C2.05153044,4.55235205 2.29565544,5.00185822 2.46959294,5.46969773 C3.01021794,5.36488291 3.78184294,4.91630267 4.97071794,3.89926563 L1.61003044,0.579636 C0.639155442,1.68216686 0.179842942,2.41661131 0.0348429421,2.94087057 L0.0348429421,2.94087057 Z" id="Shape" stroke="#4EA4EF" stroke-width="2" fill="#FFFFFF" sketch:type="MSShapeGroup"></path>
                                    </g>
                                    <g transform="translate(20.523648, 22.504157) rotate(90.000000) translate(-20.523648, -22.504157) translate(11.023648, 12.504157)">
                                        <path d="M18.9158289,0.638981679 C17.8884908,-0.384684988 6.62095562,9.18424835 0.902959139,14.881115 C0.582568294,15.2003817 0.288268998,15.5007817 0.0169837872,15.783515 L3.71750139,19.470515 C4.00176548,19.2006483 4.3021528,18.9078483 4.62254365,18.5885817 C10.3404063,12.8907817 19.9430331,1.66258168 18.9158289,0.638981679 L18.9158289,0.638981679 Z" id="Shape" stroke="#4EA4EF" stroke-width="2" fill="#FFFFFF" sketch:type="MSShapeGroup"></path>
                                    </g>
                                    <g transform="translate(5.523648, 6.004157) rotate(90.000000) translate(-5.523648, -6.004157) translate(0.023648, 0.504157)">
                                        <path d="M7.38889683,0.584977459 C6.59643576,0.584977459 5.80094474,0.839281257 5.14239384,1.36117999 C1.51779504,4.23586354 4.68500462,7.97244581 -0.00415705791,9.84510404 C0.674022583,10.2935851 1.47445372,10.4825724 2.32422019,10.4825724 C5.12375312,10.4825724 8.46834594,8.43478759 9.83754953,6.87478759 C11.2855974,5.37155974 11.3585795,3.26409138 10.1165016,1.81871164 C9.41763935,1.00548379 8.40722019,0.584977459 7.38889683,0.584977459 L7.38889683,0.584977459 Z" id="Shape" stroke="#4EA4EF" stroke-width="2" fill="#FFFFFF" sketch:type="MSShapeGroup"></path>
                                    </g>
                                </g>
                            </g>
                        </g>
                    </g>
                </g>
            </g>
        </g>
    </g>
</svg>