<?xml version="1.0" encoding="UTF-8" standalone="no"?>
<svg width="152px" height="152px" viewBox="0 0 152 152" version="1.1" xmlns="http://www.w3.org/2000/svg" xmlns:xlink="http://www.w3.org/1999/xlink" xmlns:sketch="http://www.bohemiancoding.com/sketch/ns">
    <!-- Generator: Sketch 3.3.3 (12081) - http://www.bohemiancoding.com/sketch -->
    <title>UX-icon</title>
    <desc>Created with Sketch.</desc>
    <defs></defs>
    <g id="Page-1" stroke="none" stroke-width="1" fill="none" fill-rule="evenodd" sketch:type="MSPage">
        <g id="Home-Copy" sketch:type="MSArtboardGroup" transform="translate(-239.000000, -5924.000000)">
            <g id="what-we-offer" sketch:type="MSLayerGroup" transform="translate(201.000000, 5146.000000)">
                <g id="what-we-offer-text" transform="translate(0.000000, 412.000000)" sketch:type="MSShapeGroup">
                    <g id="Approach-section-Copy-2" transform="translate(38.000000, 366.000000)">
                        <g id="UX-icon">
                            <circle id="Oval-60-Copy-4" fill="#ABD2F3" cx="76" cy="76" r="76"></circle>
                            <g id="jigsaw" transform="translate(39.029466, 30.000400)">
                                <g id="jigsaw-pieces" transform="translate(0.000000, 18.000000)">
                                    <path d="M15.2857665,34.2964859 L0.14424854,34.2964859 L0.14424854,64.3231155 C0.14424854,66.5579127 1.95621405,68.3694801 4.19101133,68.3694801 L34.2172427,68.3694801 L34.2172427,53.233138 C35.0362304,53.233138 35.7477185,53.6818493 36.1339208,54.3451617 C37.1456115,55.9863223 38.9595677,57.0800312 41.0291342,57.0800312 C44.2031594,57.0800312 46.7763814,54.5072074 46.7763814,51.332784 C46.7763814,48.1587587 44.2031594,45.5859349 41.0291342,45.5859349 C38.9647436,45.5859349 37.1547689,46.6740697 36.1414856,48.3084618 C35.7552833,48.9721723 35.0362304,49.4236707 34.2172427,49.4236707 L34.2172427,34.2964859 L19.0952339,34.2964859 C19.0952339,35.1154736 19.5467322,35.8345265 20.2104427,36.2203307 C21.8444367,37.2340121 22.9329697,39.0439869 22.9329697,41.1083774 C22.9329697,44.2824027 20.3597477,46.8556246 17.1857225,46.8556246 C14.0116972,46.8556246 11.4384752,44.2824027 11.4384752,41.1083774 C11.4384752,39.038811 12.5325823,37.2248547 14.1737429,36.2127659 C14.8370552,35.8269618 15.2853684,35.1154736 15.2857665,34.2964859" id="Fill-1" fill="#4EA4EF"></path>
                                    <path d="M34.2738194,53.2280417 L34.2738194,68.3695597 L64.3004489,68.3695597 C66.5352462,68.3695597 68.3468135,66.5575942 68.3468135,64.322797 L68.3468135,34.2965656 L53.2104714,34.2965656 C53.2104714,33.4775779 53.6591827,32.7660898 54.3224951,32.3798875 C55.9636557,31.3681968 57.0573646,29.5542405 57.0573646,27.4846741 C57.0573646,24.3106488 54.4845408,21.7374269 51.3101174,21.7374269 C48.1360921,21.7374269 45.5632683,24.3106488 45.5632683,27.4846741 C45.5632683,29.5490646 46.6514031,31.3590394 48.2857952,32.3723227 C48.9495057,32.758525 49.4010041,33.4775779 49.4010041,34.2965656 L34.2738194,34.2965656 L34.2738194,49.4185744 C35.0928071,49.4185744 35.81186,48.967076 36.1976641,48.3033655 C37.2113455,46.6693716 39.0213203,45.5808386 41.0857108,45.5808386 C44.2597361,45.5808386 46.832958,48.1540605 46.832958,51.3280858 C46.832958,54.5021111 44.2597361,57.0753331 41.0857108,57.0753331 C39.0161444,57.0753331 37.2021881,55.981226 36.1900993,54.3400654 C35.8042952,53.676753 35.0928071,53.2284399 34.2738194,53.2280417" id="Fill-2" fill="#DCEDFC"></path>
                                    <path d="M34.2173223,15.4370345 L34.2173223,0.295516498 L4.19069281,0.295516498 C1.95589553,0.295516498 0.144328169,2.10748201 0.144328169,4.34227929 L0.144328169,34.3685107 L15.2806703,34.3685107 C15.2806703,35.1874984 14.831959,35.8989865 14.1686466,36.2851888 C12.527486,37.2968795 11.4337771,39.1108357 11.4337771,41.1804021 C11.4337771,44.3544274 14.0066009,46.9276493 17.1810243,46.9276493 C20.3550496,46.9276493 22.9278734,44.3544274 22.9278734,41.1804021 C22.9278734,39.1160116 21.8397386,37.3060368 20.2053465,36.2927535 C19.541636,35.9065513 19.0901376,35.1874984 19.0901376,34.3685107 L34.2173223,34.3685107 L34.2173223,19.2465019 C33.3983346,19.2465019 32.6792817,19.6980002 32.2934776,20.3617107 C31.2797962,21.9957046 29.4698214,23.0842377 27.4054309,23.0842377 C24.2314056,23.0842377 21.6581837,20.5110157 21.6581837,17.3369904 C21.6581837,14.1629651 24.2314056,11.5897432 27.4054309,11.5897432 C29.4749973,11.5897432 31.2889536,12.6838502 32.3010424,14.3250108 C32.6868465,14.9883232 33.3983346,15.4366363 34.2173223,15.4370345" id="Fill-3" fill="#FFFFFF"></path>
                                </g>
                                <path d="M65.4523668,39.3433413 L78.5653275,46.9141003 C78.5653275,46.9141003 93.5786423,20.9099466 93.5782442,20.9103448 C94.6958419,18.9749538 94.0325295,16.5000741 92.0971385,15.3828745 L66.0937811,0.369559742 L58.525411,13.4777427 C57.8163118,13.0684479 57.4245355,12.3243118 57.4217484,11.556685 C57.3660079,9.62965508 56.3419747,7.77508787 54.5495183,6.74030467 C51.8007137,5.15329202 48.2858749,6.09530705 46.6988622,8.84411169 C45.1118496,11.5929163 46.0534665,15.1077552 48.8026692,16.6947678 C50.5903478,17.7271621 52.7021178,17.6893382 54.3970282,16.7807675 C55.0631275,16.399343 55.9115781,16.3674912 56.6206773,16.7771842 L49.057085,29.8774042 L62.1533235,37.4386076 C62.5626183,36.7295084 62.5311647,35.8810578 62.1497402,35.2149585 C61.2407713,33.5200481 61.2033455,31.4082781 62.2357399,29.6205996 C63.8227525,26.8713968 67.3375913,25.9297799 70.086396,27.5167925 C72.8352006,29.1038052 73.7772156,32.618644 72.190203,35.3674486 C71.1554198,37.159905 69.3008526,38.1839382 67.3738227,38.2396787 C66.6061959,38.2424658 65.8620598,38.6342421 65.4523668,39.3433413" id="final-piece" fill="#4EA4EF"></path>
                            </g>
                        </g>
                    </g>
                </g>
            </g>
        </g>
    </g>
</svg>