<?xml version="1.0" encoding="UTF-8" standalone="no"?>
<svg width="102px" height="102px" viewBox="0 0 102 102" version="1.1" xmlns="http://www.w3.org/2000/svg" xmlns:xlink="http://www.w3.org/1999/xlink" xmlns:sketch="http://www.bohemiancoding.com/sketch/ns">
    <!-- Generator: Sketch 3.3.3 (12081) - http://www.bohemiancoding.com/sketch -->
    <title>earth</title>
    <desc>Created with Sketch.</desc>
    <defs></defs>
    <g id="Page-1" stroke="none" stroke-width="1" fill="none" fill-rule="evenodd" sketch:type="MSPage">
        <g id="Home-Copy" sketch:type="MSArtboardGroup" transform="translate(-236.000000, -5355.000000)" fill="#4EA4EF">
            <g id="what-we-offer" sketch:type="MSLayerGroup" transform="translate(201.000000, 5146.000000)">
                <g id="illus" transform="translate(33.000000, 146.000000)" sketch:type="MSShapeGroup">
                    <g id="earth" transform="translate(2.000000, 63.000000)">
                        <g id="Shape-Copy">
                            <path d="M86.4827458,15.0829436 C96.0210023,24.6212002 101.2737,37.3028944 101.2737,50.7920841 C101.2737,64.2810844 96.0206236,76.9625892 86.4827458,86.5008458 C76.9442998,96.038913 64.262795,101.2918 50.7737947,101.2918 C37.2847944,101.2918 24.6031002,96.038913 15.0648436,86.5008458 C5.52658703,76.9625892 0.2737,64.280895 0.2737,50.7920841 C0.2737,37.3030838 5.52620828,24.6212002 15.0646542,15.0829436 C24.6031002,5.54468703 37.2847944,0.2918 50.7737947,0.2918 C64.262795,0.2918 76.9442998,5.54468703 86.4827458,15.0829436 L86.4827458,15.0829436 Z M84.2503464,84.3794455 C90.9665164,77.6935109 95.4322388,69.3651526 97.2737,60.3045436 C95.8383623,62.4076521 94.4655995,63.1881494 93.6157257,58.4803296 C92.7402904,50.8050322 85.6586911,55.7080781 81.2054428,52.9816304 C76.5186633,56.1262162 65.9850143,46.8679383 67.7751478,57.3101944 C70.5372373,62.0202534 82.686996,51.0067727 76.6311345,60.9724653 C72.7676446,67.9297622 62.5037222,83.3369503 63.8390628,91.3237138 C64.0073607,102.959516 51.8958423,93.7500955 47.7229541,89.8903591 C44.9158761,82.1588757 46.766335,68.6451163 39.4262563,64.8586661 C31.4594059,64.5144248 24.621358,63.7935743 21.5337153,54.9271736 C19.6756901,48.5836481 23.51096,39.1403227 30.3396012,37.6825394 C40.3352285,31.4306215 43.9058842,45.0040276 53.2802612,45.2564577 C56.1908128,42.224651 64.1243308,41.2607348 64.7821854,37.8610725 C58.6314391,36.7805092 72.5856457,32.7125181 64.1934495,30.398712 C59.5633146,30.9408259 56.5803724,35.1777822 59.0416524,38.7704313 C50.069718,40.8529789 49.7824051,25.8452003 41.1579046,30.5790774 C40.9386879,38.0634237 27.0754808,33.0054591 36.3613123,31.4878254 C39.5518151,30.1002746 31.1573695,26.0789016 35.692415,26.8097272 C37.9201639,26.6892123 45.4199518,24.0728973 43.3903568,22.3140301 C47.5663124,19.7333404 51.0758246,28.4942904 55.163439,22.114529 C58.1144803,17.2090402 53.9258462,16.3033458 50.2267688,18.7897814 C48.1413472,16.4653896 53.9088733,11.4446787 58.995846,9.27520562 C60.6910945,8.55211577 62.3102716,8.15820281 63.5484779,8.26976059 C66.1109822,11.2164739 70.8494984,11.7268303 71.0975487,7.91534071 C64.7519204,4.89004842 57.7549813,3.2918 50.5108099,3.2918 C40.1133534,3.2918 30.2244715,6.58112594 22.0406539,12.6634678 C24.2399782,13.66647 25.4884092,14.9153878 23.3696552,16.5118041 C21.723485,21.3948999 15.0441238,27.9497338 9.18048591,27.0216463 C6.13578674,32.248169 4.13073098,38.0066269 3.2737,44.0419436 C8.18480855,45.6595314 9.31729186,48.860914 8.26210698,49.9317058 C5.75972376,52.1040289 4.22152595,55.183268 3.42931932,58.5540229 C5.02784262,68.2913071 9.62505411,77.2651941 16.7714778,84.3796491 C25.7832883,93.3508896 37.7653626,98.2918 50.5108099,98.2918 C63.2558482,98.2918 75.2381269,93.3508896 84.2503464,84.3794455 L84.2503464,84.3794455 Z"></path>
                        </g>
                    </g>
                </g>
            </g>
        </g>
    </g>
</svg>