<?xml version="1.0" standalone="no"?>
<!DOCTYPE svg PUBLIC "-//W3C//DTD SVG 1.1//EN" "http://www.w3.org/Graphics/SVG/1.1/DTD/svg11.dtd">
<svg width="100%" height="100%" viewBox="0 0 57 53" version="1.1" xmlns="http://www.w3.org/2000/svg" xmlns:xlink="http://www.w3.org/1999/xlink" xml:space="preserve" style="fill-rule:evenodd;clip-rule:evenodd;stroke-linejoin:round;stroke-miterlimit:1.41421;">
    <g transform="matrix(1,0,0,1,21,21)">
        <clipPath id="_clip1">
            <path d="M-21,-21L36,-21L36,32L-21,32L-21,-21ZM7.5,12C12.139,12 16,9.169 16,5.5C16,1.831 12.139,-1 7.5,-1C2.861,-1 -1,1.831 -1,5.5C-1,9.169 2.861,12 7.5,12ZM7.5,10C3.855,10 1,7.906 1,5.5C1,3.094 3.855,1 7.5,1C11.145,1 14,3.094 14,5.5C14,7.906 11.145,10 7.5,10Z"/>
        </clipPath>
        <g clip-path="url(#_clip1)">
            <clipPath id="_clip2">
                <path d="M7.5,11C11.642,11 15,8.538 15,5.5C15,2.462 11.642,0 7.5,0C3.358,0 0,2.462 0,5.5C0,8.538 3.358,11 7.5,11Z"/>
            </clipPath>
            <g clip-path="url(#_clip2)">
                <path d="M7.5,11C11.642,11 15,8.538 15,5.5C15,2.462 11.642,0 7.5,0C3.358,0 0,2.462 0,5.5C0,8.538 3.358,11 7.5,11Z" style="fill:white;"/>
            </g>
        </g>
        <clipPath id="_clip3">
            <path d="M7.5,11C11.642,11 15,8.538 15,5.5C15,2.462 11.642,0 7.5,0C3.358,0 0,2.462 0,5.5C0,8.538 3.358,11 7.5,11Z"/>
        </clipPath>
        <g clip-path="url(#_clip3)">
            <path d="M7.5,13L7.384,12.999L7.269,12.998L7.154,12.995L7.04,12.991L6.925,12.987L6.812,12.981L6.698,12.974L6.585,12.966L6.472,12.957L6.359,12.947L6.247,12.936L6.135,12.924L6.024,12.911L5.913,12.897L5.802,12.882L5.692,12.866L5.582,12.849L5.472,12.831L5.363,12.812L5.255,12.792L5.147,12.771L5.039,12.749L4.932,12.726L4.825,12.703L4.719,12.678L4.613,12.652L4.507,12.625L4.403,12.598L4.298,12.569L4.194,12.54L4.091,12.509L3.988,12.478L3.886,12.446L3.784,12.413L3.683,12.378L3.582,12.343L3.482,12.307L3.382,12.271L3.283,12.233L3.185,12.194L3.087,12.155L2.99,12.114L2.893,12.073L2.797,12.031L2.701,11.987L2.607,11.943L2.512,11.899L2.419,11.853L2.326,11.806L2.234,11.759L2.142,11.71L2.051,11.661L1.961,11.611L1.871,11.56L1.782,11.508L1.694,11.455L1.606,11.402L1.519,11.347L1.433,11.292L1.348,11.235L1.263,11.178L1.179,11.12L1.096,11.062L1.014,11.002L0.932,10.941L0.852,10.88L0.772,10.818L0.692,10.755L0.614,10.691L0.537,10.626L0.46,10.56L0.384,10.494L0.309,10.426L0.235,10.358L0.162,10.289L0.09,10.219L0.018,10.148L-0.052,10.076L-0.122,10.004L-0.19,9.93L-0.258,9.856L-0.324,9.781L-0.39,9.705L-0.454,9.628L-0.518,9.55L-0.58,9.472L-0.642,9.392L-0.702,9.312L-0.761,9.231L-0.819,9.149L-0.876,9.066L-0.932,8.983L-0.987,8.898L-1.04,8.813L-1.092,8.727L-1.143,8.64L-1.193,8.552L-1.241,8.464L-1.288,8.375L-1.334,8.284L-1.379,8.194L-1.422,8.102L-1.464,8.01L-1.504,7.916L-1.543,7.823L-1.581,7.728L-1.617,7.633L-1.651,7.537L-1.684,7.44L-1.716,7.343L-1.746,7.245L-1.774,7.146L-1.801,7.047L-1.826,6.947L-1.85,6.847L-1.872,6.746L-1.892,6.644L-1.91,6.542L-1.927,6.44L-1.942,6.337L-1.956,6.233L-1.968,6.13L-1.977,6.025L-1.986,5.921L-1.992,5.816L-1.996,5.711L-1.999,5.606L-2,5.5L-1.999,5.394L-1.996,5.289L-1.992,5.184L-1.986,5.079L-1.977,4.975L-1.968,4.87L-1.956,4.767L-1.942,4.663L-1.927,4.56L-1.91,4.458L-1.892,4.356L-1.872,4.254L-1.85,4.154L-1.826,4.053L-1.801,3.953L-1.774,3.854L-1.746,3.755L-1.716,3.657L-1.684,3.56L-1.651,3.463L-1.617,3.367L-1.581,3.272L-1.543,3.177L-1.504,3.084L-1.464,2.99L-1.422,2.898L-1.379,2.806L-1.334,2.716L-1.288,2.625L-1.241,2.536L-1.193,2.448L-1.143,2.36L-1.092,2.273L-1.04,2.187L-0.987,2.102L-0.932,2.017L-0.876,1.934L-0.819,1.851L-0.761,1.769L-0.702,1.688L-0.642,1.608L-0.58,1.528L-0.518,1.45L-0.454,1.372L-0.39,1.295L-0.324,1.219L-0.258,1.144L-0.19,1.07L-0.122,0.996L-0.052,0.924L0.018,0.852L0.09,0.781L0.162,0.711L0.235,0.642L0.309,0.574L0.384,0.506L0.46,0.44L0.537,0.374L0.614,0.309L0.692,0.245L0.772,0.182L0.852,0.12L0.932,0.059L1.014,-0.002L1.096,-0.062L1.179,-0.12L1.263,-0.178L1.348,-0.235L1.433,-0.292L1.519,-0.347L1.606,-0.401L1.694,-0.455L1.782,-0.508L1.871,-0.56L1.961,-0.611L2.051,-0.661L2.142,-0.71L2.234,-0.759L2.326,-0.806L2.419,-0.853L2.512,-0.899L2.607,-0.943L2.701,-0.987L2.797,-1.031L2.893,-1.073L2.99,-1.114L3.087,-1.155L3.185,-1.194L3.283,-1.233L3.382,-1.271L3.482,-1.307L3.582,-1.343L3.683,-1.378L3.784,-1.413L3.886,-1.446L3.988,-1.478L4.091,-1.509L4.194,-1.54L4.298,-1.569L4.403,-1.598L4.507,-1.625L4.613,-1.652L4.719,-1.678L4.825,-1.703L4.932,-1.726L5.039,-1.749L5.147,-1.771L5.255,-1.792L5.363,-1.812L5.472,-1.831L5.582,-1.849L5.692,-1.866L5.802,-1.882L5.913,-1.897L6.024,-1.911L6.135,-1.924L6.247,-1.936L6.359,-1.947L6.472,-1.957L6.585,-1.966L6.698,-1.974L6.812,-1.981L6.925,-1.987L7.04,-1.991L7.154,-1.995L7.269,-1.998L7.384,-1.999L7.5,-2L7.616,-1.999L7.731,-1.998L7.846,-1.995L7.96,-1.991L8.075,-1.987L8.188,-1.981L8.302,-1.974L8.415,-1.966L8.528,-1.957L8.641,-1.947L8.753,-1.936L8.865,-1.924L8.976,-1.911L9.087,-1.897L9.198,-1.882L9.308,-1.866L9.418,-1.849L9.528,-1.831L9.637,-1.812L9.745,-1.792L9.853,-1.771L9.961,-1.749L10.068,-1.726L10.175,-1.703L10.281,-1.678L10.387,-1.652L10.493,-1.625L10.597,-1.598L10.702,-1.569L10.806,-1.54L10.909,-1.509L11.012,-1.478L11.114,-1.446L11.216,-1.413L11.317,-1.378L11.418,-1.343L11.518,-1.307L11.618,-1.271L11.717,-1.233L11.815,-1.194L11.913,-1.155L12.01,-1.114L12.107,-1.073L12.203,-1.031L12.299,-0.987L12.393,-0.943L12.488,-0.899L12.581,-0.853L12.674,-0.806L12.766,-0.759L12.858,-0.71L12.949,-0.661L13.039,-0.611L13.129,-0.56L13.218,-0.508L13.306,-0.455L13.394,-0.402L13.481,-0.347L13.567,-0.292L13.652,-0.235L13.737,-0.178L13.821,-0.12L13.904,-0.062L13.986,-0.002L14.068,0.059L14.148,0.12L14.228,0.182L14.308,0.245L14.386,0.309L14.463,0.374L14.54,0.44L14.616,0.506L14.691,0.574L14.765,0.642L14.838,0.711L14.91,0.781L14.982,0.852L15.052,0.924L15.122,0.996L15.19,1.07L15.258,1.144L15.324,1.219L15.39,1.295L15.454,1.372L15.518,1.45L15.58,1.528L15.642,1.608L15.702,1.688L15.761,1.769L15.819,1.851L15.876,1.934L15.932,2.017L15.987,2.102L16.04,2.187L16.092,2.273L16.143,2.36L16.193,2.448L16.241,2.536L16.288,2.625L16.334,2.716L16.379,2.806L16.422,2.898L16.464,2.99L16.504,3.084L16.543,3.177L16.581,3.272L16.617,3.367L16.651,3.463L16.684,3.56L16.716,3.657L16.746,3.755L16.774,3.854L16.801,3.953L16.826,4.053L16.85,4.154L16.872,4.254L16.892,4.356L16.91,4.458L16.927,4.56L16.942,4.663L16.956,4.767L16.968,4.87L16.977,4.975L16.986,5.079L16.992,5.184L16.996,5.289L16.999,5.394L17,5.5L16.999,5.606L16.996,5.711L16.992,5.816L16.986,5.921L16.977,6.025L16.968,6.13L16.956,6.233L16.942,6.337L16.927,6.44L16.91,6.542L16.892,6.644L16.872,6.746L16.85,6.846L16.826,6.947L16.801,7.047L16.774,7.146L16.746,7.245L16.716,7.343L16.684,7.44L16.651,7.537L16.617,7.633L16.581,7.728L16.543,7.823L16.504,7.916L16.464,8.01L16.422,8.102L16.379,8.194L16.334,8.284L16.288,8.375L16.241,8.464L16.193,8.552L16.143,8.64L16.092,8.727L16.04,8.813L15.987,8.898L15.932,8.983L15.876,9.066L15.819,9.149L15.761,9.231L15.702,9.312L15.642,9.392L15.58,9.472L15.518,9.55L15.454,9.628L15.39,9.705L15.324,9.781L15.258,9.856L15.19,9.93L15.122,10.004L15.052,10.076L14.982,10.148L14.91,10.219L14.838,10.289L14.765,10.358L14.691,10.426L14.616,10.494L14.54,10.56L14.463,10.626L14.386,10.691L14.308,10.755L14.228,10.818L14.148,10.88L14.068,10.941L13.986,11.002L13.904,11.062L13.821,11.12L13.737,11.178L13.652,11.235L13.567,11.292L13.481,11.347L13.394,11.402L13.306,11.455L13.218,11.508L13.129,11.56L13.039,11.611L12.949,11.661L12.858,11.71L12.766,11.759L12.674,11.806L12.581,11.853L12.488,11.899L12.393,11.943L12.299,11.987L12.203,12.031L12.107,12.073L12.01,12.114L11.913,12.155L11.815,12.194L11.717,12.233L11.618,12.271L11.518,12.307L11.418,12.343L11.317,12.378L11.216,12.413L11.114,12.446L11.012,12.478L10.909,12.509L10.806,12.54L10.702,12.569L10.597,12.598L10.493,12.625L10.387,12.652L10.281,12.678L10.175,12.703L10.068,12.726L9.961,12.749L9.853,12.771L9.745,12.792L9.637,12.812L9.528,12.831L9.418,12.849L9.308,12.866L9.198,12.882L9.087,12.897L8.976,12.911L8.865,12.924L8.753,12.936L8.641,12.947L8.528,12.957L8.415,12.966L8.302,12.974L8.188,12.981L8.075,12.987L7.96,12.991L7.846,12.995L7.731,12.998L7.616,12.999L7.5,13ZM7.5,9L7.578,9L7.656,8.999L7.734,8.997L7.812,8.994L7.889,8.991L7.966,8.987L8.042,8.982L8.118,8.977L8.194,8.971L8.27,8.964L8.345,8.957L8.419,8.949L8.494,8.94L8.568,8.931L8.641,8.921L8.715,8.91L8.788,8.899L8.86,8.887L8.932,8.875L9.004,8.861L9.075,8.848L9.145,8.833L9.216,8.818L9.285,8.803L9.355,8.787L9.424,8.77L9.492,8.753L9.56,8.735L9.628,8.716L9.694,8.697L9.761,8.678L9.827,8.658L9.892,8.637L9.957,8.616L10.021,8.594L10.085,8.572L10.148,8.549L10.211,8.526L10.273,8.502L10.335,8.478L10.396,8.454L10.456,8.428L10.516,8.403L10.575,8.377L10.634,8.35L10.691,8.324L10.749,8.296L10.805,8.269L10.861,8.24L10.917,8.212L10.972,8.183L11.026,8.154L11.079,8.124L11.132,8.094L11.184,8.064L11.235,8.033L11.286,8.002L11.336,7.971L11.385,7.939L11.434,7.907L11.481,7.875L11.529,7.842L11.575,7.809L11.621,7.776L11.665,7.743L11.71,7.709L11.753,7.676L11.796,7.642L11.838,7.607L11.879,7.573L11.919,7.538L11.959,7.503L11.998,7.469L12.036,7.433L12.073,7.398L12.11,7.363L12.145,7.327L12.18,7.292L12.215,7.256L12.248,7.22L12.281,7.184L12.313,7.148L12.344,7.112L12.374,7.076L12.404,7.04L12.432,7.004L12.46,6.967L12.488,6.931L12.514,6.895L12.54,6.859L12.565,6.822L12.589,6.786L12.612,6.75L12.635,6.714L12.657,6.678L12.678,6.642L12.698,6.606L12.718,6.57L12.737,6.534L12.755,6.498L12.773,6.462L12.79,6.426L12.806,6.39L12.822,6.355L12.836,6.319L12.85,6.283L12.864,6.248L12.877,6.212L12.889,6.177L12.9,6.142L12.911,6.106L12.921,6.071L12.931,6.036L12.94,6L12.948,5.965L12.956,5.93L12.963,5.894L12.969,5.859L12.975,5.823L12.98,5.788L12.985,5.752L12.989,5.717L12.992,5.681L12.995,5.645L12.997,5.609L12.999,5.573L13,5.537L13,5.5L13,5.463L12.999,5.427L12.997,5.391L12.995,5.355L12.992,5.319L12.989,5.283L12.985,5.248L12.98,5.212L12.975,5.177L12.969,5.141L12.963,5.106L12.956,5.07L12.948,5.035L12.94,5L12.931,4.964L12.921,4.929L12.911,4.894L12.9,4.858L12.889,4.823L12.877,4.788L12.864,4.752L12.85,4.717L12.836,4.681L12.822,4.645L12.806,4.61L12.79,4.574L12.773,4.538L12.755,4.502L12.737,4.466L12.718,4.43L12.698,4.394L12.678,4.358L12.657,4.322L12.635,4.286L12.612,4.25L12.589,4.214L12.565,4.178L12.54,4.141L12.514,4.105L12.488,4.069L12.46,4.033L12.432,3.996L12.404,3.96L12.374,3.924L12.344,3.888L12.313,3.852L12.281,3.816L12.248,3.78L12.215,3.744L12.18,3.708L12.145,3.673L12.11,3.637L12.073,3.602L12.036,3.567L11.998,3.531L11.959,3.497L11.919,3.462L11.879,3.427L11.838,3.393L11.796,3.358L11.753,3.324L11.71,3.291L11.665,3.257L11.621,3.224L11.575,3.191L11.529,3.158L11.481,3.125L11.434,3.093L11.385,3.061L11.336,3.029L11.286,2.998L11.235,2.967L11.184,2.936L11.132,2.906L11.079,2.876L11.026,2.846L10.972,2.817L10.917,2.788L10.861,2.76L10.805,2.731L10.749,2.704L10.691,2.676L10.634,2.65L10.575,2.623L10.516,2.597L10.456,2.572L10.396,2.546L10.335,2.522L10.273,2.498L10.211,2.474L10.148,2.451L10.085,2.428L10.021,2.406L9.957,2.384L9.892,2.363L9.827,2.342L9.761,2.322L9.694,2.303L9.628,2.284L9.56,2.265L9.492,2.247L9.424,2.23L9.355,2.213L9.286,2.197L9.216,2.182L9.145,2.167L9.075,2.152L9.004,2.138L8.932,2.125L8.86,2.113L8.788,2.101L8.715,2.09L8.641,2.079L8.568,2.069L8.494,2.06L8.419,2.051L8.345,2.043L8.27,2.036L8.194,2.029L8.118,2.023L8.042,2.018L7.966,2.013L7.889,2.009L7.812,2.006L7.734,2.003L7.656,2.001L7.578,2L7.5,2L7.422,2L7.344,2.001L7.266,2.003L7.188,2.006L7.111,2.009L7.034,2.013L6.958,2.018L6.882,2.023L6.806,2.029L6.73,2.036L6.655,2.043L6.581,2.051L6.506,2.06L6.432,2.069L6.359,2.079L6.285,2.09L6.212,2.101L6.14,2.113L6.068,2.125L5.996,2.138L5.925,2.152L5.855,2.167L5.784,2.182L5.714,2.197L5.645,2.213L5.576,2.23L5.508,2.247L5.44,2.265L5.372,2.284L5.306,2.303L5.239,2.322L5.173,2.342L5.108,2.363L5.043,2.384L4.979,2.406L4.915,2.428L4.852,2.451L4.789,2.474L4.727,2.498L4.665,2.522L4.604,2.546L4.544,2.572L4.484,2.597L4.425,2.623L4.366,2.65L4.309,2.676L4.251,2.704L4.195,2.731L4.139,2.76L4.083,2.788L4.028,2.817L3.974,2.846L3.921,2.876L3.868,2.906L3.816,2.936L3.765,2.967L3.714,2.998L3.664,3.029L3.615,3.061L3.566,3.093L3.519,3.125L3.471,3.158L3.425,3.191L3.379,3.224L3.335,3.257L3.29,3.291L3.247,3.324L3.204,3.358L3.162,3.393L3.121,3.427L3.081,3.462L3.041,3.497L3.002,3.531L2.964,3.567L2.927,3.602L2.89,3.637L2.855,3.673L2.82,3.708L2.785,3.744L2.752,3.78L2.719,3.816L2.687,3.852L2.656,3.888L2.626,3.924L2.596,3.96L2.568,3.996L2.54,4.033L2.512,4.069L2.486,4.105L2.46,4.141L2.435,4.178L2.411,4.214L2.388,4.25L2.365,4.286L2.343,4.322L2.322,4.358L2.301,4.394L2.282,4.43L2.263,4.466L2.245,4.502L2.227,4.538L2.21,4.574L2.194,4.61L2.178,4.645L2.164,4.681L2.15,4.717L2.136,4.752L2.123,4.788L2.111,4.823L2.1,4.858L2.089,4.894L2.079,4.929L2.069,4.964L2.06,5L2.052,5.035L2.044,5.07L2.037,5.106L2.031,5.141L2.025,5.177L2.02,5.212L2.015,5.248L2.011,5.283L2.008,5.319L2.005,5.355L2.003,5.391L2.001,5.427L2,5.463L2,5.5L2,5.537L2.001,5.573L2.003,5.609L2.005,5.645L2.008,5.681L2.011,5.717L2.015,5.752L2.02,5.788L2.025,5.823L2.031,5.859L2.037,5.894L2.044,5.93L2.052,5.965L2.06,6L2.069,6.036L2.079,6.071L2.089,6.106L2.1,6.142L2.111,6.177L2.123,6.212L2.136,6.248L2.15,6.283L2.164,6.319L2.178,6.355L2.194,6.39L2.21,6.426L2.227,6.462L2.245,6.498L2.263,6.534L2.282,6.57L2.301,6.606L2.322,6.642L2.343,6.678L2.365,6.714L2.388,6.75L2.411,6.786L2.435,6.822L2.46,6.859L2.486,6.895L2.512,6.931L2.54,6.967L2.568,7.004L2.596,7.04L2.626,7.076L2.656,7.112L2.687,7.148L2.719,7.184L2.752,7.22L2.785,7.256L2.82,7.292L2.855,7.327L2.89,7.363L2.927,7.398L2.964,7.433L3.002,7.469L3.041,7.503L3.081,7.538L3.121,7.573L3.162,7.607L3.204,7.642L3.247,7.676L3.29,7.709L3.335,7.743L3.379,7.776L3.425,7.809L3.471,7.842L3.519,7.875L3.566,7.907L3.615,7.939L3.664,7.971L3.714,8.002L3.765,8.033L3.816,8.064L3.868,8.094L3.921,8.124L3.974,8.154L4.028,8.183L4.083,8.212L4.139,8.24L4.195,8.269L4.251,8.296L4.309,8.324L4.366,8.35L4.425,8.377L4.484,8.403L4.544,8.428L4.604,8.454L4.665,8.478L4.727,8.502L4.789,8.526L4.852,8.549L4.915,8.572L4.979,8.594L5.043,8.616L5.108,8.637L5.173,8.658L5.239,8.678L5.306,8.697L5.372,8.716L5.44,8.735L5.508,8.753L5.576,8.77L5.645,8.787L5.715,8.803L5.784,8.818L5.855,8.833L5.925,8.848L5.996,8.861L6.068,8.875L6.14,8.887L6.212,8.899L6.285,8.91L6.359,8.921L6.432,8.931L6.506,8.94L6.581,8.949L6.655,8.957L6.73,8.964L6.806,8.971L6.882,8.977L6.958,8.982L7.034,8.987L7.111,8.991L7.188,8.994L7.266,8.997L7.344,8.999L7.422,9L7.5,9Z" style="fill:rgb(78,164,239);"/>
        </g>
    </g>
</svg>
