<?xml version="1.0" encoding="utf-8"?>
<!-- Generator: Adobe Illustrator 19.0.0, SVG Export Plug-In . SVG Version: 6.00 Build 0)  -->
<svg version="1.1" id="Layer_1" xmlns:sketch="http://www.bohemiancoding.com/sketch/ns"
	 xmlns="http://www.w3.org/2000/svg" xmlns:xlink="http://www.w3.org/1999/xlink" x="0px" y="0px" viewBox="-726.7 236.4 439 667.8"
	 style="enable-background:new -726.7 236.4 439 667.8;" xml:space="preserve">
<style type="text/css">
	.st0{fill:#FFFFFF;}
</style>
<title>fat palm</title>
<desc>Created with Sketch.</desc>
<g>
	<path class="st0" d="M-343.2,434.9c15.6-0.2,31.1-1.3,46.5-3.3c-19.4-2.1-38.9-3.4-58.5-4c22.7-2.1,45.2-5.5,67.5-10.2
		c-32.2-0.1-64.6,1.1-96.5,5.5c25.2-4.9,50.4-11.9,71.4-8c-9.1-9.2-3.4-12.7,17-10.5c-30.6,1.2-47,1.8,7.1-16
		c-8.9,1.9-36.4,10.7-42.6,5.2c9.2-3.4,18.4-6.7,27.6-10.1c-12.1,3.3-25.9,10.7-36.1,3c13.6-5.9,26.9-12.2,40.1-19
		c-6.7,2.6-41.4,18.5-45.3,14.6c15.9-8.3,31.7-16.8,47.3-25.6c-8,2.2-48.2,24-55.9,18.9c18.8-12,37.4-24.3,55.8-36.9
		c-4.1,1.5-59.2,34.6-64.3,31.4c15.4-11.1,30.9-22.2,46.3-33.3c-10,5.2-43,33.8-54.5,29.1c17.2-15.3,34.4-30.7,51.5-46.1
		c-16.7,11.7-32.5,24.4-47.6,38.1c15.5-16.7-6,6.1-14.4,5.1c6.5-7.9,12.8-16,19-24.2c-12.4,11.5-21.6,25.3-38.2,28.1
		c12.3-13.6,23.6-28,34-43.1c-38.4,40.8-69.4,73.8-105.2,116.8c0-30.1,86.8-110.7,102.2-139.8c-30.4,38.1-60.3,76.5-89,115.9
		c25.9-40.1,55.6-81.5,74-125.9c-32.8,50-65.8,100.3-94.6,152.7c30.8-55.8,67.3-114.9,86.9-175.9c0,0-28.7,52.5-56,106
		c20.8-43.6,43-92.5,50-117c-15,30-29.6,60.1-43.9,90.4c11.6-28.3,24.9-58.4,31.9-88.4c0,0-25.1,56.2-48.1,112.3
		c17.2-44.8,35.2-94.5,40.1-119.3c-7.2,18-14.4,36-21.4,54c5.9-18,10.7-36.4,14.4-55c-10.8,29.7-21.3,59.5-31.6,89.4
		c7.6-28.8,16.5-59.5,19.6-89.4c-15.6,52.5-30.6,105.2-43.8,158.4c10.7-53.8,24.8-110.3,25.8-165.4c-6.8,33.4-13.3,66.9-19.4,100.4
		c3.4-32.8,8-68.2,6.1-101.4c0,0-8.2,62.7-14.3,123.7c4.3-47,7.9-98.1,6.1-122.7c-3,28.4-5.8,56.8-8.4,85.3
		c1-29.2,2.6-60.1-0.7-89.3c-1.3,20.9-2.4,41.8-3.5,62.7c0.2-20.7-1.1-41.2-3.8-61.7c0,0-1.3,32.3-2.3,73.1
		c-0.4-30.8-1.4-58.9-3.7-75.1c-0.6,29.7-1,59.4-1.1,89.1c-2.1-27.8-3.6-57.7-10.1-85.1c0,0,0.7,18.7,2.1,45.6
		c-1.3-21.3-2.9-39.7-5.1-51.6c0.2,20,0.5,40,0.8,60c-2.3-16.9-5.6-33.5-9.8-50c3.6,37.4,10,75.1,11.5,112.6
		c-5.8-38-10.4-78-22.5-114.7c5.1,38.1,10.5,76.2,16.6,114.2c-9.1-38.3-17.2-78.8-32.6-115.2c12.3,56.6,37.5,118.2,41.3,175.4
		c-16.3-55.9-30.7-116.2-57.2-168.3c11.9,40.5,24.1,80.9,37.1,121c-17.6-44.2-34.2-91.3-59.1-132c24.2,63.3,48.8,126.8,77.2,188.3
		c-39.8-49.8-51-126.1-87.2-180.3c0,0,25,58.9,51.6,117.1c-22.6-44.3-48-91.3-63.6-112.1c11.7,24,23.6,47.8,35.7,71.6
		c-13.7-22-27.8-45.8-44.7-65.6c0,0,17,29.9,38.8,66.6c-18-27.3-35.1-51.6-46.8-64.6c22.7,37.4,45.8,74.6,69.6,111.4
		c-27.3-32.8-48.4-70.8-78.5-101.4c11.9,17.6,23.8,35.1,35.9,52.5c-14.3-16.5-29.6-32-45.9-46.5c36.3,43.9,73,86.7,106.9,132.5
		c-35.8-45.9-85.9-108.1-111-130.5c0,0,57.7,75.3,105.6,132.3c-36-40.2-83.7-91.7-107.6-110.3c17.1,19.4,34.3,38.6,51.7,57.7
		c-17.5-17.8-36-34.4-55.7-49.7c0,0,42,43.3,79.5,79.3c-33.1-29.5-68.1-59.1-87.5-71.3c13.3,12.4,26.7,24.7,40.2,36.9
		c-13.9-10.5-28.3-20.1-43.2-28.9c39,32,79.5,62.3,118,95c-40.6-31-93.5-70-119-83.1c30.6,23.8,61.4,47.2,92.7,70.1
		c-22.1-14.4-45-27.4-68.7-39c17.8,11.8,129.9,68.4,129.9,82.5c-45.5-25.4-88.2-59.2-136.9-78.5c19.3,12.3,38.8,24.4,58.4,36.3
		c-16.7-8.8-33.8-16.6-51.4-23.3c17.6,9.8,35.3,19.5,53,29c-13.3-6.5-27-12.2-41-17c26,13.6,107.1,38.2,122,60.5
		c-39.6-17.8-81.4-39.4-124-49.6c31.7,14.2,103.5,29.6,126.9,53c-38.7-15.6-79.6-34.9-120.8-43c0,0,29.3,11.8,61.4,23.9
		c-20.3-6.4-41.7-16-55.4-19.8c-5.2,1.6-34.8,0.8-62-3.9c8,2.9,16,5.7,24,8.3c-10.8,9.1-44.7-2-62-2.3c18.6,3.2,37.3,6.3,55.9,9.4
		c-6.6,9.2-39.4,3.4-49.9,4.1c15.3,1,30.5,1.9,45.8,2.9c-2.4,3.9-54.8,4.8-57.9,5.4c18.3,0.7,36.6,1,54.9,1.1
		c-2.6,5.9-40.7,9.3-46,11c14.4-0.8,28.7-1.8,43.1-3.1c-2.1,6.4-30.6,8.8-38.1,10.2c12-1.4,24-2.7,36-4.1c-3.4,9-19,10.3-28,13
		c8.5-1.8,17.1-3.5,25.6-5.3c-2.3,9.1-21.9,13-30.6,16.3c40.5-9.5,32.8-6.7,11.1,8.1c12.3-10,17.6-10.7,16-2
		c10-7,73.7-43.7,87.7-36.7c-36.4,8.1-72.2,31-103.7,50.6c14.9-5.3,29.5-11.5,43.8-18.5c-10.9,7.5-21.5,15.3-31.8,23.5
		c16.8-8.3,33.1-17.5,48.8-27.6c-16.5,11.5-32.4,23.7-47.8,36.6c15.3-10.6,31.5-20,47.2-30c-12.2,10.6-23.9,21.6-35.2,33
		c11.7-9.1,76-69.7,86.3-61.7c-28.4,10.6-55.5,44.7-73.1,71.7c8.7-8.2,17.4-16.5,26.1-24.7c-5.5,8.3-10.5,16.9-15.1,25.7
		c3.9-4.5,7.7-8.9,11.6-13.4c-13.4,16.1-23.8,29.4-23.8,29.4c18.2-20.5,36.3-41.1,54.5-61.6c-14.5,20-28.2,40.8-41.5,61.6
		c7.9-10.8,55.4-88.7,64-85.8c0,14.2-37.9,54.2-46,67.8c7.9-10.2,15.7-20.5,23.6-30.7c-5,9.5-9.9,19-14.6,28.7
		c8.7-12.8,16.9-26,24.5-39.5c2.8,26.1-3,38-17.5,35.6c3.3-0.2,4,1.1,2,4c9.2,1.1,28.3,3.3,40.6,6.3c-7.2,12.4-20.1,12.7-38.5,0.7
		c11.5,1.7,23.1,3.4,34.6,5.1c0-1.7-45.9,0-44.6-0.2c14,1.8,28.1,3.4,42.2,4.6c-4.9,12.2-17,14.3-36.2,6.1
		c11.1,0.3,22.2,0.3,33.3,0.2c-0.7,2.9-25.2,4.6-29.3,5.1c9.2-0.4,18.4-0.7,27.6-1.1c-3.6,7.8-13.5,7.2-21.6,9.1
		c6.3-0.8,12.6-1.5,18.9-2.3c-0.8,3.2-20.9,7.3-24.9,8.3c44.6-6.4,19-2.7,8.1,7c11.6-7.4,15.8-7.1,12.8,1.1
		c13.5-9.2,34.5-14.4,53-19.9c-1.3,5.2-56.7,24.7-66,29.8c10.4-3.5,20.9-7,31.3-10.5c-7.9,4.6-15.7,9.5-23.3,14.5
		c60-20.3,19.5-5.6,1,6c12.5-7.3,25.7-13.7,38.5-20.5c-10.5,7.7-20.7,15.9-30.5,24.5c3.7-2.4,62.5-48.7,69.6-42.8
		c-20,5.7-45.3,31.8-59.6,51.8c21.6-20.9,24.3-20.9,8,0c6.3-6.3,41.3-48.3,47.7-45.1c-20.6,17.3-38.7,38.2-56.7,58.1
		c13.7-13.5,27.5-27.1,41.2-40.6c-11,13.3-21.7,26.9-32.2,40.6c6.3-7.4,47.1-58.8,50-56.8c-13.4,13-23.6,29.1-35,43.8
		c6.4-7.1,12.7-14.2,19.1-21.3c-4.1,6.4-8.2,12.8-12.1,19.3c10.6-13.1,20.6-26.6,30-40.6c9.4,5.9-0.3,43.5,0.3,52.6
		c3-12.8,5.1-25.8,6.3-39c1.5,20.3-2.4,35.5-4.6,55.9c13.1-6.7-7.5-42.6,9.6,7c2.3-22.3-11.5-42.8,9.4-9c-3.3-31.4-3.8-18.6,4,2.9
		c1-6.4-4.6-21.6,0.8-25.2c12.6,15.7,9.4,30.1-9.7,43.2c7.7-10.4,16-21,22-27c6.8,6.5,1.5,8.3-4.3,16.6c5.5-7.7,7.2-14.5,9.1-8.7
		c-6.9,8.7-13.9,17.4-20.8,26.1c7.2-7.9,14.5-15.7,21.8-23.5c-3.8,7.4-13.2,19.4-19.9,27.7c7-7.7,14-15.3,21-23
		c0.3,9.5,1.2,15.6,1,26.6c-8.6-6.9-16.6-6.7-24,0.6c0.9,0,0.7,0.7-0.6,2.3c13.8,0,19.8,19.9,24.4,29.2c-21-11.4-19.2,0.9-33.6-1.2
		c0.9,0,0.8,0.8-0.5,2.5c16.6,0,19,19.6,27.8,28.8c-29.7-12.8-9.5,2.1-26.6,2.2c1,0,0.8,0.8-0.5,2.6c15.2,0,22.3,19.6,28.4,29.8
		c-20.6-10.8-18,1-32.5-0.6c0.9,0,0.8,0.8-0.5,2.5c13.8,0,22.1,17.6,27.2,27.7c-3.6-1.8-11.8,0.1-14.8,2.7c0.9,0,0.6,0.7-1.1,2.3
		c13.8,4.1,17.9,25.4,19.4,37.2c-31.5-14.3-15.1-2.2-32.3,1.9c32.6,0,33.3,58.8,65.9,61.5c46.5,3.8,29.2-62.6,65.3-66.6
		c-1.9-1.8-2.3-2.7-1.2-2.7c-13.3-0.3-9.3-9.3-25.6-1.3c3.4-10.3,8.9-24.6,21.5-26.2c-1.7-1.7-2.1-2.5-1.1-2.5
		c-14.1,0.8-7-10-25.6-0.4c6.8-10.3,5.8-31.5,22.9-33.1c-1.7-1.6-2.1-2.4-1.1-2.4c-4.5-2.9-11.5-5.8-16.6-3.7
		c2.8-9.9,8.8-21.4,19.9-23.4c-1.7-1.6-2.1-2.4-1.1-2.4c-10.1-1.9-9.8-6.9-21.3-1.7c3.1-11.4,8.3-26.7,21.6-29.1
		c-1.7-1.6-2.1-2.4-1.1-2.4c-8.8-2.9-11.2-6.5-20.9-1.8c3.1-8.6,9.1-22.4,20.2-22.4c-1.4-1.5-1.7-2.2-0.8-2.2
		c-14.6,1.4-2.3-11.5-24.7-0.3c8.7-14.9-7.5-47.3,14.4-57.3c-2.8-4.1-7.4-4.5-11.6-8.4c13.1-12.3,40.9-7.3,57.9-11.5
		c0,0-18.8,1.1-39.5,2.7c17.7-2.3,35.6-5,44.5-7.7c-17.3,1.8-34.6,3.9-51.8,6.2c8.8-8.8,49.5-11,60.7-15.2
		c-18.5,3.2-36.9,6.6-55.3,10.3c17.8-4.2,37.7-8.7,54.4-16.2c-16.6,3.9-33.2,7.9-49.7,12.2c12.5-11.2,38-14.1,52.7-22.2
		c-14.8,4.8-29.6,9.7-44.4,14.8c15.7-13.6,35.3-19.2,52.5-30.8c-11.7,5.1-23.4,10.3-35,15.6c12.1-11.5,25.4-21.4,40-29.6
		c-5.3,2.9-10.7,5.8-16,8.7c-8.1,7,22.3-16.3,17.7-18.1c-6.3-2.5-99.5,65.1-107.2,70.1c35.8-24.8,77.3-47.4,109.3-77.6
		c-22.7,14.5-45.2,29.3-67.4,44.5c-1.8-10,49.1-45.8,58.4-56.5c-16.3,13-32.5,26.2-48.6,39.6c-1.9-2.9,47.2-52.4,49.6-55.6
		c0,0-20.2,18.6-44,41.4c18.2-19.2,35.2-38,43-49.4c-18.4,18.2-36.6,36.6-54.5,55.3c15.5-17.7,33-37.1,45.4-57.3
		c-16.2,17.8-32.3,35.7-48.1,53.8c-7.2-7.2,39.1-70.6,73.1-46.8c-19-9.7-35-16.1-53.2-23.9c1.4-4.2,61.5,15.9,68.2,17.9
		c-7.6-2.7-87.9-28.1-87.3-30.5c21.1,6.6,42.2,13.1,63.3,19.6c-8.2-4.8-16.6-9.3-25.2-13.5c12.4,2.5,24.8,5,37.2,7.5
		c-33.2-15-82.9-35.4-120.3-29.4c2.9-10.2,114.8,8.2,126.2,9.4c-18.3-4.4-36.8-8.2-55.4-11.2c22.8,0.1,45.6,0.1,68.4,0.2
		C-290.7,440.4-314.6,436.9-343.2,434.9C-324.6,434.4-314.6,436.9-343.2,434.9z M-393.4,455.2C-395.3,459-416.9,447.6-393.4,455.2
		C-393.6,455.6-395.9,454.4-393.4,455.2z M-413.3,713.8C-411.7,727.7-413.6,714.6-413.3,713.8C-413.1,715.5-413.5,714.4-413.3,713.8
		z M-415.7,754.1c1.3,1.2-18.3-18.7-3.2,2.5c-11.1-12.3-6.5,6.6-6.5-8.2c-2.4,4.7-1.7,9.2,2.1,13.7c2-17.5-4.5-12.4,10.2-23.4
		c-3,4.2-2.9,8.8,0.3,13.8C-416.9,736.7-417.8,737.3-415.7,754.1z M-421.2,792.2c-6.3-5.3-3.4-13.5-3.4-13.5
		C-425.4,787.8-421.2,792.2-421.2,792.2z M-419.7,808c-2.8-4.8,7.6,15,5.2,12.3c-1.1-0.9-23.9-21.4-2.5,2.1
		c-11.9-8.1-6.8,4.2-7.8-7.3c-2.6,6.9-8.2,7.9,1.6,16.4C-433.6,817.9-426,817.3-419.7,808z M-411.5,818.2c-2.1-5.9-7.3-8.4-2.3-13.9
		C-416,809-415.2,813.6-411.5,818.2z M-424.5,835.6c-7.5-4.9-5.5-14.1-5.5-14.1C-429.7,831.3-424.5,835.6-424.5,835.6z
		 M-462.8,786.2c0,0,5.5,14.5-6.6,19.5C-469.4,805.7-460.6,801.2-462.8,786.2z M-469.9,800.7c0,0,5.7-4.7,6.1-15.5
		C-463.8,785.1-461.7,795.3-469.9,800.7z M-465.1,765.4c4.7-4.4,6.2-9.3,4.4-14.9c-0.3,5-2.4,8.7-6.3,11.1c4.2-4.3,5.5-9.1,3.8-14.4
		c0,5-1.9,8.8-5.6,11.4c4.1-4.7,5-9.7,2.7-15c0.1,5.2-1.8,9.1-5.6,11.7c3.9-4.5,4.9-9.3,2.9-14.5c0.1,5.3-1.8,9.4-5.7,12.2
		c4.2-5,5-10.1,2.5-15.4C-456.1,746.2-463.5,751.5-465.1,765.4z M-457.4,754.2c0,0,2.2,10.1-6.1,15.5
		C-463.5,769.8-457.8,765.1-457.4,754.2z M-504.3,588.8c-5-13.7-3.6-17.3,4.2-10.7C-494.5,585.5-500.4,607.4-504.3,588.8
		C-504.6,583.6-503.7,591.7-504.3,588.8z M-581.8,467.4c0.5,0.2-5.3-11.8,3.2,6.2c-9.8-16.7,20.2,42,12.9,30.8
		c-2-6.1-4.3-12.2-6.7-18.2c9.9,6.1,12.8,12.5,8.6,19.2c6.7-9.2,13.7-2.9,21,19c-4.8-7.5-18.8-22.1-11.9-29
		c17.3,8.8,21.5,20.2,12.5,34.2c-4.9-3.7-9.6-1.7-15.8-2.5c6-1.4,10.5,0.4,13.5,5.2C-571.2,516.6-577.4,511.6-581.8,467.4z
		 M-585.5,461.6C-585.1,461.5-585,461.5-585.5,461.6L-585.5,461.6z M-640.4,428.2c3.7,0.7,7.8,2.1,12.2,4.2
		C-641.9,428.9-646,427.5-640.4,428.2C-636.7,428.9-640.8,428.1-640.4,428.2z M-423.6,654.1c5.9-2.1-26.7-13.9-2.2,3.9
		c-3.8-16.2-8.1-7.5-1.2-21.3c-1.4,5.6,0.5,10.5,5.6,14.5c-4.4-1.8-7.1-5.4-8.1-10.6C-430.3,646-428.3,650.5-423.6,654.1z
		 M-427,695.3C-431.4,673.3-427.2,694.8-427,695.3C-427,695.3-428.3,692.8-427,695.3z M-452.8,687.3c0,5.6,3.4,10.8-4.7,16.9
		c16.3-14.1,4.3-8-0.8-4.5c0-4.7,0.9-9.3,2.7-13.8c-2.6,29.3-0.6-14.9-3.5-0.2C-459.8,671.9-457.4,687.3-452.8,687.3z M-448.7,694.1
		c0,0,5.5,14.4-6.6,19.6C-455.3,713.7-446.5,709.1-448.7,694.1z M-466.7,725L-466.7,725C-466.7,725-466.8,725-466.7,725L-466.7,725z
		 M-512,563.4C-512.1,563.5-512,563.4-512,563.4z M-519.5,556.4C-523.9,556.4-520.4,555.7-519.5,556.4
		C-520.2,556.4-519.8,556.2-519.5,556.4z M-533.8,553.6C-521.1,551.5-529.7,553.2-533.8,553.6C-531.3,553.2-533.8,553.6-533.8,553.6
		z M-535.3,553.9C-536.1,553.9-536.1,553.9-535.3,553.9C-535.5,553.9-535.3,553.9-535.3,553.9z M-531.8,549.1
		C-526.7,548.6-525.4,549.3-531.8,549.1C-530.6,549-531.8,549.1-531.8,549.1z M-533.9,549.4C-536.3,549.4-534,549.3-533.9,549.4
		C-534.2,549.4-533.9,549.4-533.9,549.4z M-428,591.3c-4.7-8.6,1.1-15.8,17.4-21.8C-406.2,577.9-412,585.1-428,591.3
		C-428.1,590.9-422.8,584.7-428,591.3z M-428.8,670C-428.9,670-428.8,670-428.8,670z M-459.2,651.8
		C-431.2,635.7-468.3,651.8-459.2,651.8C-455.7,649.8-459.2,651.8-459.2,651.8z M-457.8,628.2C-457.4,627.4-453.6,634.1-457.8,628.2
		C-457.7,628-457.3,628.9-457.8,628.2z M-566.2,474.7c-7.3-7-1.4-3.7,17.7,9.9C-553.7,489.8-559.6,486.5-566.2,474.7
		C-566.8,474.1-562.9,476.6-566.2,474.7z M-585.2,457.2C-598.2,446.3-584.7,458.9-585.2,457.2C-585.8,456.7-585.6,455.9-585.2,457.2
		z M-432.7,420.4C-432.7,428.6-436.1,423.1-432.7,420.4C-432.7,421.7-433.2,420.8-432.7,420.4z M-517,548.3
		c-14.2-9.5,7.5,1.7,13.9,9.8C-507.3,554.9-521.8,539.3-517,548.3C-517.6,547.9-517.8,546.8-517,548.3z M-520.7,546.2
		c9.4,19.5-4.4-3-1.1-0.8C-521.7,545.4-521.4,545.7-520.7,546.2C-519.4,548.9-521.4,545.7-520.7,546.2z M-523,548.5
		C-523,547.3-522.3,549.1-523,548.5C-523,548.5-522.9,548.6-523,548.5z M-530.2,483.6c-6.1,8.5-24,6,3.6-8.4
		C-521.8,482.4-532.9,479.7-530.2,483.6C-531.7,485.7-531.2,482.2-530.2,483.6z M-574,467.2c-0.2-0.8,33.9,8.5,36.2,9.1
		C-550.9,484.4-561.8,477.6-574,467.2C-574.1,466.8-573.3,467.8-574,467.2z M-526.2,475C-516.5,469.8-523.7,478-526.2,475
		C-524.7,474.2-525.7,475.6-526.2,475z M-501.7,464.7C-497.5,467.5-525.8,461.8-501.7,464.7C-501.4,464.9-504.2,464.4-501.7,464.7z
		 M-495.3,556.7c10.1,9.6,20.1,19.3,30.2,28.9C-472.3,585.6-490.7,562.6-495.3,556.7C-485.8,566.1-493.2,559.4-495.3,556.7z
		 M-452.3,466.5c2.4,5.6,1.9,10.5-1.6,14.7C-455.3,471.2-458.1,460.6-452.3,466.5C-452.1,470-453.5,465.3-452.3,466.5z
		 M-419.8,514.5c-0.7,2.8-1.4,5.6-2.1,8.4C-421.4,520-420.7,517.2-419.8,514.5z M-467,472.1C-467,472.8-476.5,462.6-467,472.1
		C-467,472.2-468,471.1-467,472.1z M-474.2,466.2C-481.1,461.6-474.2,465.1-474.2,466.2C-475.1,465.6-474.2,466.1-474.2,466.2z
		 M-445.6,585.9C-448,585.9-445.6,578.8-445.6,585.9C-445.7,585.9-445.6,585.8-445.6,585.9z M-453.1,568.9c-4.8-16.8,5.8,18,4.9,18
		C-451.5,581.1-453.1,575.1-453.1,568.9z M-438.5,585.5c-3.4,0,3.8-27.1,1.9-16.5C-434.8,574.4-435.5,579.9-438.5,585.5
		C-438.8,585.5-437.8,581.1-438.5,585.5z M-469.2,508.3C-472.6,514.3-472.6,495.7-469.2,508.3C-469.6,509-469.6,506.8-469.2,508.3z
		 M-472.6,502.9c-3.8-12-7.5-24.2-12-36C-477.2,470.4-467.3,496.5-472.6,502.9C-473.7,499.4-472.1,502.3-472.6,502.9z M-485.8,463.4
		C-484.5,462.1-480.3,463.6-485.8,463.4C-485.5,463.1-485.8,463.4-485.8,463.4z M-482.8,460.7C-483.1,460.5-483.1,460.5-482.8,460.7
		C-482.9,460.7-482.8,460.7-482.8,460.7z M-485.1,476.9C-485.1,474.6-478.4,493.7-485.1,476.9C-485.1,476.5-484.3,478.9-485.1,476.9
		z M-468.5,516.1C-466.6,512.9-463,538.2-468.5,516.1C-468.2,515.6-468.3,516.9-468.5,516.1z M-434.9,565.4
		C-434.9,562.9-432.9,554-434.9,565.4C-434.9,564.8-434.6,563.7-434.9,565.4z M-473.8,474.5c4.6,6.2,6.6,13.5,6.1,21.8
		C-469.7,488.8-471.8,481.4-473.8,474.5C-473,475.7-471.8,481.4-473.8,474.5z M-480.7,461.9C-480.2,461.9-480.4,462.2-480.7,461.9
		C-480.6,461.9-480.6,462-480.7,461.9z M-481.3,459.5C-481,459.5-480.6,459.5-481.3,459.5C-481.2,459.5-481.2,459.5-481.3,459.5z
		 M-438.4,534.1c-1.3-5.2-1.7-10.4-1.1-15.7C-437.5,523.5-437.2,528.7-438.4,534.1C-438.8,531.7-438.2,531.3-438.4,534.1z
		 M-439.9,554.8c-0.2,3.7-0.5,7.4-0.7,10.9C-441.2,553-440.9,549.3-439.9,554.8C-440.1,558.5-440,554.4-439.9,554.8z M-443.6,538.9
		c-0.1-2.2-0.3-4.5-0.4-6.7C-443.5,534.4-443.4,536.6-443.6,538.9C-443.7,536.7-443.6,537.6-443.6,538.9z M-448.8,563.6
		c-0.8-4.7-2.9-10.4-2-15.1C-450.1,553.5-449.5,558.5-448.8,563.6C-449,562.4-449.5,558.7-448.8,563.6z M-463.6,496
		C-463.5,496.4-463.5,496.4-463.6,496C-463.6,496-463.6,496.1-463.6,496z M-464,493c-2.9,4.5-4.1-0.3-3.8-14.2
		C-464.1,482.4-462.8,487.2-464,493C-464.1,493.1-464.6,489.1-464,493z M-473.6,469.1C-479.3,464.1-473.6,467.3-473.6,469.1
		C-474.4,468.4-473.6,468.9-473.6,469.1z M-478.8,458.2C-476.2,456.9-478.8,459.4-478.8,458.2C-478.6,458.1-478.8,458.3-478.8,458.2
		z M-420.3,533C-414.7,511.1-418.4,526.8-420.3,533C-419.4,529.5-419.3,529.8-420.3,533z M-429.1,530.8
		C-430.4,527.4-428.4,528.5-429.1,530.8C-429.3,530.3-429,530.5-429.1,530.8z M-439.3,507.1c-0.1-2.1,0.4-1.2,1.6,2.9
		C-438.2,509-438.8,508-439.3,507.1C-439.3,506.8-438.8,508-439.3,507.1z M-443,501.3C-437.8,509-443,501.5-443,501.3
		C-443.4,500.7-443,500.2-443,501.3z M-443.1,494.9C-442.4,491.6-442.8,495.2-443.1,494.9C-443,494.4-443,495-443.1,494.9z
		 M-453.5,524.4C-455.6,537-454.6,511.7-453.5,524.4C-453.7,525.6-453.6,523.2-453.5,524.4z M-469.1,473.9
		C-470.1,467.7-459.9,486.4-469.1,473.9C-469.2,473.3-468,475.4-469.1,473.9z M-467.6,467.7C-475.5,459.7-468.3,462.9-467.6,467.7
		C-468.9,466.4-467.8,466.3-467.6,467.7z M-478.1,460.4C-479.4,457.8-470.8,460.4-478.1,460.4C-478.2,460.2-477.2,460.4-478.1,460.4
		z M-474.3,535.7C-477.1,529.3-476.9,526.5-474.3,535.7C-475.1,533.9-474.9,533.6-474.3,535.7z M-479.1,535.3
		C-479.4,534.9-479.4,534.9-479.1,535.3C-479.2,535.2-479.2,535.2-479.1,535.3z M-455.1,599.1C-454.1,602.1-457.8,596.4-455.1,599.1
		C-455,599.4-455.4,598.8-455.1,599.1z M-425.3,518.1C-429.4,531.3-420,492.7-425.3,518.1C-425.7,519.4-424.8,515.7-425.3,518.1z
		 M-431.1,513.5C-434.8,506.9-428.5,495.8-431.1,513.5C-431.5,512.8-430.7,510.8-431.1,513.5z M-436,505.5
		C-443.2,494.7-434.9,495.3-436,505.5C-437.2,503.7-435.8,503.7-436,505.5z M-451.4,501.1c-3.4-6.2-3.4-11.9,0-16.9
		C-448.7,490.3-448.7,495.9-451.4,501.1C-451.9,496.5-451.1,500.4-451.4,501.1z M-455,510c-3.1,9.2-3.2-12.2-1.5-15.7
		C-456,499.5-455.5,504.7-455,510C-455.4,511.2-455.5,504.6-455,510z M-460.4,489c-2.9-18.9,3.2-3.5,0.3-8.1
		c-1.7-2.5-3.9-11.6-4.9-16C-459.2,470.6-453.3,481.8-460.4,489C-460.9,485.8-459.3,487.9-460.4,489z M-472.7,460.5
		C-474,455.8-464.3,461.2-472.7,460.5C-472.9,459.8-471.5,460.6-472.7,460.5z M-498.9,467.3C-497.4,468.4-499.5,470.8-498.9,467.3
		C-498.4,467.7-499,467.3-498.9,467.3z M-501.6,471.9C-508.6,478.9-500.6,462-501.6,471.9C-502.3,472.6-501.5,470.9-501.6,471.9z
		 M-499.9,477c-2.4-2.3,11.3,10.4,12.6,27.4c2.2-11.7,6,9.2,4.1,11.7C-497,504.3-502.6,491.3-499.9,477z M-480.7,515.4
		C-472.6,539.6-483.9,519.1-480.7,515.4C-480.5,516-481.3,516.1-480.7,515.4z M-479.9,533.6C-488.9,514.4-486.2,519.2-479.9,533.6
		C-479.9,533.6-481.8,529.3-479.9,533.6z M-463.9,593C-487.7,574.9-463.9,590.5-463.9,593C-466.8,590.8-463.9,592.8-463.9,593z
		 M-436.1,608.2C-434.6,608.2-442.2,610.2-436.1,608.2C-436,608.2-436.7,608.4-436.1,608.2z M-422.4,505.1
		C-422.4,503.6-426.3,494.8-422.4,505.1C-422.4,505.2-422.7,504.3-422.4,505.1z M-427.6,493.1C-431.4,516.9-437.4,472.6-427.6,493.1
		C-428,495.6-428.7,490.8-427.6,493.1z M-435.2,496.9c-9.9-5.9-6.3-19.9-3-29.7C-432.7,476.5-431.7,486.4-435.2,496.9
		C-436.7,496-434.6,490.8-435.2,496.9z M-447,488.6c-3.1-6.6-2.1-12,3-16.1C-445,477.8-446,483.2-447,488.6
		C-447.3,484.8-446.4,484.1-447,488.6z M-460.2,465.3C-459.3,465.5-458.1,467.4-460.2,465.3C-459.9,465.4-459.8,465.7-460.2,465.3z
		 M-469.8,456.6C-468.9,456.1-468.8,456.6-469.8,456.6C-469.6,456.5-469.6,456.6-469.8,456.6z M-471,454.1
		C-468.4,454.7-477,457-471,454.1C-470.6,454.2-471.4,454.3-471,454.1z M-479.5,456.2C-479.5,454.1-475,452.9-479.5,456.2
		C-479.5,456.1-478.8,455.7-479.5,456.2z M-501.1,467.5C-514.3,474.1-501.1,464.1-501.1,467.5C-502.5,468.2-501.1,467.3-501.1,467.5
		z M-507.1,471.2C-517,478.6-510.4,464.5-507.1,471.2C-508.3,472.1-507.5,470.4-507.1,471.2z M-506.3,473.1
		C-503,481.2-513.6,480.4-506.3,473.1C-505.9,474.1-507.4,474.2-506.3,473.1z M-503.4,479.9C-502.1,481.2-509.8,488.7-503.4,479.9
		C-503.3,480-504.2,481-503.4,479.9z M-502.7,483.5C-505.2,489.8-503.5,485.4-502.7,483.5C-503.1,484.5-502.7,483.5-502.7,483.5z
		 M-503,487.6C-503,488.7-503.1,487.7-503,487.6C-503,487.8-503.1,487.7-503,487.6z M-501.1,485.3c17.1,12.8,22,24.5,14.7,35.2
		C-499.6,509.9-504.5,498.2-501.1,485.3C-496.9,495.2-501.4,486.8-501.1,485.3z M-463.3,587.4C-463.6,587.2-463.6,587.2-463.3,587.4
		C-463.3,587.5-463.3,587.4-463.3,587.4z M-453.3,605.4C-459.9,604.1-455,600.4-453.3,605.4C-454.4,605.2-453.5,604.8-453.3,605.4z
		 M-411.8,507.7C-415.8,501.3-407.2,493.3-411.8,507.7C-412.3,506.9-411.1,505.5-411.8,507.7z M-432.5,469.1
		C-433.6,478.6-440.3,442.1-432.5,469.1C-432.6,470-433.4,466-432.5,469.1z M-442,464.3C-445.4,478.2-442,474.9-442,464.3
		C-442.6,466.8-442,464.2-442,464.3z M-459.4,463.6C-472,458.7-460.2,458.9-459.4,463.6C-460.7,463.1-459.5,463-459.4,463.6z
		 M-466.6,457C-467.2,454-449.4,459.6-466.6,457C-466.7,456.5-464,457.4-466.6,457z M-461.6,453.3
		C-460,452.5-459.7,453.7-461.6,453.3C-461.2,453.1-461.2,453.4-461.6,453.3z M-465.8,452.5C-469.1,451.6-451.7,445.8-465.8,452.5
		C-466.2,452.4-464.1,451.7-465.8,452.5z M-476.7,453.9C-477.9,453.5-477.2,452.2-476.7,453.9C-477,453.8-476.8,453.6-476.7,453.9z
		 M-512.1,475.2C-523.8,485.2-516.3,466.2-512.1,475.2C-513.5,476.4-512.7,473.9-512.1,475.2z M-510.8,477.8
		C-506,488.1-518.4,486.6-510.8,477.8C-510.2,479.1-512,479.2-510.8,477.8z M-507.1,485.6C-506.3,487.8-512.2,495-507.1,485.6
		C-507,485.9-507.8,486.9-507.1,485.6z M-505.3,489.3C-504.8,490.3-508.4,499.4-505.3,489.3C-505.2,489.5-505.3,489.3-505.3,489.3z
		 M-504.2,491.6c9.5,23.9-29.1-57.7,15.4,31.3C-503.6,513.7-508.7,503.3-504.2,491.6C-504,492.1-504.6,492.9-504.2,491.6z
		 M-505,502.9C-506.1,501.2-508.6,496.8-505,502.9C-505.6,502-505.6,501.9-505,502.9z M-473.9,556.7c9.4,5.8,13.3,12.6,11.9,20.5
		c-8.5-12.7-50.4-59.7-46.1-72.7C-496.9,522-485.5,539.4-473.9,556.7C-469.8,563.6-485.9,538.9-473.9,556.7z M-488.3,545.4
		c-20.9-8.1-28.3-19-22.4-32.6C-503.2,523.6-495.8,534.5-488.3,545.4C-496.8,535.1-496.2,534-488.3,545.4z M-462.5,581.7
		c0,1.3-0.8,0.4-2.4-2.8C-464.1,579.8-463.3,580.7-462.5,581.7z M-483.9,556c-1.2-1.4-31-31-29-36.2
		C-503.3,531.9-493.6,544-483.9,556C-494,544-495.1,542.2-483.9,556z M-476.9,578.8C-478.3,577.6-486.6,571.1-476.9,578.8
		C-478.1,577.8-478.3,577.7-476.9,578.8z M-492.9,571.8c-8.3-2.3-13.2-7.2-14.7-14.7C-501.5,560.8-496.6,565.7-492.9,571.8
		C-497.2,568.8-494.5,569.7-492.9,571.8z M-495.2,573.3C-499.9,570.5-516.2,557.8-495.2,573.3C-498.3,571.5-498.6,570.8-495.2,573.3
		z M-456.8,606.8C-447.1,606.8-456.8,608.6-456.8,606.8C-455.4,606.8-456.8,607-456.8,606.8z M-451.2,612.8
		C-459.7,618.7-452.9,606.9-451.2,612.8C-452.2,613.5-451.4,612.1-451.2,612.8z M-453,617.2C-447.8,613.1-452.1,618-453,617.2
		C-452.1,616.5-452.8,617.4-453,617.2z M-437.9,609.3C-435.7,609.3-429.5,612.9-437.9,609.3C-437.2,609.3-437.9,609.3-437.9,609.3z
		 M-434.2,607.5l0.1,0.1C-434.1,607.6-434.1,607.5-434.2,607.5z M-416.5,566.3C-412.1,558.5-414.1,562.8-416.5,566.3
		C-415.7,564.9-415.6,565-416.5,566.3z M-412.1,558.8C-402.6,541.5-412.1,561.9-412.1,558.8C-411,556.8-412.1,559-412.1,558.8z
		 M-411,548.5C-409.7,545.2-410.7,548-411,548.5C-410.8,548-410.7,548.1-411,548.5z M-406.3,538.3
		C-404.6,534.9-405.5,542.1-406.3,538.3C-406.1,537.9-406.2,538.8-406.3,538.3z M-407.1,494.1c-6.7-7.8-5.9-17.2,2.6-28.1
		C-391.9,470-392.8,479.4-407.1,494.1C-407.9,492.9-403.8,484.6-407.1,494.1z M-396.4,470.2c6.5,2.9,4.8,8.9-5.1,18
		C-399.6,481.8-397.9,475.7-396.4,470.2C-396,470.4-397.9,475.7-396.4,470.2z M-409.9,478.6C-404.1,455.1-406.2,465.8-409.9,478.6
		C-408.7,473.7-408.4,473.5-409.9,478.6z M-408.4,463.9c-2,6.2-3.9,12.4-5.9,18.6C-418.2,464.7-416.2,458.5-408.4,463.9
		C-410.1,469.1-409.4,463.4-408.4,463.9z M-419.3,490.9C-426.9,471.6-418.6,487.7-419.3,490.9C-420.4,488.1-419.1,490-419.3,490.9z
		 M-429.8,464.4c-3-11.1-0.2-13.3,8.5-6.5C-420.6,473.8-423.4,475.9-429.8,464.4C-429.7,460.8-428,466.5-429.8,464.4z M-431.8,462
		C-437.3,456.4-430.1,444.7-431.8,462C-432,461.8-431.5,458.9-431.8,462z M-448.5,472.5C-450.2,454.4-440.4,459.7-448.5,472.5
		C-448.9,468.3-445.9,468.4-448.5,472.5z M-452.4,463.6C-461.1,454.1-452.7,458.5-452.4,463.6C-453.5,462.4-452.5,462.1-452.4,463.6
		z M-458,454.2C-459.4,443.3-443,458.6-458,454.2C-458.1,453.4-456.3,454.7-458,454.2z M-458.9,449.4
		C-458.9,448-444.7,442.6-458.9,449.4C-458.9,449.2-457,448.5-458.9,449.4z M-468.6,448.4C-469.3,444.8-450.4,435.5-468.6,448.4
		C-468.7,447.9-466.2,446.7-468.6,448.4z M-520.8,473.1C-521,472.7-517.5,469.7-520.8,473.1C-520.9,472.9-520.3,472.6-520.8,473.1z
		 M-519.9,476.3C-514.4,486.4-526,481.7-519.9,476.3C-519.2,477.6-520.9,477.2-519.9,476.3z M-515.7,483.9
		C-509.2,495.5-518.7,488-515.7,483.9C-514.8,485.5-516.2,484.6-515.7,483.9z M-511,492.2C-509.3,495.6-512.7,494.4-511,492.2
		C-510.8,492.6-511.3,492.6-511,492.2z M-508.5,496.6C-507.2,499.2-508.1,498.2-508.5,496.6C-508.3,497-508.5,496.6-508.5,496.6z
		 M-509.4,502.4C-513.5,514.5-512.4,497.3-509.4,502.4C-509.9,503.9-509.7,501.9-509.4,502.4z M-512.2,510.5
		C-517.1,525.3-516.6,503.5-512.2,510.5C-512.8,512.3-512.7,509.7-512.2,510.5z M-514.7,517.4C-517.2,525-519.9,510.6-514.7,517.4
		C-515,518.3-515.4,516.5-514.7,517.4z M-516.4,522.2C-520.4,532.5-522.4,514.7-516.4,522.2C-516.9,523.5-517.2,521.2-516.4,522.2z
		 M-514.5,524.5c5.6,6.8,12.6,15.2,20.1,24.1C-512.4,543.3-519.1,535.3-514.5,524.5C-508.9,531.3-514.9,525.7-514.5,524.5z
		 M-485.6,562.4c6.5,6.2-33.2-27.7-30.7-32.7C-506.2,540.6-495.9,551.5-485.6,562.4C-493,555.3-497.5,550-485.6,562.4z
		 M-513.8,544.4C-521.1,538.7-521.7,534.3-513.8,544.4C-516,542.7-515.6,542.1-513.8,544.4z M-509.9,555.3
		C-499,574.9-522.3,544.9-509.9,555.3C-508.9,557.1-511.1,554.3-509.9,555.3z M-457,609.7C-446.8,607.7-457,612.2-457,609.7
		C-455.4,609.4-457,609.9-457,609.7z M-458,626.4C-458.6,627-458,625.5-458,626.4C-458.1,626.5-458,626.3-458,626.4z M-449.8,617.7
		C-443.5,640.8-451.6,621.2-449.8,617.7C-448.8,621.4-450.2,618.5-449.8,617.7z M-437.5,633.6C-435.9,632.5-436.9,637.2-437.5,633.6
		C-437.2,633.4-437.4,634.2-437.5,633.6z M-437.5,630.7c-1.8,1.8-2.1-18.1-2.4-21C-438.8,609.7-436.5,629.6-437.5,630.7z M-436,613
		c5.5,5.5,8,8.8,2.1,14.2C-434.6,622.4-435.3,617.7-436,613C-434.5,614.5-433.7,618.2-436,613z M-429.7,620.7
		C-428.7,622.3-429.7,625.4-429.7,620.7C-429.4,621.2-429.7,621.5-429.7,620.7z M-430.6,614.8C-434.7,602.5-418.2,631.6-430.6,614.8
		C-431.1,613.3-429.2,616.7-430.6,614.8z M-433.7,607.4C-425.2,605.8-432.4,608.7-433.7,607.4C-432.6,607.2-433.5,607.6-433.7,607.4
		z M-405.2,546.7C-398,534.1-405.2,554.6-405.2,546.7C-404.4,545.3-405.2,547.4-405.2,546.7z M-398.5,534.7
		C-397,533.2-395.3,541.8-398.5,534.7C-398.4,534.6-398.1,535.6-398.5,534.7z M-404.8,520.2C-406.9,518-395.6,500.1-404.8,520.2
		C-405,520-403.6,517.6-404.8,520.2z M-393.3,471.9c8.5,3.7,6.2,11.4-6.9,23.1C-397.5,486.6-395.2,478.7-393.3,471.9
		C-392.7,472.2-395.2,478.7-393.3,471.9z M-411,457.7C-410.3,452.2-400.5,461.4-411,457.7C-410.9,456.9-409.6,458.2-411,457.7z
		 M-412.6,461.7c-1.4,6.3-2.9,12.5-4.3,18.8C-422.3,473.4-428,451.4-412.6,461.7C-413.7,466.4-412.9,461.5-412.6,461.7z
		 M-431.2,451.6C-434.1,451.1-433.2,450.2-431.2,451.6C-431.9,451.5-431.8,451.2-431.2,451.6z M-442,461.8
		c-7.4-1.4-10.5-5.6-9.3-12.7C-441.5,444.8-442,452.6-442,461.8C-444.6,459.9-442,461.7-442,461.8z M-451.7,446.2
		C-451.7,444.7-433.6,437.9-451.7,446.2C-451.7,445.9-449.3,445.1-451.7,446.2z M-427,416.7C-426.9,416.2-426.5,415.1-427,416.7
		C-427,416.7-426.9,416.4-427,416.7z M-428.3,418.1c-0.2,0.2-0.4,0.3-0.4,0.3C-431.6,421.2-429.7,422.6-428.3,418.1z M-436.6,426.8
		C-438.8,428.2-435.8,417-436.6,426.8C-436.9,427-436.5,425.6-436.6,426.8z M-438.8,428.3c-4.8,3.2-9.6,6.3-14.4,9.5
		C-453.3,437.2-437.1,416.4-438.8,428.3C-443.7,431.5-438.6,426.9-438.8,428.3z M-453.7,435.9C-453.7,440.1-470.1,448.1-453.7,435.9
		C-453.7,436.3-456.1,437.7-453.7,435.9z M-470.3,447.9C-469.9,449.8-482.2,456.4-470.3,447.9C-470.2,448.4-472.1,449.2-470.3,447.9
		z M-509.7,461.9C-505.7,461.9-496.3,465.1-509.7,461.9C-508.9,461.9-507.2,462.5-509.7,461.9z M-510.4,463.6c1.1,3-28,11.6-36,8.9
		C-536.9,466-521.8,461.4-510.4,463.6C-510.1,464.4-512.5,463.2-510.4,463.6z M-547,472.2c-9.2-2.7-18.5-5.3-27.7-8
		c7.7,0.2,16.3,0.1,24.1,0.8c-19-4.5-18.1-4.8-33.5-15.2c19.3,4.1,38.6,7.9,58,11.3C-533.1,464.8-540,468.5-547,472.2
		C-556.2,469.1-543.1,465.3-547,472.2z M-584.5,449.7c9.3,7.8,11.2,12,5.6,12.7C-588.8,451.9-590.7,447.7-584.5,449.7
		C-583.5,451-585,449.6-584.5,449.7z M-544.7,486.8C-519,500.6-551.3,492-544.7,486.8C-541,488.8-545.2,487.2-544.7,486.8z
		 M-534.1,492.5c4.3,2.5-0.4-0.1,5.2-7C-518.3,500.2-542.3,504.3-534.1,492.5C-532,493.7-535,493.8-534.1,492.5z M-528.4,485
		C-518.4,473.6-519.2,494.8-528.4,485C-526.9,483.3-527.1,486.4-528.4,485z M-518.5,488C-510.2,500.8-525.7,498.4-518.5,488
		C-517.4,489.7-519.6,489.6-518.5,488z M-513.4,496.1C-511,500-518.6,505.8-513.4,496.1C-513.1,496.6-514.2,497.6-513.4,496.1z
		 M-516,505C-523.3,521.1-519.5,499.7-516,505C-516.9,507-516.4,504.4-516,505z M-520.6,509.8C-516.9,514.4-524.8,517.4-520.6,509.8
		C-520.2,510.3-521.2,510.9-520.6,509.8z M-521.2,516.4C-526.8,529.1-525.6,511.2-521.2,516.4C-521.9,518-521.8,515.7-521.2,516.4z
		 M-525.3,519.8C-521.1,523.9-526.1,522.3-525.3,519.8C-524.9,520.2-525.4,520.1-525.3,519.8z M-520.9,524.6
		C-515.8,530.3-519.2,527.3-520.9,524.6C-520.1,525.5-520.9,524.6-520.9,524.6z M-521.1,535.2c-1.9,5.3-1.1,3.8-2.7,7.7
		C-525.4,539.7-527.9,527-521.1,535.2C-521.5,536.3-522.1,534-521.1,535.2z M-527.1,538.6C-522,552.2-525.9,541.6-527.1,538.6
		C-526.5,540.2-527.1,538.6-527.1,538.6z M-527.6,539.6C-524.9,549.3-525.6,546.5-527.6,539.6L-527.6,539.6z M-531.2,541.4
		C-532.8,535-530,538.9-531.2,541.4C-531.4,540.6-531.1,541.2-531.2,541.4z M-524.6,551.9C-521.8,554.2-524,553.4-524.6,551.9
		C-524,552.4-524.6,551.9-524.6,551.9z M-514,557.1C-518.6,538.5-511,559.5-514,557.1C-514.7,554.3-513.5,557.5-514,557.1z
		 M-496.5,576.6c4.9,1.8,9,4.4,12.5,7.9C-489.6,583.4-493.7,580.8-496.5,576.6C-492.5,579.1-496.1,577.1-496.5,576.6z M-465.1,597.7
		C-465.2,597.7-465.2,597.7-465.1,597.7z M-451,648C-453.7,644.4-460.1,672.2-451,648C-450.7,648.4-451.9,650.4-451,648z
		 M-429.4,665.1C-429.4,664.2-426.8,665.8-429.4,665.1C-429.4,664.9-428.7,665.3-429.4,665.1z M-430.7,659.4
		C-431.8,653.9-421.9,666.8-430.7,659.4C-430.8,658.9-428.7,661.1-430.7,659.4z M-436.8,636.4c2.8-5.6,4.6-7,9.5-10.9
		C-426.8,627-435.1,643-436.8,636.4C-436.1,635-436.6,637.2-436.8,636.4z M-426.2,626.6C-426.7,623.6-422.7,623.1-426.2,626.6
		C-426.3,626-425.6,626-426.2,626.6z M-423.6,624.1C-424,623.2-420.8,621.8-423.6,624.1C-423.7,623.9-423.1,623.7-423.6,624.1z
		 M-425,618.8C-434,594.9-423.9,617.7-425,618.8C-426.4,615.1-424.5,618.3-425,618.8z M-431.1,608.9
		C-428.4,608.6-422.7,611.2-431.1,608.9C-430.1,608.8-429.7,609.3-431.1,608.9z M-395.7,529.6C-387.4,514.5-390.3,534.9-395.7,529.6
		C-394.6,527.6-395,530.3-395.7,529.6z M-398.7,526.4C-403.2,521.8-390,511.2-398.7,526.4C-399.2,525.9-397.5,524.3-398.7,526.4z
		 M-400,505c3.5-10.4,7.1-20.7,10.6-31.1C-376.2,480.5-401.5,502.7-400,505C-395.9,493.7-399.6,505.6-400,505z M-394.9,464.2
		C-393.6,459.1-389.7,465.9-394.9,464.2C-394.7,463.4-394.3,464.4-394.9,464.2z M-396.3,463.5C-412.6,456.9-394.8,458.3-396.3,463.5
		C-398.8,462.5-396.1,462.8-396.3,463.5z M-404.6,460.1C-406.7,459.3-403.2,455.1-404.6,460.1C-404.9,460-404.4,459.4-404.6,460.1z
		 M-411.6,457.4C-429.9,452.8-410.1,451.5-411.6,457.4C-412,457.3-411.4,456.6-411.6,457.4z M-420.4,453.3
		C-434.6,446.8-420.4,452.6-420.4,453.3C-422.4,452.4-420.4,453.1-420.4,453.3z M-440.2,457c0-36.7-0.7,15.3-2.8-11.3
		C-435.5,442.5-438.9,452.5-440.2,457C-440.2,456.9-439.5,454.6-440.2,457z M-443,442.4C-443,439.7-435.2,438.8-443,442.4
		C-443,442-441.9,441.9-443,442.4z M-436.9,438.5C-434.9,437.4-436.9,441.7-436.9,438.5C-436.7,438.4-436.9,438.9-436.9,438.5z
		 M-427.2,434.3C-426.9,434.3-426.9,434.3-427.2,434.3C-427.3,434.3-427.3,434.3-427.2,434.3z M-425.4,429.2
		C-424.6,427.6-416.2,424.9-425.4,429.2C-425.3,429-424.1,428.6-425.4,429.2z M-427.8,412C-427.5,402.1-426.5,411-427.8,412
		C-427.8,412-427.4,411.7-427.8,412z M-428.8,412.7C-430,413.6-432.6,405-428.8,412.7C-429.3,413.1-428.8,412.7-428.8,412.7z
		 M-432.7,415.7C-437.2,418.6-432.7,406.4-432.7,415.7C-433.3,416.1-432.7,414.5-432.7,415.7z M-435.7,418c-1.1,1.2-1.4,1-0.7-0.6
		c-2,8.6-8.5,14.1-19.7,16.5C-440,410.6-433.2,405.3-435.7,418C-436,418.3-435.5,416.8-435.7,418z M-516.6,460.4
		c-4.3-1-9.2-2-14.3-3.2C-512.5,459.5-507.8,460.5-516.6,460.4C-520.9,459.4-515.6,460.4-516.6,460.4z M-589.3,445.6
		c-3.5-4,40.8,7.8,43.3,8.4C-560.3,451-575.7,448-589.3,445.6C-590.1,444.7-575.7,448-589.3,445.6z M-592.3,443.1
		C-586.3,450-599.5,441-592.3,443.1C-591.7,443.8-593,442.9-592.3,443.1z M-595.1,444.7C-596.6,444.7-598.8,437.9-595.1,444.7
		C-595.3,444.7-595.6,443.8-595.1,444.7z M-593.3,447.8C-586.5,460.1-594.1,447.8-593.3,447.8C-592.3,449.6-593.4,447.8-593.3,447.8
		z M-596,448.3C-599.6,445.2-596.6,447-596,448.3C-596.6,447.8-596.2,447.9-596,448.3z M-564.8,479c16.4,14.8,9.9,7.9,4,1.5
		C-548.7,490.9-550.4,493.7-564.8,479C-558.6,484.6-561.1,482.8-564.8,479z M-556.4,493.3c-6.5,11.8-12.4,5.2-17.7-19.8
		C-568.2,480.1-562.3,486.7-556.4,493.3C-557.5,494.7-563.5,485.2-556.4,493.3z M-549.1,490.4c7.4,6.2,17.6,11.1,13.9,19.7
		C-552.7,503-557.3,496.4-549.1,490.4C-545.5,493.4-550,491.1-549.1,490.4z M-529.2,506.8c6,4.7,0-0.9,6.5-12
		c3.9,5.6,4.8,21.8-4.9,13.6c4.9,3.2,5.4,7.2,1.5,11.9C-533,516.7-534.1,512.2-529.2,506.8C-526.4,509-530.3,509-529.2,506.8z
		 M-528.2,526.4c-0.7,2.1-1.3,4.1-1.9,5.9c3.9-12.2,2.4-0.3,0.5,4.6c-1.1-2.4-1.6-6-3.2-4.4c-12.8,7.7,32.4,10.5-5-4.1
		c1.1,3.5,2.2,7.1,3.3,10.6C-542.5,532.3-541.8,510.3-528.2,526.4C-528.9,528.5-530.4,523.8-528.2,526.4z M-548.5,535.1
		c-0.8-0.3-1.6-0.7-2.4-1C-550.1,534.4-549.3,534.7-548.5,535.1z M-539.3,540.5C-533.1,544.2-549.7,536.3-539.3,540.5
		C-538.8,540.8-540.3,540.1-539.3,540.5z M-530.1,547.4C-527.2,550.2-533.9,547.4-530.1,547.4C-529.8,547.7-530.4,547.4-530.1,547.4
		z M-526.7,550.8C-527.5,552.4-541.4,551.6-526.7,550.8C-526.8,551-528.4,550.9-526.7,550.8z M-513.8,561.8c-0.1,0-0.1,0.1-0.2,0.1
		C-513.9,561.8-513.9,561.8-513.8,561.8C-513.9,561.8-513.8,561.7-513.8,561.8z M-513.4,562.1C-513.1,562.4-515.6,566.2-513.4,562.1
		C-513.2,562.3-513.4,562.1-513.4,562.1z M-508.8,566.7C-507.8,567.6-508.8,567-508.8,566.7C-508.7,566.8-508.8,566.8-508.8,566.7z
		 M-493.8,581.6c5.7,3.8,13.1,7.3,18.8,16.1C-482.1,593.2-488.4,587.8-493.8,581.6C-493.5,581.8-493.6,581.9-493.8,581.6z
		 M-471.5,605C-477,606-481.7,595.5-471.5,605C-472.6,605.2-472.9,603.7-471.5,605z M-468.7,607.7
		C-463,616.6-478.2,609.2-468.7,607.7C-468,608.8-469.9,607.9-468.7,607.7z M-466.1,613C-466.7,619.2-468.8,614.1-466.1,613
		C-466.2,614.1-466.8,613.3-466.1,613z M-455.1,641.5C-456.8,639.2-461.5,658-455.1,641.5C-454.8,641.9-455.8,643.3-455.1,641.5z
		 M-459.3,734.5C-459.1,734.7-460.8,735.9-459.3,734.5C-459.2,734.6-459.5,734.7-459.3,734.5z M-455,726.2
		C-453,710.8-455.2,725.3-455,726.2C-454.6,723.1-454.8,727.1-455,726.2z M-455.9,708.6c0,0,5.8-4.7,6.1-15.5
		C-449.8,693.1-447.6,703.2-455.9,708.6z M-448.9,651.2C-451.3,647.1-458,678.4-448.9,651.2C-448.6,651.7-449.8,653.9-448.9,651.2z
		 M-447.3,653.9C-451.7,647.3-456.3,685.3-447.3,653.9C-446.9,654.5-448.1,656.7-447.3,653.9z M-445.8,657
		C-445.8,658-451.5,685.7-445.8,657C-445.8,658.4-446.4,660-445.8,657z M-445.9,663.5C-445.9,660.8-463.5,691.4-445.9,663.5
		C-445.9,664-449.8,669.7-445.9,663.5z M-427.1,636.1c1.3-1.6,1.7-1.5,1.2,0.3c-4-6.6,9.1,13.3,7.2,11.9
		C-423.6,646.1-426.4,642-427.1,636.1z M-421.8,615.8C-423.1,613.2-421.1,615-421.8,615.8C-422,615.4-421.6,615.6-421.8,615.8z
		 M-416.4,618.2l-0.1,0.1C-416.5,618.3-416.4,618.3-416.4,618.2z M-420.1,614.2C-433.9,603.5-419,613.1-420.1,614.2
		C-421.4,613.2-419.8,613.9-420.1,614.2z M-430.8,605C-430.5,604.8-430.5,604.8-430.8,605C-430.7,605-430.7,605-430.8,605z
		 M-410,569.3C-410,568.1-398.6,555.6-410,569.3C-410,569.1-408.5,567.5-410,569.3z M-390.8,520.8c1.6-34.1,10.9-45.4,28-33.9
		C-366.2,491.7-387,527.7-390.8,520.8C-383.3,507.1-390.1,522.1-390.8,520.8z M-393.1,516.6c-8-11.9-3.9-24.7,12.4-38.2
		C-362.5,484.4-366.7,497.1-393.1,516.6C-393.7,515.5-385.5,503.1-393.1,516.6z M-385.3,483.4C-382.3,475.1-381.4,475.2-385.3,483.4
		C-384.5,481.2-384.3,481.3-385.3,483.4z M-387.5,467.4C-386,461.5-372.9,473.5-387.5,467.4C-387.3,466.6-385.6,468.2-387.5,467.4z
		 M-388.9,466.7C-395.6,463.7-386.9,461.3-388.9,466.7C-389.8,466.3-388.6,465.9-388.9,466.7z M-427.9,448.6
		C-429.7,448.3-431.5,447.6-427.9,448.6C-428.6,448.5-427.9,448.6-427.9,448.6z M-430.4,448.4C-434.6,448.4-430.4,446-430.4,448.4
		C-431.1,448.4-430.4,448.1-430.4,448.4z M-436.4,443.8C-436.4,442.5-435.9,442.3-436.4,443.8C-436.4,443.5-436.3,443.5-436.4,443.8
		z M-427.5,435C-423.6,435-428,436.5-427.5,435C-427,435-427.6,435.3-427.5,435z M-423,431.8C-418.5,429.6-398.1,422.5-423,431.8
		C-421.3,431-419.5,430.5-423,431.8z M-411.2,420.7c5-3.4,10.5-5.6,16.5-6.6C-400.3,416.2-405.8,418.4-411.2,420.7
		C-409.4,419.7-405.8,418.4-411.2,420.7z M-423,423.2C-423,423.1-421,421.8-423,423.2C-423,423.1-422.7,423-423,423.2z M-420.1,416
		c2.9-7.9,9.8-12.2,20.6-12.9C-406.2,407.5-413.1,411.8-420.1,416C-419.8,415.2-419.1,415.4-420.1,416z M-420.3,401
		C-420.1,400.4-419.2,398.8-420.3,401C-420.3,401-420.1,400.6-420.3,401z M-422.7,406.3C-423.5,407.9-424.6,397.8-422.7,406.3
		C-422.8,406.5-422.9,405.4-422.7,406.3z M-425.4,399C-424.3,392.3-422.8,396.3-425.4,399C-425.4,399-425,398.6-425.4,399z
		 M-428.2,401.6c-1.2,1.8-1.7,1.4-1.5-1.2c-3,8.3-6,8.2-24.6,26.6C-437.4,394.9-428.7,386.4-428.2,401.6
		C-428.6,402-428.3,400.7-428.2,401.6z M-479.4,450.7C-477.3,448-477.3,448-479.4,450.7C-479.4,450.7-478.9,450.1-479.4,450.7z
		 M-500.4,427.9c-0.6-4.2-1.2-8.7-1.8-13.4c0.9,6,1.8,11.8,2.7,17.4C-499.8,430.5-500.1,429.2-500.4,427.9
		C-501,423.7-500.1,429.2-500.4,427.9z M-596.7,439.7c-17.7-21,10.6,13.9-7.5-7.2c20.5,6.8,41.1,13.3,61.8,19.5
		C-559.7,447.8-580.3,442.9-596.7,439.7C-599.9,435.9-580.3,442.9-596.7,439.7z M-602,438.7C-606.3,438.1-611.4,423.3-602,438.7
		C-602.8,438.6-603.7,435.9-602,438.7z M-600.6,441C-595.2,449.5-608.9,439.3-600.6,441C-599.9,442.1-601.6,440.8-600.6,441z
		 M-603.9,442.3C-605.1,441.5-606.6,437.4-603.9,442.3C-604.2,442.1-603.9,442.3-603.9,442.3z M-608.3,444.6c-1.1,0-2.3,0.1-3.7,0.1
		C-610.7,444.1-609.5,444.1-608.3,444.6C-609.4,444.6-608.5,444.5-608.3,444.6z M-585.8,461C-587.3,461.7-586.1,460.7-585.8,461
		C-586,461.1-585.9,460.9-585.8,461z M-560.2,532.7c12.5-1.3,17.8,0.9,15.8,6.4C-563.9,536.3-569.2,534.2-560.2,532.7
		C-555,534.8-561.1,532.8-560.2,532.7z M-534.9,543.6C-525.6,550.5-561.4,538-534.9,543.6C-534.1,544.2-537.3,543.1-534.9,543.6z
		 M-533.2,547.4C-533.3,547.6-564,547.4-533.2,547.4C-533.3,547.6-537,547.4-533.2,547.4z M-534.6,551.5
		C-534.6,552.5-566.2,554.2-534.6,551.5C-534.6,551.6-538.1,551.8-534.6,551.5z M-522.1,554.1C-518.2,558-534.1,557.3-522.1,554.1
		C-521.6,554.6-523.2,554.4-522.1,554.1z M-524.5,558.9C-519.9,556.8-514.2,555.8-524.5,558.9C-522,557.8-522.5,558.3-524.5,558.9z
		 M-514.3,561.2C-519.6,564.7-515.7,560.2-514.3,561.2C-514.9,561.6-514.6,561-514.3,561.2z M-515.7,564.3
		C-515.3,564.5-519.6,570.3-515.7,564.3C-515.5,564.4-515.7,564.3-515.7,564.3z M-511.9,563.6C-506.5,568.3-513.2,566.1-511.9,563.6
		C-511.1,564.3-512,563.8-511.9,563.6z M-508.5,568.9C-505.4,570.9-508,573.1-508.5,568.9C-507.9,569.3-508.4,569.7-508.5,568.9z
		 M-506.1,570.4C-500.5,573.1-505.3,575.1-506.1,570.4C-505.9,570.5-506,571-506.1,570.4z M-477.5,599.3
		C-478.6,600.1-499.2,579.1-477.5,599.3C-477.9,599.6-480.2,596.8-477.5,599.3z M-478.8,606.7C-481.4,607.4-489.3,591.6-478.8,606.7
		C-479.5,606.9-480.4,604.4-478.8,606.7z M-476.8,609.5C-464.5,626.4-489.4,612-476.8,609.5C-475.5,611.3-477.8,609.7-476.8,609.5z
		 M-472,616.2C-467,622.6-484.8,624.2-472,616.2C-471.3,617.1-473.9,617.4-472,616.2z M-468.4,621.5L-468.4,621.5L-468.4,621.5z
		 M-467.3,720.8C-471.9,726.1-468,718.7-467.3,720.8C-468.5,722.2-467.4,720.5-467.3,720.8z M-456.8,737.8
		C-456.7,737.9-460.6,742.4-456.8,737.8C-456.7,737.9-457.7,738.9-456.8,737.8z M-453.8,732c0.8-2.2,1.3-4.8,1.4-8
		C-452.6,734.1-453.1,736.7-453.8,732C-453,729.8-453.6,732.5-453.8,732z M-451.2,725c1.7,4.8,1.5,9.6-0.6,14.5
		C-453.3,734.8-453.1,729.9-451.2,725z M-455.6,676.4C-439.3,665.9-445.8,675.7-455.6,676.4C-455.6,676.4-450.9,676.1-455.6,676.4z
		 M-429.2,686.5C-441.5,703.2-422.1,693.6-429.2,686.5C-430.3,688-429.3,686.4-429.2,686.5z M-431.6,700.2
		c-4.5-5.9-0.4-12.5-0.4-12.5C-434.5,695.4-431.6,700.2-431.6,700.2z M-433,688.2c-5.3,10-0.3,15.5-0.3,15.5
		C-440.6,697-433,688.2-433,688.2z M-432.3,717.7c-2.4,10.6,2,16.6,2,16.6C-437,726.9-432.3,717.7-432.3,717.7z M-431.6,716.1
		c4.3-2.8,7.9-5.7,11.3-8.7c1.8,4.7,2.4,9.6,1.6,14.8c-3-3.6-3.8-7.8-2.4-12.8c-3.6,4.5-4,9.6-1.3,15.2c-2.9-3.4-3.7-7.6-2.5-12.4
		c-3,4.7-3,9.7,0,14.9c-3.2-3.3-4.3-7.4-3.3-12.4c-3.2,4.9-3,10.1,0.4,15.5C-431.7,726.6-433,721.9-431.6,716.1z M-417.1,718.1
		c-0.4-1-0.8-2.3-1-4C-417.7,715.5-417.4,716.8-417.1,718.1z M-429.1,751.2c-1.1,9.6,3.7,14.5,3.7,14.5
		C-432.4,759.8-429.1,751.2-429.1,751.2z M-425.6,779.5c-3.3,12.1,3.4,16.8,3.4,16.8C-431.6,790.9-425.6,779.5-425.6,779.5z
		 M-420.9,688.3c-3.6-14.4,0,0.1-3-6c0.9,0.2,1.3-0.3,1.2-1.3c0.5,0.1,4.9-1.2,5.3-1.3C-418.4,683.6-418.3,693-420.9,688.3
		C-421.3,686.7-420.4,689.2-420.9,688.3z M-416.6,690.2C-415.3,663.8-418.3,686.2-416.6,690.2C-416.6,690.2-419.6,683-416.6,690.2z
		 M-415.9,618C-415.4,617.6-414.6,617.1-415.9,618C-415.9,618-415.6,617.8-415.9,618z M-417.6,611.9
		C-429.2,601.9-417.1,611.4-417.6,611.9C-419,610.7-417.3,611.6-417.6,611.9z M-427.1,606.8C-429.9,605.8-418.2,605-427.1,606.8
		C-427.4,606.7-426.1,606.6-427.1,606.8z M-430.2,604.7C-429.5,604.3-425.7,602.7-430.2,604.7C-430.2,604.7-429.5,604.4-430.2,604.7
		z M-391.5,563.7c3,5.4-1.2,9.4-12.6,11.9C-400,571.7-395.8,567.8-391.5,563.7C-391.4,564-395.8,567.8-391.5,563.7z M-404.9,563.3
		C-404.9,561.8-384.2,539.5-404.9,563.3C-404.9,563.1-402.2,560.2-404.9,563.3z M-361.1,487.7c8.9,3.9-21.2,35-23.9,38.6
		C-376.6,513.6-368.7,500.8-361.1,487.7C-359.5,488.4-367.2,498.6-361.1,487.7z M-360.5,486.6C-354.9,476.9-349,493.3-360.5,486.6
		C-359.8,485.4-358.8,487.6-360.5,486.6z M-361.9,485.7C-381.3,473.5-358.6,480.5-361.9,485.7C-364.3,484.2-361.2,484.6-361.9,485.7
		z M-371.9,479.7C-390.8,468.6-371.3,478.4-371.9,479.7C-374.3,478.3-371.7,479.3-371.9,479.7z M-378.2,471.5
		C-376,464.3-355.8,481.9-378.2,471.5C-377.9,470.5-375.2,472.9-378.2,471.5z M-379.4,471C-383.4,469.4-376.3,464.7-379.4,471
		C-379.9,470.8-378.9,470-379.4,471z M-379.1,464.8C-379.1,464.2-373.2,466.9-379.1,464.8C-379.1,464.7-378.3,465.1-379.1,464.8z
		 M-379.3,464.7c-0.4-0.2-0.8-0.3-1.2-0.5C-379.3,464.1-378.9,464.3-379.3,464.7z M-405.1,453.6c-4.8-1-9.4-2.5-13.9-4.3
		C-407.3,446.7-402.6,448.1-405.1,453.6C-407.1,453.1-404.9,453.1-405.1,453.6z M-419.9,435.9C-415.6,433.7-405.4,434.5-419.9,435.9
		C-419.3,435.6-417.7,435.7-419.9,435.9z M-320.1,406.3c-20,2-39.9,5.1-59.6,9.3C-366.6,411.8-330.9,394.2-320.1,406.3
		C-336,407.9-321.8,404.4-320.1,406.3z M-329.9,396c-10.3,2.2-21.8,5-33.6,8.3C-349.6,389.4-338.4,386.6-329.9,396
		C-340.2,398.2-330.6,395.2-329.9,396z M-334.7,391.3c-18.8,5-37.4,10.7-55.8,17.2C-379.2,402.8-345,381-334.7,391.3
		C-351,395.7-336.4,389.6-334.7,391.3z M-343.7,383.5c-6.4,2.5-13.3,5.3-20.2,8.2C-356.7,381.2-350,378.5-343.7,383.5
		C-350.1,386-344.3,383.1-343.7,383.5z M-351.5,378.5c-9.5,4.9-18.9,9.8-28.4,14.7C-373.9,388.6-359.1,373.4-351.5,378.5
		C-361.3,383.3-352.7,377.7-351.5,378.5z M-362.5,373.2c-18.7,11.9-37.1,24.3-55.1,37.2C-414.6,403-364.3,372.4-362.5,373.2
		C-384.7,387.2-363.5,372.8-362.5,373.2z M-379.6,378.6C-371,371-362.1,365.7-379.6,378.6C-376.3,375.7-376.2,376.1-379.6,378.6z
		 M-371.8,370.6c-4.2,3-12.4,9-22.6,16.4C-389.2,373.7-381.7,368.3-371.8,370.6C-376,373.6-373,370.4-371.8,370.6z M-383.4,370.5
		c-9.9,9.2-19.5,18.8-28.8,28.7C-407.5,390.9-393.3,372.2-383.4,370.5C-395.1,381.3-385.1,370.8-383.4,370.5z M-396.6,367.2
		c-9.2,9.2,136.4-220.1-14,15.8C-409.2,376.8-404.1,367.2-396.6,367.2C-396.7,367.3-397.6,367.2-396.6,367.2z M-419.4,388.8
		C-420.6,398.4-423.6,393.4-419.4,388.8C-419.6,390.4-420.2,389.7-419.4,388.8z M-471.3,440.7C-485.7,458.1-471.3,441.5-471.3,440.7
		C-473.2,443-471.3,440.6-471.3,440.7z M-478.8,444C-482.5,450.6-479.1,444.5-478.8,444C-479.3,444.9-478.8,444-478.8,444z
		 M-481.1,442c-0.1-2.6,0.9-4.9,3.1-6.9C-479.1,437.5-480.1,439.8-481.1,442C-481.1,441.8-480.1,439.8-481.1,442z M-483.2,435.6
		c0.3-2.6,2.1-5.7,2.9-8C-481.3,430.3-482.3,433-483.2,435.6z M-487.1,422.7c-4.6,32.5,1.5-22,2.4-31
		C-485.6,402.5-486.5,413-487.1,422.7C-487.6,426.2-486.5,413-487.1,422.7z M-506.7,305c1,18,2.2,38.2,3.6,58.4
		C-505.9,344-507.1,324.5-506.7,305C-505.7,323-506.1,318.2-506.7,305z M-503.8,429C-501.8,440.2-503.8,431.4-503.8,429
		C-503.5,430.7-503.8,429.8-503.8,429z M-506.5,434C-503.6,439.8-515.1,426.3-506.5,434C-506.4,434.2-507.4,433.2-506.5,434z
		 M-608,431.3C-602.4,448.5-608.6,431-608,431.3C-608,431.3-608.3,431.2-608,431.3z M-611.5,430.2
		C-610.1,447.4-614.2,429.4-611.5,430.2C-611.5,430.2-612.5,429.9-611.5,430.2z M-615.5,434.2C-622.4,429.2-623.2,422.8-615.5,434.2
		C-616.2,433.7-615.5,434.2-615.5,434.2z M-634.9,423.5c4.2,2.8,1.5,2.2-8.2-1.8C-641,421.2-638,421.3-634.9,423.5
		C-634.4,423.9-638,421.3-634.9,423.5z M-649.9,428.5c12.7,0.5,24.2,4.1,34.3,10.8C-620.4,437.9-662.4,431.9-649.9,428.5
		C-640.1,431.6-651.7,429-649.9,428.5z M-659.7,433.6c3.7,0.6,42.1,3.3,48.9,8.8C-619.6,441.2-670.7,442.4-659.7,433.6
		C-640.8,436.7-661.2,434.8-659.7,433.6z M-629.2,442.2c-12.6-0.3-25.1-0.5-37.7-0.8C-659.7,430.4-647.1,430.7-629.2,442.2
		C-640.2,441.8-640,441.6-629.2,442.2z M-670.2,446.4c10.9,0,22.3-0.1,33.3-0.4C-666.5,458.3-677.6,458.4-670.2,446.4
		C-659.3,446.4-670.7,447.2-670.2,446.4z M-674.2,454.2c12.8-1.1,60.9-14,72.1-5.8C-605.2,448.3-674.4,454.6-674.2,454.2
		C-651.7,452.2-674.6,455.1-674.2,454.2z M-676.5,460.3c11.2-1.6,22.5-3.2,33.7-4.8C-671,473.8-682.2,475.4-676.5,460.3
		C-665.5,458.8-676.9,461.8-676.5,460.3z M-678.5,467.9c19-4.4,65.2-27.7,81.9-15.4C-610.3,453.2-678.8,469.4-678.5,467.9
		C-652.4,461.9-678.8,469.4-678.5,467.9z M-680.4,476.8c11.6-3.2,23.3-6.5,34.9-9.7C-674.2,491.8-685.9,495.1-680.4,476.8
		C-669.1,473.7-680.9,479.3-680.4,476.8z M-616.7,468.4c7.3-5.1,15-9.4,23.1-13c-4.6,1.1-4.9,0.6-0.9-1.4
		C-587.3,459.4-613.2,466.4-616.7,468.4C-613.5,466.3-610.2,464.7-616.7,468.4z M-591.3,457.7C-590.5,457.4-589.4,457.2-591.3,457.7
		C-591.3,457.7-590.9,457.6-591.3,457.7z M-587.1,459.9C-585.5,460.9-589.4,462.1-587.1,459.9C-586.8,460.1-587.4,460.2-587.1,459.9
		z M-598.8,473.4c2-2.4,9.1-11.6,11.9-11.6C-590.9,465.6-594.8,469.5-598.8,473.4C-597.8,472.2-595.5,470-598.8,473.4z M-585,461.7
		L-585,461.7C-584.9,461.7-585,461.7-585,461.7z M-584,462.8L-584,462.8C-583.9,462.8-584,462.8-584,462.8z M-584.3,470.4
		c1.2,14.9-9.2,29.8-9.4,45c3.5-8.7,6.5-17.6,9-26.7c1.3,8.9,2.5,17.8,3.8,26.7c-0.4-9.9-0.8-19.8-1.2-29.7
		c3,14.7,8.1,28.7,15.2,41.9c-6.3-2.1-12.5-4.1-18.8-6.2c6.2,2.9,12.4,5.7,18.7,8.4c-14.9,10.7,1,0.5-43.6-5
		C-600.1,507.5-591.3,489.4-584.3,470.4C-584.2,471.6-591.6,492.1-584.3,470.4z M-568.1,535.7c7.7,1.9,15.5,3.7,23.2,5.6
		C-544.9,541.3-581.3,545.1-568.1,535.7C-559.9,537.7-569.5,536.7-568.1,535.7z M-573.9,540.8C-571.8,541-571.8,541-573.9,540.8
		C-573.4,540.9-573.9,540.8-573.9,540.8z M-577.3,545.1c10.4,0.7,20.8,1.4,31.2,2.1C-546.1,541.1-585.8,556.5-577.3,545.1
		C-567,546-577.9,545.9-577.3,545.1z M-581.1,551.3c3.5,0,7.1-0.1,10.7-0.1C-580.2,555.3-583.7,555.4-581.1,551.3
		C-577.6,551.3-581.3,551.6-581.1,551.3z M-582.9,555.3c12-0.9,23.9-1.8,35.9-2.7C-547,542.3-591.2,576-582.9,555.3
		C-571,554.5-583.5,556.8-582.9,555.3z M-585.3,562c3.3-0.5,6.7-1,10.3-1.5C-583.4,565.8-586.8,566.3-585.3,562
		C-582,561.5-585.4,562.3-585.3,562z M-586.6,566.3c9.2-1.7,18.4-3.4,27.6-5.1C-582.7,578.2-591.9,579.9-586.6,566.3
		C-577.7,564.7-587.1,568.1-586.6,566.3z M-535.9,558.3C-523.7,554.6-532.4,557.8-535.9,558.3C-533.2,557.5-535.9,558.3-535.9,558.3
		z M-515.2,560.5C-519.6,561.1-515.9,559.4-515.2,560.5C-515.9,560.6-515.4,560.2-515.2,560.5z M-517.8,563
		C-516.4,564.3-524.1,568.4-517.8,563C-517.6,563.2-518.5,563.6-517.8,563z M-515,567.7C-512.5,564.3-503.8,572.6-515,567.7
		C-514.7,567.3-513.4,568.4-515,567.7z M-507.5,573.6C-507.2,573.8-506.9,576-507.5,573.6C-507.4,573.7-507.4,574-507.5,573.6z
		 M-498.4,618c-2.6-12.3-2.7-21.3,4-32.6C-493.5,592.7-492.5,612.8-498.4,618C-499.3,613.7-497.6,617.3-498.4,618z M-492.1,613
		c-0.5-8.9-1.1-17.9-1.6-26.8c5.8,6.2,9.1,13.6,9.9,22.3c-5.9,2.6-6.2-16.3-8.4-20.1C-491.9,592.7-489.3,611.3-492.1,613
		C-492.6,602.6-491.6,612.7-492.1,613z M-482.9,611.4c5.5,15.4,2.4,7.2,4.4,11.2c-7,1.5-3,0.1-4.3,1.4
		C-485,620-487.3,612.8-482.9,611.4C-481.8,614.5-483.8,611.7-482.9,611.4z M-481.9,627.1C-479.6,628.6-479.2,629.7-481.9,627.1
		C-481.6,627.3-481.9,627.1-481.9,627.1z M-470.3,689.4C-469.6,688.3-469.3,688.5-470.3,689.4C-470.1,689.1-470.3,689.4-470.3,689.4
		z M-470.3,704.9c0.3,6.5,5.5,8-2.5,15.4C-468.6,715.2-467.8,710.1-470.3,704.9z M-477.9,750.6c4.2-5,5-10.1,2.5-15.4
		C-469.7,741.2-475.5,743.9-477.9,750.6z M-484.3,781.4c4.2-5,5-10.1,2.5-15.3C-476.1,772-481.9,774.7-484.3,781.4z M-481,783.8
		c4.2-5,5-10.1,2.5-15.4c12.8,14.2,10.6,7.1,7.1,27.8c4.7-4.4,6.2-9.3,4.4-14.9c-0.3,5-2.4,8.7-6.3,11.1c4.3-4.3,5.5-9.1,3.8-14.4
		c0,5-1.9,8.8-5.6,11.4c4.1-4.7,5-9.7,2.7-15c0.1,5.2-1.8,9.1-5.6,11.7C-468.4,775.5-470.9,770.2-481,783.8z M-480.8,815.9
		c4.2-5,5-10.1,2.5-15.4C-472.6,806.5-478.4,809.2-480.8,815.9z M-477.5,818.2c4.2-5,5-10.1,2.5-15.3c12.8,14.2,10.6,7,7.1,27.8
		c4.7-4.4,6.2-9.3,4.4-14.9c-0.3,5-2.4,8.7-6.3,11.1c4.3-4.3,5.5-9.1,3.8-14.4c0,5-1.9,8.8-5.6,11.4c4.1-4.7,5-9.7,2.6-15
		c0.1,5.2-1.8,9.1-5.6,11.7C-465.2,810.1-467.4,804.5-477.5,818.2z M-460.3,819.5c0,0,2.2,10.1-6.1,15.5
		C-466.4,835.1-460.7,830.4-460.3,819.5z M-484.3,855.4c4.5-5.4,5.4-11,2.7-16.7C-475.5,845.2-481.8,848.2-484.3,855.4z
		 M-465.6,855.5c-3.9,27.5-1.6,0-2.7-3.6c0,5.4-2.1,9.5-6.1,12.3c4.4-5.1,5.4-10.6,2.9-16.3c0,5.6-2,9.8-6.2,12.6
		c4.2-4.8,5.3-10.1,3.2-15.7c0.1,5.8-1.9,10.2-6.2,13.1c4.5-5.4,5.4-11,2.7-16.7c12.7,17.1,11.8,5.8,7.6,30.3
		C-465.3,866.8-463.7,861.5-465.6,855.5C-467,865.4-465.1,856.8-465.6,855.5z M-462,859.4c0,0,2.4,11-6.7,16.9
		C-468.7,876.3-462.4,871.3-462,859.4z M-468.1,881.9c0,0,9.6-5,7.2-21.3C-460.8,860.6-454.9,876.3-468.1,881.9z M-465.9,840.1
		c0,0,8.8-4.6,6.6-19.6C-459.2,820.6-453.7,835-465.9,840.1z M-463,774.8c0,0,8.8-4.6,6.6-19.6C-456.4,755.3-450.9,769.8-463,774.8z
		 M-457.9,744.6C-447.9,736.2-456.3,743.8-457.9,744.6C-457.9,744.6-455.9,743.7-457.9,744.6z M-433.6,718.4
		c-5.9,13.9,1.4,20.6,1.4,20.6C-442.6,731-433.6,718.4-433.6,718.4z M-430.2,752c-4,12.9,3.7,18.1,3.7,18.1
		C-437.2,763.9-430.2,752-430.2,752z M-431,822.5c-1.9,13.5,6,17.7,6,17.7C-435.9,835.5-431,822.5-431,822.5z M-428.6,857.1
		c-2.4,16.3,7.2,21.3,7.2,21.3C-434.6,872.8-428.6,857.1-428.6,857.1z M-427.4,855.9c0.4,11.8,6.6,16.9,6.6,16.9
		C-429.8,867-427.4,855.9-427.4,855.9z M-414.9,841.4c-2.2,5.6-1.1,10.9,3.2,15.7c-4.2-2.8-6.2-7-6.2-12.6
		c-2.5,5.7-1.5,11.1,2.9,16.2c-4-2.8-6.1-6.9-6.1-12.3c-1.8,5.8-0.4,11,4.2,15.6c-4.2-2.5-6.5-6.5-6.9-12c-1.9,6-0.3,11.4,4.8,16.1
		c-4.1-23.4-4.3-13.4,7.7-30.3c-2.7,5.7-1.8,11.3,2.7,16.7C-413,851.6-415.1,847.2-414.9,841.4C-415.9,843.8-414.3,852-414.9,841.4z
		 M-407.8,835.2c-2.7,5.7-1.8,11.3,2.7,16.7C-412.3,844.9-408,839.7-407.8,835.2z M-413.6,768.8c-2.3,4-5.8,14.9-5.3,4.8
		c-2.7,5-5.8,8.8-2.9,13c-7.9-11.3,6.1-14.6,11.2-19.9C-410.5,772.5-415.3,791.7-413.6,768.8C-414.6,770.5-414.2,776.9-413.6,768.8z
		 M-407.7,764.9C-410,782.5-409.1,775.6-407.7,764.9L-407.7,764.9z M-409.5,750.7c-1.3-6.2-6.5-9.3-0.3-13.8
		C-412.8,741.1-412.7,745.7-409.5,750.7z M-410.1,703.8C-416,708.5-413,706.1-410.1,703.8L-410.1,703.8z M-408,617.7
		C-417.5,616.7-413.3,613.2-408,617.7C-409.9,617.5-409.2,616.7-408,617.7z M-414.9,609.4C-418.1,606.7-411.9,606.9-414.9,609.4
		C-415.5,608.9-414.3,608.9-414.9,609.4z M-408.9,603.9C-440.5,608.4-407.4,602.3-408.9,603.9C-413.1,604.5-408.5,603.5-408.9,603.9
		z M-400.9,596.6c-4.8,1.3-9.6,2.6-14.1,3.9C-400.2,593.2-395.5,591.9-400.9,596.6C-405.7,597.9-400.5,596.2-400.9,596.6z
		 M-394.8,591c-10.9,12.4-21.7,16.4-32.4,12C-390,581.8-379.2,577.8-394.8,591C-406.8,595.3-393.1,589.5-394.8,591z M-381.5,579.1
		c-5.4,2.5-10.9,5.1-16.3,7.7C-375.9,572.6-370.5,570-381.5,579.1C-386.9,581.6-380,577.7-381.5,579.1z M-387.8,570.4
		c-12.6,8.6-25,17.3-35.1,24.8C-420,592.9-390.3,565.9-387.8,570.4C-400.4,579-388.2,569.7-387.8,570.4z M-377.9,553.4
		c-6.4,10.8-10.1,13.4-11.1,7.8C-385.3,551.5-381.6,548.9-377.9,553.4z M-388.1,543.9C-399.1,557-388.6,544.3-388.1,543.9
		C-389.6,545.7-388.1,543.9-388.1,543.9z M-379.6,525.9c-0.3,0.5,23.6-36.2,26.9-34.5c1.8-1.9-3.5-7.2,6.1-4.2
		C-357.7,499.9-368.7,512.8-379.6,525.9C-370.1,513.1-365.7,509.3-379.6,525.9z M-342.7,482.5C-347.5,487.8-354.7,485.1-342.7,482.5
		C-343.5,483.4-342.7,482.5-342.7,482.5z M-351.9,483.9C-366.2,477.1-345,474.6-351.9,483.9C-353.6,483.1-350.7,482.3-351.9,483.9z
		 M-356,477.2c-2.5,5.9-6.6,5.5-12.3-1.1C-365.6,470.2-361.3,476-356,477.2z M-366.4,470.3C-388.2,461-365.2,468.2-366.4,470.3
		C-369.7,468.9-366,469.6-366.4,470.3z M-385.8,459.1C-399.7,455.1-385,457-385.8,459.1C-387.2,458.7-385.6,458.6-385.8,459.1z
		 M-426.8,444.8c-2.2,1.6-3.3,1.8-3.2,0.6C-431.6,444.6-431.1,443.6-426.8,444.8C-427.9,445-428.3,444.4-426.8,444.8z"/>
	<path class="st0" d="M-482,646.9c-1.3,1.8-2.5,3.6-3.7,5.5C-485.7,652.4-484.3,650.3-482,646.9z"/>
</g>
</svg>
