<?xml version="1.0" encoding="utf-8"?>
<!-- Generator: Adobe Illustrator 19.0.0, SVG Export Plug-In . SVG Version: 6.00 Build 0)  -->
<svg version="1.1" id="Layer_1" xmlns:sketch="http://www.bohemiancoding.com/sketch/ns"
	 xmlns="http://www.w3.org/2000/svg" xmlns:xlink="http://www.w3.org/1999/xlink" x="0px" y="0px" viewBox="-181 238.9 233 365"
	 style="enable-background:new -181 238.9 233 365;" xml:space="preserve">
<style type="text/css">
	.st0{fill:#FFFFFF;}
</style>
<title>shrub</title>
<desc>Created with Sketch.</desc>
<g id="Page-1" sketch:type="MSPage">
	<g id="Discovery" transform="translate(-1076.000000, -472.000000)" sketch:type="MSArtboardGroup">
		<g id="header" transform="translate(-12.000000, 0.000000)" sketch:type="MSLayerGroup">
			<g id="plants" transform="translate(0.000000, 89.000000)" sketch:type="MSShapeGroup">
				
					<g id="shrub" transform="translate(1206.000000, 568.000000) scale(-1, 1) translate(-1206.000000, -568.000000) translate(1088.000000, 383.000000)">
					<path id="Fill-1" class="st0" d="M234,365.9c8-2.3,24.1,54.8,23,55C258.9,420.4,236.8,364.3,234,365.9"/>
					<path id="Fill-2" class="st0" d="M228,374.9c5.1-2.2,26.2,41.9,26,42C254.1,416.8,229,374.1,228,374.9"/>
					<path id="Fill-3" class="st0" d="M217,371.9c6,2.3,34.7,39,33,40C251.9,410.3,217.2,371.6,217,371.9"/>
					<path id="Fill-4" class="st0" d="M203,380.9c6.2,0.4,44.6,27.2,43,29C247.8,407.4,202.8,381.8,203,380.9"/>
					<path id="Fill-5" class="st0" d="M224,383.9c9,7.2,16.6,15.5,23,25C239.2,400.6,231.6,392.3,224,383.9"/>
					<path id="Fill-6" class="st0" d="M243,367.9c10.6-0.8,12.8,53.3,16,54C262.5,420.9,243.7,367.6,243,367.9"/>
					<path id="Fill-7" class="st0" d="M246,375.9c2.9-1.3,16.6,50.1,14.9,50C260.5,425.9,248.5,375.4,246,375.9"/>
					<path id="Fill-8" class="st0" d="M249,375.9c12.8,0.5,8.6,51.1,15,54C268.3,424.8,247.6,376.6,249,375.9"/>
					<path id="Fill-9" class="st0" d="M254,368.9c6.1,0,13.3,63.9,13,64C267.5,432.8,255.3,368.6,254,368.9"/>
					<path id="Fill-10" class="st0" d="M257,374.9c3.9-0.7,13.5,59.8,11,60C269.3,434.7,258.6,374.6,257,374.9"/>
					<path id="Fill-11" class="st0" d="M262,384.9c6.1,0.8,9,50.6,6.5,51C272,435.2,262.4,384.8,262,384.9"/>
					<path id="Fill-12" class="st0" d="M278,375.9c5.5,0,3.7,78.1,0,78C276.8,453.5,283.5,375.6,278,375.9"/>
					<path id="Fill-13" class="st0" d="M284,411.9c-1.1,14.1-3.1,28.2-6,42C279.1,439.8,281.1,425.7,284,411.9"/>
					<path id="Fill-14" class="st0" d="M284.6,392.9c-1.3,0.1,2.8,64.9-2.6,66C277.8,457.2,288.3,393.2,284.6,392.9"/>
					<path id="Fill-15" class="st0" d="M288.8,389.9c10.9,2.9-7,71.9-6.8,72C282.3,462,295.3,390.3,288.8,389.9"/>
					<path id="Fill-16" class="st0" d="M293.5,404.9c0,7-9.7,54.8-8.5,56C290.6,459.9,293.2,411.4,293.5,404.9"/>
					<path id="Fill-17" class="st0" d="M195,385.9c1.4-3.4,52.6,18.2,51,22C246.8,406.7,195.4,384.3,195,385.9"/>
					<path id="Fill-18" class="st0" d="M203,399.9c1.4-3.8,53.3,15.4,52,19C255.7,417.7,203.4,398.1,203,399.9"/>
					<path id="Fill-19" class="st0" d="M199,389.9c1.4-3.9,55.3,18.7,53,23C253.4,409.9,199.9,387.7,199,389.9"/>
					<path id="Fill-20" class="st0" d="M200,393.9c1.6-4,54.9,18,53,22C254.1,413.7,200.9,391.6,200,393.9"/>
					<path id="Fill-21" class="st0" d="M206,402.9c0.2-0.8,51,12.5,50,16C255.6,419.6,206.2,402,206,402.9"/>
					<path id="Fill-22" class="st0" d="M207,406.9c-0.6,1.8,54,14.9,54,19C260.5,426.8,206.7,409.3,207,406.9"/>
					<path id="Fill-23" class="st0" d="M208,409.9c-0.4,1.6,55.3,11.6,55,19C263.2,428.4,208.5,408.8,208,409.9"/>
					<path id="Fill-24" class="st0" d="M212,413.9c-0.1,2.1,55.2,14.5,54,19C264.7,435.6,213.4,411.5,212,413.9"/>
					<path id="Fill-25" class="st0" d="M253,443.9c7,7.1,17.1,12.2,27,15C280,458.9,268.6,451.9,253,443.9"/>
					<path id="Fill-26" class="st0" d="M258.6,450.3c12.5,6.7,21.5,11.3,21.4,11.5C277.8,464.1,245.2,432.1,258.6,450.3"/>
					<path id="Fill-27" class="st0" d="M220,419.9c7.9-6.7,58.6,41.1,61,39C283,454.5,218.6,425.3,220,419.9"/>
					<path id="Fill-28" class="st0" d="M261,453.9c3.5,7.5,10.2,11.5,20,12C281.6,465.9,273,460,261,453.9"/>
					<path id="Fill-29" class="st0" d="M264,459.9c2.8,7.2,9.2,10.5,19,10C276.8,466.3,270.5,463,264,459.9"/>
					<path id="Fill-30" class="st0" d="M267,464.9c2.2,7.2,8.2,10.5,18,10C279.1,471.4,273.1,468,267,464.9"/>
					<path id="Fill-31" class="st0" d="M267,466.9c0.9,2.4,18.1,14.9,20,13C287,479.9,279,474.2,267,466.9"/>
					<path id="Fill-32" class="st0" d="M269,471.9c1.3,6.6,6.6,9.6,16,9C279.7,477.9,274.3,474.9,269,471.9"/>
					<path id="Fill-33" class="st0" d="M270,475.9c1.1,7.5,7.1,10.8,18,10C282.5,481.7,276.5,478.4,270,475.9"/>
					<path id="Fill-34" class="st0" d="M271.7,482.7c5.4,2.4,10.9,4.8,16.3,7.2C286.2,491.7,269.7,473.1,271.7,482.7"/>
					<path id="Fill-35" class="st0" d="M272,481.9c0.8,3.6,16.8,10.9,17,9.8C283.4,488.4,277.7,485.1,272,481.9"/>
					<path id="Fill-36" class="st0" d="M273,487.9c0.2,1.3,10.2,62.1,18,8C285.1,493,279.1,490.3,273,487.9"/>
					<path id="Fill-37" class="st0" d="M274,494.9c0,6.4,5,8.4,15,6C284,498.9,279,496.9,274,494.9"/>
					<path id="Fill-38" class="st0" d="M275,499.9c0,6.3,5,8.3,15,6C285,503.9,280,501.9,275,499.9"/>
					<path id="Fill-39" class="st0" d="M275,503.9c0.1,5.8,4.7,7.8,14,6C284.3,507.9,279.7,505.9,275,503.9"/>
					<path id="Fill-40" class="st0" d="M282,465.9c-1.4-1.2,23.9-61,24-61C307.2,405.5,288.8,466.8,282,465.9"/>
					<path id="Fill-41" class="st0" d="M285,474.9c0-7.1,24.8-66.1,25-66C312.6,409.8,289,469.2,285,474.9"/>
					<path id="Fill-42" class="st0" d="M286,478.9c0-6.6,19.2-53,25-53C305.6,440,286,464.9,286,478.9"/>
					<path id="Fill-43" class="st0" d="M288,485.9c-1.2-0.4,29.4-68.9,31-68C320.9,418.6,288.5,486.2,288,485.9"/>
					<path id="Fill-44" class="st0" d="M287,490.9c6.8-6.7,33-44.4,33-53C320,453.5,296.3,479.1,287,490.9"/>
					<path id="Fill-45" class="st0" d="M289,488.9c-0.5-0.4,33.5-48.7,36-47C326.9,443.4,289.9,489.7,289,488.9"/>
					<path id="Fill-46" class="st0" d="M290,513.9c-0.7-0.4,26.3-53.3,29-52C321.3,463.3,290.7,514.4,290,513.9"/>
					<path id="Fill-47" class="st0" d="M289,496.9c-2.3-1.4,40.9-53,40-54C330,443.3,290.9,498.6,289,496.9"/>
					<path id="Fill-48" class="st0" d="M288,503.9c-1.7-0.4,34.6-42.6,35-46C319.5,461,288,503.8,288,503.9"/>
					<path id="Fill-49" class="st0" d="M290,506.9c-1.2-0.3,34.1-42.3,35-46C321.5,464,290,506.9,290,506.9"/>
					<path id="Fill-50" class="st0" d="M283,539.9c-2.5-1.2,35.2-72.5,38-71C322.2,469.6,283.1,539.9,283,539.9"/>
					<path id="Fill-51" class="st0" d="M284,537.9c9.1,1.4,27.7-70.1,41-68C327.5,471.1,282.7,536,284,537.9"/>
					<path id="Fill-52" class="st0" d="M282,544.9c-0.7-0.3,41.5-66.5,41-67C323.9,478.2,285.1,547.3,282,544.9"/>
					<path id="Fill-53" class="st0" d="M286,543.9c2.5-5,30.3-49.2,32-48C321,498.1,289.4,539.4,286,543.9"/>
					<path id="Fill-54" class="st0" d="M283,552.9c2.6,0,33.1-51.9,35.9-50C323.5,505.1,281.6,550.9,283,552.9"/>
					<path id="Fill-55" class="st0" d="M281,555.9c-3.5-2.9,34-36.1,33-40C311.6,515.9,284.8,559.3,281,555.9"/>
					<path id="Fill-56" class="st0" d="M278,563.9c3.6,1.3,25.2-38.4,32-35C312.4,536.2,276,559.6,278,563.9"/>
					<path id="Fill-57" class="st0" d="M281,565.9c2-1.8,21.5-30.6,23-25C296.9,549.7,289.2,558.1,281,565.9"/>
					<path id="Fill-58" class="st0" d="M282.9,381.9c2.9,1-1.8,66.4-5.9,68C273.6,448.2,280.9,382.3,282.9,381.9"/>
					<path id="Fill-59" class="st0" d="M267,384.9c5.5,4.4,4.5,57,3.9,57C271.9,441.8,263.5,387.7,267,384.9"/>
					<path id="Fill-60" class="st0" d="M211,402.9c1.2,4.1,62.7,51.7,66.4,52C257.2,453.9,230.3,400.5,211,402.9"/>
					<path id="Fill-61" class="st0" d="M229,402.9c4.1,4.1,47.9,45,46,46C275.2,448.6,233.4,407.3,229,402.9"/>
					<path id="Fill-62" class="st0" d="M223,403.9c0.5-0.7,52.8,45.1,53,45C275.9,449,220.3,406.1,223,403.9"/>
					<path id="Fill-63" class="st0" d="M298,552.9c1.5,1.5-23.8,28.4-25,27C272.7,579.5,295.6,551.1,298,552.9"/>
					<path id="Fill-64" class="st0" d="M285.8,570.3c-4.5,4.8-10.3,14.1-14.8,20.6c4.8-2.5,32.9-40.3,35-39
						C306.1,552,296.1,559.2,285.8,570.3"/>
					<path id="Fill-65" class="st0" d="M289.8,571.7c-6.7,7-12.9,16-19.8,23.1c5.7-2.6,43.1-44.8,44-44
						C314.1,551,302.2,559.1,289.8,571.7"/>
					<path id="Fill-66" class="st0" d="M273.5,384.9c-1.3,5.2,0.6,61,0.5,61C261.5,439.5,276.4,396,273.5,384.9"/>
					<path id="Fill-67" class="st0" d="M277.6,386.9c-1.4,5.6,0.4,60.8-1,61C263.7,440.4,281,398.7,277.6,386.9"/>
					<path id="Fill-68" class="st0" d="M231,364.9c-0.5,0.6,29.5,54.2,26.9,55C255.5,421.5,231.9,364.7,231,364.9"/>
					<path id="Fill-69" class="st0" d="M287.2,579.6c-5.5,3.7-11.4,10.9-17.2,15.3c4.8-0.5,37.7-26.9,37-28
						C300.1,570.6,293.5,574.8,287.2,579.6"/>
					<path id="Fill-70" class="st0" d="M283.7,465.8c-16.4-42.9-51.2-75.2-88.7-98.9c95,62.9,90.9,132.1,74,232
						C289.7,563,299,504.9,283.7,465.8"/>
					<path id="Fill-71" class="st0" d="M387,406.9c-5.5-4.6-38.9,34.3-38,35C347.8,440.9,385.2,404.5,387,406.9"/>
					<path id="Fill-72" class="st0" d="M387,414.9c-4.4-3.9-34.3,25.6-35,25C352.2,440,386.5,413.9,387,414.9"/>
					<path id="Fill-73" class="st0" d="M398,415.9c-5.8,0-41.6,20.3-41,21C355.7,434.8,398,416.9,398,415.9"/>
					<path id="Fill-74" class="st0" d="M387,423.9c-9.6,2.6-18.6,6.6-27,12C369,432,378,428,387,423.9"/>
					<path id="Fill-75" class="st0" d="M378,403.9c-8.1-4.3-28.2,39.4-31,39C343.9,440.4,378.2,404.1,378,403.9"/>
					<path id="Fill-76" class="st0" d="M373,408.9c-2.2-2.2-31.4,35.5-30,36C342.3,444.5,372.5,408.4,373,408.9"/>
					<path id="Fill-77" class="st0" d="M371,407.9c-10.3-4.2-25.1,39-31,39C339.2,440.5,372,409.2,371,407.9"/>
					<path id="Fill-78" class="st0" d="M368,400.9c-4.7-2.1-32.2,46.8-32,47C335.2,447.3,367.7,400.6,368,400.9"/>
					<path id="Fill-79" class="st0" d="M364,404.9c-2.4-1.6-31.4,43.7-29,45C333.6,449,363.2,404.4,364,404.9"/>
					<path id="Fill-80" class="st0" d="M356,410.9c-5-1.4-25.2,37.5-23,39C330.1,447.8,356.1,411,356,410.9"/>
					<path id="Fill-81" class="st0" d="M347,398.9c-5.1-2.1-29.8,62-27,63C321.3,462,342.5,396.6,347,398.9"/>
					<path id="Fill-82" class="st0" d="M330,425.9c-4.1,11.8-7.5,23.8-10,36C324.1,450.1,327.5,438.1,330,425.9"/>
					<path id="Fill-83" class="st0" d="M335,409.9c1.3,0.7-24.2,50.8-20,54C319.2,463.9,331.7,408.9,335,409.9"/>
					<path id="Fill-84" class="st0" d="M333,406.9c-10.1-1.3-19.3,61.1-19.8,61C313.4,467.9,327.1,405,333,406.9"/>
					<path id="Fill-85" class="st0" d="M324,416.9c-3,6.1-10,47.2-12,48C305.6,460.8,327.7,420.6,324,416.9"/>
					<path id="Fill-86" class="st0" d="M411,435.3c0-3.2-49-3.2-49,0.2C361.8,434.3,411.2,434,411,435.3"/>
					<path id="Fill-87" class="st0" d="M406,437.6c0.2-3.5-51.4-3.3-51,0.9C354.9,435.5,406.1,435.8,406,437.6"/>
					<path id="Fill-88" class="st0" d="M404,439.9c0-3.8-51.1-3.9-51-0.1C352.9,437.6,404.1,437.8,404,439.9"/>
					<path id="Fill-89" class="st0" d="M395,444.8c0.1-0.8-45.7-6.6-46-3.6C349,441.5,395.1,444.3,395,444.8"/>
					<path id="Fill-90" class="st0" d="M393,447.8c0-1.4-50-2.6-50-2.9C343,445,392.2,450.5,393,447.8"/>
					<path id="Fill-91" class="st0" d="M391,449.9c-0.5,2.2-48.5-9.7-51-3.1C340,445.9,391,449.3,391,449.9"/>
					<path id="Fill-92" class="st0" d="M387,452.3c-1.1,2.3-49.5-7.7-50-3.3C337.3,452.2,386.4,449.3,387,452.3"/>
					<path id="Fill-93" class="st0" d="M382,460.9c-21.7-0.3-43.5,1-65,3.9C338.7,465,360.5,463.8,382,460.9"/>
					<path id="Fill-94" class="st0" d="M378,461.2c-4.9-8.6-61.7,9.8-63,6.7C315.2,463.6,377,466,378,461.2"/>
					<path id="Fill-95" class="st0" d="M376,466.9c-0.7,1.6-56.2,3.5-61.8,3.3C322.9,470.6,372.2,462.5,376,466.9"/>
					<path id="Fill-96" class="st0" d="M373,473c-0.1,0.2-63.7-3.7-63,0C310,474.6,372.7,471.7,373,473"/>
					<path id="Fill-97" class="st0" d="M364,474.6c-0.7,2.4-55.1-3.8-56,2.2C308.5,480.5,363.7,472.9,364,474.6"/>
					<path id="Fill-98" class="st0" d="M373,470.9c-0.9-2.4-68.6,4.8-69,8C305,481,372.3,473.9,373,470.9"/>
					<path id="Fill-99" class="st0" d="M369,480.2c0.4-2.3-61.1,2.4-64,0.1C307,477.4,369.6,484.4,369,480.2"/>
					<path id="Fill-100" class="st0" d="M363,483c-5.7,0-62.5-1.5-62,1.2C301,485,357.1,483,363,483"/>
					<path id="Fill-101" class="st0" d="M354,488.3c0.2-5.5-54.8-1.1-55-1.5C299.4,484.4,353.9,490.2,354,488.3"/>
					<path id="Fill-102" class="st0" d="M334,488.8c-0.3-4-36.1-0.8-36,0.2C298.1,488.6,333.9,490.3,334,488.8"/>
					<path id="Fill-103" class="st0" d="M369,493.6c0-4-73.7-0.4-74-2.6C295.2,490.2,368.8,497.3,369,493.6"/>
					<path id="Fill-104" class="st0" d="M355,499.4c-7.8-11.1-50.4,4.6-60-4.5C303.5,486.8,342.4,508.4,355,499.4"/>
					<path id="Fill-105" class="st0" d="M350,504c0.2-2.3-51.5-4.1-57-4.1C298.4,500.8,349.8,506.5,350,504"/>
					<path id="Fill-106" class="st0" d="M364,510.9c-2,4.1-67.9-16.1-72-6.8C293.6,511,363.5,505.1,364,510.9"/>
					<path id="Fill-107" class="st0" d="M358,512.9c-1.8,3.8-60.8-16.4-67-5.6C291.2,509.2,357.9,508.9,358,512.9"/>
					<path id="Fill-108" class="st0" d="M364,518.9c-0.3,0.3-73.5-9.1-73-7.7C291.4,510.3,363.6,517.4,364,518.9"/>
					<path id="Fill-109" class="st0" d="M354,521.9c0.2-0.4-66.3-9.1-66-7.8C288.6,512.8,354.1,522.9,354,521.9"/>
					<path id="Fill-110" class="st0" d="M362,530.9c-4.3,2.6-73.8-19.4-75-12C288.8,529.6,357.1,520.2,362,530.9"/>
					<path id="Fill-111" class="st0" d="M354,530.9c0.5-1.4-67.7-4.7-68-5.3C286,525.6,354.2,531.7,354,530.9"/>
					<path id="Fill-112" class="st0" d="M312.2,469.9c2.5-1.1,0.1-58.1,1-58C312.6,411.9,306,468.1,312.2,469.9"/>
					<path id="Fill-113" class="st0" d="M306.5,475.9c1.6-5.9,2.9-62,2.1-62C306.5,413.7,305,469.9,306.5,475.9"/>
					<path id="Fill-114" class="st0" d="M305.7,453.8c-0.7-7.6-1.3-15.3-2-22.9c-0.5,6,3.2,48.1,1.5,49
						C305.2,479.9,306.1,468.2,305.7,453.8"/>
					<path id="Fill-115" class="st0" d="M300.5,467.9c-2.2,5.1-2.5,10.4-0.7,16C300,478.6,300.3,473.2,300.5,467.9"/>
					<path id="Fill-116" class="st0" d="M298,477.8C304.2,507.3,301.3,470.4,298,477.8"/>
					<path id="Fill-117" class="st0" d="M292,486.7C300.8,513.9,294,484.3,292,486.7"/>
					<path id="Fill-118" class="st0" d="M285,515.9c1,8.5,1.9,14,1.5,14C284.2,530,290.3,489.1,285,515.9"/>
					<path id="Fill-119" class="st0" d="M285,518C290.4,546.4,288,505.3,285,518"/>
					<path id="Fill-120" class="st0" d="M278,541.7C288.6,570.1,280.3,530.6,278,541.7"/>
					<path id="Fill-121" class="st0" d="M340,401.9c-2.4-0.2-20.9,54.4-18,57C324.8,458.9,341.6,402.9,340,401.9"/>
					<path id="Fill-122" class="st0" d="M352,409.9c-6.1,1.5-23.4,44.8-23,45C328.4,454.6,353.9,413,352,409.9"/>
					<path id="Fill-123" class="st0" d="M392,442.9c-1.7,2.5-68.6,20-71.6,19C335,467,380.7,434.1,392,442.9"/>
					<path id="Fill-124" class="st0" d="M376,436.9c-3.9,2.4-54.8,19.8-53,22C323.1,459,370.9,438.2,376,436.9"/>
					<path id="Fill-125" class="st0" d="M382,439.9c-0.1-0.3-58.2,18.7-58,19C324,458.9,383.5,442.8,382,439.9"/>
					<path id="Fill-126" class="st0" d="M358,527.5c-0.1-0.8-72-1-72,1.6C286.3,525,353.2,535.2,358,527.5"/>
					<path id="Fill-127" class="st0" d="M352,531.2c-0.6-3.2-60.3,0.6-67,1.1C292.1,532.3,351.1,536.7,352,531.2"/>
					<path id="Fill-128" class="st0" d="M337,535.7c0-2.6-48.8,0.6-54,1.2C301,537.8,319.1,537.4,337,535.7"/>
					<path id="Fill-129" class="st0" d="M313,539.1c-10.7-0.3-21.3-0.1-32,0.8C291.7,542.2,302.4,541.9,313,539.1"/>
					<path id="Fill-130" class="st0" d="M346,541.1c-15.3-0.6-51.6,8.9-64,2.8C297.9,551.5,328.7,541.1,346,541.1"/>
					<path id="Fill-131" class="st0" d="M336,547.7c-0.1,0.6-55-3.6-55-0.8C280.7,548.4,336.1,548.2,336,547.7"/>
					<path id="Fill-132" class="st0" d="M338,551.3c-18.9-1.7-38-1.8-57-0.4C299.9,552.6,319,552.7,338,551.3"/>
					<path id="Fill-133" class="st0" d="M306,554.5c-8.7-2.2-17.4-2.1-26,0.5C288.7,555.5,297.3,555.4,306,554.5"/>
					<path id="Fill-134" class="st0" d="M318,556.1c-2-2.4-36.3-2.6-37-0.9C281.9,558.2,315.7,559,318,556.1"/>
					<path id="Fill-135" class="st0" d="M324,564.1c-4.2,0.4-42.8-5.3-43-6.2C280.3,559,320.1,564,324,564.1"/>
					<path id="Fill-136" class="st0" d="M323,571.8c-3.3-2.2-43.2-9.4-43-9.9C278.9,564.6,318.1,572.8,323,571.8"/>
					<path id="Fill-137" class="st0" d="M323,580.9c0.1-0.5-42.7-15.4-43-15C279.1,570.9,322.4,582.8,323,580.9"/>
					<path id="Fill-138" class="st0" d="M276,557.6C286.6,583.8,276.8,538.8,276,557.6"/>
					<path id="Fill-139" class="st0" d="M277.6,570.6c-1.5-12.4-2-12.9-1.6-1.5C277.2,573.8,278.9,583.2,277.6,570.6"/>
					<path id="Fill-140" class="st0" d="M345,408.9c-0.4,4.5-20.8,50.1-21,50C337.5,456.9,337.8,417.6,345,408.9"/>
					<path id="Fill-141" class="st0" d="M390,405.9c0.1,0.4-42.6,33.6-41,35C350.5,443.2,389.2,405.4,390,405.9"/>
					<path id="Fill-142" class="st0" d="M417,419.9c-104.9,19.3-112.9,82.4-139.3,162C266.3,491.4,334.9,433.1,417,419.9"/>
					<path id="Fill-143" class="st0" d="M252.4,534.9c-38.4,65.5,31.2,72.8,79.6,51.7C292.1,595.7,211.5,601.1,252.4,534.9"/>
					<path id="Fill-144" class="st0" d="M285,595.9c0,0-50.2-31.8-69-53C216,542.9,264.3,575.8,285,595.9"/>
					<path id="Fill-145" class="st0" d="M232,537.9c0,0,34.2,41.4,57,57C289,594.9,247.5,551.3,232,537.9"/>
					<path id="Fill-146" class="st0" d="M242,527.9c0,0,24.3,44.6,50,66C292,593.9,257.7,547,242,527.9"/>
					<path id="Fill-147" class="st0" d="M256,520.9c0,0,21,57.1,38,72C294,592.9,268.1,537.9,256,520.9"/>
					<path id="Fill-148" class="st0" d="M270,518.9c0,0,13.4,59.9,28,74L270,518.9"/>
					<path id="Fill-149" class="st0" d="M289.5,522.9c0,0-4.3,51.9,11.5,71C301,593.9,292.1,538.5,289.5,522.9"/>
					<path id="Fill-150" class="st0" d="M296,512.9c0,0,1.2,75.1,6,81L296,512.9"/>
					<path id="Fill-151" class="st0" d="M304.6,535.9c0,0-5.2,53.1-0.8,58C303.8,593.9,305.8,553.8,304.6,535.9"/>
					<path id="Fill-152" class="st0" d="M210,556.9c0,0,71.3,37.1,72,38C282.7,595.8,232.3,572.9,210,556.9"/>
					<path id="Fill-153" class="st0" d="M277,595.9c0,0-28.2-7.9-48-18C229,577.9,260.5,587.2,277,595.9"/>
					<path id="Fill-154" class="st0" d="M285,596.9c0,0-56.8-29.1-79-50C206,546.9,260.9,577.4,285,596.9"/>
					<path id="Fill-155" class="st0" d="M222,539.9c0,0,40.4,40.7,66,55C288,594.9,239.7,552.6,222,539.9"/>
					<path id="Fill-156" class="st0" d="M232,528.9c0,0,30.4,45,60,65C292,593.9,250.6,547.5,232,528.9"/>
					<path id="Fill-157" class="st0" d="M247,519.9c0,0,28.4,58.9,48,73C295,592.9,261.7,536.8,247,519.9"/>
					<path id="Fill-158" class="st0" d="M261,515.9c0,0,20.2,62.4,37,76L261,515.9"/>
					<path id="Fill-159" class="st0" d="M282,517.9c0,0,0.8,55.4,20,74C302,591.9,286.5,534.2,282,517.9"/>
					<path id="Fill-160" class="st0" d="M289,506.9c0,0,9.1,80.2,15,86L289,506.9"/>
					<path id="Fill-161" class="st0" d="M300,530.9c0,0-0.2,57.2,5,62C305,592.9,303.1,549.9,300,530.9"/>
					<path id="Fill-162" class="st0" d="M201,563.9c0,0,80.1,32.1,81,33C282.9,597.7,226.5,578.6,201,563.9"/>
					<path id="Fill-163" class="st0" d="M277,595.9c0,0-30.9-5.4-53-14C224,581.9,258.5,588.4,277,595.9"/>
					<path id="Fill-164" class="st0" d="M253.9,591c26.4,4.7,52.9,1.1,79.1-4.1C311.6,595.9,254.5,590.8,253.9,591"/>
					<path id="Fill-165" class="st0" d="M265.5,597.6C266,605.7,265.4,595,265.5,597.6"/>
					<path id="Fill-166" class="st0" d="M264,603.8c5.6-3.5,7.7-6.8,14-7.9C274,599.7,269.4,602.3,264,603.8"/>
					<path id="Fill-167" class="st0" d="M271,603.6c5.7-4.1,5.8-7.4,13-7.7C280.1,599.3,275.8,601.9,271,603.6"/>
					<path id="Fill-168" class="st0" d="M287.9,594.9l-11.9,9C280.6,601.8,286.8,597.1,287.9,594.9"/>
					<path id="Fill-169" class="st0" d="M290.3,595.4c0,0-13.6,6.6-13.3,7.4C276.3,600.7,305.1,595.3,290.3,595.4"/>
					<path id="Fill-170" class="st0" d="M297.8,593.9c0,0-13.3,8.4-16.8,9C288.2,600.9,297.2,595.2,297.8,593.9"/>
					<path id="Fill-171" class="st0" d="M304.1,594.1c0,0-9.5,6.4-16.1,7.8C293.4,600.6,307.2,591.8,304.1,594.1"/>
					<path id="Fill-172" class="st0" d="M268,596.4c-9.3,0.1-12.3,5.5-19.9-3.5C248.8,593.4,266.4,600.1,268,596.4"/>
					<path id="Fill-173" class="st0" d="M313,591.9c0,0-6.3,8-15,8C302.8,596.8,308,594,313,591.9"/>
					<path id="Fill-174" class="st0" d="M361.4,574.9c-18.6,6.4-37.5,12.2-56.4,17.5C306.9,592.8,367.6,585,361.4,574.9"/>
					<path id="Fill-175" class="st0" d="M300,595.9c-0.9,0.4,28.5-25,54-28C354,567.9,313,589.7,300,595.9"/>
					<path id="Fill-176" class="st0" d="M318,554.9c0,0-3.8,25-11,35C307,589.9,313.7,562,318,554.9"/>
					<path id="Fill-177" class="st0" d="M307,588.9c0,0,7.1-18.7,20-29C327,559.9,309.9,585.2,307,588.9"/>
					<path id="Fill-178" class="st0" d="M327,603.9c0,0-12.7-1.2-22-12L327,603.9"/>
					<path id="Fill-179" class="st0" d="M308,587.9c-0.4,0.1,12.4-10.6,24-16C332,571.9,315.8,585.9,308,587.9"/>
					<path id="Fill-180" class="st0" d="M312,592.3c0,0,29.3,3.9,39,1C351,593.3,320.9,591,312,592.3"/>
					<path id="Fill-181" class="st0" d="M299,590.9c0,0,28.1,10.1,44,12C343,602.9,310.8,593,299,590.9"/>
					<path id="Fill-182" class="st0" d="M323.7,589.7c-2.1,0.3-4,0.7-5.7,1c0,0,26.4,1.8,42-5.8C360,584.9,338,587.4,323.7,589.7"/>
					<path id="Fill-183" class="st0" d="M303,592.9c0,0,11.8-21.8,42-38L303,592.9"/>
					<path id="Fill-184" class="st0" d="M305,593.9c0,0-0.6-32,7-55C312,538.9,312.1,572.5,305,593.9"/>
					<path id="Fill-185" class="st0" d="M283,554.9c-4,16.9-49.8,24.4-64,34C239.4,576,261.5,565.7,283,554.9"/>
					<path id="Fill-186" class="st0" d="M285,544.9c-6.5,4.2-77.7,38.9-78,38C206.4,582,276.7,548.3,285,544.9"/>
					<path id="Fill-187" class="st0" d="M286,537.9c-23.8,13.7-50.4,23.6-77,32C234.1,558.1,260.1,547.8,286,537.9"/>
					<path id="Fill-188" class="st0" d="M188,565.9c2.8,5.8,94.8-33.2,96-31C284.5,537.8,186.4,559.6,188,565.9"/>
					<path id="Fill-189" class="st0" d="M189,555.9c7.9-5.6,93.7-14.6,93-21.6C281.5,529.1,196.8,557.2,189,555.9"/>
					<path id="Fill-190" class="st0" d="M193,551.9c-0.3-1.4,86.1-18.1,86-19.5C279,528.9,191.7,547.8,193,551.9"/>
					<path id="Fill-191" class="st0" d="M184,545.9c0.2-7.2,89.8-5.9,92-15C272,520.5,185.8,549.8,184,545.9"/>
					<path id="Fill-192" class="st0" d="M185,530.1c8.3,0,84.9,0.7,85-2.4C270.1,525.2,193.1,528.1,185,530.1"/>
					<path id="Fill-193" class="st0" d="M200,521.9c-0.1,4.3,63,5.6,63,3.6C263,525.4,200.3,520.1,200,521.9"/>
					<path id="Fill-194" class="st0" d="M282,557.9c-3,12-47.5,27.8-46,31C235.3,588.1,277.8,560.4,282,557.9"/>
					<path id="Fill-195" class="st0" d="M282.1,555.8c-5.1,3.3-56,38.3-58.1,35.1C223.8,590.4,283.6,549.4,282.1,555.8"/>
					<path id="Fill-196" class="st0" d="M284.6,546c-0.1,0.1-64.7,39.3-65.6,37.8C217.9,582.1,285.5,541.4,284.6,546"/>
					<path id="Fill-197" class="st0" d="M279,569.9c-1.1,4.2-34,28.7-36,26C242.7,595.3,259.5,585.1,279,569.9"/>
					<path id="Fill-198" class="st0" d="M276.8,580.3c-11.5,8.9-20.2,14-19.8,14.6C259.4,596.7,280.7,565.7,276.8,580.3"/>
					<path id="Fill-199" class="st0" d="M271,525.9c-0.6,0.8-63.4-12.3-63-9.8C207.1,518.2,270,524.2,271,525.9"/>
					<path id="Fill-200" class="st0" d="M262,521.9c-7.8-10.1-46.9-3.2-51-11C219.7,504.9,250.1,527.2,262,521.9"/>
					<path id="Fill-201" class="st0" d="M259,518.9c-13.3,0-37.8-11.5-51-16C224.1,511.1,241.6,514.9,259,518.9"/>
					<path id="Fill-202" class="st0" d="M253,513.9c-11.1-5.6-25.2-14-38-14C227.2,506.5,239.9,509.7,253,513.9"/>
					<path id="Fill-203" class="st0" d="M211,488.9c5.8-2.9,32.1,25,38,21C250.4,498.2,213.4,495,211,488.9"/>
					<path id="Fill-204" class="st0" d="M194,467.9c-2,3.9,55.6,34.7,54,38C247.3,506.4,198.8,462.3,194,467.9"/>
					<path id="Fill-205" class="st0" d="M192,459.9c-1.8,3.1,50.6,37.7,50,39C240.3,500.3,197.4,454.4,192,459.9"/>
					<path id="Fill-206" class="st0" d="M196,456.9c2.1-1.8,34.2,34.3,38,32C236,484.3,198.7,454.6,196,456.9"/>
					<path id="Fill-207" class="st0" d="M197,449.9c0.7-0.2,37.8,37.4,38,37C237.2,486.1,197.1,449.5,197,449.9"/>
					<path id="Fill-208" class="st0" d="M194,429.9c-3.2,2.1,36.7,51.3,38,50C231.6,480.1,195.6,428.7,194,429.9"/>
					<path id="Fill-209" class="st0" d="M201,422.9c-5.5,4.6,23.1,49.3,29,53C227.8,470.2,203.7,422.6,201,422.9"/>
					<path id="Fill-210" class="st0" d="M209,425.9c-4.5,3.9,17.7,44.2,18,44C221.7,467.2,215.7,425.1,209,425.9"/>
					<path id="Fill-211" class="st0" d="M212,491.9c3.8,2.1,40,20.1,40,20C252.4,511.6,215.9,493.6,212,491.9"/>
					<path id="Fill-212" class="st0" d="M255,412.9c-14.1,7.6,24,115.7,19,118C274,530.9,254.9,412.9,255,412.9"/>
					<path id="Fill-213" class="st0" d="M262,437.9c-5.8,0.4,4.3,87,4.6,87C267.4,524.9,262.7,437.9,262,437.9"/>
					<path id="Fill-214" class="st0" d="M245,410.9c-4.5,2,22.8,113.8,21,114C270.7,523,249.9,411.1,245,410.9"/>
					<path id="Fill-215" class="st0" d="M239,397.9c-6.2-1-14,69.1-12.6,69C223.7,466.2,241.4,398.6,239,397.9"/>
					<path id="Fill-216" class="st0" d="M243,393.9c-12.7,4.5-11.7,77.6-14.7,78C223.2,471,247.3,397.7,243,393.9"/>
					<path id="Fill-217" class="st0" d="M247,395.9c-8.4-2-14.1,86.8-14.6,87C233.1,482.9,244.7,395.6,247,395.9"/>
					<path id="Fill-218" class="st0" d="M246,403.9c-7.3-0.6-10.7,84.2-9,84C235.7,487.9,246.6,404,246,403.9"/>
					<path id="Fill-219" class="st0" d="M249,410.9c-13.2,5.9-3.4,82.8-8.5,84C235.7,494.2,253.6,413.2,249,410.9"/>
					<path id="Fill-220" class="st0" d="M253,405.9c-9.3,4.3-16.2,86.1-8.8,94C248.1,495.8,252.5,405.7,253,405.9"/>
					<path id="Fill-221" class="st0" d="M252,412.9c-7.3,0-8,98-0.6,98C249.7,511.2,249.6,412.4,252,412.9"/>
					<path id="Fill-222" class="st0" d="M250.8,432.9c-3.3,0-1.9,74.1,4.2,81C258.9,509.1,248.3,432.6,250.8,432.9"/>
					<path id="Fill-223" class="st0" d="M255.6,419.9c-13,2.8,7.8,97.1,3.7,98C258.3,517.8,255.3,419.9,255.6,419.9"/>
					<path id="Fill-224" class="st0" d="M258.1,466.9c-4.1,0,5.9,47.9,3.6,50C259,514.7,264.6,466.9,258.1,466.9"/>
					<path id="Fill-225" class="st0" d="M268.6,430.9c-1.6,0.1-1.4,95.5,10.4,101C278.5,532,266.1,431,268.6,430.9"/>
					<path id="Fill-226" class="st0" d="M273.2,434.9c-11.5,2.6,10.3,98.1,10.6,98C281.1,532.8,272,434.9,273.2,434.9"/>
					<path id="Fill-227" class="st0" d="M279,463.6c2.7,20.2,10.9,45.8,8.5,66.3C285.6,520.4,269.1,423.6,279,463.6"/>
					<path id="Fill-228" class="st0" d="M224.7,374.9c-22.1,3.7,6.9,91.1,3.3,94C229,468.3,213.9,374.1,224.7,374.9"/>
					<path id="Fill-229" class="st0" d="M229.6,404.9c-1.5,7.3-11,54.6-4.4,58C225.2,443.7,229.6,424.3,229.6,404.9"/>
					<path id="Fill-230" class="st0" d="M282.5,477.8c1.3,5.3,2.5,10.7,3.5,16.1C288.5,501.7,274.2,457.3,282.5,477.8"/>
					<path id="Fill-231" class="st0" d="M253.4,510.5c6.3,8.6,34.4,19.9,32.7,29.4c-28.3-9.2-106.2-156.1-70.9-160
						C190.8,384.8,248.2,504.3,253.4,510.5"/>
					<path id="Fill-232" class="st0" d="M337,285.9c-0.8-1,14.9-37.3,9-39C342.8,246.8,341.6,285.5,337,285.9"/>
					<path id="Fill-233" class="st0" d="M340.1,282.9c1.3,0.3,11.9-35.8,9.9-37C346.9,246,340.3,283,340.1,282.9"/>
					<path id="Fill-234" class="st0" d="M343,281.9c8.7-1.8,5.7-36,11-37C356.9,247.6,339.4,278.4,343,281.9"/>
					<path id="Fill-235" class="st0" d="M344,278.9c1.6-2.9,15.5-34.1,13.9-34C357.9,244.9,346.7,274.4,344,278.9"/>
					<path id="Fill-236" class="st0" d="M349,272.9c5.4-9.6,10.1-19.6,14-30C356.9,252.2,352.3,262.2,349,272.9"/>
					<path id="Fill-237" class="st0" d="M351,269.9c7-8.9,13.3-18.2,19-28C362.3,250.3,356,259.7,351,269.9"/>
					<path id="Fill-238" class="st0" d="M357,261.9c6.2-5,11.2-11,15-18C366.4,249.4,361.4,255.4,357,261.9"/>
					<path id="Fill-239" class="st0" d="M346,275.9c0.2,1.1,39.9-28.4,39-29C384.6,246.1,347.4,277,346,275.9"/>
					<path id="Fill-240" class="st0" d="M331,293.9c0.1,0.5,40.2-28.1,39-29C369.7,264.2,332.2,294.9,331,293.9"/>
					<path id="Fill-241" class="st0" d="M345,276.9c0.5,1.7,40.7-22.4,39-24C384.4,253.7,345.2,277.1,345,276.9"/>
					<path id="Fill-242" class="st0" d="M340,282.9c-0.2-0.6,42.4-20.5,40-23.9C380.2,259.3,339.7,282.5,340,282.9"/>
					<path id="Fill-243" class="st0" d="M336,286.9c0.4,0.5,44.4-19.7,44-22C377.9,263.1,335.5,284.4,336,286.9"/>
					<path id="Fill-244" class="st0" d="M334,288.9c5.7-1.1,4.8-41.9,5.4-42C342.2,247.2,331.4,287.4,334,288.9"/>
					<path id="Fill-245" class="st0" d="M331,293.9c1.8,0.2,8.9-46.6,6.9-47C336.2,246.8,331.4,293.9,331,293.9"/>
					<path id="Fill-246" class="st0" d="M330.2,297.9c-1.8-0.6,7.1-48.7,3.5-49C331.5,248.8,330.8,297.8,330.2,297.9"/>
					<path id="Fill-247" class="st0" d="M328.9,299.9c-1-0.3,2.2-49.3,0.3-49C324.9,251.4,331.2,299.1,328.9,299.9"/>
					<path id="Fill-248" class="st0" d="M326.7,298.9c1.6-0.4,0.7-41.4-1.3-42C323.3,257.8,324.7,298.1,326.7,298.9"/>
					<path id="Fill-249" class="st0" d="M326,297.9c-2.4-2.5-2-44.6-5-44C318,254,327.7,295.3,326,297.9"/>
					<path id="Fill-250" class="st0" d="M324.8,298.9c-1.4-0.2-2.6-42.8-5.8-43C313.3,258.2,327.9,297.7,324.8,298.9"/>
					<path id="Fill-251" class="st0" d="M321.7,303.9c0.4,0.1-4.1-44.8-6.7-44C313.4,260.2,322.9,303.5,321.7,303.9"/>
					<path id="Fill-252" class="st0" d="M323.8,301.9c-0.2,0-3.2-42.4-5.8-42C314.9,260.5,326,301,323.8,301.9"/>
					<path id="Fill-253" class="st0" d="M318,309.9c0,0-6.8-42.1-6-44C312.8,266.2,318.9,308.6,318,309.9"/>
					<path id="Fill-254" class="st0" d="M320,307.9c3.6,0.3-6.6-43.8-6-46C317.6,263,318.9,308.2,320,307.9"/>
					<path id="Fill-255" class="st0" d="M316.9,311.9c-0.5-0.1-4.2-45.9-7.9-45C306.4,267.6,319.5,310.7,316.9,311.9"/>
					<path id="Fill-256" class="st0" d="M315.9,313.9c0.5,0-6.7-42.8-8.9-42C304.9,272.5,317.6,313.1,315.9,313.9"/>
					<path id="Fill-257" class="st0" d="M314.9,314.9c0.5,0-8.1-40.8-9.9-40C303.2,275.4,315.8,314.5,314.9,314.9"/>
					<path id="Fill-258" class="st0" d="M314,317.9c0.3-0.1-12.4-46.6-14-46C298.7,272.2,313.4,318.1,314,317.9"/>
					<path id="Fill-259" class="st0" d="M310.9,322.9c0.9-0.1-12.4-45.8-13.9-45C295.8,278.2,311.3,322.7,310.9,322.9"/>
					<path id="Fill-260" class="st0" d="M309.9,324.9c0.7-0.1-12.7-42.7-13.9-42C294.1,283.7,310.7,324.4,309.9,324.9"/>
					<path id="Fill-261" class="st0" d="M309.9,326.9c0.4,0-13.1-39.4-13.9-39C293.8,288.4,310.2,326.7,309.9,326.9"/>
					<path id="Fill-262" class="st0" d="M305.9,336.9c0.9,0.1-12.5-49.2-14.9-48C288.7,289.8,308.4,335.7,305.9,336.9"/>
					<path id="Fill-263" class="st0" d="M307,335.9c-1.9-0.8-9.3-46.5-13-45C291.4,291.6,309.3,333.3,307,335.9"/>
					<path id="Fill-264" class="st0" d="M306,344.9c-2.4-3.5-15.4-50.9-19-49C285.8,296.5,305.5,339.8,306,344.9"/>
					<path id="Fill-265" class="st0" d="M304,346.9c-2.6-3.5-16-47.5-19-46C283,301.8,304,342.4,304,346.9"/>
					<path id="Fill-266" class="st0" d="M303,354.9c-1,0-18.2-54.2-22-52C279.6,303.6,304.9,353.4,303,354.9"/>
					<path id="Fill-267" class="st0" d="M301.9,358.9c3.9-1.4-22.7-50.1-21.9-51C284.1,307.5,298.3,360,301.9,358.9"/>
					<path id="Fill-268" class="st0" d="M301,359.9c2.8-0.2-20.1-45.8-20-46C282.4,313.7,301.4,359.6,301,359.9"/>
					<path id="Fill-269" class="st0" d="M302,366.9c3.2-6.4-21.9-44-21-44.9C278.5,324.1,304.3,362.2,302,366.9"/>
					<path id="Fill-270" class="st0" d="M300.9,371.9c2.9-0.4-19.1-42.1-21.9-46C280.1,330.2,301.9,371.7,300.9,371.9"/>
					<path id="Fill-271" class="st0" d="M298.9,372.9c4.3,0-17.8-37.5-17.9-37C284.5,336.1,299.5,372.6,298.9,372.9"/>
					<path id="Fill-272" class="st0" d="M300,380.9c1.7-0.4-17.5-47.6-21-45C279,335.9,301.7,379.9,300,380.9"/>
					<path id="Fill-273" class="st0" d="M299,389.9c-0.8-0.1-17.9-53.8-23-50C275.2,340.4,302,385.8,299,389.9"/>
					<path id="Fill-274" class="st0" d="M298,397.9c-4-1.3-15.1-54.1-21-52C273.2,347.9,300.7,393.2,298,397.9"/>
					<path id="Fill-275" class="st0" d="M297,405.9c-0.3,0-16.7-57.4-22-55C273.2,352.2,300.2,404.3,297,405.9"/>
					<path id="Fill-276" class="st0" d="M297.9,407.9c1.1-0.2-20-54.7-22.9-53C276.2,354.4,296.9,408.2,297.9,407.9"/>
					<path id="Fill-277" class="st0" d="M297,415.9c1.8-0.1-19.7-52.2-23-50C276.5,364.8,295.9,416,297,415.9"/>
					<path id="Fill-278" class="st0" d="M296.8,419.9c2.7-0.8-21.3-47.3-22.8-45.9C273.1,374.8,298.4,419.1,296.8,419.9"/>
					<path id="Fill-279" class="st0" d="M301,380.9c7.3,0,60.2-72.9,59-74C358.1,305.3,308.6,378.4,301,380.9"/>
					<path id="Fill-280" class="st0" d="M302,362.9c3.2,2.9,58.4-53.3,59.9-52C362,310.9,300.2,360.3,302,362.9"/>
					<path id="Fill-281" class="st0" d="M304,358.9c19.8-15.4,38.8-31.8,57-49C341.2,325.3,322.2,341.7,304,358.9"/>
					<path id="Fill-282" class="st0" d="M302,356.9c19.8-15.4,38.8-31.8,57-49C339.2,323.3,320.2,339.6,302,356.9"/>
					<path id="Fill-283" class="st0" d="M302,350.9c19.8-15.4,38.8-31.8,57-49C339.2,317.3,320.2,333.6,302,350.9"/>
					<path id="Fill-284" class="st0" d="M302,365.9c19.8-15.4,38.8-31.8,57-49C339.2,332.3,320.2,348.7,302,365.9"/>
					<path id="Fill-285" class="st0" d="M300,378.9c19.8-15.4,38.8-31.8,57-49C337.2,345.3,318.2,361.6,300,378.9"/>
					<path id="Fill-286" class="st0" d="M300,403.9c17.6-17.8,34.2-36.5,50-56C332.4,365.7,315.8,384.4,300,403.9"/>
					<path id="Fill-287" class="st0" d="M297,416.9c17.6-17.8,34.3-36.5,50-56C329.4,378.7,312.8,397.4,297,416.9"/>
					<path id="Fill-288" class="st0" d="M297,403.9c17.6-17.8,34.3-36.5,50-56C329.4,365.7,312.8,384.4,297,403.9"/>
					<path id="Fill-289" class="st0" d="M298,400.9c17.6-17.8,34.3-36.5,50-56C330.4,362.7,313.8,381.4,298,400.9"/>
					<path id="Fill-290" class="st0" d="M305,345.9c17.7-11.7,34.7-24.4,51-38C338.3,319.6,321.3,332.3,305,345.9"/>
					<path id="Fill-291" class="st0" d="M307,341.9c20-11.6,39.3-24.3,58-38C345,315.5,325.7,328.2,307,341.9"/>
					<path id="Fill-292" class="st0" d="M307,338.9c19.6-11.7,38.7-24.3,57-38C344.3,312.5,325.3,325.2,307,338.9"/>
					<path id="Fill-293" class="st0" d="M308,335.9c17.7-11,34.7-23,51-36C341.3,310.9,324.3,322.9,308,335.9"/>
					<path id="Fill-294" class="st0" d="M309,330.9c18.7-11.7,36.7-24.3,54-38C344.3,304.5,326.3,317.2,309,330.9"/>
					<path id="Fill-295" class="st0" d="M312,324.9c19-11.3,37.4-23.7,55-37C348,299.2,329.6,311.6,312,324.9"/>
					<path id="Fill-296" class="st0" d="M313,320.9c19.3-11,38-23,56-36C349.7,295.9,331,307.9,313,320.9"/>
					<path id="Fill-297" class="st0" d="M316,315.9c18-10.3,35.3-21.7,52-34C350,292.2,332.7,303.6,316,315.9"/>
					<path id="Fill-298" class="st0" d="M323,303.9c16.3-9,32-19,47-30C353.7,282.9,338,292.9,323,303.9"/>
					<path id="Fill-299" class="st0" d="M181,238.9"/>
					<path id="Fill-300" class="st0" d="M368,273.9c-13.9,6.9-27.3,15-40,24C341.9,290.9,355.3,282.9,368,273.9"/>
					<path id="Fill-301" class="st0" d="M318,312.9c16.3-9.7,32-20.3,47-32C348.7,290.5,333,301.2,318,312.9"/>
					<path id="Fill-302" class="st0" d="M301,395.9c18.6-22.6,36.3-45.9,53-70C335.4,348.5,317.7,371.8,301,395.9"/>
					<path id="Fill-303" class="st0" d="M300,394.9c17.9-19.5,34.9-39.9,51-61C333.1,353.4,316.1,373.8,300,394.9"/>
					<path id="Fill-304" class="st0" d="M300,384.9c17.9-19.5,34.9-39.9,51-61C333.1,343.4,316.1,363.8,300,384.9"/>
					<path id="Fill-305" class="st0" d="M302,374.9c17.9-19.5,34.9-39.9,51-61C335.1,333.4,318.1,353.8,302,374.9"/>
					<path id="Fill-306" class="st0" d="M302,369.9c17.9-19.5,34.9-39.9,51-61C335.1,328.4,318.1,348.8,302,369.9"/>
					<path id="Fill-307" class="st0" d="M301,363.9c17.9-19.5,34.9-39.9,51-61C334.1,322.4,317.1,342.8,301,363.9"/>
					<path id="Fill-308" class="st0" d="M301,387.9c20.2-17.4,39.5-35.8,58-55C338.8,350.3,319.5,368.7,301,387.9"/>
					<path id="Fill-309" class="st0" d="M301,386.9c19.5-19.2,38.2-39.2,56-60C337.5,346.1,318.8,366.1,301,386.9"/>
					<path id="Fill-310" class="st0" d="M297,418.9c15.6-19.3,30.3-39.3,44-60C325.4,378.2,310.7,398.2,297,418.9"/>
					<path id="Fill-311" class="st0" d="M298,414.9c10.3-13,19.7-26.7,28-41C315.7,386.8,306.3,400.6,298,414.9"/>
					<path id="Fill-312" class="st0" d="M296,426.9c2.3-2.6,22.7-28.6,22-29C316.9,396.9,297.8,423.9,296,426.9"/>
					<path id="Fill-313" class="st0" d="M296,430.9c7.9-6.8,14.9-14.5,21-23C309.1,414.7,302.1,422.4,296,430.9"/>
					<path id="Fill-314" class="st0" d="M295,438.9c7.6-7.2,14.3-15.2,20-24C307.4,422.1,300.7,430.1,295,438.9"/>
					<path id="Fill-315" class="st0" d="M292,467.9c7.8-14.5,14.5-29.5,20-45C304.2,437.4,297.5,452.4,292,467.9"/>
					<path id="Fill-316" class="st0" d="M291,477.9c8.4-16.2,15.8-32.9,22-50C304.6,444.1,297.2,460.8,291,477.9"/>
					<path id="Fill-317" class="st0" d="M299,433.9c8.4-16.2,15.8-32.9,22-50C312.6,400.1,305.2,416.8,299,433.9"/>
					<path id="Fill-318" class="st0" d="M289,482.9c8.4-16.2,15.8-32.9,22-50C302.6,449.1,295.2,465.8,289,482.9"/>
					<path id="Fill-319" class="st0" d="M289,491.9c8.4-16.2,15.8-32.9,22-50C302.6,458.1,295.2,474.8,289,491.9"/>
					<path id="Fill-320" class="st0" d="M287,499.9c8.4-16.2,15.8-32.9,22-50C300.6,466.1,293.2,482.8,287,499.9"/>
					<path id="Fill-321" class="st0" d="M293,460.9c8.5-17.5,15.8-35.6,22-54C306.6,424.4,299.2,442.5,293,460.9"/>
					<path id="Fill-322" class="st0" d="M293,455.9c7.8-19.3,14.5-39,20-59C305.2,416.2,298.5,435.9,293,455.9"/>
					<path id="Fill-323" class="st0" d="M295,423.9c-4.6-13.4-10.3-26.5-17-39C282.6,398.3,288.3,411.4,295,423.9"/>
					<path id="Fill-324" class="st0" d="M295,429.9c-4.9-14.4-10.9-28.5-18-42C281.9,402.3,287.9,416.4,295,429.9"/>
					<path id="Fill-325" class="st0" d="M294,434.9c-4.2-14.1-9.6-27.8-16-41C282.2,408,287.6,421.7,294,434.9"/>
					<path id="Fill-326" class="st0" d="M293,445.9c-3.2-14.3-7.6-28.4-13-42C283.2,418.2,287.6,432.3,293,445.9"/>
					<path id="Fill-327" class="st0" d="M294,427.9c-2.2-11-5.5-21.7-10-32C286.2,406.9,289.5,417.6,294,427.9"/>
					<path id="Fill-328" class="st0" d="M292,453.9c-2.8-14.6-6.8-29-12-43C282.8,425.5,286.8,439.9,292,453.9"/>
					<path id="Fill-329" class="st0" d="M292,456.9c-2.8-13.6-6.9-27-12-40C282.8,430.5,286.9,443.9,292,456.9"/>
					<path id="Fill-330" class="st0" d="M291,469.9c-1.5-11.9-4.2-23.6-8-35C284.5,446.8,287.2,458.5,291,469.9"/>
					<path id="Fill-331" class="st0" d="M289,485.9c-1.5-11.9-4.2-23.6-8-35C282.5,462.8,285.2,474.5,289,485.9"/>
					<path id="Fill-332" class="st0" d="M287,496.9c-1.5-11.9-4.2-23.6-8-35C280.5,473.8,283.2,485.5,287,496.9"/>
					<path id="Fill-333" class="st0" d="M290,480.9c-1.2-12.5-3.6-24.9-7-37C284.2,456.4,286.6,468.8,290,480.9"/>
					<path id="Fill-334" class="st0" d="M287.2,541.9c-41.1-0.9,58.5-340.3,99.8-303C343.7,198.8,240.2,538.9,287.2,541.9"/>
				</g>
			</g>
		</g>
	</g>
</g>
</svg>
