<?xml version="1.0" encoding="UTF-8" standalone="no"?>
<svg width="183px" height="289px" viewBox="0 0 183 289" version="1.1" xmlns="http://www.w3.org/2000/svg" xmlns:xlink="http://www.w3.org/1999/xlink" xmlns:sketch="http://www.bohemiancoding.com/sketch/ns">
    <!-- Generator: Sketch 3.3.3 (12081) - http://www.bohemiancoding.com/sketch -->
    <title>small</title>
    <desc>Created with Sketch.</desc>
    <defs></defs>
    <g id="Page-1" stroke="none" stroke-width="1" fill="none" fill-rule="evenodd" sketch:type="MSPage">
        <g id="Discovery" sketch:type="MSArtboardGroup" transform="translate(-108.000000, -495.000000)" fill="#FFFFFF">
            <g id="header" sketch:type="MSLayerGroup" transform="translate(-12.000000, 0.000000)">
                <g id="plants" transform="translate(0.000000, 89.000000)" sketch:type="MSShapeGroup">
                    <g id="small" transform="translate(120.000000, 405.000000)">
                        <path d="M97.987603,146.261922 C97.987603,146.261922 90.6068852,225.401081 89.6293611,252.536864 C88.651837,279.672646 89.5225727,282.287249 89.5225727,282.287249 C89.5225727,282.287249 90.3275926,284.369858 87.8796751,286.588559 C87.8796751,286.588559 88.249327,289.541328 86.9432234,289.982594 C85.641227,290.415612 84.1379756,282.695523 84.0024366,275.070285 C83.8710047,267.449172 89.0789904,171.698625 94.2459035,146.418634 C94.2459035,146.418634 98.2504666,143.333897 97.987603,146.261922" id="Fill-1"></path>
                        <path d="M101.997459,8 C101.997459,8 102.271716,111.564039 97.1217777,145 C97.1217777,145 95.7809653,39.5830345 101.997459,8" id="Fill-2"></path>
                        <path d="M90.6738814,13 C90.6738814,13 98.7461509,116.266604 96.6536306,150 C96.6536306,150 87.4841594,44.9794429 90.6738814,13" id="Fill-3"></path>
                        <path d="M84.2175623,14 C84.2175623,14 96.8303178,117.112351 95.9566174,151 C95.9566174,151 82.1140561,46.1750968 84.2175623,14" id="Fill-4"></path>
                        <path d="M76,14 C76,14 96.4756312,114.589614 98,148 C98,148 76.1205715,45.7994035 76,14" id="Fill-5"></path>
                        <path d="M11,43 C11,43 78.079081,120.672093 96,149 C96,149 26.9598549,70.6079166 11,43" id="Fill-6"></path>
                        <path d="M19,36 C19,36 80.2762637,119.204908 96,149 C96,149 32.808853,64.903892 19,36" id="Fill-7"></path>
                        <path d="M28,29 C28,29 82.5235477,116.165097 96,147 C96,147 39.6679417,58.8194195 28,29" id="Fill-8"></path>
                        <path d="M58,19 C58,19 91.8574732,116.819763 98,150 C98,150 62.5616985,50.7668973 58,19" id="Fill-9"></path>
                        <path d="M46,20 C46,20 86.4770096,114.528856 95,147 C95,147 52.8701963,51.192329 46,20" id="Fill-10"></path>
                        <path d="M66,14 C66,14 91.5380481,113.610394 95,147 C95,147 68.034512,45.8632476 66,14" id="Fill-11"></path>
                        <path d="M0,66 C0,66 73.9830397,125.280188 95,148 C95,148 19.1177117,88.3929685 0,66" id="Fill-12"></path>
                        <path d="M8,59 C8,59 74.6522181,124.59238 93,149 C93,149 24.5117687,82.8953408 8,59" id="Fill-13"></path>
                        <path d="M2,80 C2,80 74.8708856,128.058211 96,147 C96,147 21.3365191,98.7745235 2,80" id="Fill-14"></path>
                        <path d="M5,92 C5,92 73.7265857,131.788372 94,148 C94,148 23.6640857,108.190704 5,92" id="Fill-15"></path>
                        <path d="M12,118 C12,118 75.5396414,139.841802 95,150 C95,150 30.1087151,128.405448 12,118" id="Fill-16"></path>
                        <path d="M11,108 C11,108 72.4751215,134.524933 91,146 C91,146 28.1635461,119.596797 11,108" id="Fill-17"></path>
                        <path d="M11,121 C11,121 75.1794056,139.767522 95,149 C95,149 29.4879792,130.539247 11,121" id="Fill-18"></path>
                        <path d="M17,130 C17,130 76.4295661,142.243087 95,149 C95,149 34.3839314,137.111254 17,130" id="Fill-19"></path>
                        <path d="M22,133 C22,133 77.5307266,142.963577 95,149 C95,149 38.3787347,139.436532 22,133" id="Fill-20"></path>
                        <path d="M111,11 C111,11 104.1625,112.555679 97,145 C97,145 102.95,41.5620553 111,11" id="Fill-21"></path>
                        <path d="M121,1 C121,1 106.847849,110.38752 97,145 C97,145 110.338382,33.5182652 121,1" id="Fill-22"></path>
                        <path d="M130,5 C130,5 109.751994,113.857384 98,148 C98,148 117.55647,36.9938966 130,5" id="Fill-23"></path>
                        <path d="M141,6 C141,6 113.907908,112.839384 100,146 C100,146 126.525519,36.9851998 141,6" id="Fill-24"></path>
                        <path d="M151,11 C151,11 114.012611,115.922582 97,148 C97,148 133.619729,40.8359637 151,11" id="Fill-25"></path>
                        <path d="M37,29 C37,29 87.0050251,116.350378 99,147 C99,147 47.2609098,58.5951917 37,29" id="Fill-26"></path>
                        <path d="M162,16 C162,16 117.318164,116.66003 98,147 C98,147 142.482122,44.1115171 162,16" id="Fill-27"></path>
                        <path d="M166,28 C166,28 117.872183,119.764128 98,147 C98,147 146.107547,53.1102058 166,28" id="Fill-28"></path>
                        <path d="M178,37 C178,37 119.146064,122.300916 96,147 C96,147 155.061227,59.6007107 178,37" id="Fill-29"></path>
                        <path d="M183,48 C183,48 120.736817,124.404325 97,146 C97,146 159.634964,67.6215212 183,48" id="Fill-30"></path>
                        <path d="M178,71 C178,71 121.086766,127.514751 100,143 C100,143 157.36689,84.9148203 178,71" id="Fill-31"></path>
                        <path d="M171,90 C171,90 118.896427,133.508086 100,145 C100,145 152.611719,100.201579 171,90" id="Fill-32"></path>
                        <path d="M172,96 C172,96 117.529504,135.764744 98,146 C98,146 153.050498,104.997713 172,96" id="Fill-33"></path>
                        <path d="M171,103 C171,103 117.147338,139.765041 98,149 C98,149 152.463264,111.057179 171,103" id="Fill-34"></path>
                        <path d="M172,107 C172,107 117.259709,140.00816 98,148 C98,148 153.400011,113.864309 172,107" id="Fill-35"></path>
                        <path d="M171,119 C171,119 116.737175,143.615076 98,149 C98,149 152.987923,123.430634 171,119" id="Fill-36"></path>
                        <path d="M168,114 C168,114 120.515325,138.403569 104,144 C104,144 152.087273,118.694578 168,114" id="Fill-37"></path>
                        <path d="M100,148.65601 L100.239968,148.54411 C102.719642,147.470696 124.127352,138.605708 132,149 C132,149 119.908959,142.480773 100,148.65601" id="Fill-38"></path>
                        <path d="M144,165 C144,165 128.867606,141.85864 98,149.57531 C98,149.57531 120.700655,146.006783 144,165" id="Fill-39"></path>
                        <path d="M141,196 C141,196 119.721946,154.508298 98,149.000003 C98,149.000003 122.636016,148.884473 141,196" id="Fill-40"></path>
                        <path d="M131,189 C131,189 112.610246,152.689718 97,148 C97,148 121.294644,168.926525 131,189" id="Fill-41"></path>
                        <path d="M130,165 C130,165 110.435203,142.537528 95,151.278406 C95,151.278406 110.705996,137.963663 130,165" id="Fill-42"></path>
                        <path d="M136,202 L98,149 C98,149 122.393245,174.660823 136,202" id="Fill-43"></path>
                        <path d="M91,146 C91,146 74.9910509,149.806276 74,164 C74,164 78.1119918,152.090041 91,146" id="Fill-44"></path>
                        <path d="M99.3681169,151.898684 C99.3681169,151.898684 109.001482,139.448769 105.047336,133.577869 C101.09319,127.702676 83.3466542,128.95153 86.3378736,138.152708 L86.4157273,145.59004 C86.4157273,145.59004 91.3614831,152.941541 99.3681169,151.898684" id="Fill-45"></path>
                        <path d="M98,148 C98,148 99.0318725,157.735141 106,172 C106,172 100.796813,152.675704 98,148" id="Fill-46"></path>
                        <path d="M96,145 C96,145 87.3547393,163.096933 91.4672912,175 C91.4672912,175 83.5840098,158.747262 96,145" id="Fill-47"></path>
                        <path d="M96,148 C96,148 83.8956231,151.127572 84.0006799,165 C84.0006799,165 87.3762024,152.378601 96,148" id="Fill-48"></path>
                        <path d="M90,146 C90,146 70.4822193,149.665486 68,162 C68,162 79.804878,147.046037 90,146" id="Fill-49"></path>
                        <path d="M93,148.037507 C93,148.037507 78.8806487,147.066955 70,155 C70,155 84.261844,148.093717 93,148.037507" id="Fill-50"></path>
                        <path d="M88,145 C88,145 69.0519331,145.97972 60,159 C60,159 77.8291979,146.283633 88,145" id="Fill-51"></path>
                        <path d="M96,145 C96,145 82.6852103,146.275877 78,164 C78,164 83.5970149,149.554962 96,145" id="Fill-52"></path>
                        <path d="M100.109055,149 C100.109055,149 93.8026491,157.802684 103,178 C103,178 97.8686751,160.477441 100.109055,149" id="Fill-53"></path>
                        <path d="M96,148 C96,148 80.0624353,156.030948 80.0000004,171 C80.0000004,171 79.9708641,148.686692 96,148" id="Fill-54"></path>
                        <path d="M88,146 C88,146 68.0938643,149.443827 66.0600848,160 C66.0600848,160 63.7357654,147.425926 88,146" id="Fill-55"></path>
                    </g>
                </g>
            </g>
        </g>
    </g>
</svg>