<?xml version="1.0" encoding="utf-8"?>
<!-- Generator: Adobe Illustrator 19.0.0, SVG Export Plug-In . SVG Version: 6.00 Build 0)  -->
<svg version="1.1" id="Layer_1" xmlns:sketch="http://www.bohemiancoding.com/sketch/ns"
	 xmlns="http://www.w3.org/2000/svg" xmlns:xlink="http://www.w3.org/1999/xlink" x="0px" y="0px"
	 viewBox="-471.4 1038.6 282.1 148" style="enable-background:new -471.4 1038.6 282.1 148;" xml:space="preserve">
<style type="text/css">
	.st0{enable-background:new    ;}
	.st1{fill:#4EA4EF;}
	.st2{fill:#9ECFF1;}
</style>
<g id="Page-1" sketch:type="MSPage">
	<g id="mobile-geniac" transform="translate(-27.000000, -828.000000)" sketch:type="MSArtboardGroup">
		<g id="key-achieve-copy-2" transform="translate(0.000000, -11.391182)" sketch:type="MSLayerGroup">
			<g id="annotations-copy" transform="translate(27.000000, 826.000000)">
				<g id="Easily-achieve-anyth-_x2B_-Line-Copy-4" transform="translate(1.000000, 0.000000)">
					<g class="st0">
						<path class="st1" d="M-460,1061.6c-1.2,0.1-2.2,0.3-3.1,0.7c-0.5,0-0.9,0.1-1,0.2c-0.1,0.5-0.4,0.9-0.9,1.3
							c-0.3,0.3-0.6,0.6-1,1.2c-0.2,0.6-0.6,1.3-1.1,2.2c-0.2,0.4-0.4,1-0.7,1.8c0.1,0,0.3,0.1,0.4,0.1c0.1,0,0.4-0.1,0.8-0.2
							c0.4-0.1,0.7-0.2,0.9-0.3c0.5-0.1,0.9-0.2,1.2-0.4c0.3-0.1,2.3-0.8,6-2.2l1.5,0.1c-0.8,0.8-1.4,1.2-1.7,1.2
							c-0.5,0.4-1.1,0.8-2.1,1.2c-1.3,0.5-2,0.8-2.2,0.9c-0.5,0.1-1.3,0.4-2.3,0.9c-0.6,0-1.7,0.3-3.1,0.8c-0.9,2-1.4,3.8-1.4,5.4
							c0,0.3,0,0.6,0.1,0.9c0.3,1.2,0.9,1.8,1.6,1.8c1.2,0.1,2.5-0.3,3.8-1.3c0.6-0.5,1.9-1.4,3.7-2.8c0,0.5-0.1,0.9-0.5,1.4
							c-0.1,0.1-0.4,0.5-1,1.1c-1.9,2.2-3.9,3.3-6,3.1c-1.8-0.7-2.9-1.6-3.2-2.9c-0.2-1.8-0.2-3.3,0.3-4.3c0.2-0.6,0.5-1.4,0.8-2.5
							c-0.5-0.2-0.7-0.6-0.7-1.2c0.1-0.1,0.4-0.3,0.7-0.4c0.3-0.1,0.6-0.2,0.6-0.3c0-0.4,0.2-0.9,0.6-1.5c0.4-0.6,0.6-1.2,0.6-1.5
							c0.2-0.1,0.3-0.2,0.4-0.4c0-0.2,0.1-0.4,0.2-0.4c0.4-0.6,0.9-1.5,1.7-2.7c0,0-0.4-0.1-1.1-0.3c-0.1-0.1-0.2-0.3-0.4-0.6
							c0-0.1,0-0.2,0-0.3c0-0.6,0.6-0.8,1.9-0.8c0.8,0,1.4,0,1.5,0c2.2-0.5,4.3-0.7,6.1-0.7c1.2,0,2.4,0.1,3.5,0.3l0.2,0.5
							C-455.3,1061.1-457.1,1061.3-460,1061.6z"/>
						<path class="st1" d="M-450.1,1079.8c-0.3,0.1-0.7,0.3-1.3,0.7c-0.3,0-0.8-0.2-1.5-0.6c0-0.2-0.1-0.5-0.3-1
							c-0.2-0.5-0.3-0.8-0.3-1.1c-0.2,0.2-0.3,0.4-0.4,0.6c-0.9,1.1-1.4,1.7-1.5,1.9c-0.7,0.6-1.4,0.8-2.2,0.7c-0.6-0.5-1-1.2-1-2.2
							c0-1.7,0.2-3,0.5-3.9c0.8-2.3,2.5-4.3,5-6.1h0.6c0.6,0,0.8,0.3,0.8,1c0,0.2-0.1,0.6-0.2,1.3c-0.1,0.3-0.4,0.7-0.8,1.2
							c-0.1,0.2-0.4,0.3-0.9,0.5c0.1-0.6,0.3-1.1,0.6-1.4c0-0.1,0.1-0.3,0.2-0.6c0,0,0-0.1,0-0.2c0-0.1,0-0.2,0-0.3
							c0.1-0.1,0.2-0.2,0.2-0.3c-0.1,0-0.4,0.2-0.8,0.6c-0.1,0-0.2,0.2-0.4,0.3c-2.5,2.8-3.7,5.4-3.8,7.7c0.1,0.7,0.3,1.1,0.6,1.2
							c0.8-0.2,1.5-0.8,2.1-1.9c0.7-0.6,1.3-1.7,1.8-3.2c0.3-0.6,0.8-2.1,1.5-4.6c0.1-0.2,0.4-0.4,0.8-0.5c0.2,0.2,0.3,0.5,0.3,0.8
							c0,0.2,0,0.4-0.1,0.7c-0.1,0.4-0.2,0.6-0.2,0.7c-1,2.6-1.4,4.4-1.4,5.3c0,1.1,0.2,1.9,0.7,2.3c0.1,0,0.4-0.2,0.9-0.5
							c0.4-0.2,0.7-0.4,0.8-0.4c0,0.1,0,0.2,0,0.4C-449.8,1079.4-449.9,1079.7-450.1,1079.8z"/>
						<path class="st1" d="M-448.3,1074c0.1,0,0.2,0,0.1,0C-448.2,1074.1-448.2,1074.1-448.3,1074l0.5,0.2c0,0.1,0,0.2,0.2,0.3
							c0,0,0.1,0,0.1,0.1c0,0,0.1,0,0.2,0h0.3c0.1,0.2,0.4,0.4,1,0.6c0.5,0.2,0.8,0.3,1,0.5c1.1,0.5,1.7,1.2,1.8,1.9
							c0,0.5-0.2,1-0.7,1.6c-0.1,0-0.2,0.1-0.3,0.2c-0.1,0.1-0.1,0.2-0.2,0.3c-1.4,1-2.7,1.4-3.9,1.3c-0.7,0-1.4-0.3-1.9-0.7
							c-0.2-0.8-0.3-1.1-0.3-0.9c0-0.2,0.2-0.5,0.5-0.7c0.1,0.1,0.3,0.5,0.6,1c0.2,0.3,0.4,0.4,0.7,0.3c1.2-0.3,1.9-0.5,2.2-0.6
							c0.9-0.4,1.4-0.9,1.7-1.5c-0.1-0.6-0.9-1.2-2.4-1.8c-0.5-0.2-1.1-0.5-1.8-0.8c-0.6-0.4-0.9-1-0.9-1.7c0.2-0.3,0.6-0.7,1.2-1.2
							c0.7-0.5,1.2-0.9,1.3-1c0.3-0.2,0.9-0.5,1.6-0.8c0.3-0.2,1.2-0.5,2.5-1c0.4,0.1,0.7,0.1,0.7,0.1c0.3,0.1,0.4,0.3,0.4,0.5
							c0,0.2-0.2,0.4-0.5,0.5c-0.2,0-0.4,0.2-0.7,0.3c-0.3,0.2-0.6,0.3-0.7,0.3c-0.1,0-0.6,0.2-1.6,0.7c-1.2,0.6-2,1.2-2.6,1.8
							C-448.2,1073.7-448.2,1073.8-448.3,1074L-448.3,1074z"/>
						<path class="st1" d="M-437.8,1078.7c-0.2,0.4-0.6,0.9-1.1,1.5c-0.9,0.6-1.6,0.9-2.1,0.8c-0.4,0-0.9-0.4-1.4-1.1
							c0-0.4-0.1-0.9-0.1-1.3c0-2.5,0.4-5,1.1-7.5c0.1-0.4,0.4-1.2,1-2.4c0.1-0.2,0.3-0.3,0.6-0.3c0.2,0,0.5,0.1,0.7,0.3
							c0.2,0.2,0.3,0.4,0.3,0.6c0,0.1,0,0.2-0.1,0.3c-0.4,0.7-0.8,1.6-1.2,2.7l-0.8,3.7c-0.2,0.8-0.2,1.8-0.1,3
							c0,0.1,0.2,0.3,0.4,0.6c0.1,0,0.2-0.1,0.4-0.2c0.2-0.2,0.3-0.3,0.4-0.3c0.3-0.2,0.7-0.6,1.2-1.1s0.9-0.9,1.3-1.1l0.8-1
							C-436.9,1077.5-437.3,1078.4-437.8,1078.7z M-437.2,1065.9l-0.1,0.1c0,0-0.1,0.2-0.1,0.4c-1.2,0.1-1.8-0.2-1.8-0.8
							c0-0.4,0.1-0.6,0.4-0.7c0.1,0,0.4,0,0.9,0c0.1,0,0.3,0,0.5-0.1c0.2,0.1,0.4,0.3,0.6,0.6
							C-436.9,1065.5-437,1065.7-437.2,1065.9z"/>
						<path class="st1" d="M-431.4,1060.5c-0.3,0.3-0.4,0.6-0.3,0.8c-0.3,0.4-0.6,1.1-0.8,1.9c-0.2,1-0.5,1.7-0.7,2
							c-0.2,0.5-0.4,1.4-0.8,2.6c0.1,0.2,0,0.3-0.1,0.5c0,0.1-0.3,1-0.8,2.7c-0.3,1-0.5,1.9-0.6,2.7c-0.1,0.2-0.2,0.5-0.3,1
							c0,0.5-0.1,0.8-0.3,1c-0.2,1.5-0.3,2.4-0.2,2.8c-0.1,0.3,0,0.6,0.2,1.2c0.2,0,0.5-0.2,0.8-0.4c0.4-0.3,0.6-0.5,0.7-0.5
							c0.3-0.1,0.6-0.2,1.1-0.1c-0.4,0.8-1,1.5-1.6,2.1c-0.1,0-0.3,0-0.6,0.1c-0.2,0.1-0.4,0.1-0.5,0.1c-0.1,0-0.3-0.1-0.5-0.2
							c-0.5-0.4-0.7-0.7-0.8-0.8c-0.2-0.3-0.3-0.9-0.3-1.6c0-0.3,0-0.7,0-1.2c0-0.1,0.1-0.5,0.3-1.2c0.3-1.7,0.6-3.1,0.8-4.2
							c0.5-2.4,1.1-4.8,1.9-7.4c0.2-0.7,0.5-1.5,0.9-2.3c0.5-1.1,0.7-1.6,0.7-1.7c0.1-0.3,0.3-0.7,0.7-1.2c0.2-0.3,0.5-0.4,0.7-0.4
							c0.2,0,0.5,0.1,0.7,0.4C-430.9,1059.7-431,1060.1-431.4,1060.5z"/>
						<path class="st1" d="M-429.3,1084c-1,1.9-2,3.6-3,5c-0.3,0.3-0.9,0.9-1.7,1.6c-0.3,0.3-0.6,0.5-0.7,0.5
							c-0.1,0-0.5,0.1-1.1,0.2c1.2-1.2,2.5-3,3.7-5.3c1.1-2,1.8-3.9,2.3-5.7c0-0.1-0.1-0.3-0.1-0.5c-0.1-0.3-0.3-0.5-0.5-0.6
							c-1-0.6-1.7-2.2-2.3-4.6c0-0.8-0.2-2.3-0.5-4.4c0,0.1,0-0.2,0-0.7c0-0.2,0.1-0.3,0.2-0.3c0.3,0,0.5,0.1,0.8,0.5
							c0.3,0.3,0.4,0.7,0.4,1c0.2,1.4,0.4,2.9,0.7,4.4c0.4,1.9,1.2,3.1,2.3,3.7c0.7-1.4,1.7-4.2,3-8.3c0.5-0.3,0.8-0.4,0.9-0.4
							c0.1,0,0.3,0.1,0.4,0.2l0.4,0.4c-0.1,0.6-0.4,1.5-0.9,2.6c-0.5,0.9-1.2,2.9-2.3,5.9C-428.6,1082.1-429.2,1083.7-429.3,1084z"
							/>
						<path class="st1" d="M-408.6,1079.8c-0.3,0.1-0.7,0.3-1.3,0.7c-0.3,0-0.8-0.2-1.5-0.6c0-0.2-0.1-0.5-0.3-1
							c-0.2-0.5-0.3-0.8-0.3-1.1c-0.2,0.2-0.3,0.4-0.4,0.6c-0.9,1.1-1.4,1.7-1.5,1.9c-0.7,0.6-1.4,0.8-2.2,0.7c-0.6-0.5-1-1.2-1-2.2
							c0-1.7,0.2-3,0.5-3.9c0.8-2.3,2.5-4.3,5-6.1h0.6c0.6,0,0.8,0.3,0.8,1c0,0.2-0.1,0.6-0.2,1.3c-0.1,0.3-0.4,0.7-0.8,1.2
							c-0.1,0.2-0.4,0.3-0.9,0.5c0.1-0.6,0.3-1.1,0.6-1.4c0-0.1,0.1-0.3,0.2-0.6c0,0,0-0.1,0-0.2c0-0.1,0-0.2,0-0.3
							c0.1-0.1,0.2-0.2,0.2-0.3c-0.1,0-0.4,0.2-0.8,0.6c-0.1,0-0.2,0.2-0.4,0.3c-2.5,2.8-3.7,5.4-3.8,7.7c0.1,0.7,0.3,1.1,0.6,1.2
							c0.8-0.2,1.5-0.8,2.1-1.9c0.7-0.6,1.3-1.7,1.8-3.2c0.3-0.6,0.8-2.1,1.5-4.6c0.1-0.2,0.4-0.4,0.8-0.5c0.2,0.2,0.3,0.5,0.3,0.8
							c0,0.2,0,0.4-0.1,0.7c-0.1,0.4-0.2,0.6-0.2,0.7c-1,2.6-1.4,4.4-1.4,5.3c0,1.1,0.2,1.9,0.7,2.3c0.1,0,0.4-0.2,0.9-0.5
							c0.4-0.2,0.7-0.4,0.8-0.4c0,0.1,0,0.2,0,0.4C-408.2,1079.4-408.3,1079.7-408.6,1079.8z"/>
						<path class="st1" d="M-400.7,1078.7c-0.1,0.1-0.4,0.4-0.8,0.7c-0.9,0.8-2,1.2-3.2,1.2c-0.6,0-1.2-0.1-1.8-0.4
							c-0.9-0.6-1.4-1.8-1.4-3.5c0.8-3.9,2.2-6.4,4.3-7.5c0.8,0.1,1.3,0.6,1.5,1.3c0,0.1,0,0.3-0.1,0.4c-0.1,0.1-0.2,0.2-0.4,0.2
							c-0.1,0-0.2,0-0.3-0.1c-0.1-0.1-0.2-0.1-0.3-0.1c0,0-0.1,0-0.2,0c-0.1,0.1-0.4,0.4-0.9,0.8c-0.4,0.3-0.6,0.7-0.7,1
							c-0.3,0.3-0.6,0.9-0.9,1.8c-0.3,0.5-0.5,1-0.6,1.7v1.8c0.2,0.8,0.7,1.2,1.5,1.2c0.6,0,2-0.5,4-1.6l0,0
							c0.1-0.1,0.4-0.2,0.7-0.1C-400.2,1078-400.4,1078.4-400.7,1078.7z"/>
						<path class="st1" d="M-398.6,1076.9l3.5-4.4c1.4-1.7,2.7-3,4.1-3.8c0.3-0.2,0.8-0.2,1.3,0c0.2,0.2,0.4,0.4,0.5,0.8
							c0.1,0.4,0.2,0.7,0.3,0.8c-0.1,0.4-0.3,0.8-0.3,1.4c-0.1,0.8-0.2,1.3-0.2,1.5c-0.6,2.3-0.9,3.6-0.9,3.9
							c-0.3,1.5-0.5,2.8-0.6,4c-0.7-0.5-1.1-1.2-1.1-2c0-0.3,0-0.7,0.1-1.1c0.1-0.6,0.2-0.9,0.2-1.1c0-0.5,0.3-1.6,0.8-3.3
							c0.4-1.3,0.5-2.4,0.5-3.3c-0.2-0.1-0.5,0.2-1.1,0.7c-1,0.9-2.1,2.1-3.2,3.6l-2.9,3.9c-0.2,0.2-0.5,0.4-0.7,0.8
							c-0.3,0.5-0.5,0.8-0.7,0.9c-0.4,0.2-0.6,0.2-0.8,0.1c-0.2-0.4-0.3-0.8-0.3-1.3c0-0.4,0.1-1,0.4-1.7c0.2-0.7,0.4-1.3,0.4-1.7
							c0.9-2.6,2.2-6.5,3.9-11.8c0-0.3,0.1-0.6,0.4-0.9c0-0.3,0.1-0.5,0.2-0.7c0.2-0.2,0.4-0.3,0.7-0.3c0.2,0,0.5,0.1,0.7,0.4
							c0.1,0.8-0.1,1.5-0.5,2.3c-0.6,1.2-1,2.2-1.1,3c-0.1,0-0.1,0.1-0.1,0.2c-0.6,1.6-1.1,3.1-1.7,4.7
							C-397.5,1073.4-398,1074.9-398.6,1076.9z"/>
						<path class="st1" d="M-385.3,1078.7c-0.2,0.4-0.6,0.9-1.1,1.5c-0.9,0.6-1.6,0.9-2.1,0.8c-0.4,0-0.9-0.4-1.4-1.1
							c0-0.4-0.1-0.9-0.1-1.3c0-2.5,0.4-5,1.1-7.5c0.1-0.4,0.4-1.2,1-2.4c0.1-0.2,0.3-0.3,0.6-0.3c0.2,0,0.5,0.1,0.7,0.3
							c0.2,0.2,0.3,0.4,0.3,0.6c0,0.1,0,0.2-0.1,0.3c-0.4,0.7-0.8,1.6-1.2,2.7l-0.8,3.7c-0.2,0.8-0.2,1.8-0.1,3
							c0,0.1,0.2,0.3,0.4,0.6c0.1,0,0.2-0.1,0.4-0.2c0.2-0.2,0.3-0.3,0.4-0.3c0.3-0.2,0.7-0.6,1.2-1.1s0.9-0.9,1.3-1.1l0.8-1
							C-384.4,1077.5-384.8,1078.4-385.3,1078.7z M-384.7,1065.9l-0.1,0.1c0,0-0.1,0.2-0.1,0.4c-1.2,0.1-1.8-0.2-1.8-0.8
							c0-0.4,0.1-0.6,0.4-0.7c0.1,0,0.4,0,0.9,0c0.1,0,0.3,0,0.5-0.1c0.2,0.1,0.4,0.3,0.6,0.6
							C-384.4,1065.5-384.5,1065.7-384.7,1065.9z"/>
						<path class="st1" d="M-375.8,1078.3l-0.1,0.1c-0.1,0.1-0.2,0.2-0.1,0.4c-1.9,1.4-3.5,2.2-4.6,2.3c-0.6,0-1.3-0.1-1.9-0.4
							c-0.5-0.3-0.9-0.7-1.1-1.2c-0.2-0.4-0.3-1-0.4-1.9c0.7-3.8,2.5-6.8,5.4-8.9c0.1,0,0.4-0.1,0.8-0.1c0.4-0.1,0.7,0,1,0.2
							c0.3,0.2,0.4,0.5,0.4,0.9c0,0.3-0.1,0.6-0.1,0.9c-0.4,1.4-1.8,3-4.2,4.8c-0.1,0.1-0.5,0.2-1.2,0.4c-0.4,0.1-0.6,0.3-0.5,0.6
							c-0.3,0.5-0.4,1-0.4,1.5c0,0.2,0.1,0.6,0.3,1.1c0.4,0.6,1.1,0.9,2,0.9l0.1-0.1c0.4,0,0.9-0.1,1.6-0.4c0.7-0.4,1.7-1,3.2-1.7
							c0,0.1,0,0.2,0,0.3C-375.6,1078.1-375.7,1078.2-375.8,1078.3z M-377.9,1070.5c-0.1-0.1-0.2-0.1-0.3-0.2
							c-1.3,0.8-2.4,2.1-3.3,4c0.1,0,0.3,0,0.4-0.1c0.6-0.6,1.2-1.1,1.8-1.7C-378.6,1071.7-378.1,1071-377.9,1070.5z"/>
						<path class="st1" d="M-365.2,1069.5l0.7,0.1c-0.1,0.4-0.3,0.6-0.6,0.8c-0.5,0.3-0.9,0.7-1.4,1c-0.2,0.2-0.8,0.3-1.7,0.3
							l-0.3-0.1c-0.1,0-0.3-0.1-0.3-0.1c0,0.4-0.1,0.9-0.3,1.7c-1.3,3.6-2.9,6.2-4.7,7.7c-0.4,0.4-1,0.5-1.7,0.3
							c-0.9-0.6-1.4-1.6-1.4-3.1c0-0.4,0-0.8,0.1-1.3c0.3-1.7,0.6-2.9,0.9-3.7c0-0.5,0.2-1.1,0.4-1.8c0.4-1,0.6-1.6,0.6-1.7
							c0.2-0.1,0.4-0.2,0.6-0.2c0.3,0,0.5,0.1,0.8,0.4c0,0.6-0.2,1.2-0.5,1.9c-0.4,1-0.7,1.6-0.7,1.7c0,0.3-0.2,1-0.5,2.2
							c-0.2,0.9-0.3,1.6-0.3,2.2c0,1,0.2,1.7,0.5,2c0.3-0.1,0.6-0.3,0.9-0.7c0.5-0.5,0.7-0.8,0.8-0.9c1.1-1.7,1.9-2.9,2.2-3.7
							c0.7-1.4,1-2.8,1-4.1c0-0.4,0-0.7-0.1-1.1c0.2-0.1,0.4-0.2,0.5-0.2c0.2,0,0.4,0.1,0.7,0.4c0.3,0.3,0.5,0.4,0.6,0.5
							c0.3,0.1,0.7,0.1,1,0.1c0.4,0,0.8-0.1,1.2-0.4C-365.6,1069.7-365.3,1069.5-365.2,1069.5z"/>
						<path class="st1" d="M-360.8,1078.3l-0.1,0.1c-0.1,0.1-0.2,0.2-0.1,0.4c-1.9,1.4-3.5,2.2-4.6,2.3c-0.6,0-1.3-0.1-1.9-0.4
							c-0.5-0.3-0.9-0.7-1.1-1.2c-0.2-0.4-0.3-1-0.4-1.9c0.7-3.8,2.5-6.8,5.4-8.9c0.1,0,0.4-0.1,0.8-0.1c0.4-0.1,0.7,0,1,0.2
							c0.3,0.2,0.4,0.5,0.4,0.9c0,0.3-0.1,0.6-0.1,0.9c-0.4,1.4-1.8,3-4.2,4.8c-0.1,0.1-0.5,0.2-1.2,0.4c-0.4,0.1-0.6,0.3-0.5,0.6
							c-0.3,0.5-0.4,1-0.4,1.5c0,0.2,0.1,0.6,0.3,1.1c0.4,0.6,1.1,0.9,2,0.9l0.1-0.1c0.4,0,0.9-0.1,1.6-0.4c0.7-0.4,1.7-1,3.2-1.7
							c0,0.1,0,0.2,0,0.3C-360.6,1078.1-360.7,1078.2-360.8,1078.3z M-362.9,1070.5c-0.1-0.1-0.2-0.1-0.3-0.2
							c-1.3,0.8-2.4,2.1-3.3,4c0.1,0,0.3,0,0.4-0.1c0.6-0.6,1.2-1.1,1.8-1.7C-363.6,1071.7-363.1,1071-362.9,1070.5z"/>
						<path class="st1" d="M-344.5,1079.8c-0.3,0.1-0.7,0.3-1.3,0.7c-0.3,0-0.8-0.2-1.5-0.6c0-0.2-0.1-0.5-0.3-1
							c-0.2-0.5-0.3-0.8-0.3-1.1c-0.2,0.2-0.3,0.4-0.4,0.6c-0.9,1.1-1.4,1.7-1.5,1.9c-0.7,0.6-1.4,0.8-2.2,0.7c-0.6-0.5-1-1.2-1-2.2
							c0-1.7,0.2-3,0.5-3.9c0.8-2.3,2.5-4.3,5-6.1h0.6c0.6,0,0.8,0.3,0.8,1c0,0.2-0.1,0.6-0.2,1.3c-0.1,0.3-0.4,0.7-0.8,1.2
							c-0.1,0.2-0.4,0.3-0.9,0.5c0.1-0.6,0.3-1.1,0.6-1.4c0-0.1,0.1-0.3,0.2-0.6c0,0,0-0.1,0-0.2c0-0.1,0-0.2,0-0.3
							c0.1-0.1,0.2-0.2,0.2-0.3c-0.1,0-0.4,0.2-0.8,0.6c-0.1,0-0.2,0.2-0.4,0.3c-2.5,2.8-3.7,5.4-3.8,7.7c0.1,0.7,0.3,1.1,0.6,1.2
							c0.8-0.2,1.5-0.8,2.1-1.9c0.7-0.6,1.3-1.7,1.8-3.2c0.3-0.6,0.8-2.1,1.5-4.6c0.1-0.2,0.4-0.4,0.8-0.5c0.2,0.2,0.3,0.5,0.3,0.8
							c0,0.2,0,0.4-0.1,0.7c-0.1,0.4-0.2,0.6-0.2,0.7c-1,2.6-1.4,4.4-1.4,5.3c0,1.1,0.2,1.9,0.7,2.3c0.1,0,0.4-0.2,0.9-0.5
							c0.4-0.2,0.7-0.4,0.8-0.4c0,0.1,0,0.2,0,0.4C-344.1,1079.4-344.2,1079.7-344.5,1079.8z"/>
						<path class="st1" d="M-335.6,1073.3c-0.2,0.8-0.3,1.6-0.5,2.3c-0.2,1-0.3,1.8-0.3,2.3c0,1.1,0.3,2,0.8,2.8
							c-0.2,0.1-0.5,0.1-0.6,0.1c-0.3,0-0.6-0.1-0.9-0.3c-0.5-0.8-0.7-1.7-0.7-2.8c0-0.7,0.1-1.6,0.3-2.6l0.5-2.5l0-0.1
							c-0.9,0.7-1.9,1.9-3.1,3.6c-1.2,1.8-2.2,3.1-2.9,3.7c-0.3,0.1-0.6,0.2-0.9,0.2c-0.1,0-0.3,0-0.4-0.1c-0.4-0.3-0.5-0.8-0.3-1.6
							c0.3-1,0.6-2.4,1.1-4.1c0.4-1.6,0.7-3,0.9-4.2c0.2-0.2,0.4-0.3,0.6-0.3c0.2,0,0.5,0.1,0.7,0.4c0.2,0.3,0.3,0.5,0.2,0.8
							l-1.5,6.4c0.1-0.3,0.3-0.6,0.7-1c1.2-1.7,2-2.8,2.4-3.2c1-1.1,2-2,3-2.7c0.8,0,1.2,0.4,1.2,1.3c0,0.2,0,0.4-0.1,0.8
							C-335.5,1072.9-335.6,1073.1-335.6,1073.3z"/>
						<path class="st1" d="M-330.9,1084c-1,1.9-2,3.6-3,5c-0.3,0.3-0.9,0.9-1.7,1.6c-0.3,0.3-0.6,0.5-0.7,0.5
							c-0.1,0-0.5,0.1-1.1,0.2c1.2-1.2,2.5-3,3.7-5.3c1.1-2,1.8-3.9,2.3-5.7c0-0.1-0.1-0.3-0.1-0.5c-0.1-0.3-0.3-0.5-0.5-0.6
							c-1-0.6-1.7-2.2-2.3-4.6c0-0.8-0.2-2.3-0.5-4.4c0,0.1,0-0.2,0-0.7c0-0.2,0.1-0.3,0.2-0.3c0.3,0,0.5,0.1,0.8,0.5
							c0.3,0.3,0.4,0.7,0.4,1c0.2,1.4,0.4,2.9,0.7,4.4c0.4,1.9,1.2,3.1,2.3,3.7c0.7-1.4,1.7-4.2,3-8.3c0.5-0.3,0.8-0.4,0.9-0.4
							c0.1,0,0.3,0.1,0.4,0.2l0.4,0.4c-0.1,0.6-0.4,1.5-0.9,2.6c-0.5,0.9-1.2,2.9-2.3,5.9C-330.1,1082.1-330.7,1083.7-330.9,1084z"
							/>
						<path class="st1" d="M-321.8,1069.2c0.5,0.1,1,0.1,1.5,0.2c0.6,0.1,1,0.3,1.4,0.7l0,0.7c-0.4,0-1.1,0-2.1,0
							c-0.6,0-1.1,0-1.5,0.1c-1.6,3-2.3,5.5-2.2,7.5c0,0.3,0,0.6,0.1,0.8s0.3,0.4,0.7,0.4c0.2,0,0.5,0,0.9-0.1
							c0.3,0,0.7-0.2,1.3-0.6c0.6-0.4,1.1-0.6,1.7-0.6c-0.4,1.3-1.5,2.2-3.3,2.6c-0.2,0-0.4,0.1-0.6,0.1c-0.6,0-1.2-0.2-1.5-0.6
							c-0.4-0.7-0.7-1.5-0.7-2.5c0-1.3,0.3-2.9,1-4.7c0.2-0.4,0.5-1.1,0.8-2.1c-0.8,0-1.6,0.4-2.2,1.2c-0.4,0-0.8-0.4-1-1.2
							c0-0.3,0.3-0.6,0.9-0.9c0.4-0.3,0.8-0.5,1.4-0.6c0.5-0.1,1.1-0.2,1.6-0.3c1.1-2.2,1.9-4.3,2.3-6.3c0.2-0.2,0.3-0.4,0.5-0.4
							c0.3,0,0.6,0.2,0.9,0.7c-0.1,1.6-0.7,3.5-1.9,5.7C-321.7,1069.2-321.8,1069.2-321.8,1069.2z"/>
						<path class="st1" d="M-318.4,1076.9l3.5-4.4c1.4-1.7,2.7-3,4.1-3.8c0.3-0.2,0.8-0.2,1.3,0c0.2,0.2,0.4,0.4,0.5,0.8
							c0.1,0.4,0.2,0.7,0.3,0.8c-0.1,0.4-0.3,0.8-0.3,1.4c-0.1,0.8-0.2,1.3-0.2,1.5c-0.6,2.3-0.9,3.6-0.9,3.9
							c-0.3,1.5-0.5,2.8-0.6,4c-0.7-0.5-1.1-1.2-1.1-2c0-0.3,0-0.7,0.1-1.1c0.1-0.6,0.2-0.9,0.2-1.1c0-0.5,0.3-1.6,0.8-3.3
							c0.4-1.3,0.5-2.4,0.5-3.3c-0.2-0.1-0.5,0.2-1.1,0.7c-1,0.9-2.1,2.1-3.2,3.6l-2.9,3.9c-0.2,0.2-0.5,0.4-0.7,0.8
							c-0.3,0.5-0.5,0.8-0.7,0.9c-0.4,0.2-0.6,0.2-0.8,0.1c-0.2-0.4-0.3-0.8-0.3-1.3c0-0.4,0.1-1,0.4-1.7c0.2-0.7,0.4-1.3,0.4-1.7
							c0.9-2.6,2.2-6.5,3.9-11.8c0-0.3,0.1-0.6,0.4-0.9c0-0.3,0.1-0.5,0.2-0.7c0.2-0.2,0.4-0.3,0.7-0.3c0.2,0,0.5,0.1,0.7,0.4
							c0.1,0.8-0.1,1.5-0.5,2.3c-0.6,1.2-1,2.2-1.1,3c-0.1,0-0.1,0.1-0.1,0.2c-0.6,1.6-1.1,3.1-1.7,4.7
							C-317.3,1073.4-317.7,1074.9-318.4,1076.9z"/>
						<path class="st1" d="M-305,1078.7c-0.2,0.4-0.6,0.9-1.1,1.5c-0.9,0.6-1.6,0.9-2.1,0.8c-0.4,0-0.9-0.4-1.4-1.1
							c0-0.4-0.1-0.9-0.1-1.3c0-2.5,0.4-5,1.1-7.5c0.1-0.4,0.4-1.2,1-2.4c0.1-0.2,0.3-0.3,0.6-0.3c0.2,0,0.5,0.1,0.7,0.3
							c0.2,0.2,0.3,0.4,0.3,0.6c0,0.1,0,0.2-0.1,0.3c-0.4,0.7-0.8,1.6-1.2,2.7l-0.8,3.7c-0.2,0.8-0.2,1.8-0.1,3
							c0,0.1,0.2,0.3,0.4,0.6c0.1,0,0.2-0.1,0.4-0.2c0.2-0.2,0.3-0.3,0.4-0.3c0.3-0.2,0.7-0.6,1.2-1.1s0.9-0.9,1.3-1.1l0.8-1
							C-304.1,1077.5-304.6,1078.4-305,1078.7z M-304.5,1065.9l-0.1,0.1c0,0-0.1,0.2-0.1,0.4c-1.2,0.1-1.8-0.2-1.8-0.8
							c0-0.4,0.1-0.6,0.4-0.7c0.1,0,0.4,0,0.9,0c0.1,0,0.3,0,0.5-0.1c0.2,0.1,0.4,0.3,0.6,0.6
							C-304.2,1065.5-304.3,1065.7-304.5,1065.9z"/>
						<path class="st1" d="M-295.8,1073.3c-0.2,0.8-0.3,1.6-0.5,2.3c-0.2,1-0.3,1.8-0.3,2.3c0,1.1,0.3,2,0.8,2.8
							c-0.2,0.1-0.5,0.1-0.6,0.1c-0.3,0-0.6-0.1-0.9-0.3c-0.5-0.8-0.7-1.7-0.7-2.8c0-0.7,0.1-1.6,0.3-2.6l0.5-2.5l0-0.1
							c-0.9,0.7-1.9,1.9-3.1,3.6c-1.2,1.8-2.2,3.1-2.9,3.7c-0.3,0.1-0.6,0.2-0.9,0.2c-0.1,0-0.3,0-0.4-0.1c-0.4-0.3-0.5-0.8-0.3-1.6
							c0.3-1,0.6-2.4,1.1-4.1c0.4-1.6,0.7-3,0.9-4.2c0.2-0.2,0.4-0.3,0.6-0.3c0.2,0,0.5,0.1,0.7,0.4c0.2,0.3,0.3,0.5,0.2,0.8
							l-1.5,6.4c0.1-0.3,0.3-0.6,0.7-1c1.2-1.7,2-2.8,2.4-3.2c1-1.1,2-2,3-2.7c0.8,0,1.2,0.4,1.2,1.3c0,0.2,0,0.4-0.1,0.8
							C-295.8,1072.9-295.8,1073.1-295.8,1073.3z"/>
						<path class="st1" d="M-289.2,1069c0.9-0.1,1.5,0.1,1.8,0.6c0.2,0.4,0.3,1,0.3,2.1v1.7c-0.2,0.1-0.3,0.3-0.3,0.5
							c-0.1,0.3-0.3,0.6-0.4,1.1l-0.1,0.3c0,0,0,0.1-0.1,0.3c-0.5,1.1-0.9,2.2-1.1,3.3c-0.2,0.4-0.4,1-0.5,1.6
							c-0.1,0.1-0.2,0.2-0.2,0.5c0,0.2,0,0.4-0.1,0.5c-0.8,3-1.4,4.9-1.7,5.6c-1.4,3.7-3,5.5-4.8,5.5c-0.2,0-0.4,0-0.6-0.1l-0.8-0.8
							c1.3,0.1,2.1-0.3,2.5-1.1c0.5-0.5,0.9-1,1.2-1.7c1.3-2.8,2.3-5.6,2.8-8.5c-0.5,0.3-1.2,0.3-2.1,0c-1.1-0.7-1.7-1.4-1.9-2.3
							c-0.2-0.7-0.3-1.3-0.3-1.9c0-0.6,0.1-1,0.3-1.5c0.9-2.3,1.9-3.9,3-4.7c0.6-0.3,1.2-0.6,1.9-0.8
							C-290,1069.2-289.6,1069.1-289.2,1069z M-288.5,1070.7L-288.5,1070.7c-0.1-0.2-0.1-0.3-0.2-0.3c-0.1,0-0.6,0.2-1.7,0.6
							c-0.8,0.3-1.2,0.5-1.3,0.8c-0.5,0.3-1.1,1.2-1.8,2.7c-0.3,0.7-0.5,1.4-0.5,2c0,0.4,0.1,0.8,0.2,1.4c0.1,0.4,0.5,0.9,1.2,1.5
							c0.5,0.1,1-0.2,1.6-0.9c0.5-0.7,0.8-1.5,1-2.3c0-0.5,0.3-1.2,0.7-1.9c0.1-0.3,0.3-0.6,0.5-0.9c0-0.1-0.2-0.3-0.5-0.4
							c0.5-0.2,0.7-0.5,0.7-0.9V1070.7z"/>
						<path class="st1" d="M-274,1084c-1,1.9-2,3.6-3,5c-0.3,0.3-0.9,0.9-1.7,1.6c-0.3,0.3-0.6,0.5-0.7,0.5c-0.1,0-0.5,0.1-1.1,0.2
							c1.2-1.2,2.5-3,3.7-5.3c1.1-2,1.8-3.9,2.3-5.7c0-0.1-0.1-0.3-0.1-0.5c-0.1-0.3-0.3-0.5-0.5-0.6c-1-0.6-1.7-2.2-2.3-4.6
							c0-0.8-0.2-2.3-0.5-4.4c0,0.1,0-0.2,0-0.7c0-0.2,0.1-0.3,0.2-0.3c0.3,0,0.5,0.1,0.8,0.5c0.3,0.3,0.4,0.7,0.4,1
							c0.2,1.4,0.4,2.9,0.7,4.4c0.4,1.9,1.2,3.1,2.3,3.7c0.7-1.4,1.7-4.2,3-8.3c0.5-0.3,0.8-0.4,0.9-0.4c0.1,0,0.3,0.1,0.4,0.2
							l0.4,0.4c-0.1,0.6-0.4,1.5-0.9,2.6c-0.5,0.9-1.2,2.9-2.3,5.9C-273.2,1082.1-273.8,1083.7-274,1084z"/>
						<path class="st1" d="M-261.5,1076.6c-0.2,0.1-0.3,0.3-0.5,0.6c-0.2,0.4-0.3,0.6-0.3,0.7c-0.3,0.4-0.8,0.9-1.6,1.6
							c-0.7,1-1.8,1.6-3.2,1.8c-0.4,0-0.8,0-1.2-0.1c-0.9-0.5-1.5-1.3-1.8-2.7c0.1-0.8,0.3-1.6,0.6-2.5c0.2-0.5,0.5-1.3,0.9-2.3
							c0.2-0.2,0.4-0.6,0.8-1.2c0.3-0.5,0.6-0.8,1-1c0.3-0.5,0.8-0.9,1.5-1c0.2,0,0.6-0.2,1.2-0.7c0-0.1,0-0.2,0.2-0.4
							c0.3,0,0.5,0,0.7,0c0.4,0,0.6,0,0.9,0.1c1,0.7,1.5,1.9,1.5,3.5c0,0.4,0,0.8-0.1,1.3C-260.9,1074.7-261.1,1075.4-261.5,1076.6z
							 M-262.1,1071.5c-0.1-0.5-0.3-0.9-0.7-1.1l-1.6,0.6l0.4,0.4c0,0.3,0,0.6,0.1,1.2c0,0.4-0.1,0.8-0.4,1
							c-0.1,0.1-0.2,0.1-0.4,0.1c-0.3,0-0.6-0.4-0.6-1.2c-0.2,0.1-0.5,0.3-0.8,0.8c-0.4,0.5-0.7,0.8-0.9,0.9c-0.7,1.4-1,2.3-1.1,2.5
							c-0.2,0.6-0.3,1.2-0.3,1.8c0,0.3,0,0.6,0.1,0.9c0.2,0.2,0.5,0.4,1.1,0.4c2.7-0.8,4.5-3,5.4-6.6
							C-261.9,1072.6-262,1072-262.1,1071.5z"/>
						<path class="st1" d="M-250.5,1078.3c-0.3,0.3-0.7,0.6-1.1,1c-0.6,0.4-1.2,0.5-1.6,0.5c-0.6,0-1.1-0.4-1.3-1.3
							c0-0.1-0.1-0.2-0.1-0.5c-0.1-0.4-0.2-0.6-0.3-0.6c0,0-0.7,0.8-2.1,2.3c-0.9,0.8-2,1.3-3.4,1.5c-0.7-0.8-1-1.7-1-2.7
							c0-0.5,0.1-1.1,0.2-1.8c0.1-0.9,0.2-1.5,0.3-1.8c0.4-1.8,1-3.6,2-5.3c0.3,0,0.6,0,0.9,0.3c0.1,0.2,0.1,0.4,0.1,0.5
							c0,0.2-0.1,0.5-0.3,0.8c-0.2,0.4-0.4,0.7-0.4,0.8c-0.4,1.1-0.8,2.7-1.4,4.7c0,0.6-0.1,1.1-0.1,1.5c0,0.7,0.1,1.2,0.2,1.5
							c0.6-0.1,1.1-0.3,1.5-0.5c0,0,0.4-0.3,1.2-0.9c0.2-0.3,0.8-1.2,1.8-2.5c0.8-1,1.2-1.9,1.3-2.7c0.6-1.6,1.3-2.8,1.9-3.7
							c0.4-0.3,0.7-0.2,0.8,0.2c0.1,0.2,0.1,0.4,0.1,0.6c0,0.4-0.1,0.8-0.4,1.4c-0.3,0.6-0.5,1.1-0.5,1.3c-0.7,0.9-1.1,2.1-1.2,3.8
							c0,0.1,0.1,0.4,0.1,1c0,0.4,0.2,0.6,0.4,0.7c0.3-0.1,0.6-0.2,0.9-0.4c0.4-0.3,0.7-0.5,0.8-0.5c0.3-0.3,0.7-0.7,1.3-1.2
							l0.4,0.3C-249.9,1077.5-250.1,1078-250.5,1078.3z"/>
						<path class="st1" d="M-222.3,1068.4c-0.2,0.3-0.4,0.6-0.6,1c-0.6,0.6-1.6,2.2-3.1,4.8c-1.2,2-2.4,3.4-3.6,4.2
							c-0.3,0.1-0.6,0.1-0.8,0.1c-0.4,0-0.9-0.1-1.3-0.3c-0.3-0.4-0.6-0.9-1.1-1.6c0-0.3-0.2-0.9-0.4-1.9c-0.2-0.8-0.3-1.4-0.3-1.9
							c-0.3,0.6-0.8,1.4-1.6,2.4c-0.1,0.4-0.4,0.9-0.8,1.5c-0.4,0.6-0.7,1.1-0.8,1.4c-0.4,0.5-1,1.3-2,2.2h-1
							c-0.6,0-0.8-0.3-0.8-0.8c0-1.5,0.1-3.3,0.4-5.5c0.2-1.6,0.4-3.3,0.6-5.3c0-0.3,0.2-0.4,0.5-0.4c0.4,0,0.6,0.1,0.8,0.3
							c0.3,0.4,0.4,0.8,0.4,1.2c0,0.3-0.1,0.7-0.2,1.2c-0.1,0.6-0.2,1-0.2,1.2c0,0.3-0.1,0.7-0.3,1.2c-0.1,0.4-0.1,0.7,0.3,1.1
							c-0.3,0-0.4,0.1-0.4,0.1v0.1c0,0.2,0,0.6-0.1,0.9c-0.1,0.5-0.2,0.9-0.2,1c-0.1,0.6-0.1,1.2,0,1.5c0.4-0.2,0.8-0.7,1.2-1.4
							c0.5-0.8,0.8-1.3,1-1.5c0.6-1.2,1.8-3.3,3.7-6.2c0.3-0.2,0.6-0.3,0.9-0.3c0.1,0,0.3,0,0.4,0c0.4,0.2,0.5,0.4,0.5,0.7
							c0,0.1,0,0.3-0.1,0.6c-0.1,0.3-0.1,0.5-0.1,0.6c-0.1,0.2-0.2,0.5-0.2,1c0,0.5-0.1,0.8-0.2,0.9c0.1,1.5,0.1,2.3,0.1,2.4
							c0.2,0.9,0.6,1.6,1.2,2c0.2,0,0.5-0.2,0.7-0.7c0.5-0.6,1.7-2.2,3.5-4.9c1.4-2,2.6-3.6,3.7-4.7h0.7
							C-221.9,1067.5-222.1,1067.9-222.3,1068.4z"/>
						<path class="st1" d="M-216.5,1079.8c-0.3,0.1-0.7,0.3-1.3,0.7c-0.3,0-0.8-0.2-1.5-0.6c0-0.2-0.1-0.5-0.3-1
							c-0.2-0.5-0.3-0.8-0.3-1.1c-0.2,0.2-0.3,0.4-0.4,0.6c-0.9,1.1-1.4,1.7-1.5,1.9c-0.7,0.6-1.4,0.8-2.2,0.7c-0.6-0.5-1-1.2-1-2.2
							c0-1.7,0.2-3,0.5-3.9c0.8-2.3,2.5-4.3,5-6.1h0.6c0.6,0,0.8,0.3,0.8,1c0,0.2-0.1,0.6-0.2,1.3c-0.1,0.3-0.4,0.7-0.8,1.2
							c-0.1,0.2-0.4,0.3-0.9,0.5c0.1-0.6,0.3-1.1,0.6-1.4c0-0.1,0.1-0.3,0.2-0.6c0,0,0-0.1,0-0.2c0-0.1,0-0.2,0-0.3
							c0.1-0.1,0.2-0.2,0.2-0.3c-0.1,0-0.4,0.2-0.8,0.6c-0.1,0-0.2,0.2-0.4,0.3c-2.5,2.8-3.7,5.4-3.8,7.7c0.1,0.7,0.3,1.1,0.6,1.2
							c0.8-0.2,1.5-0.8,2.1-1.9c0.7-0.6,1.3-1.7,1.8-3.2c0.3-0.6,0.8-2.1,1.5-4.6c0.1-0.2,0.4-0.4,0.8-0.5c0.2,0.2,0.3,0.5,0.3,0.8
							c0,0.2,0,0.4-0.1,0.7c-0.1,0.4-0.2,0.6-0.2,0.7c-1,2.6-1.4,4.4-1.4,5.3c0,1.1,0.2,1.9,0.7,2.3c0.1,0,0.4-0.2,0.9-0.5
							c0.4-0.2,0.7-0.4,0.8-0.4c0,0.1,0,0.2,0,0.4C-216.1,1079.4-216.2,1079.7-216.5,1079.8z"/>
						<path class="st1" d="M-207.6,1073.3c-0.2,0.8-0.3,1.6-0.5,2.3c-0.2,1-0.3,1.8-0.3,2.3c0,1.1,0.3,2,0.8,2.8
							c-0.2,0.1-0.5,0.1-0.6,0.1c-0.3,0-0.6-0.1-0.9-0.3c-0.5-0.8-0.7-1.7-0.7-2.8c0-0.7,0.1-1.6,0.3-2.6l0.5-2.5l0-0.1
							c-0.9,0.7-1.9,1.9-3.1,3.6c-1.2,1.8-2.2,3.1-2.9,3.7c-0.3,0.1-0.6,0.2-0.9,0.2c-0.1,0-0.3,0-0.4-0.1c-0.4-0.3-0.5-0.8-0.3-1.6
							c0.3-1,0.6-2.4,1.1-4.1c0.4-1.6,0.7-3,0.9-4.2c0.2-0.2,0.4-0.3,0.6-0.3c0.2,0,0.5,0.1,0.7,0.4c0.2,0.3,0.3,0.5,0.2,0.8
							l-1.5,6.4c0.1-0.3,0.3-0.6,0.7-1c1.2-1.7,2-2.8,2.4-3.2c1-1.1,2-2,3-2.7c0.8,0,1.2,0.4,1.2,1.3c0,0.2,0,0.4-0.1,0.8
							C-207.6,1072.9-207.6,1073.1-207.6,1073.3z"/>
						<path class="st1" d="M-201.5,1069.2c0.5,0.1,1,0.1,1.5,0.2c0.6,0.1,1,0.3,1.4,0.7l0,0.7c-0.4,0-1.1,0-2.1,0
							c-0.6,0-1.1,0-1.5,0.1c-1.6,3-2.3,5.5-2.2,7.5c0,0.3,0,0.6,0.1,0.8s0.3,0.4,0.7,0.4c0.2,0,0.5,0,0.9-0.1
							c0.3,0,0.7-0.2,1.3-0.6c0.6-0.4,1.1-0.6,1.7-0.6c-0.4,1.3-1.5,2.2-3.3,2.6c-0.2,0-0.4,0.1-0.6,0.1c-0.6,0-1.2-0.2-1.5-0.6
							c-0.4-0.7-0.7-1.5-0.7-2.5c0-1.3,0.3-2.9,1-4.7c0.2-0.4,0.5-1.1,0.8-2.1c-0.8,0-1.6,0.4-2.2,1.2c-0.4,0-0.8-0.4-1-1.2
							c0-0.3,0.3-0.6,0.9-0.9c0.4-0.3,0.8-0.5,1.4-0.6c0.5-0.1,1.1-0.2,1.6-0.3c1.1-2.2,1.9-4.3,2.3-6.3c0.2-0.2,0.3-0.4,0.5-0.4
							c0.3,0,0.6,0.2,0.9,0.7c-0.1,1.6-0.7,3.5-1.9,5.7C-201.4,1069.2-201.5,1069.2-201.5,1069.2z"/>
					</g>
					<g class="st0">
						<path class="st1" d="M-461.3,1109.3c-0.3,0.3-0.7,0.6-1.1,1c-0.6,0.4-1.2,0.5-1.6,0.5c-0.6,0-1.1-0.4-1.3-1.3
							c0-0.1-0.1-0.2-0.1-0.5c-0.1-0.4-0.2-0.6-0.3-0.6c0,0-0.7,0.8-2.1,2.3c-0.9,0.8-2,1.3-3.4,1.5c-0.7-0.8-1-1.7-1-2.7
							c0-0.5,0.1-1.1,0.2-1.8c0.1-0.9,0.2-1.5,0.3-1.8c0.4-1.8,1-3.6,2-5.3c0.3,0,0.6,0,0.9,0.3c0.1,0.2,0.1,0.4,0.1,0.5
							c0,0.2-0.1,0.5-0.3,0.8c-0.2,0.4-0.4,0.7-0.4,0.8c-0.4,1.1-0.8,2.7-1.4,4.7c0,0.6-0.1,1.1-0.1,1.5c0,0.7,0.1,1.2,0.2,1.5
							c0.6-0.1,1.1-0.3,1.5-0.5c0,0,0.4-0.3,1.2-0.9c0.2-0.3,0.8-1.2,1.8-2.5c0.8-1,1.2-1.9,1.3-2.7c0.6-1.6,1.3-2.8,1.9-3.7
							c0.4-0.3,0.7-0.2,0.8,0.2c0.1,0.2,0.1,0.4,0.1,0.6c0,0.4-0.1,0.8-0.4,1.4c-0.3,0.6-0.5,1.1-0.5,1.3c-0.7,0.9-1.1,2.1-1.2,3.8
							c0,0.1,0.1,0.4,0.1,1c0,0.4,0.2,0.6,0.4,0.7c0.3-0.1,0.6-0.2,0.9-0.4c0.4-0.3,0.7-0.5,0.8-0.5c0.3-0.3,0.7-0.7,1.3-1.2
							l0.4,0.3C-460.7,1108.5-460.9,1109-461.3,1109.3z"/>
						<path class="st1" d="M-461.1,1105c0.1,0,0.2,0,0.1,0C-460.9,1105.1-461,1105.1-461.1,1105l0.5,0.2c0,0.1,0,0.2,0.2,0.3
							c0,0,0.1,0,0.1,0.1c0,0,0.1,0,0.2,0h0.3c0.1,0.2,0.4,0.4,1,0.6c0.5,0.2,0.8,0.3,1,0.5c1.1,0.5,1.7,1.2,1.8,1.9
							c0,0.5-0.2,1-0.7,1.6c-0.1,0-0.2,0.1-0.3,0.2c-0.1,0.1-0.1,0.2-0.2,0.3c-1.4,1-2.7,1.4-3.9,1.3c-0.7,0-1.4-0.3-1.9-0.7
							c-0.2-0.8-0.3-1.1-0.3-0.9c0-0.2,0.2-0.5,0.5-0.7c0.1,0.1,0.3,0.5,0.6,1c0.2,0.3,0.4,0.4,0.7,0.3c1.2-0.3,1.9-0.5,2.2-0.6
							c0.9-0.4,1.4-0.9,1.7-1.5c-0.1-0.6-0.9-1.2-2.4-1.8c-0.5-0.2-1.1-0.5-1.8-0.8c-0.6-0.4-0.9-1-0.9-1.7c0.2-0.3,0.6-0.7,1.2-1.2
							c0.7-0.5,1.2-0.9,1.3-1c0.3-0.2,0.9-0.5,1.6-0.8c0.3-0.2,1.2-0.5,2.5-1c0.4,0.1,0.7,0.1,0.7,0.1c0.3,0.1,0.4,0.3,0.4,0.5
							c0,0.2-0.2,0.4-0.5,0.5c-0.2,0-0.4,0.2-0.7,0.3c-0.3,0.2-0.6,0.3-0.7,0.3c-0.1,0-0.6,0.2-1.6,0.7c-1.2,0.6-2,1.2-2.6,1.8
							C-460.9,1104.7-461,1104.8-461.1,1105L-461.1,1105z"/>
						<path class="st1" d="M-450.5,1109.7c-0.2,0.4-0.6,0.9-1.1,1.5c-0.9,0.6-1.6,0.9-2.1,0.8c-0.4,0-0.9-0.4-1.4-1.1
							c0-0.4-0.1-0.9-0.1-1.3c0-2.5,0.4-5,1.1-7.5c0.1-0.4,0.4-1.2,1-2.4c0.1-0.2,0.3-0.3,0.6-0.3c0.2,0,0.5,0.1,0.7,0.3
							c0.2,0.2,0.3,0.4,0.3,0.6c0,0.1,0,0.2-0.1,0.3c-0.4,0.7-0.8,1.6-1.2,2.7l-0.8,3.7c-0.2,0.8-0.2,1.8-0.1,3
							c0,0.1,0.2,0.3,0.4,0.6c0.1,0,0.2-0.1,0.4-0.2c0.2-0.2,0.3-0.3,0.4-0.3c0.3-0.2,0.7-0.6,1.2-1.1s0.9-0.9,1.3-1.1l0.8-1
							C-449.6,1108.5-450.1,1109.4-450.5,1109.7z M-449.9,1096.9l-0.1,0.1c0,0-0.1,0.2-0.1,0.4c-1.2,0.1-1.8-0.2-1.8-0.8
							c0-0.4,0.1-0.6,0.4-0.7c0.1,0,0.4,0,0.9,0c0.1,0,0.3,0,0.5-0.1c0.2,0.1,0.4,0.3,0.6,0.6
							C-449.7,1096.5-449.7,1096.7-449.9,1096.9z"/>
						<path class="st1" d="M-441.3,1104.3c-0.2,0.8-0.3,1.6-0.5,2.3c-0.2,1-0.3,1.8-0.3,2.3c0,1.1,0.3,2,0.8,2.8
							c-0.2,0.1-0.5,0.1-0.6,0.1c-0.3,0-0.6-0.1-0.9-0.3c-0.5-0.8-0.7-1.7-0.7-2.8c0-0.7,0.1-1.6,0.3-2.6l0.5-2.5l0-0.1
							c-0.9,0.7-1.9,1.9-3.1,3.6c-1.2,1.8-2.2,3.1-2.9,3.7c-0.3,0.1-0.6,0.2-0.9,0.2c-0.1,0-0.3,0-0.4-0.1c-0.4-0.3-0.5-0.8-0.3-1.6
							c0.3-1,0.6-2.4,1.1-4.1c0.4-1.6,0.7-3,0.9-4.2c0.2-0.2,0.4-0.3,0.6-0.3c0.2,0,0.5,0.1,0.7,0.4c0.2,0.3,0.3,0.5,0.2,0.8
							l-1.5,6.4c0.1-0.3,0.3-0.6,0.7-1c1.2-1.7,2-2.8,2.4-3.2c1-1.1,2-2,3-2.7c0.8,0,1.2,0.4,1.2,1.3c0,0.2,0,0.4-0.1,0.8
							C-441.3,1103.9-441.3,1104.1-441.3,1104.3z"/>
						<path class="st1" d="M-434.7,1100c0.9-0.1,1.5,0.1,1.8,0.6c0.2,0.4,0.3,1,0.3,2.1v1.7c-0.2,0.1-0.3,0.3-0.3,0.5
							c-0.1,0.3-0.3,0.6-0.4,1.1l-0.1,0.3c0,0,0,0.1-0.1,0.3c-0.5,1.1-0.9,2.2-1.1,3.3c-0.2,0.4-0.4,1-0.5,1.6
							c-0.1,0.1-0.2,0.2-0.2,0.5c0,0.2,0,0.4-0.1,0.5c-0.8,3-1.4,4.9-1.7,5.6c-1.4,3.7-3,5.5-4.8,5.5c-0.2,0-0.4,0-0.6-0.1l-0.8-0.8
							c1.3,0.1,2.1-0.3,2.5-1.1c0.5-0.5,0.9-1,1.2-1.7c1.3-2.8,2.3-5.6,2.8-8.5c-0.5,0.3-1.2,0.3-2.1,0c-1.1-0.7-1.7-1.4-1.9-2.3
							c-0.2-0.7-0.3-1.3-0.3-1.9c0-0.6,0.1-1,0.3-1.5c0.9-2.3,1.9-3.9,3-4.7c0.6-0.3,1.2-0.6,1.9-0.8
							C-435.4,1100.2-435.1,1100.1-434.7,1100z M-433.9,1101.7L-433.9,1101.7c-0.1-0.2-0.1-0.3-0.2-0.3c-0.1,0-0.6,0.2-1.7,0.6
							c-0.8,0.3-1.2,0.5-1.3,0.8c-0.5,0.3-1.1,1.2-1.8,2.7c-0.3,0.7-0.5,1.4-0.5,2c0,0.4,0.1,0.8,0.2,1.4c0.1,0.4,0.5,0.9,1.2,1.5
							c0.5,0.1,1-0.2,1.6-0.9c0.5-0.7,0.8-1.5,1-2.3c0-0.5,0.3-1.2,0.7-1.9c0.1-0.3,0.3-0.6,0.5-0.9c0-0.1-0.2-0.3-0.5-0.4
							c0.5-0.2,0.7-0.5,0.7-0.9V1101.7z"/>
						<path class="st1" d="M-417.5,1100.2c0.5,0.1,1,0.1,1.5,0.2c0.6,0.1,1,0.3,1.4,0.7l0,0.7c-0.4,0-1.1,0-2.1,0
							c-0.6,0-1.1,0-1.5,0.1c-1.6,3-2.3,5.5-2.2,7.5c0,0.3,0,0.6,0.1,0.8s0.3,0.4,0.7,0.4c0.2,0,0.5,0,0.9-0.1
							c0.3,0,0.7-0.2,1.3-0.6c0.6-0.4,1.1-0.6,1.7-0.6c-0.4,1.3-1.5,2.2-3.3,2.6c-0.2,0-0.4,0.1-0.6,0.1c-0.6,0-1.2-0.2-1.5-0.6
							c-0.4-0.7-0.7-1.5-0.7-2.5c0-1.3,0.3-2.9,1-4.7c0.2-0.4,0.5-1.1,0.8-2.1c-0.8,0-1.6,0.4-2.2,1.2c-0.4,0-0.8-0.4-1-1.2
							c0-0.3,0.3-0.6,0.9-0.9c0.4-0.3,0.8-0.5,1.4-0.6c0.5-0.1,1.1-0.2,1.6-0.3c1.1-2.2,1.9-4.3,2.3-6.3c0.2-0.2,0.3-0.4,0.5-0.4
							c0.3,0,0.6,0.2,0.9,0.7c-0.1,1.6-0.7,3.5-1.9,5.7C-417.5,1100.2-417.5,1100.2-417.5,1100.2z"/>
						<path class="st1" d="M-414.1,1107.9l3.5-4.4c1.4-1.7,2.7-3,4.1-3.8c0.3-0.2,0.8-0.2,1.3,0c0.2,0.2,0.4,0.4,0.5,0.8
							c0.1,0.4,0.2,0.7,0.3,0.8c-0.1,0.4-0.3,0.8-0.3,1.4c-0.1,0.8-0.2,1.3-0.2,1.5c-0.6,2.3-0.9,3.6-0.9,3.9
							c-0.3,1.5-0.5,2.8-0.6,4c-0.7-0.5-1.1-1.2-1.1-2c0-0.3,0-0.7,0.1-1.1c0.1-0.6,0.2-0.9,0.2-1.1c0-0.5,0.3-1.6,0.8-3.3
							c0.4-1.3,0.5-2.4,0.5-3.3c-0.2-0.1-0.5,0.2-1.1,0.7c-1,0.9-2.1,2.1-3.2,3.6l-2.9,3.9c-0.2,0.2-0.5,0.4-0.7,0.8
							c-0.3,0.5-0.5,0.8-0.7,0.9c-0.4,0.2-0.6,0.2-0.8,0.1c-0.2-0.4-0.3-0.8-0.3-1.3c0-0.4,0.1-1,0.4-1.7c0.2-0.7,0.4-1.3,0.4-1.7
							c0.9-2.6,2.2-6.5,3.9-11.8c0-0.3,0.1-0.6,0.4-0.9c0-0.3,0.1-0.5,0.2-0.7c0.2-0.2,0.4-0.3,0.7-0.3c0.2,0,0.5,0.1,0.7,0.4
							c0.1,0.8-0.1,1.5-0.5,2.3c-0.6,1.2-1,2.2-1.1,3c-0.1,0-0.1,0.1-0.1,0.2c-0.6,1.6-1.1,3.1-1.7,4.7
							C-413.1,1104.4-413.5,1105.9-414.1,1107.9z"/>
						<path class="st1" d="M-396.8,1109.3l-0.1,0.1c-0.1,0.1-0.2,0.2-0.1,0.4c-1.9,1.4-3.5,2.2-4.6,2.3c-0.6,0-1.3-0.1-1.9-0.4
							c-0.5-0.3-0.9-0.7-1.1-1.2c-0.2-0.4-0.3-1-0.4-1.9c0.7-3.8,2.5-6.8,5.4-8.9c0.1,0,0.4-0.1,0.8-0.1c0.4-0.1,0.7,0,1,0.2
							c0.3,0.2,0.4,0.5,0.4,0.9c0,0.3-0.1,0.6-0.1,0.9c-0.4,1.4-1.8,3-4.2,4.8c-0.1,0.1-0.5,0.2-1.2,0.4c-0.4,0.1-0.6,0.3-0.5,0.6
							c-0.3,0.5-0.4,1-0.4,1.5c0,0.2,0.1,0.6,0.3,1.1c0.4,0.6,1.1,0.9,2,0.9l0.1-0.1c0.4,0,0.9-0.1,1.6-0.4c0.7-0.4,1.7-1,3.2-1.7
							c0,0.1,0,0.2,0,0.3C-396.6,1109.1-396.7,1109.2-396.8,1109.3z M-398.9,1101.5c-0.1-0.1-0.2-0.1-0.3-0.2
							c-1.3,0.8-2.4,2.1-3.3,4c0.1,0,0.3,0,0.4-0.1c0.6-0.6,1.2-1.1,1.8-1.7C-399.6,1102.7-399.1,1102-398.9,1101.5z"/>
						<path class="st1" d="M-384,1109.7c-0.2,0.4-0.6,0.9-1.1,1.5c-0.9,0.6-1.6,0.9-2.1,0.8c-0.4,0-0.9-0.4-1.4-1.1
							c0-0.4-0.1-0.9-0.1-1.3c0-2.5,0.4-5,1.1-7.5c0.1-0.4,0.4-1.2,1-2.4c0.1-0.2,0.3-0.3,0.6-0.3c0.2,0,0.5,0.1,0.7,0.3
							c0.2,0.2,0.3,0.4,0.3,0.6c0,0.1,0,0.2-0.1,0.3c-0.4,0.7-0.8,1.6-1.2,2.7l-0.8,3.7c-0.2,0.8-0.2,1.8-0.1,3
							c0,0.1,0.2,0.3,0.4,0.6c0.1,0,0.2-0.1,0.4-0.2c0.2-0.2,0.3-0.3,0.4-0.3c0.3-0.2,0.7-0.6,1.2-1.1s0.9-0.9,1.3-1.1l0.8-1
							C-383.1,1108.5-383.5,1109.4-384,1109.7z M-383.4,1096.9l-0.1,0.1c0,0-0.1,0.2-0.1,0.4c-1.2,0.1-1.8-0.2-1.8-0.8
							c0-0.4,0.1-0.6,0.4-0.7c0.1,0,0.4,0,0.9,0c0.1,0,0.3,0,0.5-0.1c0.2,0.1,0.4,0.3,0.6,0.6
							C-383.1,1096.5-383.2,1096.7-383.4,1096.9z"/>
						<path class="st1" d="M-374.8,1104.3c-0.2,0.8-0.3,1.6-0.5,2.3c-0.2,1-0.3,1.8-0.3,2.3c0,1.1,0.3,2,0.8,2.8
							c-0.2,0.1-0.5,0.1-0.6,0.1c-0.3,0-0.6-0.1-0.9-0.3c-0.5-0.8-0.7-1.7-0.7-2.8c0-0.7,0.1-1.6,0.3-2.6l0.5-2.5l0-0.1
							c-0.9,0.7-1.9,1.9-3.1,3.6c-1.2,1.8-2.2,3.1-2.9,3.7c-0.3,0.1-0.6,0.2-0.9,0.2c-0.1,0-0.3,0-0.4-0.1c-0.4-0.3-0.5-0.8-0.3-1.6
							c0.3-1,0.6-2.4,1.1-4.1c0.4-1.6,0.7-3,0.9-4.2c0.2-0.2,0.4-0.3,0.6-0.3c0.2,0,0.5,0.1,0.7,0.4c0.2,0.3,0.3,0.5,0.2,0.8
							l-1.5,6.4c0.1-0.3,0.3-0.6,0.7-1c1.2-1.7,2-2.8,2.4-3.2c1-1.1,2-2,3-2.7c0.8,0,1.2,0.4,1.2,1.3c0,0.2,0,0.4-0.1,0.8
							C-374.7,1103.9-374.8,1104.1-374.8,1104.3z"/>
						<path class="st1" d="M-368.7,1100.2c0.5,0.1,1,0.1,1.5,0.2c0.6,0.1,1,0.3,1.4,0.7l0,0.7c-0.4,0-1.1,0-2.1,0
							c-0.6,0-1.1,0-1.5,0.1c-1.6,3-2.3,5.5-2.2,7.5c0,0.3,0,0.6,0.1,0.8s0.3,0.4,0.7,0.4c0.2,0,0.5,0,0.9-0.1
							c0.3,0,0.7-0.2,1.3-0.6c0.6-0.4,1.1-0.6,1.7-0.6c-0.4,1.3-1.5,2.2-3.3,2.6c-0.2,0-0.4,0.1-0.6,0.1c-0.6,0-1.2-0.2-1.5-0.6
							c-0.4-0.7-0.7-1.5-0.7-2.5c0-1.3,0.3-2.9,1-4.7c0.2-0.4,0.5-1.1,0.8-2.1c-0.8,0-1.6,0.4-2.2,1.2c-0.4,0-0.8-0.4-1-1.2
							c0-0.3,0.3-0.6,0.9-0.9c0.4-0.3,0.8-0.5,1.4-0.6c0.5-0.1,1.1-0.2,1.6-0.3c1.1-2.2,1.9-4.3,2.3-6.3c0.2-0.2,0.3-0.4,0.5-0.4
							c0.3,0,0.6,0.2,0.9,0.7c-0.1,1.6-0.7,3.5-1.9,5.7C-368.6,1100.2-368.7,1100.2-368.7,1100.2z"/>
						<path class="st1" d="M-358.9,1109.3l-0.1,0.1c-0.1,0.1-0.2,0.2-0.1,0.4c-1.9,1.4-3.5,2.2-4.6,2.3c-0.6,0-1.3-0.1-1.9-0.4
							c-0.5-0.3-0.9-0.7-1.1-1.2c-0.2-0.4-0.3-1-0.4-1.9c0.7-3.8,2.5-6.8,5.4-8.9c0.1,0,0.4-0.1,0.8-0.1c0.4-0.1,0.7,0,1,0.2
							c0.3,0.2,0.4,0.5,0.4,0.9c0,0.3-0.1,0.6-0.1,0.9c-0.4,1.4-1.8,3-4.2,4.8c-0.1,0.1-0.5,0.2-1.2,0.4c-0.4,0.1-0.6,0.3-0.5,0.6
							c-0.3,0.5-0.4,1-0.4,1.5c0,0.2,0.1,0.6,0.3,1.1c0.4,0.6,1.1,0.9,2,0.9l0.1-0.1c0.4,0,0.9-0.1,1.6-0.4c0.7-0.4,1.7-1,3.2-1.7
							c0,0.1,0,0.2,0,0.3C-358.7,1109.1-358.7,1109.2-358.9,1109.3z M-360.9,1101.5c-0.1-0.1-0.2-0.1-0.3-0.2
							c-1.3,0.8-2.4,2.1-3.3,4c0.1,0,0.3,0,0.4-0.1c0.6-0.6,1.2-1.1,1.8-1.7C-361.6,1102.7-361.2,1102-360.9,1101.5z"/>
						<path class="st1" d="M-351.2,1104.3c-0.2,0.8-0.3,1.6-0.5,2.3c-0.2,1-0.3,1.8-0.3,2.3c0,1.1,0.3,2,0.8,2.8
							c-0.2,0.1-0.5,0.1-0.6,0.1c-0.3,0-0.6-0.1-0.9-0.3c-0.5-0.8-0.7-1.7-0.7-2.8c0-0.7,0.1-1.6,0.3-2.6l0.5-2.5l0-0.1
							c-0.9,0.7-1.9,1.9-3.1,3.6c-1.2,1.8-2.2,3.1-2.9,3.7c-0.3,0.1-0.6,0.2-0.9,0.2c-0.1,0-0.3,0-0.4-0.1c-0.4-0.3-0.5-0.8-0.3-1.6
							c0.3-1,0.6-2.4,1.1-4.1c0.4-1.6,0.7-3,0.9-4.2c0.2-0.2,0.4-0.3,0.6-0.3c0.2,0,0.5,0.1,0.7,0.4c0.2,0.3,0.3,0.5,0.2,0.8
							l-1.5,6.4c0.1-0.3,0.3-0.6,0.7-1c1.2-1.7,2-2.8,2.4-3.2c1-1.1,2-2,3-2.7c0.8,0,1.2,0.4,1.2,1.3c0,0.2,0,0.4-0.1,0.8
							C-351.2,1103.9-351.2,1104.1-351.2,1104.3z"/>
						<path class="st1" d="M-345.1,1100.2c0.5,0.1,1,0.1,1.5,0.2c0.6,0.1,1,0.3,1.4,0.7l0,0.7c-0.4,0-1.1,0-2.1,0
							c-0.6,0-1.1,0-1.5,0.1c-1.6,3-2.3,5.5-2.2,7.5c0,0.3,0,0.6,0.1,0.8s0.3,0.4,0.7,0.4c0.2,0,0.5,0,0.9-0.1
							c0.3,0,0.7-0.2,1.3-0.6c0.6-0.4,1.1-0.6,1.7-0.6c-0.4,1.3-1.5,2.2-3.3,2.6c-0.2,0-0.4,0.1-0.6,0.1c-0.6,0-1.2-0.2-1.5-0.6
							c-0.4-0.7-0.7-1.5-0.7-2.5c0-1.3,0.3-2.9,1-4.7c0.2-0.4,0.5-1.1,0.8-2.1c-0.8,0-1.6,0.4-2.2,1.2c-0.4,0-0.8-0.4-1-1.2
							c0-0.3,0.3-0.6,0.9-0.9c0.4-0.3,0.8-0.5,1.4-0.6c0.5-0.1,1.1-0.2,1.6-0.3c1.1-2.2,1.9-4.3,2.3-6.3c0.2-0.2,0.3-0.4,0.5-0.4
							c0.3,0,0.6,0.2,0.9,0.7c-0.1,1.6-0.7,3.5-1.9,5.7C-345,1100.2-345.1,1100.2-345.1,1100.2z"/>
						<path class="st1" d="M-331.1,1104.1l0.1-0.2c0-0.1,0-0.1,0-0.1c0.1-0.1,0.4-0.6,0.9-1.3c0.3-0.6,0.7-1,1-1.2
							c0.7-1.3,1.8-1.9,3.3-1.8c0.9,0.4,1.4,1.2,1.4,2.6c0.1,2-0.6,4-1.9,5.9c-0.7,1.4-2.2,2.5-4.4,3.5c-0.6,0.2-1.2,0.4-1.8,0.4
							c-1.3,0-2.1-0.7-2.3-2.1c0.4,0.1,0.8,0.3,1.2,0.6c0.2,0.2,0.5,0.3,0.8,0.3c1.4-0.1,2.7-0.6,3.9-1.5c1.2-0.9,2-2.1,2.5-3.5
							c0.6-1.5,0.9-2.5,0.9-3.1c0-0.4-0.1-0.8-0.2-1.1c-0.1-0.1-0.2-0.2-0.3-0.5c0,0,0,0,0,0c-0.1-0.1-0.3-0.1-0.4-0.1
							c-0.2,0-0.5,0.1-0.8,0.3c-0.6,0.4-1.1,1-1.5,1.8c-0.7,1-1.4,1.9-1.8,2.8l0,0l-0.1,0.4c-0.1,0-0.2,0-0.2,0l0,0.1
							c-0.1,0.2-0.2,0.3-0.3,0.4c-0.1,0.3-0.4,0.7-0.9,1.3c0,0.1-0.2,0.3-0.6,0.6c-0.4,0-0.6,0-0.7-0.2s-0.2-0.5-0.1-0.8
							c0-0.1,0-0.1,0-0.2v-0.2c2-5.3,3.3-9.5,4-12.6c0.2-0.1,0.4-0.2,0.6-0.2c0.3,0,0.5,0.1,0.6,0.4c0,0.3,0,0.7-0.2,1.3
							c-0.2,0.6-0.3,1-0.3,1.2c-0.1,0.4-0.3,0.9-0.6,1.6c-0.1,0.4-0.3,1.1-0.6,2.2C-330.2,1101.5-330.6,1102.6-331.1,1104.1z
							 M-326.9,1101.8c0-0.2,0.1-0.4,0.3-0.4c0.2,0,0.3,0.1,0.3,0.4H-326.9z"/>
						<path class="st1" d="M-316.8,1110.8c-0.3,0.1-0.7,0.3-1.3,0.7c-0.3,0-0.8-0.2-1.5-0.6c0-0.2-0.1-0.5-0.3-1
							c-0.2-0.5-0.3-0.8-0.3-1.1c-0.2,0.2-0.3,0.4-0.4,0.6c-0.9,1.1-1.4,1.7-1.5,1.9c-0.7,0.6-1.4,0.8-2.2,0.7c-0.6-0.5-1-1.2-1-2.2
							c0-1.7,0.2-3,0.5-3.9c0.8-2.3,2.5-4.3,5-6.1h0.6c0.6,0,0.8,0.3,0.8,1c0,0.2-0.1,0.6-0.2,1.3c-0.1,0.3-0.4,0.7-0.8,1.2
							c-0.1,0.2-0.4,0.3-0.9,0.5c0.1-0.6,0.3-1.1,0.6-1.4c0-0.1,0.1-0.3,0.2-0.6c0,0,0-0.1,0-0.2c0-0.1,0-0.2,0-0.3
							c0.1-0.1,0.2-0.2,0.2-0.3c-0.1,0-0.4,0.2-0.8,0.6c-0.1,0-0.2,0.2-0.4,0.3c-2.5,2.8-3.7,5.4-3.8,7.7c0.1,0.7,0.3,1.1,0.6,1.2
							c0.8-0.2,1.5-0.8,2.1-1.9c0.7-0.6,1.3-1.7,1.8-3.2c0.3-0.6,0.8-2.1,1.5-4.6c0.1-0.2,0.4-0.4,0.8-0.5c0.2,0.2,0.3,0.5,0.3,0.8
							c0,0.2,0,0.4-0.1,0.7c-0.1,0.4-0.2,0.6-0.2,0.7c-1,2.6-1.4,4.4-1.4,5.3c0,1.1,0.2,1.9,0.7,2.3c0.1,0,0.4-0.2,0.9-0.5
							c0.4-0.2,0.7-0.4,0.8-0.4c0,0.1,0,0.2,0,0.4C-316.4,1110.4-316.5,1110.7-316.8,1110.8z"/>
						<path class="st1" d="M-313.2,1103.4c0.8-1,1.6-1.9,2.4-2.8c0.8-0.9,1.8-1.4,2.8-1.5c0.5,0,0.9,0,1.3,0.2
							c0.3,0.4,0.4,0.7,0.5,1.2c0,0.2-0.1,0.9-0.3,2l-0.5,0.1c-0.1-0.1-0.1-0.6-0.2-1.4c0-0.5-0.2-0.8-0.3-0.9
							c-1.2,0.4-2.3,1.1-3.2,2.2c-0.5,0.5-0.9,1-1.3,1.4c-0.5,0.6-0.8,1.1-1,1.7c-0.2,0-0.3,0.3-0.5,0.9c-0.1,0.4-0.2,0.7-0.3,0.8
							c-0.2,0.4-0.5,1.2-1,2.4c0,0.2,0,0.6,0,1.2c-0.1,0.5-0.3,0.8-0.7,0.9c-0.1-0.2-0.2-0.2-0.3-0.1c-0.1,0.1-0.2,0.1-0.3,0.1
							c-0.2,0-0.4-0.2-0.5-0.5c0.4-1.4,1.2-4.6,2.5-9.7c-0.1-0.2-0.1-0.4-0.1-0.5c0-0.3,0.2-0.4,0.5-0.5c0.8-0.1,1.2,0,1.3,0.5
							c0,0,0,0.2-0.1,0.4c-0.1,0.2-0.1,0.5-0.1,0.9c-0.1,0-0.2,0.1-0.3,0.1c0,0,0,0.2,0,0.4l-0.1,0.3
							C-313.2,1103.2-313.2,1103.3-313.2,1103.4z"/>
					</g>
					<g id="Line-Copy-4">
						<path class="st2" d="M-426.5,1194.9l-1.7-1l0.5-0.9c29.5-50.4,26.1-65.4,26.1-65.5l-0.2-1l1.9-0.5l0.2,1
							c0.2,0.6,3.6,16-26.3,67L-426.5,1194.9z"/>
					</g>
					<g id="Line-Copy-4-decoration-1">
						<polygon class="st2" points="-430.5,1200 -426.8,1184.6 -424.9,1185.1 -426.9,1193.4 -420.9,1187.3 -419.5,1188.7 						"/>
					</g>
				</g>
			</g>
		</g>
	</g>
</g>
</svg>
