<?xml version="1.0" encoding="utf-8" standalone="no"?>
<!DOCTYPE svg PUBLIC "-//W3C//DTD SVG 1.1//EN" "http://www.w3.org/Graphics/SVG/1.1/DTD/svg11.dtd">
<svg xmlns="http://www.w3.org/2000/svg" xmlns:xl="http://www.w3.org/1999/xlink" version="1.1" viewBox="0 0 1290.34646 879.34646" width="1290.34646pt" height="879.34646pt" xmlns:dc="http://purl.org/dc/elements/1.1/"><metadata> Produced by OmniGraffle 6.0.3 <dc:date>2015-09-25 15:47Z</dc:date></metadata><defs><marker orient="auto" overflow="visible" markerUnits="strokeWidth" id="StickArrow_Marker" viewBox="-1 -3 7 6" markerWidth="7" markerHeight="6" color="white"><g><path d="M 4.8 0 L 0 0 M 0 -1.8 L 4.8 0 L 0 1.8" fill="none" stroke="currentColor" stroke-width="1"/></g></marker><marker orient="auto" overflow="visible" markerUnits="strokeWidth" id="StickArrow_Marker_2" viewBox="-1 -3 7 6" markerWidth="7" markerHeight="6" color="white"><g><path d="M 4.8 0 L 0 0 M 0 -1.8 L 4.8 0 L 0 1.8" fill="none" stroke="currentColor" stroke-width="1"/></g></marker></defs><g stroke="none" stroke-opacity="1" stroke-dasharray="none" fill="none" fill-opacity="1"><title>Canvas 1</title><g><title>Layer 1</title><path d="M 628.62204 155.90551 L 746.1811 155.90551 C 748.9425 155.90551 751.1811 158.14409 751.1811 160.90551 L 751.1811 221.77165 C 751.1811 224.53308 748.9425 226.77165 746.1811 226.77165 L 628.62204 226.77165 C 625.86062 226.77165 623.62204 224.53308 623.62204 221.77165 L 623.62204 160.90551 C 623.62204 158.14409 625.86062 155.90551 628.62204 155.90551 Z" stroke="white" stroke-linecap="round" stroke-linejoin="round" stroke-width="2"/><path d="M 628.62204 56.692913 L 746.1811 56.692913 C 748.9425 56.692913 751.1811 58.93149 751.1811 61.692913 L 751.1811 122.559054 C 751.1811 125.32048 748.9425 127.559054 746.1811 127.559054 L 628.62204 127.559054 C 625.86062 127.559054 623.62204 125.32048 623.62204 122.559054 L 623.62204 61.692913 C 623.62204 58.93149 625.86062 56.692913 628.62204 56.692913 Z" stroke="white" stroke-linecap="round" stroke-linejoin="round" stroke-width="2"/><path d="M 458.5433 56.692913 L 576.10236 56.692913 C 578.86378 56.692913 581.10236 58.93149 581.10236 61.692913 L 581.10236 122.559054 C 581.10236 125.32048 578.86378 127.559054 576.10236 127.559054 L 458.5433 127.559054 C 455.78188 127.559054 453.5433 125.32048 453.5433 122.559054 L 453.5433 61.692913 C 453.5433 58.93149 455.78188 56.692913 458.5433 56.692913 Z" stroke="white" stroke-linecap="round" stroke-linejoin="round" stroke-width="2"/><path d="M 798.7008 155.90551 L 916.25984 155.90551 C 919.02126 155.90551 921.25984 158.14409 921.25984 160.90551 L 921.25984 221.77165 C 921.25984 224.53308 919.02126 226.77165 916.25984 226.77165 L 798.7008 226.77165 C 795.93936 226.77165 793.7008 224.53308 793.7008 221.77165 L 793.7008 160.90551 C 793.7008 158.14409 795.93936 155.90551 798.7008 155.90551 Z" stroke="white" stroke-linecap="round" stroke-linejoin="round" stroke-width="2"/><path d="M 968.7795 56.692913 L 1086.3386 56.692913 C 1089.1 56.692913 1091.3386 58.93149 1091.3386 61.692913 L 1091.3386 122.559054 C 1091.3386 125.32048 1089.1 127.559054 1086.3386 127.559054 L 968.7795 127.559054 C 966.0181 127.559054 963.7795 125.32048 963.7795 122.559054 L 963.7795 61.692913 C 963.7795 58.93149 966.0181 56.692913 968.7795 56.692913 Z" stroke="white" stroke-linecap="round" stroke-linejoin="round" stroke-width="2"/><path d="M 798.7008 255.11811 L 916.25984 255.11811 C 919.02126 255.11811 921.25984 257.35669 921.25984 260.11811 L 921.25984 320.98425 C 921.25984 323.74567 919.02126 325.98425 916.25984 325.98425 L 798.7008 325.98425 C 795.93936 325.98425 793.7008 323.74567 793.7008 320.98425 L 793.7008 260.11811 C 793.7008 257.35669 795.93936 255.11811 798.7008 255.11811 Z" stroke="white" stroke-linecap="round" stroke-linejoin="round" stroke-width="2"/><path d="M 968.7795 255.11811 L 1086.3386 255.11811 C 1089.1 255.11811 1091.3386 257.35669 1091.3386 260.11811 L 1091.3386 320.98425 C 1091.3386 323.74567 1089.1 325.98425 1086.3386 325.98425 L 968.7795 325.98425 C 966.0181 325.98425 963.7795 323.74567 963.7795 320.98425 L 963.7795 260.11811 C 963.7795 257.35669 966.0181 255.11811 968.7795 255.11811 Z" stroke="white" stroke-linecap="round" stroke-linejoin="round" stroke-width="2"/><path d="M 968.7795 354.3307 L 1086.3386 354.3307 C 1089.1 354.3307 1091.3386 356.56928 1091.3386 359.3307 L 1091.3386 420.19685 C 1091.3386 422.95827 1089.1 425.19685 1086.3386 425.19685 L 968.7795 425.19685 C 966.0181 425.19685 963.7795 422.95827 963.7795 420.19685 L 963.7795 359.3307 C 963.7795 356.56928 966.0181 354.3307 968.7795 354.3307 Z" stroke="white" stroke-linecap="round" stroke-linejoin="round" stroke-width="2"/><path d="M 1138.85826 56.692913 L 1256.4173 56.692913 C 1259.17874 56.692913 1261.4173 58.93149 1261.4173 61.692913 L 1261.4173 122.559054 C 1261.4173 125.32048 1259.17874 127.559054 1256.4173 127.559054 L 1138.85826 127.559054 C 1136.09684 127.559054 1133.85826 125.32048 1133.85826 122.559054 L 1133.85826 61.692913 C 1133.85826 58.93149 1136.09684 56.692913 1138.85826 56.692913 Z" stroke="white" stroke-linecap="round" stroke-linejoin="round" stroke-width="2"/><path d="M 1138.85826 354.3307 L 1256.4173 354.3307 C 1259.17874 354.3307 1261.4173 356.56928 1261.4173 359.3307 L 1261.4173 420.19685 C 1261.4173 422.95827 1259.17874 425.19685 1256.4173 425.19685 L 1138.85826 425.19685 C 1136.09684 425.19685 1133.85826 422.95827 1133.85826 420.19685 L 1133.85826 359.3307 C 1133.85826 356.56928 1136.09684 354.3307 1138.85826 354.3307 Z" stroke="white" stroke-linecap="round" stroke-linejoin="round" stroke-width="2"/><path d="M 581.10236 92.125984 L 597.00236 92.125984 L 602.3622 92.125984 L 607.72204 92.125984 L 610.72204 92.125984" marker-end="url(#StickArrow_Marker)" stroke="white" stroke-linecap="round" stroke-linejoin="round" stroke-width="2"/><path d="M 687.40157 127.559054 L 687.40157 143.459054 L 687.40157 141.73228 L 687.40157 140.00551 L 687.40157 143.00551" marker-end="url(#StickArrow_Marker)" stroke="white" stroke-linecap="round" stroke-linejoin="round" stroke-width="2"/><path d="M 751.1811 191.33858 L 767.0811 191.33858 L 772.44094 191.33858 L 777.8008 191.33858 L 780.8008 191.33858" marker-end="url(#StickArrow_Marker)" stroke="white" stroke-linecap="round" stroke-linejoin="round" stroke-width="2"/><path d="M 922.25984 191.33858 L 937.15984 191.33858 L 1022.55905 191.33858 C 1025.3205 191.33858 1027.55905 189.1 1027.55905 186.33858 L 1027.55905 143.459054 L 1027.55905 140.459054" marker-end="url(#StickArrow_Marker_2)" stroke="white" stroke-linecap="round" stroke-linejoin="round" stroke-width="2"/><line x1="857.4803" y1="226.77165" x2="857.4803" y2="242.21811" marker-end="url(#StickArrow_Marker_2)" stroke="white" stroke-linecap="round" stroke-linejoin="round" stroke-width="2"/><line x1="921.25984" y1="290.55118" x2="950.8795" y2="290.55118" marker-end="url(#StickArrow_Marker_2)" stroke="white" stroke-linecap="round" stroke-linejoin="round" stroke-width="2"/><line x1="1027.55905" y1="325.98425" x2="1027.55905" y2="341.4307" marker-end="url(#StickArrow_Marker_2)" stroke="white" stroke-linecap="round" stroke-linejoin="round" stroke-width="2"/><line x1="1091.3386" y1="92.125984" x2="1120.95826" y2="92.125984" marker-end="url(#StickArrow_Marker_2)" stroke="white" stroke-linecap="round" stroke-linejoin="round" stroke-width="2"/><line x1="1091.3386" y1="389.76378" x2="1120.95826" y2="389.76378" marker-end="url(#StickArrow_Marker_2)" stroke="white" stroke-linecap="round" stroke-linejoin="round" stroke-width="2"/><path d="M 746.1811 425.19685 L 628.62204 425.19685 C 625.86062 425.19685 623.62204 422.95827 623.62204 420.19685 L 623.62204 359.3307 C 623.62204 356.56928 625.86062 354.3307 628.62204 354.3307 L 746.1811 354.3307 C 748.9425 354.3307 751.1811 356.56928 751.1811 359.3307 L 751.1811 420.19685 C 751.1811 422.95827 748.9425 425.19685 746.1811 425.19685 C 746.1811 425.19685 746.1811 425.19685 746.1811 425.19685 Z" stroke="white" stroke-linecap="round" stroke-linejoin="round" stroke-width="2"/><path d="M 746.1811 538.58267 L 628.62204 538.58267 C 625.86062 538.58267 623.62204 536.3441 623.62204 533.58267 L 623.62204 472.71653 C 623.62204 469.9551 625.86062 467.71653 628.62204 467.71653 L 746.1811 467.71653 C 748.9425 467.71653 751.1811 469.9551 751.1811 472.71653 L 751.1811 533.58267 C 751.1811 536.3441 748.9425 538.58267 746.1811 538.58267 C 746.1811 538.58267 746.1811 538.58267 746.1811 538.58267 Z" stroke="white" stroke-linecap="round" stroke-linejoin="round" stroke-width="2"/><path d="M 916.25984 538.58267 L 798.7008 538.58267 C 795.93936 538.58267 793.7008 536.3441 793.7008 533.58267 L 793.7008 472.71653 C 793.7008 469.9551 795.93936 467.71653 798.7008 467.71653 L 916.25984 467.71653 C 919.02126 467.71653 921.25984 469.9551 921.25984 472.71653 L 921.25984 533.58267 C 921.25984 536.3441 919.02126 538.58267 916.25984 538.58267 C 916.25984 538.58267 916.25984 538.58267 916.25984 538.58267 Z" stroke="white" stroke-linecap="round" stroke-linejoin="round" stroke-width="2"/><path d="M 576.10236 425.19685 L 458.5433 425.19685 C 455.78188 425.19685 453.5433 422.95827 453.5433 420.19685 L 453.5433 359.3307 C 453.5433 356.56928 455.78188 354.3307 458.5433 354.3307 L 576.10236 354.3307 C 578.86378 354.3307 581.10236 356.56928 581.10236 359.3307 L 581.10236 420.19685 C 581.10236 422.95827 578.86378 425.19685 576.10236 425.19685 C 576.10236 425.19685 576.10236 425.19685 576.10236 425.19685 Z" stroke="white" stroke-linecap="round" stroke-linejoin="round" stroke-width="2"/><path d="M 406.02362 538.58267 L 288.46457 538.58267 C 285.70314 538.58267 283.46457 536.3441 283.46457 533.58267 L 283.46457 472.71653 C 283.46457 469.9551 285.70314 467.71653 288.46457 467.71653 L 406.02362 467.71653 C 408.78504 467.71653 411.02362 469.9551 411.02362 472.71653 L 411.02362 533.58267 C 411.02362 536.3441 408.78504 538.58267 406.02362 538.58267 C 406.02362 538.58267 406.02362 538.58267 406.02362 538.58267 Z" stroke="white" stroke-linecap="round" stroke-linejoin="round" stroke-width="2"/><path d="M 576.10236 325.98425 L 458.5433 325.98425 C 455.78188 325.98425 453.5433 323.74567 453.5433 320.98425 L 453.5433 260.11811 C 453.5433 257.35669 455.78188 255.11811 458.5433 255.11811 L 576.10236 255.11811 C 578.86378 255.11811 581.10236 257.35669 581.10236 260.11811 L 581.10236 320.98425 C 581.10236 323.74567 578.86378 325.98425 576.10236 325.98425 C 576.10236 325.98425 576.10236 325.98425 576.10236 325.98425 Z" stroke="white" stroke-linecap="round" stroke-linejoin="round" stroke-width="2"/><path d="M 406.02362 325.98425 L 288.46457 325.98425 C 285.70314 325.98425 283.46457 323.74567 283.46457 320.98425 L 283.46457 260.11811 C 283.46457 257.35669 285.70314 255.11811 288.46457 255.11811 L 406.02362 255.11811 C 408.78504 255.11811 411.02362 257.35669 411.02362 260.11811 L 411.02362 320.98425 C 411.02362 323.74567 408.78504 325.98425 406.02362 325.98425 C 406.02362 325.98425 406.02362 325.98425 406.02362 325.98425 Z" stroke="white" stroke-linecap="round" stroke-linejoin="round" stroke-width="2"/><path d="M 406.02362 226.77165 L 288.46457 226.77165 C 285.70314 226.77165 283.46457 224.53308 283.46457 221.77165 L 283.46457 160.90551 C 283.46457 158.14409 285.70314 155.90551 288.46457 155.90551 L 406.02362 155.90551 C 408.78504 155.90551 411.02362 158.14409 411.02362 160.90551 L 411.02362 221.77165 C 411.02362 224.53308 408.78504 226.77165 406.02362 226.77165 C 406.02362 226.77165 406.02362 226.77165 406.02362 226.77165 Z" stroke="white" stroke-linecap="round" stroke-linejoin="round" stroke-width="2"/><path d="M 235.94488 538.58267 L 118.385826 538.58267 C 115.6244 538.58267 113.385826 536.3441 113.385826 533.58267 L 113.385826 472.71653 C 113.385826 469.9551 115.6244 467.71653 118.385826 467.71653 L 235.94488 467.71653 C 238.7063 467.71653 240.94488 469.9551 240.94488 472.71653 L 240.94488 533.58267 C 240.94488 536.3441 238.7063 538.58267 235.94488 538.58267 C 235.94488 538.58267 235.94488 538.58267 235.94488 538.58267 Z" stroke="white" stroke-linecap="round" stroke-linejoin="round" stroke-width="2"/><path d="M 235.94488 226.77165 L 118.385826 226.77165 C 115.6244 226.77165 113.385826 224.53308 113.385826 221.77165 L 113.385826 160.90551 C 113.385826 158.14409 115.6244 155.90551 118.385826 155.90551 L 235.94488 155.90551 C 238.7063 155.90551 240.94488 158.14409 240.94488 160.90551 L 240.94488 221.77165 C 240.94488 224.53308 238.7063 226.77165 235.94488 226.77165 C 235.94488 226.77165 235.94488 226.77165 235.94488 226.77165 Z" stroke="white" stroke-linecap="round" stroke-linejoin="round" stroke-width="2"/><path d="M 793.7008 503.1496 L 777.8008 503.1496 L 772.44094 503.1496 L 767.0811 503.1496 L 764.0811 503.1496" marker-end="url(#StickArrow_Marker)" stroke="white" stroke-linecap="round" stroke-linejoin="round" stroke-width="2"/><path d="M 687.40157 467.71653 L 687.40157 451.81653 L 687.40157 453.5433 L 687.40157 441.09685 L 687.40157 438.09685" marker-end="url(#StickArrow_Marker)" stroke="white" stroke-linecap="round" stroke-linejoin="round" stroke-width="2"/><path d="M 623.62204 389.76378 L 607.72204 389.76378 L 602.3622 389.76378 L 597.00236 389.76378 L 594.00236 389.76378" marker-end="url(#StickArrow_Marker)" stroke="white" stroke-linecap="round" stroke-linejoin="round" stroke-width="2"/><path d="M 452.5433 389.76378 L 437.6433 389.76378 L 352.2441 389.76378 C 349.48267 389.76378 347.2441 392.00235 347.2441 394.76378 L 347.2441 403.937 L 347.2441 451.81653 L 347.2441 454.81653" marker-end="url(#StickArrow_Marker_2)" stroke="white" stroke-linecap="round" stroke-linejoin="round" stroke-width="2"/><line x1="517.32283" y1="354.3307" x2="517.32283" y2="338.88425" marker-end="url(#StickArrow_Marker_2)" stroke="white" stroke-linecap="round" stroke-linejoin="round" stroke-width="2"/><line x1="453.5433" y1="290.55118" x2="423.92362" y2="290.55118" marker-end="url(#StickArrow_Marker_2)" stroke="white" stroke-linecap="round" stroke-linejoin="round" stroke-width="2"/><line x1="347.2441" y1="255.11811" x2="347.2441" y2="239.67165" marker-end="url(#StickArrow_Marker_2)" stroke="white" stroke-linecap="round" stroke-linejoin="round" stroke-width="2"/><line x1="283.46457" y1="503.1496" x2="253.84488" y2="503.1496" marker-end="url(#StickArrow_Marker_2)" stroke="white" stroke-linecap="round" stroke-linejoin="round" stroke-width="2"/><line x1="283.46457" y1="191.33858" x2="253.84488" y2="191.33858" marker-end="url(#StickArrow_Marker_2)" stroke="white" stroke-linecap="round" stroke-linejoin="round" stroke-width="2"/><path d="M 628.62204 680.31496 L 746.1811 680.31496 C 748.9425 680.31496 751.1811 682.55353 751.1811 685.31496 L 751.1811 746.1811 C 751.1811 748.9425 748.9425 751.1811 746.1811 751.1811 L 628.62204 751.1811 C 625.86062 751.1811 623.62204 748.9425 623.62204 746.1811 L 623.62204 685.31496 C 623.62204 682.55353 625.86062 680.31496 628.62204 680.31496 Z" stroke="white" stroke-linecap="round" stroke-linejoin="round" stroke-width="2"/><path d="M 798.7008 581.10236 L 916.25984 581.10236 C 919.02126 581.10236 921.25984 583.34094 921.25984 586.10236 L 921.25984 646.9685 C 921.25984 649.72992 919.02126 651.9685 916.25984 651.9685 L 798.7008 651.9685 C 795.93936 651.9685 793.7008 649.72992 793.7008 646.9685 L 793.7008 586.10236 C 793.7008 583.34094 795.93936 581.10236 798.7008 581.10236 Z" stroke="white" stroke-linecap="round" stroke-linejoin="round" stroke-width="2"/><path d="M 628.62204 779.52755 L 746.1811 779.52755 C 748.9425 779.52755 751.1811 781.76613 751.1811 784.52755 L 751.1811 845.3937 C 751.1811 848.1551 748.9425 850.3937 746.1811 850.3937 L 628.62204 850.3937 C 625.86062 850.3937 623.62204 848.1551 623.62204 845.3937 L 623.62204 784.52755 C 623.62204 781.76613 625.86062 779.52755 628.62204 779.52755 Z" stroke="white" stroke-linecap="round" stroke-linejoin="round" stroke-width="2"/><path d="M 798.7008 779.52755 L 916.25984 779.52755 C 919.02126 779.52755 921.25984 781.76613 921.25984 784.52755 L 921.25984 845.3937 C 921.25984 848.1551 919.02126 850.3937 916.25984 850.3937 L 798.7008 850.3937 C 795.93936 850.3937 793.7008 848.1551 793.7008 845.3937 L 793.7008 784.52755 C 793.7008 781.76613 795.93936 779.52755 798.7008 779.52755 Z" stroke="white" stroke-linecap="round" stroke-linejoin="round" stroke-width="2"/><path d="M 752.1811 715.74803 L 767.0811 715.74803 L 852.4803 715.74803 C 855.24173 715.74803 857.4803 713.50945 857.4803 710.74803 L 857.4803 667.8685 L 857.4803 664.8685" marker-end="url(#StickArrow_Marker_2)" stroke="white" stroke-linecap="round" stroke-linejoin="round" stroke-width="2"/><line x1="687.40157" y1="751.1811" x2="687.40157" y2="766.62755" marker-end="url(#StickArrow_Marker_2)" stroke="white" stroke-linecap="round" stroke-linejoin="round" stroke-width="2"/><line x1="751.1811" y1="814.96063" x2="780.8008" y2="814.96063" marker-end="url(#StickArrow_Marker_2)" stroke="white" stroke-linecap="round" stroke-linejoin="round" stroke-width="2"/><line x1="857.4803" y1="581.10236" x2="857.4803" y2="552.48267" marker-end="url(#StickArrow_Marker)" stroke="white" stroke-linecap="round" stroke-linejoin="round" stroke-width="2"/><path d="M 406.02362 651.9685 L 288.46457 651.9685 C 285.70314 651.9685 283.46457 649.72992 283.46457 646.9685 L 283.46457 586.10236 C 283.46457 583.34094 285.70314 581.10236 288.46457 581.10236 L 406.02362 581.10236 C 408.78504 581.10236 411.02362 583.34094 411.02362 586.10236 L 411.02362 646.9685 C 411.02362 649.72992 408.78504 651.9685 406.02362 651.9685 C 406.02362 651.9685 406.02362 651.9685 406.02362 651.9685 Z" stroke="white" stroke-linecap="round" stroke-linejoin="round" stroke-width="2"/><path d="M 235.94488 751.1811 L 118.385826 751.1811 C 115.6244 751.1811 113.385826 748.9425 113.385826 746.1811 L 113.385826 685.31496 C 113.385826 682.55353 115.6244 680.31496 118.385826 680.31496 L 235.94488 680.31496 C 238.7063 680.31496 240.94488 682.55353 240.94488 685.31496 L 240.94488 746.1811 C 240.94488 748.9425 238.7063 751.1811 235.94488 751.1811 C 235.94488 751.1811 235.94488 751.1811 235.94488 751.1811 Z" stroke="white" stroke-linecap="round" stroke-linejoin="round" stroke-width="2"/><path d="M 65.86614 751.1811 L -51.692913 751.1811 C -54.454337 751.1811 -56.692913 748.9425 -56.692913 746.1811 L -56.692913 685.31496 C -56.692913 682.55353 -54.454337 680.31496 -51.692913 680.31496 L 65.86614 680.31496 C 68.627565 680.31496 70.86614 682.55353 70.86614 685.31496 L 70.86614 746.1811 C 70.86614 748.9425 68.627565 751.1811 65.86614 751.1811 C 65.86614 751.1811 65.86614 751.1811 65.86614 751.1811 Z" stroke="white" stroke-linecap="round" stroke-linejoin="round" stroke-width="2"/><path d="M 282.46457 616.53543 L 267.56457 616.53543 L 182.16535 616.53543 C 179.40393 616.53543 177.16535 618.774 177.16535 621.53543 C 177.16535 621.53543 177.16535 621.53543 177.16535 621.53543 L 177.16535 664.41496 L 177.16535 667.41496" marker-end="url(#StickArrow_Marker_2)" stroke="white" stroke-linecap="round" stroke-linejoin="round" stroke-width="2"/><line x1="113.385826" y1="715.74803" x2="83.76614" y2="715.74803" marker-end="url(#StickArrow_Marker_2)" stroke="white" stroke-linecap="round" stroke-linejoin="round" stroke-width="2"/><line x1="347.2441" y1="538.58267" x2="347.2441" y2="567.20236" marker-end="url(#StickArrow_Marker)" stroke="white" stroke-linecap="round" stroke-linejoin="round" stroke-width="2"/><path d="M 458.5433 581.10236 L 576.10236 581.10236 C 578.86378 581.10236 581.10236 583.34094 581.10236 586.10236 L 581.10236 646.9685 C 581.10236 649.72992 578.86378 651.9685 576.10236 651.9685 L 458.5433 651.9685 C 455.78188 651.9685 453.5433 649.72992 453.5433 646.9685 L 453.5433 586.10236 C 453.5433 583.34094 455.78188 581.10236 458.5433 581.10236 Z" stroke="white" stroke-linecap="round" stroke-linejoin="round" stroke-width="2"/><path d="M 458.5433 680.31496 L 576.10236 680.31496 C 578.86378 680.31496 581.10236 682.55353 581.10236 685.31496 L 581.10236 746.1811 C 581.10236 748.9425 578.86378 751.1811 576.10236 751.1811 L 458.5433 751.1811 C 455.78188 751.1811 453.5433 748.9425 453.5433 746.1811 L 453.5433 685.31496 C 453.5433 682.55353 455.78188 680.31496 458.5433 680.31496 Z" stroke="white" stroke-linecap="round" stroke-linejoin="round" stroke-width="2"/><line x1="517.32283" y1="651.9685" x2="517.32283" y2="667.41496" marker-end="url(#StickArrow_Marker_2)" stroke="white" stroke-linecap="round" stroke-linejoin="round" stroke-width="2"/><line x1="412.02362" y1="616.53543" x2="439.6433" y2="616.53543" marker-end="url(#StickArrow_Marker)" stroke="white" stroke-linecap="round" stroke-linejoin="round" stroke-width="2"/><line x1="581.10236" y1="715.74803" x2="609.72204" y2="715.74803" marker-end="url(#StickArrow_Marker)" stroke="white" stroke-linecap="round" stroke-linejoin="round" stroke-width="2"/><line x1="517.32283" y1="255.11811" x2="517.32283" y2="140.459054" marker-end="url(#StickArrow_Marker)" stroke="white" stroke-linecap="round" stroke-linejoin="round" stroke-width="2"/><path d="M 857.4803 467.71653 L 857.4803 451.81653 L 857.4803 394.76378 C 857.4803 392.00235 859.7189 389.76378 862.4803 389.76378 L 947.8795 389.76378 L 950.8795 389.76378" marker-end="url(#StickArrow_Marker)" stroke="white" stroke-linecap="round" stroke-linejoin="round" stroke-width="2"/><path d="M 1086.3386 538.58267 L 968.7795 538.58267 C 966.0181 538.58267 963.7795 536.3441 963.7795 533.58267 L 963.7795 472.71653 C 963.7795 469.9551 966.0181 467.71653 968.7795 467.71653 L 1086.3386 467.71653 C 1089.1 467.71653 1091.3386 469.9551 1091.3386 472.71653 L 1091.3386 533.58267 C 1091.3386 536.3441 1089.1 538.58267 1086.3386 538.58267 C 1086.3386 538.58267 1086.3386 538.58267 1086.3386 538.58267 Z" stroke="white" stroke-linecap="round" stroke-linejoin="round" stroke-width="2"/><path d="M 1086.3386 651.9685 L 968.7795 651.9685 C 966.0181 651.9685 963.7795 649.72992 963.7795 646.9685 L 963.7795 586.10236 C 963.7795 583.34094 966.0181 581.10236 968.7795 581.10236 L 1086.3386 581.10236 C 1089.1 581.10236 1091.3386 583.34094 1091.3386 586.10236 L 1091.3386 646.9685 C 1091.3386 649.72992 1089.1 651.9685 1086.3386 651.9685 C 1086.3386 651.9685 1086.3386 651.9685 1086.3386 651.9685 Z" stroke="white" stroke-linecap="round" stroke-linejoin="round" stroke-width="2"/><line x1="1027.55905" y1="538.58267" x2="1027.55905" y2="567.20236" marker-end="url(#StickArrow_Marker)" stroke="white" stroke-linecap="round" stroke-linejoin="round" stroke-width="2"/><path d="M 1138.85826 581.10236 L 1256.4173 581.10236 C 1259.17874 581.10236 1261.4173 583.34094 1261.4173 586.10236 L 1261.4173 646.9685 C 1261.4173 649.72992 1259.17874 651.9685 1256.4173 651.9685 L 1138.85826 651.9685 C 1136.09684 651.9685 1133.85826 649.72992 1133.85826 646.9685 L 1133.85826 586.10236 C 1133.85826 583.34094 1136.09684 581.10236 1138.85826 581.10236 Z" stroke="white" stroke-linecap="round" stroke-linejoin="round" stroke-width="2"/><line x1="1092.3386" y1="616.53543" x2="1119.95826" y2="616.53543" marker-end="url(#StickArrow_Marker)" stroke="white" stroke-linecap="round" stroke-linejoin="round" stroke-width="2"/><line x1="1027.55905" y1="425.19685" x2="1027.55905" y2="454.81653" marker-end="url(#StickArrow_Marker)" stroke="white" stroke-linecap="round" stroke-linejoin="round" stroke-width="2"/></g></g></svg>
