<?xml version="1.0" standalone="no"?>
<!DOCTYPE svg PUBLIC "-//W3C//DTD SVG 1.1//EN" "http://www.w3.org/Graphics/SVG/1.1/DTD/svg11.dtd">
<svg width="100%" height="100%" viewBox="0 0 610 369" version="1.1" xmlns="http://www.w3.org/2000/svg" xmlns:xlink="http://www.w3.org/1999/xlink" xml:space="preserve" style="fill-rule:evenodd;clip-rule:evenodd;stroke-linecap:round;stroke-linejoin:round;stroke-miterlimit:1.41421;">
    <g transform="matrix(1,0,0,1,-112.7,-269.6)">
        <path d="M484,440.8L429.9,440.8C428.6,440.7 427.6,439.7 427.8,438.4L427.8,410.3C427.6,409 428.7,408 429.9,408L484.1,408C485.4,408 486.4,409 486.3,410.3L486.3,438.4C486.4,439.7 485.3,440.7 484,440.8Z" style="fill:none;stroke-width:2px;stroke:white;"/>
        <path d="M484,492.9L429.9,492.9C428.6,493 427.6,492 427.8,490.7L427.8,462.6C427.6,461.3 428.7,460.3 429.9,460.1L484.1,460.1C485.4,460.3 486.4,461.3 486.3,462.6L486.3,490.7C486.4,492 485.4,493 484.1,493L484,492.9Z" style="fill:none;stroke-width:2px;stroke:white;"/>
        <path d="M562.4,492.9L508.3,492.9C507,493 506,492 506.1,490.7L506.1,462.6C506,461.3 507,460.3 508.3,460.1L562.5,460.1C563.8,460.3 564.8,461.3 564.7,462.6L564.7,490.7C564.8,492 563.8,493 562.5,493L562.4,492.9Z" style="fill:none;stroke-width:2px;stroke:white;"/>
        <path d="M405.6,440.8L351.4,440.8C350.1,440.7 349.1,439.7 349.3,438.4L349.3,410.3C349.1,409 350.1,408 351.4,408L405.6,408C406.9,408 407.9,409 407.9,410.3L407.9,438.4C407.9,439.7 406.9,440.7 405.6,440.8Z" style="fill:none;stroke-width:2px;stroke:white;"/>
        <path d="M327.2,492.9L273,492.9C271.7,493 270.7,492 270.5,490.7L270.5,462.6C270.7,461.3 271.7,460.3 273,460.1L327.2,460.1C328.5,460.3 329.5,461.3 329.5,462.6L329.5,490.7C329.5,492 328.5,493 327.2,493L327.2,492.9Z" style="fill:none;stroke-width:2px;stroke:white;"/>
        <path d="M405.6,395.1L351.4,395.1C350.1,394.9 349.1,393.9 349.3,392.6L349.3,364.5C349.1,363.2 350.1,362.2 351.4,362.3L405.6,362.3C406.9,362.2 407.9,363.2 407.9,364.5L407.9,392.6C407.9,393.9 406.9,394.9 405.6,394.9L405.6,395.1Z" style="fill:none;stroke-width:2px;stroke:white;"/>
        <path d="M327.2,395.1L273,395.1C271.7,394.9 270.7,393.9 270.5,392.6L270.5,364.5C270.7,363.2 271.7,362.2 273,362.3L327.2,362.3C328.5,362.2 329.5,363.2 329.5,364.5L329.5,392.6C329.5,393.9 328.5,394.9 327.2,394.9L327.2,395.1Z" style="fill:none;stroke-width:2px;stroke:white;"/>
        <path d="M327.2,349L273,349C271.7,349.2 270.7,348.2 270.5,346.9L270.5,318.8C270.7,317.5 271.7,316.5 273,316.7L327.2,316.7C328.5,316.5 329.5,317.5 329.5,318.8L329.5,346.9C329.5,348.2 328.5,349.2 327.2,349.2L327.2,349Z" style="fill:none;stroke-width:2px;stroke:white;"/>
        <path d="M248.8,492.9L194.6,492.9C193.3,493 192.3,492 192.1,490.7L192.1,462.6C192.3,461.3 193.3,460.3 194.6,460.1L248.8,460.1C250.1,460.3 251.1,461.3 251.1,462.6L251.1,490.7C251.1,492 250,493 248.8,493L248.8,492.9Z" style="fill:none;stroke-width:2px;stroke:white;"/>
        <path d="M248.8,349L194.6,349C193.3,349.2 192.3,348.2 192.1,346.9L192.1,318.8C192.3,317.5 193.3,316.5 194.6,316.7L248.8,316.7C250.1,316.5 251.1,317.5 251.1,318.8L251.1,346.9C251.1,348.2 250,349.2 248.8,349.2L248.8,349Z" style="fill:none;stroke-width:2px;stroke:white;"/>
        <path d="M506,476.8L498.7,476.8L496.2,476.8L493.7,476.8L492.3,476.8" style="fill:none;stroke-width:2px;stroke:white;"/>
        <path d="M487.9,476.7L492.3,476.7M492.3,478.3L487.9,476.6L492.3,474.9" style="fill:none;stroke-width:2px;stroke-linecap:butt;stroke-linejoin:miter;stroke:white;"/>
        <path d="M456.8,460.3L456.8,453L456.8,453.8L456.8,448L456.8,446.6" style="fill:none;stroke-width:2px;stroke:white;"/>
        <path d="M457,442.2L457,446.6M455.3,446.7L457,442.3L458.7,446.7" style="fill:none;stroke-width:2px;stroke-linecap:butt;stroke-linejoin:miter;stroke:white;"/>
        <path d="M427.6,424.2L420.3,424.2L417.8,424.2L415.3,424.2L413.9,424.2" style="fill:none;stroke-width:2px;stroke:white;"/>
        <path d="M409.5,424.4L413.9,424.4M413.9,426L409.5,424.3L413.9,422.6" style="fill:none;stroke-width:2px;stroke-linecap:butt;stroke-linejoin:miter;stroke:white;"/>
        <path d="M348.7,424.2L341.8,424.2L302.4,424.2C301.1,424.4 300.1,425.4 300,426.7L300,454.4" style="fill:none;stroke-width:2px;stroke:white;"/>
        <path d="M300.1,458.8L300.1,454.4M301.8,454.4L300.1,458.8L298.4,454.4" style="fill:none;stroke-width:2px;stroke-linecap:butt;stroke-linejoin:miter;stroke:white;"/>
        <path d="M378.4,408L378.4,400.9" style="fill:none;stroke-width:2px;stroke:white;"/>
        <path d="M378.5,396.5L378.5,400.9M376.9,400.9L378.6,396.5L380.3,400.9" style="fill:none;stroke-width:2px;stroke-linecap:butt;stroke-linejoin:miter;stroke:white;"/>
        <path d="M349.1,378.5L335.4,378.5" style="fill:none;stroke-width:2px;stroke:white;"/>
        <path d="M331,378.6L335.4,378.6M335.5,380.3L331.1,378.6L335.5,376.9" style="fill:none;stroke-width:2px;stroke-linecap:butt;stroke-linejoin:miter;stroke:white;"/>
        <path d="M300,362.3L300,355.2" style="fill:none;stroke-width:2px;stroke:white;"/>
        <path d="M300.1,350.7L300.1,355.1M298.5,355.2L300.2,350.8L301.9,355.2" style="fill:none;stroke-width:2px;stroke-linecap:butt;stroke-linejoin:miter;stroke:white;"/>
        <path d="M270.7,476.8L257,476.8" style="fill:none;stroke-width:2px;stroke:white;"/>
        <path d="M252.6,476.7L257,476.7M257,478.3L252.6,476.6L257,474.9" style="fill:none;stroke-width:2px;stroke-linecap:butt;stroke-linejoin:miter;stroke:white;"/>
        <path d="M270.7,332.9L257,332.9" style="fill:none;stroke-width:2px;stroke:white;"/>
        <path d="M252.6,332.9L257,332.9M257,334.5L252.6,332.8L257,331.1" style="fill:none;stroke-width:2px;stroke-linecap:butt;stroke-linejoin:miter;stroke:white;"/>
        <path d="M430,558.4L484,558.4C485.3,558.4 486.3,559.4 486.2,560.7L486.2,588.8C486.3,590.1 485.3,591.1 484,591.2L429.8,591.2C428.5,591.1 427.5,590.1 427.7,588.8L427.7,560.7C427.6,559.4 428.6,558.4 430,558.4Z" style="fill:none;stroke-width:2px;stroke:white;"/>
        <path d="M508.4,512.7L562.5,512.7C563.8,512.6 564.8,513.6 564.7,514.9L564.7,543C564.8,544.3 563.8,545.3 562.5,545.5L508.3,545.5C507,545.3 506,544.3 506.1,543L506.1,514.9C506,513.6 507,512.6 508.4,512.7Z" style="fill:none;stroke-width:2px;stroke:white;"/>
        <path d="M430,604L484,604C485.3,604.1 486.3,605.1 486.2,606.4L486.2,634.5C486.3,635.8 485.3,636.8 484,636.8L429.8,636.8C428.5,636.8 427.5,635.8 427.7,634.5L427.7,606.4C427.6,605.1 428.6,604.1 430,604Z" style="fill:none;stroke-width:2px;stroke:white;"/>
        <path d="M508.4,604L562.5,604C563.8,604.1 564.8,605.1 564.7,606.4L564.7,634.5C564.8,635.8 563.8,636.8 562.5,636.8L508.3,636.8C507,636.8 506,635.8 506.1,634.5L506.1,606.4C506,605.1 507,604.1 508.4,604Z" style="fill:none;stroke-width:2px;stroke:white;"/>
        <path d="M486.8,574.5L533,574.5C534.3,574.7 535.3,573.7 535.1,572.4L535.1,552.6L535.1,551.2" style="fill:none;stroke-width:2px;stroke:white;"/>
        <path d="M535.4,546.8L535.4,551.2M533.7,551.2L535.4,546.8L537.1,551.2" style="fill:none;stroke-width:2px;stroke-linecap:butt;stroke-linejoin:miter;stroke:white;"/>
        <path d="M456.8,591L456.8,598.1" style="fill:none;stroke-width:2px;stroke:white;"/>
        <path d="M457,602.6L457,598.2M458.6,598.2L456.9,602.6L455.2,598.2" style="fill:none;stroke-width:2px;stroke-linecap:butt;stroke-linejoin:miter;stroke:white;"/>
        <path d="M486.4,620.6L500,620.6" style="fill:none;stroke-width:2px;stroke:white;"/>
        <path d="M504.5,620.4L500,620.4M500,618.8L504.4,620.5L500,622.2" style="fill:none;stroke-width:2px;stroke-linecap:butt;stroke-linejoin:miter;stroke:white;"/>
        <path d="M535.2,512.6L535.2,499.4" style="fill:none;stroke-width:2px;stroke:white;"/>
        <path d="M535.4,495L535.4,499.4M533.7,499.4L535.4,495L537.1,499.4" style="fill:none;stroke-width:2px;stroke-linecap:butt;stroke-linejoin:miter;stroke:white;"/>
        <path d="M327.2,545.5L273,545.5C271.7,545.3 270.7,544.3 270.5,543L270.5,514.9C270.7,513.6 271.7,512.6 273,512.7L327.2,512.7C328.5,512.6 329.5,513.6 329.5,514.9L329.5,543C329.5,544.3 328.5,545.3 327.2,545.3L327.2,545.5Z" style="fill:none;stroke-width:2px;stroke:white;"/>
        <path d="M248.8,591.1L194.6,591.1C193.3,591 192.3,590 192.1,588.7L192.1,560.6C192.3,559.3 193.3,558.3 194.6,558.3L248.8,558.3C250.1,558.3 251.1,559.3 251.1,560.6L251.1,588.7C251.1,590 250.1,591 248.8,591.1Z" style="fill:none;stroke-width:2px;stroke:white;"/>
        <path d="M170.4,591.1L116.1,591.1C114.8,591 113.8,590 113.7,588.7L113.7,560.6C113.8,559.3 114.9,558.3 116.1,558.3L170.3,558.3C171.6,558.3 172.6,559.3 172.7,560.6L172.7,588.7C172.7,590 171.6,591 170.4,591.1Z" style="fill:none;stroke-width:2px;stroke:white;"/>
        <path d="M270.2,528.9L263.3,528.9L224,528.9C222.7,529 221.7,530 221.7,531.3L221.6,531.3L221.6,552.5" style="fill:none;stroke-width:2px;stroke:white;"/>
        <path d="M221.7,556.8L221.7,552.4M223.4,552.4L221.7,556.8L220,552.4" style="fill:none;stroke-width:2px;stroke-linecap:butt;stroke-linejoin:miter;stroke:white;"/>
        <path d="M192.3,574.5L178.6,574.5" style="fill:none;stroke-width:2px;stroke:white;"/>
        <path d="M174.2,574.7L178.6,574.7M178.6,576.4L174.2,574.7L178.6,573" style="fill:none;stroke-width:2px;stroke-linecap:butt;stroke-linejoin:miter;stroke:white;"/>
        <path d="M300,493L300,506.2" style="fill:none;stroke-width:2px;stroke:white;"/>
        <path d="M300.1,510.6L300.1,506.2M301.8,506.2L300.1,510.6L298.4,506.2" style="fill:none;stroke-width:2px;stroke-linecap:butt;stroke-linejoin:miter;stroke:white;"/>
        <path d="M351.6,512.7L405.6,512.7C406.9,512.6 407.9,513.6 407.9,514.9L407.9,543C407.9,544.3 406.9,545.3 405.6,545.5L351.4,545.5C350.1,545.3 349.1,544.3 349.3,543L349.3,514.9C349.1,513.6 350.2,512.6 351.6,512.7Z" style="fill:none;stroke-width:2px;stroke:white;"/>
        <path d="M351.6,558.4L405.6,558.4C406.9,558.4 407.9,559.4 407.9,560.7L407.9,588.8C407.9,590.1 406.9,591.1 405.6,591.2L351.4,591.2C350.1,591.1 349.1,590.1 349.3,588.8L349.3,560.7C349.1,559.4 350.2,558.4 351.6,558.4Z" style="fill:none;stroke-width:2px;stroke:white;"/>
        <path d="M378.4,545.3L378.4,552.4" style="fill:none;stroke-width:2px;stroke:white;"/>
        <path d="M378.5,556.8L378.5,552.4M380.2,552.4L378.5,556.8L376.8,552.4" style="fill:none;stroke-width:2px;stroke-linecap:butt;stroke-linejoin:miter;stroke:white;"/>
        <path d="M330,528.9L342.7,528.9" style="fill:none;stroke-width:2px;stroke:white;"/>
        <path d="M347.1,528.9L342.7,528.9M342.7,527.3L347.1,529L342.7,530.7" style="fill:none;stroke-width:2px;stroke-linecap:butt;stroke-linejoin:miter;stroke:white;"/>
        <path d="M407.9,574.5L421.1,574.5" style="fill:none;stroke-width:2px;stroke:white;"/>
        <path d="M425.6,574.7L421.2,574.7M421.1,573L425.5,574.7L421.1,576.4" style="fill:none;stroke-width:2px;stroke-linecap:butt;stroke-linejoin:miter;stroke:white;"/>
        <path d="M378.4,362.3L378.4,309.4" style="fill:none;stroke-width:2px;stroke:white;"/>
        <path d="M378.5,305L378.5,309.4M376.9,309.4L378.6,305L380.3,309.4" style="fill:none;stroke-width:2px;stroke-linecap:butt;stroke-linejoin:miter;stroke:white;"/>
        <path d="M640.8,492.9L586.7,492.9C585.4,493 584.4,492 584.5,490.7L584.5,462.6C584.4,461.3 585.4,460.3 586.7,460.1L640.9,460.1C642.2,460.3 643.2,461.3 643,462.6L643,490.7C643.2,492 642.1,493 640.9,493L640.8,492.9Z" style="fill:none;stroke-width:2px;stroke:white;"/>
        <path d="M640.8,545.5L586.7,545.5C585.4,545.3 584.4,544.3 584.5,543L584.5,514.9C584.4,513.6 585.4,512.6 586.7,512.7L640.9,512.7C642.2,512.6 643.2,513.6 643,514.9L643,543C643.2,544.3 642.1,545.3 640.9,545.3L640.8,545.5Z" style="fill:none;stroke-width:2px;stroke:white;"/>
        <path d="M614,493L614,506.2" style="fill:none;stroke-width:2px;stroke:white;"/>
        <path d="M613.8,510.6L613.8,506.2M615.5,506.2L613.8,510.6L612.1,506.2" style="fill:none;stroke-width:2px;stroke-linecap:butt;stroke-linejoin:miter;stroke:white;"/>
        <path d="M665.2,512.7L719.3,512.7C720.6,512.6 721.6,513.6 721.4,514.9L721.4,543C721.6,544.3 720.6,545.3 719.3,545.5L665.1,545.5C663.8,545.3 662.8,544.3 662.9,543L662.9,514.9C662.8,513.6 663.9,512.6 665.2,512.7Z" style="fill:none;stroke-width:2px;stroke:white;"/>
        <path d="M643.7,528.9L656.4,528.9" style="fill:none;stroke-width:2px;stroke:white;"/>
        <path d="M660.8,528.9L656.4,528.9M656.4,527.3L660.8,529L656.4,530.7" style="fill:none;stroke-width:2px;stroke-linecap:butt;stroke-linejoin:miter;stroke:white;"/>
        <path d="M430,316.8L484,316.8C485.3,316.6 486.3,317.6 486.2,318.9L486.2,347C486.3,348.3 485.3,349.3 484,349.1L429.8,349.1C428.5,349.3 427.5,348.3 427.7,347L427.7,318.9C427.6,317.6 428.6,316.5 430,316.8Z" style="fill:none;stroke-width:2px;stroke:white;"/>
        <path d="M430,270.6L484,270.6C485.3,270.8 486.3,271.8 486.2,273.1L486.2,301.2C486.3,302.5 485.3,303.5 484,303.4L429.8,303.4C428.5,303.5 427.5,302.5 427.7,301.2L427.7,273.1C427.6,271.8 428.6,270.8 430,270.6Z" style="fill:none;stroke-width:2px;stroke:white;"/>
        <path d="M351.6,270.6L405.6,270.6C406.9,270.8 407.9,271.8 407.9,273.1L407.9,301.2C407.9,302.5 406.9,303.5 405.6,303.4L351.4,303.4C350.1,303.5 349.1,302.5 349.3,301.2L349.3,273.1C349.1,271.8 350.2,270.8 351.6,270.6Z" style="fill:none;stroke-width:2px;stroke:white;"/>
        <path d="M508.4,316.8L562.5,316.8C563.8,316.6 564.8,317.6 564.7,318.9L564.7,347C564.8,348.3 563.8,349.3 562.5,349.1L508.3,349.1C507,349.3 506,348.3 506.1,347L506.1,318.9C506,317.6 507,316.5 508.4,316.8Z" style="fill:none;stroke-width:2px;stroke:white;"/>
        <path d="M586.8,270.6L640.9,270.6C642.2,270.8 643.2,271.8 643,273.1L643,301.2C643.2,302.5 642.1,303.5 640.9,303.4L586.7,303.4C585.4,303.5 584.4,302.5 584.5,301.2L584.5,273.1C584.4,271.8 585.4,270.8 586.8,270.6Z" style="fill:none;stroke-width:2px;stroke:white;"/>
        <path d="M508.4,362.4L562.5,362.4C563.8,362.3 564.8,363.3 564.7,364.6L564.7,392.7C564.8,394 563.8,395 562.5,395.2L508.3,395.2C507,395 506,394 506.1,392.7L506.1,364.6C506,363.3 507,362.3 508.4,362.4Z" style="fill:none;stroke-width:2px;stroke:white;"/>
        <path d="M586.8,362.4L640.9,362.4C642.2,362.3 643.2,363.3 643,364.6L643,392.7C643.2,394 642.1,395 640.9,395.2L586.7,395.2C585.4,395 584.4,394 584.5,392.7L584.5,364.6C584.4,363.3 585.4,362.3 586.8,362.4Z" style="fill:none;stroke-width:2px;stroke:white;"/>
        <path d="M586.8,408L640.9,408C642.2,408 643.2,409 643,410.3L643,438.4C643.2,439.7 642.1,440.7 640.9,440.8L586.7,440.8C585.4,440.7 584.4,439.7 584.5,438.4L584.5,410.3C584.4,409.1 585.4,408 586.8,408Z" style="fill:none;stroke-width:2px;stroke:white;"/>
        <path id="top-R" d="M665.2,270.6L719.3,270.6C720.6,270.8 721.6,271.8 721.4,273.1L721.4,301.2C721.6,302.5 720.6,303.5 719.3,303.4L665.1,303.4C663.8,303.5 662.8,302.5 662.9,301.2L662.9,273.1C662.8,271.8 663.9,270.8 665.2,270.6Z" style="fill:none;stroke-width:2px;stroke:white;"/>
        <path d="M665.2,408L719.3,408C720.6,408 721.6,409 721.4,410.3L721.4,438.4C721.6,439.7 720.6,440.7 719.3,440.8L665.1,440.8C663.8,440.7 662.8,439.7 662.9,438.4L662.9,410.3C662.8,409.1 663.9,408 665.2,408Z" style="fill:none;stroke-width:2px;stroke:white;"/>
        <path d="M407.9,287.2L421.6,287.2" style="fill:none;stroke-width:2px;stroke:white;"/>
        <path d="M426,287.1L421.6,287.1M421.6,285.5L426,287.2L421.6,288.9" style="fill:none;stroke-width:2px;stroke-linecap:butt;stroke-linejoin:miter;stroke:white;"/>
        <path d="M456.8,303.5L456.8,310.8L456.8,310L456.8,309.2L456.8,310.6" style="fill:none;stroke-width:2px;stroke:white;"/>
        <path d="M457,315L457,310.6M458.6,310.6L457,315L455.3,310.6" style="fill:none;stroke-width:2px;stroke-linecap:butt;stroke-linejoin:miter;stroke:white;"/>
        <path d="M486.4,332.9L500,332.9" style="fill:none;stroke-width:2px;stroke:white;"/>
        <path d="M504.5,332.9L500,332.9M500,331.2L504.4,332.9L500,334.6" style="fill:none;stroke-width:2px;stroke-linecap:butt;stroke-linejoin:miter;stroke:white;"/>
        <path d="M565.3,332.9L611.5,332.9C612.8,332.9 613.8,331.9 614,330.6L614,310.8L614,309.4" style="fill:none;stroke-width:2px;stroke:white;"/>
        <path d="M613.8,305L613.8,309.4M612.1,309.4L613.8,305L615.5,309.4" style="fill:none;stroke-width:2px;stroke-linecap:butt;stroke-linejoin:miter;stroke:white;"/>
        <path d="M535.2,349.2L535.2,356.3" style="fill:none;stroke-width:2px;stroke:white;"/>
        <path d="M535.4,360.8L535.4,356.4M537,356.3L535.3,360.7L533.6,356.3" style="fill:none;stroke-width:2px;stroke-linecap:butt;stroke-linejoin:miter;stroke:white;"/>
        <path d="M564.8,378.5L578.5,378.5" style="fill:none;stroke-width:2px;stroke:white;"/>
        <path d="M582.9,378.6L578.5,378.6M578.5,377L582.9,378.7L578.5,380.4" style="fill:none;stroke-width:2px;stroke-linecap:butt;stroke-linejoin:miter;stroke:white;"/>
        <path d="M614,395L614,402.1" style="fill:none;stroke-width:2px;stroke:white;"/>
        <path d="M613.8,406.5L613.8,402.1M615.5,402.1L613.8,406.5L612.1,402.1" style="fill:none;stroke-width:2px;stroke-linecap:butt;stroke-linejoin:miter;stroke:white;"/>
        <path d="M643.2,287.2L656.9,287.2" style="fill:none;stroke-width:2px;stroke:white;"/>
        <path d="M661.3,287.1L656.9,287.1M656.9,285.5L661.3,287.2L656.9,288.9" style="fill:none;stroke-width:2px;stroke-linecap:butt;stroke-linejoin:miter;stroke:white;"/>
        <path d="M643.2,424.2L656.9,424.2" style="fill:none;stroke-width:2px;stroke:white;"/>
        <path d="M661.3,424.4L656.9,424.4M656.9,422.7L661.3,424.4L656.9,426.1" style="fill:none;stroke-width:2px;stroke-linecap:butt;stroke-linejoin:miter;stroke:white;"/>
        <path d="M535.2,460.3L535.2,453L535.2,426.7C535.4,425.4 536.5,424.4 537.7,424.2L578.5,424.2" style="fill:none;stroke-width:2px;stroke:white;"/>
        <path d="M582.9,424.4L578.5,424.4M578.5,422.7L582.9,424.4L578.5,426.1" style="fill:none;stroke-width:2px;stroke-linecap:butt;stroke-linejoin:miter;stroke:white;"/>
        <path d="M614,440.7L614,454.4" style="fill:none;stroke-width:2px;stroke:white;"/>
        <path d="M613.8,458.8L613.8,454.4M615.5,454.4L613.8,458.8L612.1,454.4" style="fill:none;stroke-width:2px;stroke-linecap:butt;stroke-linejoin:miter;stroke:white;"/>
    </g>
</svg>
