<?xml version="1.0" standalone="no"?>
<!DOCTYPE svg PUBLIC "-//W3C//DTD SVG 1.1//EN" "http://www.w3.org/Graphics/SVG/1.1/DTD/svg11.dtd">
<svg width="100%" height="100%" viewBox="0 0 152 152" version="1.1" xmlns="http://www.w3.org/2000/svg" xmlns:xlink="http://www.w3.org/1999/xlink" xml:space="preserve" style="fill-rule:evenodd;clip-rule:evenodd;stroke-linejoin:round;stroke-miterlimit:1.41421;">
    <clipPath id="_clip1">
        <path d="M76,152C117.974,152 152,117.974 152,76C152,34.026 117.974,0 76,0C34.026,0 0,34.026 0,76C0,117.974 34.026,152 76,152Z"/>
    </clipPath>
    <g clip-path="url(#_clip1)">
        <g>
            <clipPath id="_clip2">
                <path d="M73,46.392C73,43.414 75.42,41 78.393,41L135.607,41C138.586,41 141,43.42 141,46.392L141,51.784L73,51.784L73,46.392Z"/>
            </clipPath>
            <g clip-path="url(#_clip2)">
                <rect x="68" y="36" width="78" height="20.784" style="fill:rgb(78,164,239);fill-rule:nonzero;"/>
            </g>
            <clipPath id="_clip3">
                <rect x="73" y="50.243" width="68" height="46.987"/>
            </clipPath>
            <g clip-path="url(#_clip3)">
                <rect x="68" y="45.243" width="78" height="56.987" style="fill:white;fill-rule:nonzero;"/>
            </g>
            <clipPath id="_clip4">
                <path d="M79,48C80.105,48 81,47.105 81,46C81,44.895 80.105,44 79,44C77.895,44 77,44.895 77,46C77,47.105 77.895,48 79,48Z"/>
            </clipPath>
            <g clip-path="url(#_clip4)">
                <rect x="72" y="39" width="14" height="14" style="fill:rgb(220,237,252);fill-rule:nonzero;"/>
            </g>
            <clipPath id="_clip5">
                <path d="M86,48C87.105,48 88,47.105 88,46C88,44.895 87.105,44 86,44C84.895,44 84,44.895 84,46C84,47.105 84.895,48 86,48Z"/>
            </clipPath>
            <g clip-path="url(#_clip5)">
                <rect x="79" y="39" width="14" height="14" style="fill:rgb(220,237,252);fill-rule:nonzero;"/>
            </g>
            <clipPath id="_clip6">
                <path d="M17,66.392C17,63.414 19.42,61 22.393,61L79.607,61C82.586,61 85,63.42 85,66.392L85,71.784L17,71.784L17,66.392Z"/>
            </clipPath>
            <g clip-path="url(#_clip6)">
                <rect x="12" y="56" width="78" height="20.784" style="fill:rgb(220,237,252);fill-rule:nonzero;"/>
            </g>
            <clipPath id="_clip7">
                <rect x="17" y="70.243" width="68" height="46.986"/>
            </clipPath>
            <g clip-path="url(#_clip7)">
                <rect x="12" y="65.243" width="78" height="56.986" style="fill:rgb(78,164,239);fill-rule:nonzero;"/>
            </g>
            <clipPath id="_clip8">
                <path d="M23,68C24.105,68 25,67.105 25,66C25,64.895 24.105,64 23,64C21.895,64 21,64.895 21,66C21,67.105 21.895,68 23,68Z"/>
            </clipPath>
            <g clip-path="url(#_clip8)">
                <rect x="16" y="59" width="14" height="14" style="fill:rgb(78,164,239);fill-rule:nonzero;"/>
            </g>
            <clipPath id="_clip9">
                <path d="M30,68C31.105,68 32,67.105 32,66C32,64.895 31.105,64 30,64C28.895,64 28,64.895 28,66C28,67.105 28.895,68 30,68Z"/>
            </clipPath>
            <g clip-path="url(#_clip9)">
                <rect x="23" y="59" width="14" height="14" style="fill:rgb(78,164,239);fill-rule:nonzero;"/>
            </g>
        </g>
    </g>
</svg>
