<?xml version="1.0" encoding="UTF-8" standalone="no"?>
<svg width="44px" height="44px" viewBox="0 0 44 44" version="1.1" xmlns="http://www.w3.org/2000/svg" xmlns:xlink="http://www.w3.org/1999/xlink" xmlns:sketch="http://www.bohemiancoding.com/sketch/ns">
    <!-- Generator: Sketch 3.3.3 (12081) - http://www.bohemiancoding.com/sketch -->
    <title>Pencil</title>
    <desc>Created with Sketch.</desc>
    <defs></defs>
    <g id="Page-1" stroke="none" stroke-width="1" fill="none" fill-rule="evenodd" sketch:type="MSPage">
        <g id="Home-Copy" sketch:type="MSArtboardGroup" transform="translate(-301.000000, -6226.000000)">
            <g id="what-we-offer" sketch:type="MSLayerGroup" transform="translate(201.000000, 5146.000000)">
                <g id="what-we-offer-text" transform="translate(0.000000, 412.000000)" sketch:type="MSShapeGroup">
                    <g id="Approach-section-Copy-3" transform="translate(38.000000, 577.000000)">
                        <g id="icon">
                            <g id="Pencil" transform="translate(83.780481, 112.983341) rotate(-225.000000) translate(-83.780481, -112.983341) translate(52.780481, 82.483341)">
                                <circle id="Oval-85" fill="#FFFFFF" cx="31.2132034" cy="7.78679656" r="4"></circle>
                                <rect id="Rectangle-134" fill="#FFFFFF" x="26.2132034" y="8.78679656" width="9" height="40"></rect>
                                <path d="M26.6237226,50.9245512 L34.6237226,50.9245512 L30.6237226,58.9245512 L26.6237226,50.9245512 Z" id="Triangle-5" fill="#FFFFFF"></path>
                                <rect id="Rectangle-224" fill="#FFFFFF" x="27" y="38" width="8" height="14"></rect>
                                <path d="M50.7780807,10.5780634 C49.8165659,9.61394523 48.5339677,9.08372364 47.1724003,9.08372364 C45.8108329,9.08372364 44.5299703,9.61307744 43.5675877,10.5763278 L13.0325516,41.022849 C12.9414334,41.1130995 12.8720099,41.2215736 12.8286203,41.3413291 L9.35744782,50.8870532 C9.24550251,51.1951198 9.31752934,51.5431048 9.54402334,51.7817479 C9.71063961,51.9570421 9.9388692,52.0516316 10.1740411,52.0516316 C10.2590849,52.0516316 10.3441286,52.0394825 10.4283045,52.0134487 L19.0619781,49.3649441 C19.1973539,49.3241579 19.3205805,49.2495276 19.4212445,49.1497314 L50.7789484,17.7920275 C51.7439344,16.8296449 52.274156,15.5470467 52.274156,14.1846115 C52.2732882,12.8230441 51.7439344,11.5413137 50.7780807,10.5780634 L50.7780807,10.5780634 Z M18.0640161,47.8558519 L14.8323545,48.8486072 C14.6440434,48.295823 14.3507294,47.8063877 13.9506767,47.4063351 C13.6026917,47.0600856 13.1991679,46.7910698 12.7739493,46.5723859 L14.2526687,42.5059074 L16.2485929,42.5059074 L16.2485929,44.2414936 C16.2485929,44.7213832 16.6364964,45.1092867 17.116386,45.1092867 L18.6480408,45.1092867 L18.0640161,47.8558519 L18.0640161,47.8558519 Z M46.0364591,20.0795301 L20.2647394,45.8512498 L20.568467,44.4219946 C20.6222702,44.1651278 20.5580535,43.8987153 20.3931728,43.6956518 C20.2282921,43.4917204 19.980971,43.3737005 19.7197653,43.3737005 L17.9841791,43.3737005 L17.9841791,41.6381143 C17.9841791,41.1590925 17.5954078,40.7703212 17.116386,40.7703212 L15.7470085,40.7703212 L41.2662004,15.3101392 L41.2766139,15.3196849 C41.9118385,14.6835926 42.7579368,14.3338719 43.6561026,14.3338719 C44.5542685,14.3338719 45.4012346,14.6835926 46.0355913,15.3196849 C46.6699481,15.9557773 47.0231399,16.8010078 47.0231399,17.7000414 C47.0231399,18.5990751 46.6734193,19.4434378 46.0364591,20.0795301 L46.0364591,20.0795301 Z M49.5510212,16.564968 L48.742238,17.374619 C48.6641366,16.1345426 48.1495353,14.9786422 47.2643864,14.0926255 C46.3783696,13.2057409 45.2216014,12.6920074 43.9780539,12.6147738 L44.7920438,11.8068584 L44.7937794,11.8051228 C45.4272684,11.1690305 46.2733666,10.8193099 47.1724003,10.8193099 C48.071434,10.8193099 48.9166644,11.1690305 49.5510212,11.8051228 C50.1879813,12.4412152 50.5385698,13.2864457 50.5385698,14.1846115 C50.5385698,15.084513 50.1897169,15.9297435 49.5510212,16.564968 L49.5510212,16.564968 Z M43.8504883,16.2803319 L19.9740287,40.1567915 C19.6347216,40.4960986 19.6347216,41.0445438 19.9740287,41.3838509 C20.1423806,41.5530706 20.3654034,41.6381143 20.5875584,41.6381143 C20.8097135,41.6381143 21.0310007,41.5530706 21.2010882,41.3838509 L45.0775477,17.5073913 C45.4168548,17.1680842 45.4168548,16.619639 45.0775477,16.2803319 C44.7373728,15.9410248 44.1897954,15.9410248 43.8504883,16.2803319 L43.8504883,16.2803319 Z" id="Shape" fill="#4EA4EF" transform="translate(30.789826, 30.567678) rotate(-45.000000) translate(-30.789826, -30.567678) "></path>
                            </g>
                        </g>
                    </g>
                </g>
            </g>
        </g>
    </g>
</svg>