<?xml version="1.0" encoding="utf-8"?>
<!-- Generator: Adobe Illustrator 19.0.0, SVG Export Plug-In . SVG Version: 6.00 Build 0)  -->
<svg version="1.1" id="Layer_1" xmlns:sketch="http://www.bohemiancoding.com/sketch/ns"
	 xmlns="http://www.w3.org/2000/svg" xmlns:xlink="http://www.w3.org/1999/xlink" x="0px" y="0px"
	 viewBox="-537.6 1050.4 238.3 140.6" style="enable-background:new -537.6 1050.4 238.3 140.6;" xml:space="preserve">
<style type="text/css">
	.st0{enable-background:new    ;}
	.st1{fill:#4EA4EF;}
	.st2{fill:#9ECFF1;}
</style>
<g id="Page-1" sketch:type="MSPage">
	<g id="mobile-geniac" transform="translate(-27.000000, -1223.000000)" sketch:type="MSArtboardGroup">
		<g id="key-achieve-copy-2" transform="translate(0.000000, -11.391182)" sketch:type="MSLayerGroup">
			<g id="annotations-copy" transform="translate(27.000000, 826.000000)">
				<g id="Everything-that_x2019_s-be-_x2B_-Line-Copy-5" transform="translate(0.000000, 396.000000)">
					<g class="st0">
						<path class="st1" d="M-525.6,1072.4c-1.2,0.1-2.2,0.3-3.1,0.7c-0.5,0-0.9,0.1-1,0.2c-0.1,0.5-0.4,0.9-0.9,1.3
							c-0.3,0.3-0.6,0.6-1,1.2c-0.2,0.6-0.6,1.3-1.1,2.2c-0.2,0.4-0.4,1-0.7,1.8c0.1,0,0.3,0.1,0.4,0.1c0.1,0,0.4-0.1,0.8-0.2
							c0.4-0.1,0.7-0.2,0.9-0.3c0.5-0.1,0.9-0.2,1.2-0.4c0.3-0.1,2.3-0.8,6-2.2l1.5,0.1c-0.8,0.8-1.4,1.2-1.7,1.2
							c-0.5,0.4-1.1,0.8-2.1,1.2c-1.3,0.5-2,0.8-2.2,0.9c-0.5,0.1-1.3,0.4-2.3,0.9c-0.6,0-1.7,0.3-3.1,0.8c-0.9,2-1.4,3.8-1.4,5.4
							c0,0.3,0,0.6,0.1,0.9c0.3,1.2,0.9,1.8,1.6,1.8c1.2,0.1,2.5-0.3,3.8-1.3c0.6-0.5,1.9-1.4,3.7-2.8c0,0.5-0.1,0.9-0.5,1.4
							c-0.1,0.1-0.4,0.5-1,1.1c-1.9,2.2-3.9,3.3-6,3.1c-1.8-0.7-2.9-1.6-3.2-2.9c-0.2-1.8-0.2-3.3,0.3-4.3c0.2-0.6,0.5-1.4,0.8-2.5
							c-0.5-0.2-0.7-0.6-0.7-1.2c0.1-0.1,0.4-0.3,0.7-0.4c0.3-0.1,0.6-0.2,0.6-0.3c0-0.4,0.2-0.9,0.6-1.5c0.4-0.6,0.6-1.2,0.6-1.5
							c0.2-0.1,0.3-0.2,0.4-0.4c0-0.2,0.1-0.4,0.2-0.4c0.4-0.6,0.9-1.5,1.7-2.7c0,0-0.4-0.1-1.1-0.3c-0.1-0.1-0.2-0.3-0.4-0.6
							c0-0.1,0-0.2,0-0.3c0-0.6,0.6-0.8,1.9-0.8c0.8,0,1.4,0,1.5,0c2.2-0.5,4.3-0.7,6.1-0.7c1.2,0,2.4,0.1,3.5,0.3l0.2,0.5
							C-521,1071.9-522.8,1072.1-525.6,1072.4z"/>
						<path class="st1" d="M-514.8,1080.2l0.7,0.1c-0.1,0.4-0.3,0.6-0.6,0.8c-0.5,0.3-0.9,0.7-1.4,1c-0.2,0.2-0.8,0.3-1.7,0.3
							l-0.3-0.1c-0.1,0-0.3-0.1-0.3-0.1c0,0.4-0.1,0.9-0.3,1.7c-1.3,3.6-2.9,6.2-4.7,7.7c-0.4,0.4-1,0.5-1.7,0.3
							c-0.9-0.6-1.4-1.6-1.4-3.1c0-0.4,0-0.8,0.1-1.3c0.3-1.7,0.6-2.9,0.9-3.7c0-0.5,0.2-1.1,0.4-1.8c0.4-1,0.6-1.6,0.6-1.7
							c0.2-0.1,0.4-0.2,0.6-0.2c0.3,0,0.5,0.1,0.8,0.4c0,0.6-0.2,1.2-0.5,1.9c-0.4,1-0.7,1.6-0.7,1.7c0,0.3-0.2,1-0.5,2.2
							c-0.2,0.9-0.3,1.6-0.3,2.2c0,1,0.2,1.7,0.5,2c0.3-0.1,0.6-0.3,0.9-0.7c0.5-0.5,0.7-0.8,0.8-0.9c1.1-1.7,1.9-2.9,2.2-3.7
							c0.7-1.4,1-2.8,1-4.1c0-0.4,0-0.7-0.1-1.1c0.2-0.1,0.4-0.2,0.5-0.2c0.2,0,0.4,0.1,0.7,0.4c0.3,0.3,0.5,0.4,0.6,0.5
							c0.3,0.1,0.7,0.1,1,0.1c0.4,0,0.8-0.1,1.2-0.4C-515.2,1080.4-514.8,1080.3-514.8,1080.2z"/>
						<path class="st1" d="M-510.4,1089.1l-0.1,0.1c-0.1,0.1-0.2,0.2-0.1,0.4c-1.9,1.4-3.5,2.2-4.6,2.3c-0.6,0-1.3-0.1-1.9-0.4
							c-0.5-0.3-0.9-0.7-1.1-1.2c-0.2-0.4-0.3-1-0.4-1.9c0.7-3.8,2.5-6.8,5.4-8.9c0.1,0,0.4-0.1,0.8-0.1c0.4-0.1,0.7,0,1,0.2
							c0.3,0.2,0.4,0.5,0.4,0.9c0,0.3-0.1,0.6-0.1,0.9c-0.4,1.4-1.8,3-4.2,4.8c-0.1,0.1-0.5,0.2-1.2,0.4c-0.4,0.1-0.6,0.3-0.5,0.6
							c-0.3,0.5-0.4,1-0.4,1.5c0,0.2,0.1,0.6,0.3,1.1c0.4,0.6,1.1,0.9,2,0.9l0.1-0.1c0.4,0,0.9-0.1,1.6-0.4c0.7-0.4,1.7-1,3.2-1.7
							c0,0.1,0,0.2,0,0.3C-510.2,1088.9-510.3,1089-510.4,1089.1z M-512.5,1081.3c-0.1-0.1-0.2-0.1-0.3-0.2c-1.3,0.8-2.4,2.1-3.3,4
							c0.1,0,0.3,0,0.4-0.1c0.6-0.6,1.2-1.1,1.8-1.7C-513.2,1082.5-512.7,1081.8-512.5,1081.3z"/>
						<path class="st1" d="M-508.3,1083.1c0.8-1,1.6-1.9,2.4-2.8c0.8-0.9,1.8-1.4,2.8-1.5c0.5,0,0.9,0,1.3,0.2
							c0.3,0.4,0.4,0.7,0.5,1.2c0,0.2-0.1,0.9-0.3,2l-0.5,0.1c-0.1-0.1-0.1-0.6-0.2-1.4c0-0.5-0.2-0.8-0.3-0.9
							c-1.2,0.4-2.3,1.1-3.2,2.2c-0.5,0.5-0.9,1-1.3,1.4c-0.5,0.6-0.8,1.1-1,1.7c-0.2,0-0.3,0.3-0.5,0.9c-0.1,0.4-0.2,0.7-0.3,0.8
							c-0.2,0.4-0.5,1.2-1,2.4c0,0.2,0,0.6,0,1.2c-0.1,0.5-0.3,0.8-0.7,0.9c-0.1-0.2-0.2-0.2-0.3-0.1c-0.1,0.1-0.2,0.1-0.3,0.1
							c-0.2,0-0.4-0.2-0.5-0.5c0.4-1.4,1.2-4.6,2.5-9.7c-0.1-0.2-0.1-0.4-0.1-0.5c0-0.3,0.2-0.4,0.5-0.5c0.8-0.1,1.2,0,1.3,0.5
							c0,0,0,0.2-0.1,0.4c-0.1,0.2-0.1,0.5-0.1,0.9c-0.1,0-0.2,0.1-0.3,0.1c0,0,0,0.2,0,0.4l-0.1,0.3
							C-508.2,1083-508.2,1083.1-508.3,1083.1z"/>
						<path class="st1" d="M-500.9,1094.8c-1,1.9-2,3.6-3,5c-0.3,0.3-0.9,0.9-1.7,1.6c-0.3,0.3-0.6,0.5-0.7,0.5
							c-0.1,0-0.5,0.1-1.1,0.2c1.2-1.2,2.5-3,3.7-5.3c1.1-2,1.8-3.9,2.3-5.7c0-0.1-0.1-0.3-0.1-0.5c-0.1-0.3-0.3-0.5-0.5-0.6
							c-1-0.6-1.7-2.2-2.3-4.6c0-0.8-0.2-2.3-0.5-4.4c0,0.1,0-0.2,0-0.7c0-0.2,0.1-0.3,0.2-0.3c0.3,0,0.5,0.1,0.8,0.5
							c0.3,0.3,0.4,0.7,0.4,1c0.2,1.4,0.4,2.9,0.7,4.4c0.4,1.9,1.2,3.1,2.3,3.7c0.7-1.4,1.7-4.2,3-8.3c0.5-0.3,0.8-0.4,0.9-0.4
							c0.1,0,0.3,0.1,0.4,0.2l0.4,0.4c-0.1,0.6-0.4,1.5-0.9,2.6c-0.5,0.9-1.2,2.9-2.3,5.9C-500.1,1092.8-500.7,1094.5-500.9,1094.8z
							"/>
						<path class="st1" d="M-491.7,1080c0.5,0.1,1,0.1,1.5,0.2c0.6,0.1,1,0.3,1.4,0.7l0,0.7c-0.4,0-1.1,0-2.1,0
							c-0.6,0-1.1,0-1.5,0.1c-1.6,3-2.3,5.5-2.2,7.5c0,0.3,0,0.6,0.1,0.8s0.3,0.4,0.7,0.4c0.2,0,0.5,0,0.9-0.1
							c0.3,0,0.7-0.2,1.3-0.6c0.6-0.4,1.1-0.6,1.7-0.6c-0.4,1.3-1.5,2.2-3.3,2.6c-0.2,0-0.4,0.1-0.6,0.1c-0.6,0-1.2-0.2-1.5-0.6
							c-0.4-0.7-0.7-1.5-0.7-2.5c0-1.3,0.3-2.9,1-4.7c0.2-0.4,0.5-1.1,0.8-2.1c-0.8,0-1.6,0.4-2.2,1.2c-0.4,0-0.8-0.4-1-1.2
							c0-0.3,0.3-0.6,0.9-0.9c0.4-0.3,0.8-0.5,1.4-0.6c0.5-0.1,1.1-0.2,1.6-0.3c1.1-2.2,1.9-4.3,2.3-6.3c0.2-0.2,0.3-0.4,0.5-0.4
							c0.3,0,0.6,0.2,0.9,0.7c-0.1,1.6-0.7,3.5-1.9,5.7C-491.7,1079.9-491.7,1080-491.7,1080z"/>
						<path class="st1" d="M-488.4,1087.7l3.5-4.4c1.4-1.7,2.7-3,4.1-3.8c0.3-0.2,0.8-0.2,1.3,0c0.2,0.2,0.4,0.4,0.5,0.8
							c0.1,0.4,0.2,0.7,0.3,0.8c-0.1,0.4-0.3,0.8-0.3,1.4c-0.1,0.8-0.2,1.3-0.2,1.5c-0.6,2.3-0.9,3.6-0.9,3.9
							c-0.3,1.5-0.5,2.8-0.6,4c-0.7-0.5-1.1-1.2-1.1-2c0-0.3,0-0.7,0.1-1.1c0.1-0.6,0.2-0.9,0.2-1.1c0-0.5,0.3-1.6,0.8-3.3
							c0.4-1.3,0.5-2.4,0.5-3.3c-0.2-0.1-0.5,0.2-1.1,0.7c-1,0.9-2.1,2.1-3.2,3.6l-2.9,3.9c-0.2,0.2-0.5,0.4-0.7,0.8
							c-0.3,0.5-0.5,0.8-0.7,0.9c-0.4,0.2-0.6,0.2-0.8,0.1c-0.2-0.4-0.3-0.8-0.3-1.3c0-0.4,0.1-1,0.4-1.7c0.2-0.7,0.4-1.3,0.4-1.7
							c0.9-2.6,2.2-6.5,3.9-11.8c0-0.3,0.1-0.6,0.4-0.9c0-0.3,0.1-0.5,0.2-0.7c0.2-0.2,0.4-0.3,0.7-0.3c0.2,0,0.5,0.1,0.7,0.4
							c0.1,0.8-0.1,1.5-0.5,2.3c-0.6,1.2-1,2.2-1.1,3c-0.1,0-0.1,0.1-0.1,0.2c-0.6,1.6-1.1,3.1-1.7,4.7
							C-487.3,1084.2-487.7,1085.6-488.4,1087.7z"/>
						<path class="st1" d="M-475,1089.4c-0.2,0.4-0.6,0.9-1.1,1.5c-0.9,0.6-1.6,0.9-2.1,0.8c-0.4,0-0.9-0.4-1.4-1.1
							c0-0.4-0.1-0.9-0.1-1.3c0-2.5,0.4-5,1.1-7.5c0.1-0.4,0.4-1.2,1-2.4c0.1-0.2,0.3-0.3,0.6-0.3c0.2,0,0.5,0.1,0.7,0.3
							c0.2,0.2,0.3,0.4,0.3,0.6c0,0.1,0,0.2-0.1,0.3c-0.4,0.7-0.8,1.6-1.2,2.7l-0.8,3.7c-0.2,0.8-0.2,1.8-0.1,3
							c0,0.1,0.2,0.3,0.4,0.6c0.1,0,0.2-0.1,0.4-0.2c0.2-0.2,0.3-0.3,0.4-0.3c0.3-0.2,0.7-0.6,1.2-1.1s0.9-0.9,1.3-1.1l0.8-1
							C-474.1,1088.3-474.6,1089.1-475,1089.4z M-474.4,1076.7l-0.1,0.1c0,0-0.1,0.2-0.1,0.4c-1.2,0.1-1.8-0.2-1.8-0.8
							c0-0.4,0.1-0.6,0.4-0.7c0.1,0,0.4,0,0.9,0c0.1,0,0.3,0,0.5-0.1c0.2,0.1,0.4,0.3,0.6,0.6
							C-474.2,1076.3-474.2,1076.5-474.4,1076.7z"/>
						<path class="st1" d="M-465.8,1084.1c-0.2,0.8-0.3,1.6-0.5,2.3c-0.2,1-0.3,1.8-0.3,2.3c0,1.1,0.3,2,0.8,2.8
							c-0.2,0.1-0.5,0.1-0.6,0.1c-0.3,0-0.6-0.1-0.9-0.3c-0.5-0.8-0.7-1.7-0.7-2.8c0-0.7,0.1-1.6,0.3-2.6l0.5-2.5l0-0.1
							c-0.9,0.7-1.9,1.9-3.1,3.6c-1.2,1.8-2.2,3.1-2.9,3.7c-0.3,0.1-0.6,0.2-0.9,0.2c-0.1,0-0.3,0-0.4-0.1c-0.4-0.3-0.5-0.8-0.3-1.6
							c0.3-1,0.6-2.4,1.1-4.1c0.4-1.6,0.7-3,0.9-4.2c0.2-0.2,0.4-0.3,0.6-0.3c0.2,0,0.5,0.1,0.7,0.4c0.2,0.3,0.3,0.5,0.2,0.8
							l-1.5,6.4c0.1-0.3,0.3-0.6,0.7-1c1.2-1.7,2-2.8,2.4-3.2c1-1.1,2-2,3-2.7c0.8,0,1.2,0.4,1.2,1.3c0,0.2,0,0.4-0.1,0.8
							C-465.8,1083.6-465.8,1083.9-465.8,1084.1z"/>
						<path class="st1" d="M-459.2,1079.8c0.9-0.1,1.5,0.1,1.8,0.6c0.2,0.4,0.3,1,0.3,2.1v1.7c-0.2,0.1-0.3,0.3-0.3,0.5
							c-0.1,0.3-0.3,0.6-0.4,1.1l-0.1,0.3c0,0,0,0.1-0.1,0.3c-0.5,1.1-0.9,2.2-1.1,3.3c-0.2,0.4-0.4,1-0.5,1.6
							c-0.1,0.1-0.2,0.2-0.2,0.5c0,0.2,0,0.4-0.1,0.5c-0.8,3-1.4,4.9-1.7,5.6c-1.4,3.7-3,5.5-4.8,5.5c-0.2,0-0.4,0-0.6-0.1l-0.8-0.8
							c1.3,0.1,2.1-0.3,2.5-1.1c0.5-0.5,0.9-1,1.2-1.7c1.3-2.8,2.3-5.6,2.8-8.5c-0.5,0.3-1.2,0.3-2.1,0c-1.1-0.7-1.7-1.4-1.9-2.3
							c-0.2-0.7-0.3-1.3-0.3-1.9c0-0.6,0.1-1,0.3-1.5c0.9-2.3,1.9-3.9,3-4.7c0.6-0.3,1.2-0.6,1.9-0.8
							C-459.9,1080-459.6,1079.9-459.2,1079.8z M-458.4,1081.5L-458.4,1081.5c-0.1-0.2-0.1-0.3-0.2-0.3c-0.1,0-0.6,0.2-1.7,0.6
							c-0.8,0.3-1.2,0.5-1.3,0.8c-0.5,0.3-1.1,1.2-1.8,2.7c-0.3,0.7-0.5,1.4-0.5,2c0,0.4,0.1,0.8,0.2,1.4c0.1,0.4,0.5,0.9,1.2,1.5
							c0.5,0.1,1-0.2,1.6-0.9c0.5-0.7,0.8-1.5,1-2.3c0-0.5,0.3-1.2,0.7-1.9c0.1-0.3,0.3-0.6,0.5-0.9c0-0.1-0.2-0.3-0.5-0.4
							c0.5-0.2,0.7-0.5,0.7-0.9V1081.5z"/>
						<path class="st1" d="M-442,1080c0.5,0.1,1,0.1,1.5,0.2c0.6,0.1,1,0.3,1.4,0.7l0,0.7c-0.4,0-1.1,0-2.1,0c-0.6,0-1.1,0-1.5,0.1
							c-1.6,3-2.3,5.5-2.2,7.5c0,0.3,0,0.6,0.1,0.8s0.3,0.4,0.7,0.4c0.2,0,0.5,0,0.9-0.1c0.3,0,0.7-0.2,1.3-0.6
							c0.6-0.4,1.1-0.6,1.7-0.6c-0.4,1.3-1.5,2.2-3.3,2.6c-0.2,0-0.4,0.1-0.6,0.1c-0.6,0-1.2-0.2-1.5-0.6c-0.4-0.7-0.7-1.5-0.7-2.5
							c0-1.3,0.3-2.9,1-4.7c0.2-0.4,0.5-1.1,0.8-2.1c-0.8,0-1.6,0.4-2.2,1.2c-0.4,0-0.8-0.4-1-1.2c0-0.3,0.3-0.6,0.9-0.9
							c0.4-0.3,0.8-0.5,1.4-0.6c0.5-0.1,1.1-0.2,1.6-0.3c1.1-2.2,1.9-4.3,2.3-6.3c0.2-0.2,0.3-0.4,0.5-0.4c0.3,0,0.6,0.2,0.9,0.7
							c-0.1,1.6-0.7,3.5-1.9,5.7C-442,1079.9-442,1080-442,1080z"/>
						<path class="st1" d="M-438.6,1087.7l3.5-4.4c1.4-1.7,2.7-3,4.1-3.8c0.3-0.2,0.8-0.2,1.3,0c0.2,0.2,0.4,0.4,0.5,0.8
							c0.1,0.4,0.2,0.7,0.3,0.8c-0.1,0.4-0.3,0.8-0.3,1.4c-0.1,0.8-0.2,1.3-0.2,1.5c-0.6,2.3-0.9,3.6-0.9,3.9
							c-0.3,1.5-0.5,2.8-0.6,4c-0.7-0.5-1.1-1.2-1.1-2c0-0.3,0-0.7,0.1-1.1c0.1-0.6,0.2-0.9,0.2-1.1c0-0.5,0.3-1.6,0.8-3.3
							c0.4-1.3,0.5-2.4,0.5-3.3c-0.2-0.1-0.5,0.2-1.1,0.7c-1,0.9-2.1,2.1-3.2,3.6l-2.9,3.9c-0.2,0.2-0.5,0.4-0.7,0.8
							c-0.3,0.5-0.5,0.8-0.7,0.9c-0.4,0.2-0.6,0.2-0.8,0.1c-0.2-0.4-0.3-0.8-0.3-1.3c0-0.4,0.1-1,0.4-1.7c0.2-0.7,0.4-1.3,0.4-1.7
							c0.9-2.6,2.2-6.5,3.9-11.8c0-0.3,0.1-0.6,0.4-0.9c0-0.3,0.1-0.5,0.2-0.7c0.2-0.2,0.4-0.3,0.7-0.3c0.2,0,0.5,0.1,0.7,0.4
							c0.1,0.8-0.1,1.5-0.5,2.3c-0.6,1.2-1,2.2-1.1,3c-0.1,0-0.1,0.1-0.1,0.2c-0.6,1.6-1.1,3.1-1.7,4.7
							C-437.6,1084.2-438,1085.6-438.6,1087.7z"/>
						<path class="st1" d="M-420.9,1090.6c-0.3,0.1-0.7,0.3-1.3,0.7c-0.3,0-0.8-0.2-1.5-0.6c0-0.2-0.1-0.5-0.3-1
							c-0.2-0.5-0.3-0.8-0.3-1.1c-0.2,0.2-0.3,0.4-0.4,0.6c-0.9,1.1-1.4,1.7-1.5,1.9c-0.7,0.6-1.4,0.8-2.2,0.7c-0.6-0.5-1-1.2-1-2.2
							c0-1.7,0.2-3,0.5-3.9c0.8-2.3,2.5-4.3,5-6.1h0.6c0.6,0,0.8,0.3,0.8,1c0,0.2-0.1,0.6-0.2,1.3c-0.1,0.3-0.4,0.7-0.8,1.2
							c-0.1,0.2-0.4,0.3-0.9,0.5c0.1-0.6,0.3-1.1,0.6-1.4c0-0.1,0.1-0.3,0.2-0.6c0,0,0-0.1,0-0.2c0-0.1,0-0.2,0-0.3
							c0.1-0.1,0.2-0.2,0.2-0.3c-0.1,0-0.4,0.2-0.8,0.6c-0.1,0-0.2,0.2-0.4,0.3c-2.5,2.8-3.7,5.4-3.8,7.7c0.1,0.7,0.3,1.1,0.6,1.2
							c0.8-0.2,1.5-0.8,2.1-1.9c0.7-0.6,1.3-1.7,1.8-3.2c0.3-0.6,0.8-2.1,1.5-4.6c0.1-0.2,0.4-0.4,0.8-0.5c0.2,0.2,0.3,0.5,0.3,0.8
							c0,0.2,0,0.4-0.1,0.7c-0.1,0.4-0.2,0.6-0.2,0.7c-1,2.6-1.4,4.4-1.4,5.3c0,1.1,0.2,1.9,0.7,2.3c0.1,0,0.4-0.2,0.9-0.5
							c0.4-0.2,0.7-0.4,0.8-0.4c0,0.1,0,0.2,0,0.4C-420.5,1090.2-420.7,1090.5-420.9,1090.6z"/>
						<path class="st1" d="M-415,1080c0.5,0.1,1,0.1,1.5,0.2c0.6,0.1,1,0.3,1.4,0.7l0,0.7c-0.4,0-1.1,0-2.1,0c-0.6,0-1.1,0-1.5,0.1
							c-1.6,3-2.3,5.5-2.2,7.5c0,0.3,0,0.6,0.1,0.8s0.3,0.4,0.7,0.4c0.2,0,0.5,0,0.9-0.1c0.3,0,0.7-0.2,1.3-0.6
							c0.6-0.4,1.1-0.6,1.7-0.6c-0.4,1.3-1.5,2.2-3.3,2.6c-0.2,0-0.4,0.1-0.6,0.1c-0.6,0-1.2-0.2-1.5-0.6c-0.4-0.7-0.7-1.5-0.7-2.5
							c0-1.3,0.3-2.9,1-4.7c0.2-0.4,0.5-1.1,0.8-2.1c-0.8,0-1.6,0.4-2.2,1.2c-0.4,0-0.8-0.4-1-1.2c0-0.3,0.3-0.6,0.9-0.9
							c0.4-0.3,0.8-0.5,1.4-0.6c0.5-0.1,1.1-0.2,1.6-0.3c1.1-2.2,1.9-4.3,2.3-6.3c0.2-0.2,0.3-0.4,0.5-0.4c0.3,0,0.6,0.2,0.9,0.7
							c-0.1,1.6-0.7,3.5-1.9,5.7C-414.9,1079.9-414.9,1080-415,1080z"/>
						<path class="st1" d="M-410.4,1072.7c0,0.2-0.1,0.4-0.1,0.6l-0.7,0c0-0.1,0.1-0.3,0.1-0.4s0-0.2-0.1-0.3
							c-0.1-0.3-0.1-0.5-0.1-0.6c0-0.3-0.1-0.6-0.3-1.1c0-0.3-0.1-0.8-0.3-1.5c-0.1-0.4-0.1-0.6,0-0.7l0,0c0,0,0,0,0.1,0l0,0
							c0.1,0,0.2-0.1,0.3-0.1c0.1,0,0.2,0,0.3,0c0.1,0.3,0.3,0.6,0.3,1c0.1,0.3,0.1,0.7,0.2,1c0.1,0.4,0.1,0.9,0.2,1.6
							C-410.4,1072.3-410.4,1072.4-410.4,1072.7z"/>
						<path class="st1" d="M-408.9,1084.8c0.1,0,0.2,0,0.1,0C-408.8,1084.8-408.8,1084.9-408.9,1084.8l0.5,0.2c0,0.1,0,0.2,0.2,0.3
							c0,0,0.1,0,0.1,0.1c0,0,0.1,0,0.2,0h0.3c0.1,0.2,0.4,0.4,1,0.6c0.5,0.2,0.8,0.3,1,0.5c1.1,0.5,1.7,1.2,1.8,1.9
							c0,0.5-0.2,1-0.7,1.6c-0.1,0-0.2,0.1-0.3,0.2c-0.1,0.1-0.1,0.2-0.2,0.3c-1.4,1-2.7,1.4-3.9,1.3c-0.7,0-1.4-0.3-1.9-0.7
							c-0.2-0.8-0.3-1.1-0.3-0.9c0-0.2,0.2-0.5,0.5-0.7c0.1,0.1,0.3,0.5,0.6,1c0.2,0.3,0.4,0.4,0.7,0.3c1.2-0.3,1.9-0.5,2.2-0.6
							c0.9-0.4,1.4-0.9,1.7-1.5c-0.1-0.6-0.9-1.2-2.4-1.8c-0.5-0.2-1.1-0.5-1.8-0.8c-0.6-0.4-0.9-1-0.9-1.7c0.2-0.3,0.6-0.7,1.2-1.2
							c0.7-0.5,1.2-0.9,1.3-1c0.3-0.2,0.9-0.5,1.6-0.8c0.3-0.2,1.2-0.5,2.5-1c0.4,0.1,0.7,0.1,0.7,0.1c0.3,0.1,0.4,0.3,0.4,0.5
							c0,0.2-0.2,0.4-0.5,0.5c-0.2,0-0.4,0.2-0.7,0.3c-0.3,0.2-0.6,0.3-0.7,0.3c-0.1,0-0.6,0.2-1.6,0.7c-1.2,0.6-2,1.2-2.6,1.8
							C-408.8,1084.5-408.8,1084.6-408.9,1084.8L-408.9,1084.8z"/>
						<path class="st1" d="M-391.2,1083.8l0.1-0.2c0-0.1,0-0.1,0-0.1c0.1-0.1,0.4-0.6,0.9-1.3c0.3-0.6,0.7-1,1-1.2
							c0.7-1.3,1.8-1.9,3.3-1.8c0.9,0.4,1.4,1.2,1.4,2.6c0.1,2-0.6,4-1.9,5.9c-0.7,1.4-2.2,2.5-4.4,3.5c-0.6,0.2-1.2,0.4-1.8,0.4
							c-1.3,0-2.1-0.7-2.3-2.1c0.4,0.1,0.8,0.3,1.2,0.6c0.2,0.2,0.5,0.3,0.8,0.3c1.4-0.1,2.7-0.6,3.9-1.5c1.2-0.9,2-2.1,2.5-3.5
							c0.6-1.5,0.9-2.5,0.9-3.1c0-0.4-0.1-0.8-0.2-1.1c-0.1-0.1-0.2-0.2-0.3-0.5c0,0,0,0,0,0c-0.1-0.1-0.3-0.1-0.4-0.1
							c-0.2,0-0.5,0.1-0.8,0.3c-0.6,0.4-1.1,1-1.5,1.8c-0.7,1-1.4,1.9-1.8,2.8l0,0l-0.1,0.4c-0.1,0-0.2,0-0.2,0l0,0.1
							c-0.1,0.2-0.2,0.3-0.3,0.4c-0.1,0.3-0.4,0.7-0.9,1.3c0,0.1-0.2,0.3-0.6,0.6c-0.4,0-0.6,0-0.7-0.2s-0.2-0.5-0.1-0.8
							c0-0.1,0-0.1,0-0.2v-0.2c2-5.3,3.3-9.5,4-12.6c0.2-0.1,0.4-0.2,0.6-0.2c0.3,0,0.5,0.1,0.6,0.4c0,0.3,0,0.7-0.2,1.3
							c-0.2,0.6-0.3,1-0.3,1.2c-0.1,0.4-0.3,0.9-0.6,1.6c-0.1,0.4-0.3,1.1-0.6,2.2C-390.4,1081.3-390.7,1082.4-391.2,1083.8z
							 M-387.1,1081.6c0-0.2,0.1-0.4,0.3-0.4c0.2,0,0.3,0.1,0.3,0.4H-387.1z"/>
						<path class="st1" d="M-376,1089.1l-0.1,0.1c-0.1,0.1-0.2,0.2-0.1,0.4c-1.9,1.4-3.5,2.2-4.6,2.3c-0.6,0-1.3-0.1-1.9-0.4
							c-0.5-0.3-0.9-0.7-1.1-1.2c-0.2-0.4-0.3-1-0.4-1.9c0.7-3.8,2.5-6.8,5.4-8.9c0.1,0,0.4-0.1,0.8-0.1c0.4-0.1,0.7,0,1,0.2
							c0.3,0.2,0.4,0.5,0.4,0.9c0,0.3-0.1,0.6-0.1,0.9c-0.4,1.4-1.8,3-4.2,4.8c-0.1,0.1-0.5,0.2-1.2,0.4c-0.4,0.1-0.6,0.3-0.5,0.6
							c-0.3,0.5-0.4,1-0.4,1.5c0,0.2,0.1,0.6,0.3,1.1c0.4,0.6,1.1,0.9,2,0.9l0.1-0.1c0.4,0,0.9-0.1,1.6-0.4c0.7-0.4,1.7-1,3.2-1.7
							c0,0.1,0,0.2,0,0.3C-375.9,1088.9-375.9,1089-376,1089.1z M-378.1,1081.3c-0.1-0.1-0.2-0.1-0.3-0.2c-1.3,0.8-2.4,2.1-3.3,4
							c0.1,0,0.3,0,0.4-0.1c0.6-0.6,1.2-1.1,1.8-1.7C-378.8,1082.5-378.4,1081.8-378.1,1081.3z"/>
						<path class="st1" d="M-372.4,1089.4c-0.2,0.4-0.6,0.9-1.1,1.5c-0.9,0.6-1.6,0.9-2.1,0.8c-0.4,0-0.9-0.4-1.4-1.1
							c0-0.4-0.1-0.9-0.1-1.3c0-2.5,0.4-5,1.1-7.5c0.1-0.4,0.4-1.2,1-2.4c0.1-0.2,0.3-0.3,0.6-0.3c0.2,0,0.5,0.1,0.7,0.3
							c0.2,0.2,0.3,0.4,0.3,0.6c0,0.1,0,0.2-0.1,0.3c-0.4,0.7-0.8,1.6-1.2,2.7l-0.8,3.7c-0.2,0.8-0.2,1.8-0.1,3
							c0,0.1,0.2,0.3,0.4,0.6c0.1,0,0.2-0.1,0.4-0.2c0.2-0.2,0.3-0.3,0.4-0.3c0.3-0.2,0.7-0.6,1.2-1.1s0.9-0.9,1.3-1.1l0.8-1
							C-371.5,1088.3-372,1089.1-372.4,1089.4z M-371.8,1076.7l-0.1,0.1c0,0-0.1,0.2-0.1,0.4c-1.2,0.1-1.8-0.2-1.8-0.8
							c0-0.4,0.1-0.6,0.4-0.7c0.1,0,0.4,0,0.9,0c0.1,0,0.3,0,0.5-0.1c0.2,0.1,0.4,0.3,0.6,0.6
							C-371.6,1076.3-371.6,1076.5-371.8,1076.7z"/>
						<path class="st1" d="M-363.2,1084.1c-0.2,0.8-0.3,1.6-0.5,2.3c-0.2,1-0.3,1.8-0.3,2.3c0,1.1,0.3,2,0.8,2.8
							c-0.2,0.1-0.5,0.1-0.6,0.1c-0.3,0-0.6-0.1-0.9-0.3c-0.5-0.8-0.7-1.7-0.7-2.8c0-0.7,0.1-1.6,0.3-2.6l0.5-2.5l0-0.1
							c-0.9,0.7-1.9,1.9-3.1,3.6c-1.2,1.8-2.2,3.1-2.9,3.7c-0.3,0.1-0.6,0.2-0.9,0.2c-0.1,0-0.3,0-0.4-0.1c-0.4-0.3-0.5-0.8-0.3-1.6
							c0.3-1,0.6-2.4,1.1-4.1c0.4-1.6,0.7-3,0.9-4.2c0.2-0.2,0.4-0.3,0.6-0.3c0.2,0,0.5,0.1,0.7,0.4c0.2,0.3,0.3,0.5,0.2,0.8
							l-1.5,6.4c0.1-0.3,0.3-0.6,0.7-1c1.2-1.7,2-2.8,2.4-3.2c1-1.1,2-2,3-2.7c0.8,0,1.2,0.4,1.2,1.3c0,0.2,0,0.4-0.1,0.8
							C-363.2,1083.6-363.2,1083.9-363.2,1084.1z"/>
						<path class="st1" d="M-356.6,1079.8c0.9-0.1,1.5,0.1,1.8,0.6c0.2,0.4,0.3,1,0.3,2.1v1.7c-0.2,0.1-0.3,0.3-0.3,0.5
							c-0.1,0.3-0.3,0.6-0.4,1.1l-0.1,0.3c0,0,0,0.1-0.1,0.3c-0.5,1.1-0.9,2.2-1.1,3.3c-0.2,0.4-0.4,1-0.5,1.6
							c-0.1,0.1-0.2,0.2-0.2,0.5c0,0.2,0,0.4-0.1,0.5c-0.8,3-1.4,4.9-1.7,5.6c-1.4,3.7-3,5.5-4.8,5.5c-0.2,0-0.4,0-0.6-0.1l-0.8-0.8
							c1.3,0.1,2.1-0.3,2.5-1.1c0.5-0.5,0.9-1,1.2-1.7c1.3-2.8,2.3-5.6,2.8-8.5c-0.5,0.3-1.2,0.3-2.1,0c-1.1-0.7-1.7-1.4-1.9-2.3
							c-0.2-0.7-0.3-1.3-0.3-1.9c0-0.6,0.1-1,0.3-1.5c0.9-2.3,1.9-3.9,3-4.7c0.6-0.3,1.2-0.6,1.9-0.8
							C-357.3,1080-357,1079.9-356.6,1079.8z M-355.9,1081.5L-355.9,1081.5c-0.1-0.2-0.1-0.3-0.2-0.3c-0.1,0-0.6,0.2-1.7,0.6
							c-0.8,0.3-1.2,0.5-1.3,0.8c-0.5,0.3-1.1,1.2-1.8,2.7c-0.3,0.7-0.5,1.4-0.5,2c0,0.4,0.1,0.8,0.2,1.4c0.1,0.4,0.5,0.9,1.2,1.5
							c0.5,0.1,1-0.2,1.6-0.9c0.5-0.7,0.8-1.5,1-2.3c0-0.5,0.3-1.2,0.7-1.9c0.1-0.3,0.3-0.6,0.5-0.9c0-0.1-0.2-0.3-0.5-0.4
							c0.5-0.2,0.7-0.5,0.7-0.9V1081.5z"/>
						<path class="st1" d="M-340.9,1088.5c-0.6,0.8-1.2,1.6-1.8,2.4c-0.8,0.9-1.6,1.3-2.4,1.3c-0.4,0-0.7-0.1-1.1-0.2
							c-0.6-0.5-0.9-1.2-0.9-2c0-0.6,0.1-1.2,0.3-1.8c0.1-0.7,0.4-2.1,1-4.1c0.1-0.4,0.4-1.1,0.9-1.9l0.9-1.5c0.5-0.7,1-1.1,1.7-1.1
							c0.4,0,0.9,0.4,1.5,1.2c0,0.2,0.1,0.4,0.3,0.6c0.2-1.1,0.6-2.8,1.3-5c0-0.2,0.2-0.8,0.6-2c0.1-0.3,0.3-0.4,0.6-0.4
							c0.4,0,0.7,0.2,0.9,0.6c0.1,2.1-0.3,4.5-1,7.2c-0.2,0.7-0.6,1.6-1.2,2.7c-0.3,0.6-0.5,1.4-0.5,2.2c0,0.9,0.2,1.6,0.5,2.3
							c0.2,0.3,0.5,0.4,0.8,0.4c0.1,0,0.3,0,0.4-0.1c0.3-0.1,0.7-0.4,1-0.8c0.3-0.3,0.5-0.6,0.8-1c0.2-0.2,0.5-0.4,1-0.7
							c0,0.2,0.1,0.4,0.1,0.6c0,0.2-0.2,0.6-0.5,1.3c-0.7,0.7-1.2,1.2-1.3,1.3c-0.6,0.5-1.1,0.7-1.6,0.7c-0.2,0-0.5,0-0.8-0.1
							C-340,1090.2-340.5,1089.5-340.9,1088.5z M-341,1084.1c0-0.2,0-0.6,0.2-1.4c-0.4-0.1-0.7-0.4-0.9-0.8l-0.2-0.3
							c-0.1-0.2-0.3-0.4-0.4-0.5c-0.7,0.8-1.4,1.9-2.1,3.3l0,0.4c-0.3,0.3-0.6,1.2-0.9,2.5c-0.2,1.3-0.3,2.1-0.3,2.3
							c0,0.3,0,0.6,0.1,0.9c0,0.1,0.2,0.2,0.5,0.2c1.3-0.6,2.6-2.1,3.8-4.4c0-0.2,0-0.8,0.2-1.6C-341,1084.7-341,1084.5-341,1084.1z
							"/>
						<path class="st1" d="M-328.6,1089.1l-0.1,0.1c-0.1,0.1-0.2,0.2-0.1,0.4c-1.9,1.4-3.5,2.2-4.6,2.3c-0.6,0-1.3-0.1-1.9-0.4
							c-0.5-0.3-0.9-0.7-1.1-1.2c-0.2-0.4-0.3-1-0.4-1.9c0.7-3.8,2.5-6.8,5.4-8.9c0.1,0,0.4-0.1,0.8-0.1c0.4-0.1,0.7,0,1,0.2
							c0.3,0.2,0.4,0.5,0.4,0.9c0,0.3-0.1,0.6-0.1,0.9c-0.4,1.4-1.8,3-4.2,4.8c-0.1,0.1-0.5,0.2-1.2,0.4c-0.4,0.1-0.6,0.3-0.5,0.6
							c-0.3,0.5-0.4,1-0.4,1.5c0,0.2,0.1,0.6,0.3,1.1c0.4,0.6,1.1,0.9,2,0.9l0.1-0.1c0.4,0,0.9-0.1,1.6-0.4c0.7-0.4,1.7-1,3.2-1.7
							c0,0.1,0,0.2,0,0.3C-328.4,1088.9-328.5,1089-328.6,1089.1z M-330.7,1081.3c-0.1-0.1-0.2-0.1-0.3-0.2c-1.3,0.8-2.4,2.1-3.3,4
							c0.1,0,0.3,0,0.4-0.1c0.6-0.6,1.2-1.1,1.8-1.7C-331.4,1082.5-330.9,1081.8-330.7,1081.3z"/>
						<path class="st1" d="M-321,1090.6c-0.3,0.1-0.7,0.3-1.3,0.7c-0.3,0-0.8-0.2-1.5-0.6c0-0.2-0.1-0.5-0.3-1
							c-0.2-0.5-0.3-0.8-0.3-1.1c-0.2,0.2-0.3,0.4-0.4,0.6c-0.9,1.1-1.4,1.7-1.5,1.9c-0.7,0.6-1.4,0.8-2.2,0.7c-0.6-0.5-1-1.2-1-2.2
							c0-1.7,0.2-3,0.5-3.9c0.8-2.3,2.5-4.3,5-6.1h0.6c0.6,0,0.8,0.3,0.8,1c0,0.2-0.1,0.6-0.2,1.3c-0.1,0.3-0.4,0.7-0.8,1.2
							c-0.1,0.2-0.4,0.3-0.9,0.5c0.1-0.6,0.3-1.1,0.6-1.4c0-0.1,0.1-0.3,0.2-0.6c0,0,0-0.1,0-0.2c0-0.1,0-0.2,0-0.3
							c0.1-0.1,0.2-0.2,0.2-0.3c-0.1,0-0.4,0.2-0.8,0.6c-0.1,0-0.2,0.2-0.4,0.3c-2.5,2.8-3.7,5.4-3.8,7.7c0.1,0.7,0.3,1.1,0.6,1.2
							c0.8-0.2,1.5-0.8,2.1-1.9c0.7-0.6,1.3-1.7,1.8-3.2c0.3-0.6,0.8-2.1,1.5-4.6c0.1-0.2,0.4-0.4,0.8-0.5c0.2,0.2,0.3,0.5,0.3,0.8
							c0,0.2,0,0.4-0.1,0.7c-0.1,0.4-0.2,0.6-0.2,0.7c-1,2.6-1.4,4.4-1.4,5.3c0,1.1,0.2,1.9,0.7,2.3c0.1,0,0.4-0.2,0.9-0.5
							c0.4-0.2,0.7-0.4,0.8-0.4c0,0.1,0,0.2,0,0.4C-320.6,1090.2-320.7,1090.5-321,1090.6z"/>
						<path class="st1" d="M-313.5,1071.3c-0.3,0.3-0.4,0.6-0.3,0.8c-0.3,0.4-0.6,1.1-0.8,1.9c-0.2,1-0.5,1.7-0.7,2
							c-0.2,0.5-0.4,1.4-0.8,2.6c0.1,0.2,0,0.3-0.1,0.5c0,0.1-0.3,1-0.8,2.7c-0.3,1-0.5,1.9-0.6,2.7c-0.1,0.2-0.2,0.5-0.3,1
							c0,0.5-0.1,0.8-0.3,1c-0.2,1.5-0.3,2.4-0.2,2.8c-0.1,0.3,0,0.6,0.2,1.2c0.2,0,0.5-0.2,0.8-0.4c0.4-0.3,0.6-0.5,0.7-0.5
							c0.3-0.1,0.6-0.2,1.1-0.1c-0.4,0.8-1,1.5-1.6,2.1c-0.1,0-0.3,0-0.6,0.1c-0.2,0.1-0.4,0.1-0.5,0.1c-0.1,0-0.3-0.1-0.5-0.2
							c-0.5-0.4-0.7-0.7-0.8-0.8c-0.2-0.3-0.3-0.9-0.3-1.6c0-0.3,0-0.7,0-1.2c0-0.1,0.1-0.5,0.3-1.2c0.3-1.7,0.6-3.1,0.8-4.2
							c0.5-2.4,1.1-4.8,1.9-7.4c0.2-0.7,0.5-1.5,0.9-2.3c0.5-1.1,0.7-1.6,0.7-1.7c0.1-0.3,0.3-0.7,0.7-1.2c0.2-0.3,0.5-0.4,0.7-0.4
							c0.2,0,0.5,0.1,0.7,0.4C-313,1070.5-313.2,1070.9-313.5,1071.3z"/>
						<path class="st1" d="M-310.6,1080c0.5,0.1,1,0.1,1.5,0.2c0.6,0.1,1,0.3,1.4,0.7l0,0.7c-0.4,0-1.1,0-2.1,0
							c-0.6,0-1.1,0-1.5,0.1c-1.6,3-2.3,5.5-2.2,7.5c0,0.3,0,0.6,0.1,0.8s0.3,0.4,0.7,0.4c0.2,0,0.5,0,0.9-0.1
							c0.3,0,0.7-0.2,1.3-0.6c0.6-0.4,1.1-0.6,1.7-0.6c-0.4,1.3-1.5,2.2-3.3,2.6c-0.2,0-0.4,0.1-0.6,0.1c-0.6,0-1.2-0.2-1.5-0.6
							c-0.4-0.7-0.7-1.5-0.7-2.5c0-1.3,0.3-2.9,1-4.7c0.2-0.4,0.5-1.1,0.8-2.1c-0.8,0-1.6,0.4-2.2,1.2c-0.4,0-0.8-0.4-1-1.2
							c0-0.3,0.3-0.6,0.9-0.9c0.4-0.3,0.8-0.5,1.4-0.6c0.5-0.1,1.1-0.2,1.6-0.3c1.1-2.2,1.9-4.3,2.3-6.3c0.2-0.2,0.3-0.4,0.5-0.4
							c0.3,0,0.6,0.2,0.9,0.7c-0.1,1.6-0.7,3.5-1.9,5.7C-310.5,1079.9-310.5,1080-310.6,1080z"/>
					</g>
					<g class="st0">
						<path class="st1" d="M-518.4,1110.1c-0.2,0.3-0.4,0.6-0.6,1c-0.6,0.6-1.6,2.2-3.1,4.8c-1.2,2-2.4,3.4-3.6,4.2
							c-0.3,0.1-0.6,0.1-0.8,0.1c-0.4,0-0.9-0.1-1.3-0.3c-0.3-0.4-0.6-0.9-1.1-1.6c0-0.3-0.2-0.9-0.4-1.9c-0.2-0.8-0.3-1.4-0.3-1.9
							c-0.3,0.6-0.8,1.4-1.6,2.4c-0.1,0.4-0.4,0.9-0.8,1.5c-0.4,0.6-0.7,1.1-0.8,1.4c-0.4,0.5-1,1.3-2,2.2h-1
							c-0.6,0-0.8-0.3-0.8-0.8c0-1.5,0.1-3.3,0.4-5.5c0.2-1.6,0.4-3.3,0.6-5.3c0-0.3,0.2-0.4,0.5-0.4c0.4,0,0.6,0.1,0.8,0.3
							c0.3,0.4,0.4,0.8,0.4,1.2c0,0.3-0.1,0.7-0.2,1.2c-0.1,0.6-0.2,1-0.2,1.2c0,0.3-0.1,0.7-0.3,1.2c-0.1,0.4-0.1,0.7,0.3,1.1
							c-0.3,0-0.4,0.1-0.4,0.1v0.1c0,0.2,0,0.6-0.1,0.9c-0.1,0.5-0.2,0.9-0.2,1c-0.1,0.6-0.1,1.2,0,1.5c0.4-0.2,0.8-0.7,1.2-1.4
							c0.5-0.8,0.8-1.3,1-1.5c0.6-1.2,1.8-3.3,3.7-6.2c0.3-0.2,0.6-0.3,0.9-0.3c0.1,0,0.3,0,0.4,0c0.4,0.2,0.5,0.4,0.5,0.7
							c0,0.1,0,0.3-0.1,0.6c-0.1,0.3-0.1,0.5-0.1,0.6c-0.1,0.2-0.2,0.5-0.2,1c0,0.5-0.1,0.8-0.2,0.9c0.1,1.5,0.1,2.3,0.1,2.4
							c0.2,0.9,0.6,1.6,1.2,2c0.2,0,0.5-0.2,0.7-0.7c0.5-0.6,1.7-2.2,3.5-4.9c1.4-2,2.6-3.6,3.7-4.7h0.7
							C-518,1109.2-518.2,1109.7-518.4,1110.1z"/>
						<path class="st1" d="M-516.1,1120.4c-0.2,0.4-0.6,0.9-1.1,1.5c-0.9,0.6-1.6,0.9-2.1,0.8c-0.4,0-0.9-0.4-1.4-1.1
							c0-0.4-0.1-0.9-0.1-1.3c0-2.5,0.4-5,1.1-7.5c0.1-0.4,0.4-1.2,1-2.4c0.1-0.2,0.3-0.3,0.6-0.3c0.2,0,0.5,0.1,0.7,0.3
							c0.2,0.2,0.3,0.4,0.3,0.6c0,0.1,0,0.2-0.1,0.3c-0.4,0.7-0.8,1.6-1.2,2.7l-0.8,3.7c-0.2,0.8-0.2,1.8-0.1,3
							c0,0.1,0.2,0.3,0.4,0.6c0.1,0,0.2-0.1,0.4-0.2c0.2-0.2,0.3-0.3,0.4-0.3c0.3-0.2,0.7-0.6,1.2-1.1s0.9-0.9,1.3-1.1l0.8-1
							C-515.2,1119.3-515.6,1120.1-516.1,1120.4z M-515.5,1107.7l-0.1,0.1c0,0-0.1,0.2-0.1,0.4c-1.2,0.1-1.8-0.2-1.8-0.8
							c0-0.4,0.1-0.6,0.4-0.7c0.1,0,0.4,0,0.9,0c0.1,0,0.3,0,0.5-0.1c0.2,0.1,0.4,0.3,0.6,0.6
							C-515.2,1107.3-515.3,1107.5-515.5,1107.7z"/>
						<path class="st1" d="M-510.5,1111c0.5,0.1,1,0.1,1.5,0.2c0.6,0.1,1,0.3,1.4,0.7l0,0.7c-0.4,0-1.1,0-2.1,0
							c-0.6,0-1.1,0-1.5,0.1c-1.6,3-2.3,5.5-2.2,7.5c0,0.3,0,0.6,0.1,0.8s0.3,0.4,0.7,0.4c0.2,0,0.5,0,0.9-0.1
							c0.3,0,0.7-0.2,1.3-0.6c0.6-0.4,1.1-0.6,1.7-0.6c-0.4,1.3-1.5,2.2-3.3,2.6c-0.2,0-0.4,0.1-0.6,0.1c-0.6,0-1.2-0.2-1.5-0.6
							c-0.4-0.7-0.7-1.5-0.7-2.5c0-1.3,0.3-2.9,1-4.7c0.2-0.4,0.5-1.1,0.8-2.1c-0.8,0-1.6,0.4-2.2,1.2c-0.4,0-0.8-0.4-1-1.2
							c0-0.3,0.3-0.6,0.9-0.9c0.4-0.3,0.8-0.5,1.4-0.6c0.5-0.1,1.1-0.2,1.6-0.3c1.1-2.2,1.9-4.3,2.3-6.3c0.2-0.2,0.3-0.4,0.5-0.4
							c0.3,0,0.6,0.2,0.9,0.7c-0.1,1.6-0.7,3.5-1.9,5.7C-510.5,1110.9-510.5,1111-510.5,1111z"/>
						<path class="st1" d="M-507.1,1118.7l3.5-4.4c1.4-1.7,2.7-3,4.1-3.8c0.3-0.2,0.8-0.2,1.3,0c0.2,0.2,0.4,0.4,0.5,0.8
							c0.1,0.4,0.2,0.7,0.3,0.8c-0.1,0.4-0.3,0.8-0.3,1.4c-0.1,0.8-0.2,1.3-0.2,1.5c-0.6,2.3-0.9,3.6-0.9,3.9
							c-0.3,1.5-0.5,2.8-0.6,4c-0.7-0.5-1.1-1.2-1.1-2c0-0.3,0-0.7,0.1-1.1c0.1-0.6,0.2-0.9,0.2-1.1c0-0.5,0.3-1.6,0.8-3.3
							c0.4-1.3,0.5-2.4,0.5-3.3c-0.2-0.1-0.5,0.2-1.1,0.7c-1,0.9-2.1,2.1-3.2,3.6l-2.9,3.9c-0.2,0.2-0.5,0.4-0.7,0.8
							c-0.3,0.5-0.5,0.8-0.7,0.9c-0.4,0.2-0.6,0.2-0.8,0.1c-0.2-0.4-0.3-0.8-0.3-1.3c0-0.4,0.1-1,0.4-1.7c0.2-0.7,0.4-1.3,0.4-1.7
							c0.9-2.6,2.2-6.5,3.9-11.8c0-0.3,0.1-0.6,0.4-0.9c0-0.3,0.1-0.5,0.2-0.7c0.2-0.2,0.4-0.3,0.7-0.3c0.2,0,0.5,0.1,0.7,0.4
							c0.1,0.8-0.1,1.5-0.5,2.3c-0.6,1.2-1,2.2-1.1,3c-0.1,0-0.1,0.1-0.1,0.2c-0.6,1.6-1.1,3.1-1.7,4.7
							C-506.1,1115.2-506.5,1116.6-507.1,1118.7z"/>
						<path class="st1" d="M-481.7,1102.8c0.1,0.2,0.2,0.3,0.3,0.5c0,0.1,0,0.3-0.1,0.6c-0.1,0-0.1,0-0.1,0v0.3
							c-0.1,0.1-0.2,0.2-0.3,0.3v0.2c0,0.4-0.2,0.6-0.5,0.7c-0.3,0.1-0.5,0-0.8-0.3l-0.1-0.1c0,0-0.1-0.1-0.2-0.2
							c0.2-0.7,0.5-1.7,0.8-3l-0.1-0.4c0,0-0.2,0.2-0.5,0.6c0,0.4-0.1,0.7-0.4,0.7c-1.1,2.4-2,4.5-2.7,6.4l-0.1,0.4
							c0.2,0,0.6,0,1-0.1s0.7-0.2,0.9-0.2c0.4,0,0.8,0.1,1.2,0.3v0.2c0,0,0,0.1,0,0.1l0,0.1c0,0,0,0.1,0,0.3c-0.9,0.1-2.1,0.5-3.7,1
							c-0.4,1.7-0.9,3.7-1.5,5.9c-0.3,1-0.6,2-0.9,3c-0.5,1.6-0.7,2.6-0.7,2.9c-0.1,0.2-0.2,0.5-0.2,0.9c0.2,0.1,0.4,0.3,0.4,0.6
							c0,0.1,0,0.4-0.1,0.8c0,0-0.1,0.1-0.2,0.4c-0.1,0.2-0.3,0.4-0.5,0.5c-0.4-0.1-0.8-0.5-1.1-1.3c0-0.4,0-0.9,0.1-1.7
							c0-0.2,0.3-1.1,0.8-2.8c0.4-1.6,0.6-2.4,0.6-2.5c0-0.1,0.2-0.8,0.6-2.1c0.3-1.3,0.5-2.1,0.6-2.2c0-0.3,0.1-0.4,0.2-0.5
							c0.1-0.7,0.3-1.3,0.3-1.7c-0.1,0-0.3,0-0.5,0.1c-0.2,0.1-0.4,0.1-0.5,0.1c-0.4,0-0.6-0.2-0.7-0.6l0-0.8
							c0.2-0.1,0.4-0.1,0.6-0.2c0.2,0,0.6,0,1.1-0.1c0.5,0,0.7-0.3,0.7-0.8c0.1-0.2,0.6-1.6,1.5-4.2c0.6-1.7,1.2-3.1,1.8-4.1
							c0.5-0.5,0.9-0.9,1.3-1.2c0.2-0.2,0.5-0.3,0.7-0.3c0.4,0,0.7,0.2,1,0.6c0.1,0.4,0.1,0.7,0.1,1.1
							C-481.2,1101.9-481.4,1102.4-481.7,1102.8z"/>
						<path class="st1" d="M-477.5,1118.4c-0.2,0.1-0.3,0.3-0.5,0.6c-0.2,0.4-0.3,0.6-0.3,0.7c-0.3,0.4-0.8,0.9-1.6,1.6
							c-0.7,1-1.8,1.6-3.2,1.8c-0.4,0-0.8,0-1.2-0.1c-0.9-0.5-1.5-1.3-1.8-2.7c0.1-0.8,0.3-1.6,0.6-2.5c0.2-0.5,0.5-1.3,0.9-2.3
							c0.2-0.2,0.4-0.6,0.8-1.2c0.3-0.5,0.6-0.8,1-1c0.3-0.5,0.8-0.9,1.5-1c0.2,0,0.6-0.2,1.2-0.7c0-0.1,0-0.2,0.2-0.4
							c0.3,0,0.5,0,0.7,0c0.4,0,0.6,0,0.9,0.1c1,0.7,1.5,1.9,1.5,3.5c0,0.4,0,0.8-0.1,1.3C-476.9,1116.4-477.1,1117.2-477.5,1118.4z
							 M-478.1,1113.2c-0.1-0.5-0.3-0.9-0.7-1.1l-1.6,0.6l0.4,0.4c0,0.3,0,0.6,0.1,1.2c0,0.4-0.1,0.8-0.4,1
							c-0.1,0.1-0.2,0.1-0.4,0.1c-0.3,0-0.6-0.4-0.6-1.2c-0.2,0.1-0.5,0.3-0.8,0.8c-0.4,0.5-0.7,0.8-0.9,0.9c-0.7,1.4-1,2.3-1.1,2.5
							c-0.2,0.6-0.3,1.2-0.3,1.8c0,0.3,0,0.6,0.1,0.9c0.2,0.2,0.5,0.4,1.1,0.4c2.7-0.8,4.5-3,5.4-6.6
							C-477.9,1114.4-478,1113.8-478.1,1113.2z"/>
						<path class="st1" d="M-473.4,1114.1c0.8-1,1.6-1.9,2.4-2.8c0.8-0.9,1.8-1.4,2.8-1.5c0.5,0,0.9,0,1.3,0.2
							c0.3,0.4,0.4,0.7,0.5,1.2c0,0.2-0.1,0.9-0.3,2l-0.5,0.1c-0.1-0.1-0.1-0.6-0.2-1.4c0-0.5-0.2-0.8-0.3-0.9
							c-1.2,0.4-2.3,1.1-3.2,2.2c-0.5,0.5-0.9,1-1.3,1.4c-0.5,0.6-0.8,1.1-1,1.7c-0.2,0-0.3,0.3-0.5,0.9c-0.1,0.4-0.2,0.7-0.3,0.8
							c-0.2,0.4-0.5,1.2-1,2.4c0,0.2,0,0.6,0,1.2c-0.1,0.5-0.3,0.8-0.7,0.9c-0.1-0.2-0.2-0.2-0.3-0.1c-0.1,0.1-0.2,0.1-0.3,0.1
							c-0.2,0-0.4-0.2-0.5-0.5c0.4-1.4,1.2-4.6,2.5-9.7c-0.1-0.2-0.1-0.4-0.1-0.5c0-0.3,0.2-0.4,0.5-0.5c0.8-0.1,1.2,0,1.3,0.5
							c0,0,0,0.2-0.1,0.4c-0.1,0.2-0.1,0.5-0.1,0.9c-0.1,0-0.2,0.1-0.3,0.1c0,0,0,0.2,0,0.4l-0.1,0.3
							C-473.3,1114-473.3,1114.1-473.4,1114.1z"/>
						<path class="st1" d="M-454.9,1125.8c-1,1.9-2,3.6-3,5c-0.3,0.3-0.9,0.9-1.7,1.6c-0.3,0.3-0.6,0.5-0.7,0.5
							c-0.1,0-0.5,0.1-1.1,0.2c1.2-1.2,2.5-3,3.7-5.3c1.1-2,1.8-3.9,2.3-5.7c0-0.1-0.1-0.3-0.1-0.5c-0.1-0.3-0.3-0.5-0.5-0.6
							c-1-0.6-1.7-2.2-2.3-4.6c0-0.8-0.2-2.3-0.5-4.4c0,0.1,0-0.2,0-0.7c0-0.2,0.1-0.3,0.2-0.3c0.3,0,0.5,0.1,0.8,0.5
							c0.3,0.3,0.4,0.7,0.4,1c0.2,1.4,0.4,2.9,0.7,4.4c0.4,1.9,1.2,3.1,2.3,3.7c0.7-1.4,1.7-4.2,3-8.3c0.5-0.3,0.8-0.4,0.9-0.4
							c0.1,0,0.3,0.1,0.4,0.2l0.4,0.4c-0.1,0.6-0.4,1.5-0.9,2.6c-0.5,0.9-1.2,2.9-2.3,5.9C-454.2,1123.8-454.8,1125.5-454.9,1125.8z
							"/>
						<path class="st1" d="M-442.4,1118.4c-0.2,0.1-0.3,0.3-0.5,0.6c-0.2,0.4-0.3,0.6-0.3,0.7c-0.3,0.4-0.8,0.9-1.6,1.6
							c-0.7,1-1.8,1.6-3.2,1.8c-0.4,0-0.8,0-1.2-0.1c-0.9-0.5-1.5-1.3-1.8-2.7c0.1-0.8,0.3-1.6,0.6-2.5c0.2-0.5,0.5-1.3,0.9-2.3
							c0.2-0.2,0.4-0.6,0.8-1.2c0.3-0.5,0.6-0.8,1-1c0.3-0.5,0.8-0.9,1.5-1c0.2,0,0.6-0.2,1.2-0.7c0-0.1,0-0.2,0.2-0.4
							c0.3,0,0.5,0,0.7,0c0.4,0,0.6,0,0.9,0.1c1,0.7,1.5,1.9,1.5,3.5c0,0.4,0,0.8-0.1,1.3C-441.9,1116.4-442.1,1117.2-442.4,1118.4z
							 M-443,1113.2c-0.1-0.5-0.3-0.9-0.7-1.1l-1.6,0.6l0.4,0.4c0,0.3,0,0.6,0.1,1.2c0,0.4-0.1,0.8-0.4,1c-0.1,0.1-0.2,0.1-0.4,0.1
							c-0.3,0-0.6-0.4-0.6-1.2c-0.2,0.1-0.5,0.3-0.8,0.8c-0.4,0.5-0.7,0.8-0.9,0.9c-0.7,1.4-1,2.3-1.1,2.5c-0.2,0.6-0.3,1.2-0.3,1.8
							c0,0.3,0,0.6,0.1,0.9c0.2,0.2,0.5,0.4,1.1,0.4c2.7-0.8,4.5-3,5.4-6.6C-442.9,1114.4-443,1113.8-443,1113.2z"/>
						<path class="st1" d="M-431.5,1120.1c-0.3,0.3-0.7,0.6-1.1,1c-0.6,0.4-1.2,0.5-1.6,0.5c-0.6,0-1.1-0.4-1.3-1.3
							c0-0.1-0.1-0.2-0.1-0.5c-0.1-0.4-0.2-0.6-0.3-0.6c0,0-0.7,0.8-2.1,2.3c-0.9,0.8-2,1.3-3.4,1.5c-0.7-0.8-1-1.7-1-2.7
							c0-0.5,0.1-1.1,0.2-1.8c0.1-0.9,0.2-1.5,0.3-1.8c0.4-1.8,1-3.6,2-5.3c0.3,0,0.6,0,0.9,0.3c0.1,0.2,0.1,0.4,0.1,0.5
							c0,0.2-0.1,0.5-0.3,0.8c-0.2,0.4-0.4,0.7-0.4,0.8c-0.4,1.1-0.8,2.7-1.4,4.7c0,0.6-0.1,1.1-0.1,1.5c0,0.7,0.1,1.2,0.2,1.5
							c0.6-0.1,1.1-0.3,1.5-0.5c0,0,0.4-0.3,1.2-0.9c0.2-0.3,0.8-1.2,1.8-2.5c0.8-1,1.2-1.9,1.3-2.7c0.6-1.6,1.3-2.8,1.9-3.7
							c0.4-0.3,0.7-0.2,0.8,0.2c0.1,0.2,0.1,0.4,0.1,0.6c0,0.4-0.1,0.8-0.4,1.4c-0.3,0.6-0.5,1.1-0.5,1.3c-0.7,0.9-1.1,2.1-1.2,3.8
							c0,0.1,0.1,0.4,0.1,1c0,0.4,0.2,0.6,0.4,0.7c0.3-0.1,0.6-0.2,0.9-0.4c0.4-0.3,0.7-0.5,0.8-0.5c0.3-0.3,0.7-0.7,1.3-1.2
							l0.4,0.3C-430.8,1119.3-431.1,1119.8-431.5,1120.1z"/>
					</g>
					<g id="Line-Copy-5">
						<path class="st2" d="M-452.3,1197.6l-1.7-1l0.5-0.9c29.5-50.4,26.1-65.4,26.1-65.6l-0.2-1l1.9-0.5l0.2,1
							c0.2,0.6,3.6,16-26.3,67.1L-452.3,1197.6z"/>
					</g>
					<g id="Line-Copy-5-decoration-1">
						<polygon class="st2" points="-456.8,1203.4 -453,1188.1 -451.1,1188.6 -453.2,1197 -447,1190.9 -445.6,1192.3 						"/>
					</g>
				</g>
			</g>
		</g>
	</g>
</g>
</svg>
