<?xml version="1.0" encoding="utf-8"?>
<!-- Generator: Adobe Illustrator 19.0.0, SVG Export Plug-In . SVG Version: 6.00 Build 0)  -->
<svg version="1.1" id="Layer_1" xmlns="http://www.w3.org/2000/svg" xmlns:xlink="http://www.w3.org/1999/xlink" x="0px" y="0px"
	 viewBox="112.7 269.6 609.8 368.1" style="enable-background:new 112.7 269.6 609.8 368.1;" xml:space="preserve">
<style type="text/css">
	.st0_1{fill:none;stroke:#FFFFFF;stroke-width:2;stroke-linecap:round;stroke-linejoin:round;stroke-miterlimit:10;}
	.st1_1{fill:none;stroke:#FFFFFF;stroke-width:2;stroke-miterlimit:10;}
</style>
<g>
	<path class="st0_1" d="M430,316.8h54c1.3-0.2,2.3,0.8,2.2,2.1v28.1c0.1,1.3-0.9,2.3-2.2,2.1h-54.2c-1.3,0.2-2.3-0.8-2.1-2.1v-28.1
		C427.6,317.6,428.6,316.5,430,316.8z"/>
	<path class="st0_1" d="M430,270.6h54c1.3,0.2,2.3,1.2,2.2,2.5v28.1c0.1,1.3-0.9,2.3-2.2,2.2h-54.2c-1.3,0.1-2.3-0.9-2.1-2.2v-28.1
		C427.6,271.8,428.6,270.8,430,270.6z"/>
	<path class="st0_1" d="M351.6,270.6h54c1.3,0.2,2.3,1.2,2.3,2.5v28.1c0,1.3-1,2.3-2.3,2.2h-54.2c-1.3,0.1-2.3-0.9-2.1-2.2v-28.1
		C349.1,271.8,350.2,270.8,351.6,270.6z"/>
	<path class="st0_1" d="M508.4,316.8h54.1c1.3-0.2,2.3,0.8,2.2,2.1v28.1c0.1,1.3-0.9,2.3-2.2,2.1h-54.2c-1.3,0.2-2.3-0.8-2.2-2.1
		v-28.1C506,317.6,507,316.5,508.4,316.8z"/>
	<path class="st0_1" d="M586.8,270.6h54.1c1.3,0.2,2.3,1.2,2.1,2.5v28.1c0.2,1.3-0.9,2.3-2.1,2.2h-54.2c-1.3,0.1-2.3-0.9-2.2-2.2
		v-28.1C584.4,271.8,585.4,270.8,586.8,270.6z"/>
	<path class="st0_1" d="M508.4,362.4h54.1c1.3-0.1,2.3,0.9,2.2,2.2v28.1c0.1,1.3-0.9,2.3-2.2,2.5h-54.2c-1.3-0.2-2.3-1.2-2.2-2.5
		v-28.1C506,363.3,507,362.3,508.4,362.4z"/>
	<path class="st0_1" d="M586.8,362.4h54.1c1.3-0.1,2.3,0.9,2.1,2.2v28.1c0.2,1.3-0.9,2.3-2.1,2.5h-54.2c-1.3-0.2-2.3-1.2-2.2-2.5
		v-28.1C584.4,363.3,585.4,362.3,586.8,362.4z"/>
	<path class="st0_1" d="M586.8,408h54.1c1.3,0,2.3,1,2.1,2.3v28.1c0.2,1.3-0.9,2.3-2.1,2.4h-54.2c-1.3-0.1-2.3-1.1-2.2-2.4v-28.1
		C584.4,409.1,585.4,408,586.8,408z"/>
	<path class="st0_1" d="M665.2,270.6h54.1c1.3,0.2,2.3,1.2,2.1,2.5v28.1c0.2,1.3-0.8,2.3-2.1,2.2h-54.2c-1.3,0.1-2.3-0.9-2.2-2.2
		v-28.1C662.8,271.8,663.9,270.8,665.2,270.6z"/>
	<path class="st0_1" d="M665.2,408h54.1c1.3,0,2.3,1,2.1,2.3v28.1c0.2,1.3-0.8,2.3-2.1,2.4h-54.2c-1.3-0.1-2.3-1.1-2.2-2.4v-28.1
		C662.8,409.1,663.9,408,665.2,408z"/>
	<path class="st0_1" d="M407.9,287.2h13.7"/>
	<path class="st1_1" d="M426,287.1h-4.4 M421.6,285.5l4.4,1.7l-4.4,1.7"/>
	<path class="st0_1" d="M456.8,303.5v7.3V310v-0.8v1.4"/>
	<path class="st1_1" d="M457,315v-4.4 M458.6,310.6L457,315l-1.7-4.4"/>
	<path class="st0_1" d="M486.4,332.9H500"/>
	<path class="st1_1" d="M504.5,332.9H500 M500,331.2l4.4,1.7l-4.4,1.7"/>
	<path class="st0_1" d="M565.3,332.9h46.2c1.3,0,2.3-1,2.5-2.3v-19.8v-1.4"/>
	<path class="st1_1" d="M613.8,305v4.4 M612.1,309.4l1.7-4.4l1.7,4.4"/>
	<path class="st0_1" d="M535.2,349.2v7.1"/>
	<path class="st1_1" d="M535.4,360.8v-4.4 M537,356.3l-1.7,4.4l-1.7-4.4"/>
	<path class="st0_1" d="M564.8,378.5h13.7"/>
	<path class="st1_1" d="M582.9,378.6h-4.4 M578.5,377l4.4,1.7l-4.4,1.7"/>
	<path class="st0_1" d="M614,395v7.1"/>
	<path class="st1_1" d="M613.8,406.5v-4.4 M615.5,402.1l-1.7,4.4l-1.7-4.4"/>
	<path class="st0_1" d="M643.2,287.2h13.7"/>
	<path class="st1_1" d="M661.3,287.1h-4.4 M656.9,285.5l4.4,1.7l-4.4,1.7"/>
	<path class="st0_1" d="M643.2,424.2h13.7"/>
	<path class="st1_1" d="M661.3,424.4h-4.4 M656.9,422.7l4.4,1.7l-4.4,1.7"/>
	<path class="st0_1" d="M484,440.8h-54.1c-1.3-0.1-2.3-1.1-2.1-2.4v-28.1c-0.2-1.3,0.9-2.3,2.1-2.3h54.2c1.3,0,2.3,1,2.2,2.3v28.1
		C486.4,439.7,485.3,440.7,484,440.8L484,440.8z"/>
	<path class="st0_1" d="M484,492.9h-54.1c-1.3,0.1-2.3-0.9-2.1-2.2v-28.1c-0.2-1.3,0.9-2.3,2.1-2.5h54.2c1.3,0.2,2.3,1.2,2.2,2.5v28.1
		c0.1,1.3-0.9,2.3-2.2,2.3L484,492.9z"/>
	<path class="st0_1" d="M562.4,492.9h-54.1c-1.3,0.1-2.3-0.9-2.2-2.2v-28.1c-0.1-1.3,0.9-2.3,2.2-2.5h54.2c1.3,0.2,2.3,1.2,2.2,2.5
		v28.1c0.1,1.3-0.9,2.3-2.2,2.3L562.4,492.9z"/>
	<path class="st0_1" d="M405.6,440.8h-54.2c-1.3-0.1-2.3-1.1-2.1-2.4v-28.1c-0.2-1.3,0.8-2.3,2.1-2.3h54.2c1.3,0,2.3,1,2.3,2.3v28.1
		C407.9,439.7,406.9,440.7,405.6,440.8L405.6,440.8z"/>
	<path class="st0_1" d="M327.2,492.9H273c-1.3,0.1-2.3-0.9-2.5-2.2v-28.1c0.2-1.3,1.2-2.3,2.5-2.5h54.2c1.3,0.2,2.3,1.2,2.3,2.5v28.1
		c0,1.3-1,2.3-2.3,2.3L327.2,492.9z"/>
	<path class="st0_1" d="M405.6,395.1h-54.2c-1.3-0.2-2.3-1.2-2.1-2.5v-28.1c-0.2-1.3,0.8-2.3,2.1-2.2h54.2c1.3-0.1,2.3,0.9,2.3,2.2
		v28.1c0,1.3-1,2.3-2.3,2.3L405.6,395.1z"/>
	<path class="st0_1" d="M327.2,395.1H273c-1.3-0.2-2.3-1.2-2.5-2.5v-28.1c0.2-1.3,1.2-2.3,2.5-2.2h54.2c1.3-0.1,2.3,0.9,2.3,2.2v28.1
		c0,1.3-1,2.3-2.3,2.3L327.2,395.1z"/>
	<path class="st0_1" d="M327.2,349H273c-1.3,0.2-2.3-0.8-2.5-2.1v-28.1c0.2-1.3,1.2-2.3,2.5-2.1h54.2c1.3-0.2,2.3,0.8,2.3,2.1v28.1
		c0,1.3-1,2.3-2.3,2.3L327.2,349z"/>
	<path class="st0_1" d="M248.8,492.9h-54.2c-1.3,0.1-2.3-0.9-2.5-2.2v-28.1c0.2-1.3,1.2-2.3,2.5-2.5h54.2c1.3,0.2,2.3,1.2,2.3,2.5
		v28.1c0,1.3-1.1,2.3-2.3,2.3L248.8,492.9z"/>
	<path class="st0_1" d="M248.8,349h-54.2c-1.3,0.2-2.3-0.8-2.5-2.1v-28.1c0.2-1.3,1.2-2.3,2.5-2.1h54.2c1.3-0.2,2.3,0.8,2.3,2.1v28.1
		c0,1.3-1.1,2.3-2.3,2.3L248.8,349z"/>
	<path class="st0_1" d="M506,476.8h-7.3h-2.5h-2.5h-1.4"/>
	<path class="st1_1" d="M487.9,476.7h4.4 M492.3,478.3l-4.4-1.7l4.4-1.7"/>
	<path class="st0_1" d="M456.8,460.3V453v0.8V448v-1.4"/>
	<path class="st1_1" d="M457,442.2v4.4 M455.3,446.7l1.7-4.4l1.7,4.4"/>
	<path class="st0_1" d="M427.6,424.2h-7.3h-2.5h-2.5h-1.4"/>
	<path class="st1_1" d="M409.5,424.4h4.4 M413.9,426l-4.4-1.7l4.4-1.7"/>
	<path class="st0_1" d="M348.7,424.2h-6.9h-39.4c-1.3,0.2-2.3,1.2-2.4,2.5v27.7"/>
	<path class="st1_1" d="M300.1,458.8v-4.4 M301.8,454.4l-1.7,4.4l-1.7-4.4"/>
	<path class="st0_1" d="M378.4,408v-7.1"/>
	<path class="st1_1" d="M378.5,396.5v4.4 M376.9,400.9l1.7-4.4l1.7,4.4"/>
	<path class="st0_1" d="M349.1,378.5h-13.7"/>
	<path class="st1_1" d="M331,378.6h4.4 M335.5,380.3l-4.4-1.7l4.4-1.7"/>
	<path class="st0_1" d="M300,362.3v-7.1"/>
	<path class="st1_1" d="M300.1,350.7v4.4 M298.5,355.2l1.7-4.4l1.7,4.4"/>
	<path class="st0_1" d="M270.7,476.8H257"/>
	<path class="st1_1" d="M252.6,476.7h4.4 M257,478.3l-4.4-1.7l4.4-1.7"/>
	<path class="st0_1" d="M270.7,332.9H257"/>
	<path class="st1_1" d="M252.6,332.9h4.4 M257,334.5l-4.4-1.7l4.4-1.7"/>
	<path class="st0_1" d="M430,558.4h54c1.3,0,2.3,1,2.2,2.3v28.1c0.1,1.3-0.9,2.3-2.2,2.4h-54.2c-1.3-0.1-2.3-1.1-2.1-2.4v-28.1
		C427.6,559.4,428.6,558.4,430,558.4z"/>
	<path class="st0_1" d="M508.4,512.7h54.1c1.3-0.1,2.3,0.9,2.2,2.2V543c0.1,1.3-0.9,2.3-2.2,2.5h-54.2c-1.3-0.2-2.3-1.2-2.2-2.5v-28.1
		C506,513.6,507,512.6,508.4,512.7z"/>
	<path class="st0_1" d="M430,604h54c1.3,0.1,2.3,1.1,2.2,2.4v28.1c0.1,1.3-0.9,2.3-2.2,2.3h-54.2c-1.3,0-2.3-1-2.1-2.3v-28.1
		C427.6,605.1,428.6,604.1,430,604z"/>
	<path class="st0_1" d="M508.4,604h54.1c1.3,0.1,2.3,1.1,2.2,2.4v28.1c0.1,1.3-0.9,2.3-2.2,2.3h-54.2c-1.3,0-2.3-1-2.2-2.3v-28.1
		C506,605.1,507,604.1,508.4,604z"/>
	<path class="st0_1" d="M486.8,574.5h46.2c1.3,0.2,2.3-0.8,2.1-2.1v-19.8v-1.4"/>
	<path class="st1_1" d="M535.4,546.8v4.4 M533.7,551.2l1.7-4.4l1.7,4.4"/>
	<path class="st0_1" d="M456.8,591v7.1"/>
	<path class="st1_1" d="M457,602.6v-4.4 M458.6,598.2l-1.7,4.4l-1.7-4.4"/>
	<path class="st0_1" d="M486.4,620.6H500"/>
	<path class="st1_1" d="M504.5,620.4H500 M500,618.8l4.4,1.7l-4.4,1.7"/>
	<path class="st0_1" d="M535.2,512.6v-13.2"/>
	<path class="st1_1" d="M535.4,495v4.4 M533.7,499.4l1.7-4.4l1.7,4.4"/>
	<path class="st0_1" d="M327.2,545.5H273c-1.3-0.2-2.3-1.2-2.5-2.5v-28.1c0.2-1.3,1.2-2.3,2.5-2.2h54.2c1.3-0.1,2.3,0.9,2.3,2.2V543
		c0,1.3-1,2.3-2.3,2.3L327.2,545.5z"/>
	<path class="st0_1" d="M248.8,591.1h-54.2c-1.3-0.1-2.3-1.1-2.5-2.4v-28.1c0.2-1.3,1.2-2.3,2.5-2.3h54.2c1.3,0,2.3,1,2.3,2.3v28.1
		C251.1,590,250.1,591,248.8,591.1L248.8,591.1z"/>
	<path class="st0_1" d="M170.4,591.1h-54.3c-1.3-0.1-2.3-1.1-2.4-2.4v-28.1c0.1-1.3,1.2-2.3,2.4-2.3h54.2c1.3,0,2.3,1,2.4,2.3v28.1
		C172.7,590,171.6,591,170.4,591.1L170.4,591.1z"/>
	<path class="st0_1" d="M270.2,528.9h-6.9H224c-1.3,0.1-2.3,1.1-2.3,2.4h-0.1v21.2"/>
	<path class="st1_1" d="M221.7,556.8v-4.4 M223.4,552.4l-1.7,4.4l-1.7-4.4"/>
	<path class="st0_1" d="M192.3,574.5h-13.7"/>
	<path class="st1_1" d="M174.2,574.7h4.4 M178.6,576.4l-4.4-1.7l4.4-1.7"/>
	<path class="st0_1" d="M300,493v13.2"/>
	<path class="st1_1" d="M300.1,510.6v-4.4 M301.8,506.2l-1.7,4.4l-1.7-4.4"/>
	<path class="st0_1" d="M351.6,512.7h54c1.3-0.1,2.3,0.9,2.3,2.2V543c0,1.3-1,2.3-2.3,2.5h-54.2c-1.3-0.2-2.3-1.2-2.1-2.5v-28.1
		C349.1,513.6,350.2,512.6,351.6,512.7z"/>
	<path class="st0_1" d="M351.6,558.4h54c1.3,0,2.3,1,2.3,2.3v28.1c0,1.3-1,2.3-2.3,2.4h-54.2c-1.3-0.1-2.3-1.1-2.1-2.4v-28.1
		C349.1,559.4,350.2,558.4,351.6,558.4z"/>
	<path class="st0_1" d="M378.4,545.3v7.1"/>
	<path class="st1_1" d="M378.5,556.8v-4.4 M380.2,552.4l-1.7,4.4l-1.7-4.4"/>
	<path class="st0_1" d="M330,528.9h12.7"/>
	<path class="st1_1" d="M347.1,528.9h-4.4 M342.7,527.3l4.4,1.7l-4.4,1.7"/>
	<path class="st0_1" d="M407.9,574.5h13.2"/>
	<path class="st1_1" d="M425.6,574.7h-4.4 M421.1,573l4.4,1.7l-4.4,1.7"/>
	<path class="st0_1" d="M378.4,362.3v-52.9"/>
	<path class="st1_1" d="M378.5,305v4.4 M376.9,309.4l1.7-4.4l1.7,4.4"/>
	<path class="st0_1" d="M535.2,460.3V453v-26.3c0.2-1.3,1.3-2.3,2.5-2.5h40.8"/>
	<path class="st1_1" d="M582.9,424.4h-4.4 M578.5,422.7l4.4,1.7l-4.4,1.7"/>
	<path class="st0_1" d="M640.8,492.9h-54.1c-1.3,0.1-2.3-0.9-2.2-2.2v-28.1c-0.1-1.3,0.9-2.3,2.2-2.5h54.2c1.3,0.2,2.3,1.2,2.1,2.5
		v28.1c0.2,1.3-0.9,2.3-2.1,2.3L640.8,492.9z"/>
	<path class="st0_1" d="M640.8,545.5h-54.1c-1.3-0.2-2.3-1.2-2.2-2.5v-28.1c-0.1-1.3,0.9-2.3,2.2-2.2h54.2c1.3-0.1,2.3,0.9,2.1,2.2
		V543c0.2,1.3-0.9,2.3-2.1,2.3L640.8,545.5z"/>
	<path class="st0_1" d="M614,493v13.2"/>
	<path class="st1_1" d="M613.8,510.6v-4.4 M615.5,506.2l-1.7,4.4l-1.7-4.4"/>
	<path class="st0_1" d="M665.2,512.7h54.1c1.3-0.1,2.3,0.9,2.1,2.2V543c0.2,1.3-0.8,2.3-2.1,2.5h-54.2c-1.3-0.2-2.3-1.2-2.2-2.5v-28.1
		C662.8,513.6,663.9,512.6,665.2,512.7z"/>
	<path class="st0_1" d="M643.7,528.9h12.7"/>
	<path class="st1_1" d="M660.8,528.9h-4.4 M656.4,527.3l4.4,1.7l-4.4,1.7"/>
	<path class="st0_1" d="M614,440.7v13.7"/>
	<path class="st1_1" d="M613.8,458.8v-4.4 M615.5,454.4l-1.7,4.4l-1.7-4.4"/>
</g>
</svg>
