<?xml version="1.0" encoding="utf-8"?>
<!-- Generator: Adobe Illustrator 19.0.0, SVG Export Plug-In . SVG Version: 6.00 Build 0)  -->
<svg version="1.1" id="Layer_1" xmlns:sketch="http://www.bohemiancoding.com/sketch/ns"
	 xmlns="http://www.w3.org/2000/svg" xmlns:xlink="http://www.w3.org/1999/xlink" x="0px" y="0px" viewBox="-506.4 992.5 257.3 179"
	 style="enable-background:new -506.4 992.5 257.3 179;" xml:space="preserve">
<style type="text/css">
	.st0{enable-background:new    ;}
	.st1{fill:#4EA4EF;}
	.st2{fill:#9ECFF1;}
</style>
<g id="Page-1" sketch:type="MSPage">
	<g id="mobile-geniac" transform="translate(-33.000000, -1632.000000)" sketch:type="MSArtboardGroup">
		<g id="key-achieve-copy-2" transform="translate(0.000000, -11.391182)" sketch:type="MSLayerGroup">
			<g id="annotations-copy" transform="translate(27.000000, 826.000000)">
				<g id="Your-Geniac-manager_x2C_-_x2B_-Line-Copy-6" transform="translate(9.000000, 804.000000)">
					<g class="st0">
						<g>
							<g>
								<path class="st1" d="M-508.9,1035.4v0.1h-0.5c0.1-0.5,0.4-0.8,0.8-1c0.3-0.2,0.5-0.4,0.5-0.6c0.9-0.7,1.7-1.4,2.5-2.3
									c0.5-0.6,1.2-1.4,2.1-2.6c0.3-0.3,0.6-0.8,1-1.5c0.2-0.2,0.5-0.6,0.8-1c-0.4-0.6-0.5-1-0.5-1.3c-0.2-0.3-0.6-1.1-1.1-2.5
									l0.4-0.1c-0.4-1.2-0.7-2.6-0.9-4.3c-0.2-1.5-0.3-3-0.5-4.4c0.1-0.2,0.3-0.6,0.6-1c0.1,0,0.2,0,0.3,0c0.3,0,0.6,0.2,0.8,0.5
									l0.1,0.1c0,0,0.1,0.1,0.1,0.2c0,0.5,0,1.9,0.1,4.2c0.1,3.1,0.7,5.4,1.6,7c1.1-1.2,2.2-3.1,3.5-5.7c0.2-0.4,0.7-1.4,1.6-2.8
									c0.2-0.5,0.5-1.3,0.8-2.4c0.4-0.2,0.7-0.3,0.9-0.3c0.4,0,0.6,0.3,0.6,0.8c0,0.2-0.2,0.7-0.6,1.6c-0.1,0.3-0.2,0.5-0.2,0.8
									c-0.2,0.1-0.3,0.2-0.3,0.4c0,0.2-0.1,0.4-0.3,0.5h0c-0.2,0.5-1.1,2.1-2.5,4.7c-0.3,0.5-0.9,1.2-1.5,2.2
									c0,0.1-0.3,0.5-0.8,1.2c-0.3,0.4-0.3,0.7,0,1l-0.1,0.4c-0.4,0.2-0.9,0.5-1.5,1c-0.7,0.7-1.6,1.8-2.9,3.3
									c-0.4,0.2-1.1,0.9-2.1,2.1C-507.2,1034.7-508,1035.2-508.9,1035.4z"/>
								<path class="st1" d="M-491.7,1030.5c-0.2,0.1-0.3,0.3-0.5,0.6c-0.2,0.4-0.3,0.6-0.3,0.7c-0.3,0.4-0.8,0.9-1.6,1.6
									c-0.7,1-1.8,1.6-3.2,1.8c-0.4,0-0.8,0-1.2-0.1c-0.9-0.5-1.5-1.3-1.8-2.7c0.1-0.8,0.3-1.6,0.6-2.5c0.2-0.5,0.5-1.3,0.9-2.3
									c0.2-0.2,0.4-0.6,0.8-1.2c0.3-0.5,0.6-0.8,1-1c0.3-0.5,0.8-0.9,1.5-1c0.2,0,0.6-0.2,1.2-0.7c0-0.1,0-0.2,0.2-0.4
									c0.3,0,0.5,0,0.7,0c0.4,0,0.6,0,0.9,0.1c1,0.7,1.5,1.9,1.5,3.5c0,0.4,0,0.8-0.1,1.3
									C-491.2,1028.6-491.4,1029.4-491.7,1030.5z M-492.3,1025.4c-0.1-0.5-0.3-0.9-0.7-1.1l-1.6,0.6l0.4,0.4c0,0.3,0,0.6,0.1,1.2
									c0,0.4-0.1,0.8-0.4,1c-0.1,0.1-0.2,0.1-0.4,0.1c-0.3,0-0.6-0.4-0.6-1.2c-0.2,0.1-0.5,0.3-0.8,0.8c-0.4,0.5-0.7,0.8-0.9,0.9
									c-0.7,1.4-1,2.3-1.1,2.5c-0.2,0.6-0.3,1.2-0.3,1.8c0,0.3,0,0.6,0.1,0.9c0.2,0.2,0.5,0.4,1.1,0.4c2.7-0.8,4.5-3,5.4-6.6
									C-492.2,1026.5-492.2,1025.9-492.3,1025.4z"/>
								<path class="st1" d="M-480.8,1032.3c-0.3,0.3-0.7,0.6-1.1,1c-0.6,0.4-1.2,0.5-1.6,0.5c-0.6,0-1.1-0.4-1.3-1.3
									c0-0.1-0.1-0.2-0.1-0.5c-0.1-0.4-0.2-0.6-0.3-0.6c0,0-0.7,0.8-2.1,2.3c-0.9,0.8-2,1.3-3.4,1.5c-0.7-0.8-1-1.7-1-2.7
									c0-0.5,0.1-1.1,0.2-1.8c0.1-0.9,0.2-1.5,0.3-1.8c0.4-1.8,1-3.6,2-5.3c0.3,0,0.6,0,0.9,0.3c0.1,0.2,0.1,0.4,0.1,0.5
									c0,0.2-0.1,0.5-0.3,0.8c-0.2,0.4-0.4,0.7-0.4,0.8c-0.4,1.1-0.8,2.7-1.4,4.7c0,0.6-0.1,1.1-0.1,1.5c0,0.7,0.1,1.2,0.2,1.5
									c0.6-0.1,1.1-0.3,1.5-0.5c0,0,0.4-0.3,1.2-0.9c0.2-0.3,0.8-1.2,1.8-2.5c0.8-1,1.2-1.9,1.3-2.7c0.6-1.6,1.3-2.8,1.9-3.7
									c0.4-0.3,0.7-0.2,0.8,0.2c0.1,0.2,0.1,0.4,0.1,0.6c0,0.4-0.1,0.8-0.4,1.4c-0.3,0.6-0.5,1.1-0.5,1.3
									c-0.7,0.9-1.1,2.1-1.2,3.8c0,0.1,0.1,0.4,0.1,1c0,0.4,0.2,0.6,0.4,0.7c0.3-0.1,0.6-0.2,0.9-0.4c0.4-0.3,0.7-0.5,0.8-0.5
									c0.3-0.3,0.7-0.7,1.3-1.2l0.4,0.3C-480.1,1031.4-480.4,1031.9-480.8,1032.3z"/>
								<path class="st1" d="M-477.2,1026.3c0.8-1,1.6-1.9,2.4-2.8c0.8-0.9,1.8-1.4,2.8-1.5c0.5,0,0.9,0,1.3,0.2
									c0.3,0.4,0.4,0.7,0.5,1.2c0,0.2-0.1,0.9-0.3,2l-0.5,0.1c-0.1-0.1-0.1-0.6-0.2-1.4c0-0.5-0.2-0.8-0.3-0.9
									c-1.2,0.4-2.3,1.1-3.2,2.2c-0.5,0.5-0.9,1-1.3,1.4c-0.5,0.6-0.8,1.1-1,1.7c-0.2,0-0.3,0.3-0.5,0.9c-0.1,0.4-0.2,0.7-0.3,0.8
									c-0.2,0.4-0.5,1.2-1,2.4c0,0.2,0,0.6,0,1.2c-0.1,0.5-0.3,0.8-0.7,0.9c-0.1-0.2-0.2-0.2-0.3-0.1c-0.1,0.1-0.2,0.1-0.3,0.1
									c-0.2,0-0.4-0.2-0.5-0.5c0.4-1.4,1.2-4.6,2.5-9.7c-0.1-0.2-0.1-0.4-0.1-0.5c0-0.3,0.2-0.4,0.5-0.5c0.8-0.1,1.2,0,1.3,0.5
									c0,0,0,0.2-0.1,0.4c-0.1,0.2-0.1,0.5-0.1,0.9c-0.1,0-0.2,0.1-0.3,0.1c0,0,0,0.2,0,0.4l-0.1,0.3
									C-477.2,1026.2-477.2,1026.2-477.2,1026.3z"/>
								<path class="st1" d="M-452.8,1035.1L-452.8,1035.1c0.2,0.1,0.2,0.2,0.2,0.3c0,0,0,0.1-0.1,0.2c-0.2,0.2-0.4,0.3-0.6,0.3
									c-0.2,0-0.3,0-0.5-0.1c-0.3-0.2-0.5-0.6-0.5-1.2c0-0.3,0.1-0.7,0.2-1.2c0.1-0.5,0.2-0.9,0.2-1.2c0-0.1,0.1-0.2,0.2-0.5
									c0.1-0.3,0.2-0.4,0.2-0.5c-2.6,2.4-5.1,3.6-7.5,3.6c-0.2,0-0.5,0-0.7,0c-2.2-1.1-3.3-2.3-3.3-3.7c0-1.5,0.5-3.1,1.4-4.9
									c0-0.1,0.9-1.6,2.6-4.5c0.5-0.7,1.2-1.8,2.1-3.2c0.3-0.2,0.7-0.7,1.2-1.3c0.5-0.6,0.9-1.1,1.2-1.3c0.1-0.2,0.3-0.5,0.6-0.7
									c0.3-0.2,0.5-0.4,0.6-0.5c1.6-1.5,3.2-2.4,4.7-2.6c0.1,0.1,0.3,0.2,0.8,0.3c0.3,0.1,0.5,0.3,0.6,0.5c0,0.3-0.1,0.6-0.2,0.8
									c-0.2,0.1-0.5,0.2-0.8,0.2c-0.1,0-0.3,0-0.6,0c-0.3,0-0.5,0-0.6,0c-0.2,0-0.4,0.2-0.6,0.4c-0.4,0.1-0.9,0.5-1.6,1.2
									c-0.4,0.2-0.9,0.7-1.4,1.3c-0.6,0.7-1,1.2-1.4,1.4c-0.5,0.6-1.3,1.8-2.4,3.4c-0.2,0.4-1,1.7-2.3,3.9
									c-1.2,2.2-1.8,3.8-1.8,5.1c0,1.2,0.5,2.1,1.5,2.7c0.3,0.1,0.6,0.1,1,0.1c1.2,0,2.8-0.6,5-1.9c0.7-0.4,1.7-1.2,3-2.5
									c0-0.1,0.2-0.6,0.4-1.4c0.2-0.7,0.3-1.2,0.3-1.6c0-0.3-0.1-0.6-0.2-0.8c-1.6,0.3-2.8,0.9-3.7,1.8c-0.6,0.1-1-0.1-1.3-0.6
									c0.2-0.6,0.6-1,1.3-1.4c0.5-0.3,1.1-0.6,1.7-0.9c1.2-0.3,1.8-0.5,1.9-0.6c0.1,0,0.2-0.1,0.3-0.1c0.1,0,0.3,0.1,0.5,0.2
									c0.1,0,0.2,0,0.3,0c0,0.1,0.3,0.3,0.6,0.6c0.3,0.3,0.4,0.7,0.4,1.4c0,1-0.2,2-0.6,3.2c-0.3,0.6-0.6,1.6-1.2,3
									c0,0.2-0.2,0.8-0.4,1.7C-452.8,1034.3-452.9,1034.8-452.8,1035.1z"/>
								<path class="st1" d="M-442.2,1032.3l-0.1,0.1c-0.1,0.1-0.2,0.2-0.1,0.4c-1.9,1.4-3.5,2.2-4.6,2.3c-0.6,0-1.3-0.1-1.9-0.4
									c-0.5-0.3-0.9-0.7-1.1-1.2c-0.2-0.4-0.3-1-0.4-1.9c0.7-3.8,2.5-6.8,5.4-8.9c0.1,0,0.4-0.1,0.8-0.1c0.4-0.1,0.7,0,1,0.2
									c0.3,0.2,0.4,0.5,0.4,0.9c0,0.3-0.1,0.6-0.1,0.9c-0.4,1.4-1.8,3-4.2,4.8c-0.1,0.1-0.5,0.2-1.2,0.4c-0.4,0.1-0.6,0.3-0.5,0.6
									c-0.3,0.5-0.4,1-0.4,1.5c0,0.2,0.1,0.6,0.3,1.1c0.4,0.6,1.1,0.9,2,0.9l0.1-0.1c0.4,0,0.9-0.1,1.6-0.4c0.7-0.4,1.7-1,3.2-1.7
									c0,0.1,0,0.2,0,0.3C-442,1032-442.1,1032.1-442.2,1032.3z M-444.3,1024.4c-0.1-0.1-0.2-0.1-0.3-0.2c-1.3,0.8-2.4,2.1-3.3,4
									c0.1,0,0.3,0,0.4-0.1c0.6-0.6,1.2-1.1,1.8-1.7C-444.9,1025.6-444.5,1025-444.3,1024.4z"/>
								<path class="st1" d="M-434.5,1027.2c-0.2,0.8-0.3,1.6-0.5,2.3c-0.2,1-0.3,1.8-0.3,2.3c0,1.1,0.3,2,0.8,2.8
									c-0.2,0.1-0.5,0.1-0.6,0.1c-0.3,0-0.6-0.1-0.9-0.3c-0.5-0.8-0.7-1.7-0.7-2.8c0-0.7,0.1-1.6,0.3-2.6l0.5-2.5l0-0.1
									c-0.9,0.7-1.9,1.9-3.1,3.6c-1.2,1.8-2.2,3.1-2.9,3.7c-0.3,0.1-0.6,0.2-0.9,0.2c-0.1,0-0.3,0-0.4-0.1
									c-0.4-0.3-0.5-0.8-0.3-1.6c0.3-1,0.6-2.4,1.1-4.1c0.4-1.6,0.7-3,0.9-4.2c0.2-0.2,0.4-0.3,0.6-0.3c0.2,0,0.5,0.1,0.7,0.4
									c0.2,0.3,0.3,0.5,0.2,0.8l-1.5,6.4c0.1-0.3,0.3-0.6,0.7-1c1.2-1.7,2-2.8,2.4-3.2c1-1.1,2-2,3-2.7c0.8,0,1.2,0.4,1.2,1.3
									c0,0.2,0,0.4-0.1,0.8C-434.5,1026.8-434.5,1027.1-434.5,1027.2z"/>
								<path class="st1" d="M-429.2,1032.6c-0.2,0.4-0.6,0.9-1.1,1.5c-0.9,0.6-1.6,0.9-2.1,0.8c-0.4,0-0.9-0.4-1.4-1.1
									c0-0.4-0.1-0.9-0.1-1.3c0-2.5,0.4-5,1.1-7.5c0.1-0.4,0.4-1.2,1-2.4c0.1-0.2,0.3-0.3,0.6-0.3c0.2,0,0.5,0.1,0.7,0.3
									c0.2,0.2,0.3,0.4,0.3,0.6c0,0.1,0,0.2-0.1,0.3c-0.4,0.7-0.8,1.6-1.2,2.7l-0.8,3.7c-0.2,0.8-0.2,1.8-0.1,3
									c0,0.1,0.2,0.3,0.4,0.6c0.1,0,0.2-0.1,0.4-0.2c0.2-0.2,0.3-0.3,0.4-0.3c0.3-0.2,0.7-0.6,1.2-1.1s0.9-0.9,1.3-1.1l0.8-1
									C-428.3,1031.4-428.8,1032.3-429.2,1032.6z M-428.7,1019.8l-0.1,0.1c0,0-0.1,0.2-0.1,0.4c-1.2,0.1-1.8-0.2-1.8-0.8
									c0-0.4,0.1-0.6,0.4-0.7c0.1,0,0.4,0,0.9,0c0.1,0,0.3,0,0.5-0.1c0.2,0.1,0.4,0.3,0.6,0.6
									C-428.4,1019.5-428.5,1019.7-428.7,1019.8z"/>
								<path class="st1" d="M-420.2,1033.7c-0.3,0.1-0.7,0.3-1.3,0.7c-0.3,0-0.8-0.2-1.5-0.6c0-0.2-0.1-0.5-0.3-1
									c-0.2-0.5-0.3-0.8-0.3-1.1c-0.2,0.2-0.3,0.4-0.4,0.6c-0.9,1.1-1.4,1.7-1.5,1.9c-0.7,0.6-1.4,0.8-2.2,0.7
									c-0.6-0.5-1-1.2-1-2.2c0-1.7,0.2-3,0.5-3.9c0.8-2.3,2.5-4.3,5-6.1h0.6c0.6,0,0.8,0.3,0.8,1c0,0.2-0.1,0.6-0.2,1.3
									c-0.1,0.3-0.4,0.7-0.8,1.2c-0.1,0.2-0.4,0.3-0.9,0.5c0.1-0.6,0.3-1.1,0.6-1.4c0-0.1,0.1-0.3,0.2-0.6c0,0,0-0.1,0-0.2
									c0-0.1,0-0.2,0-0.3c0.1-0.1,0.2-0.2,0.2-0.3c-0.1,0-0.4,0.2-0.8,0.6c-0.1,0-0.2,0.2-0.4,0.3c-2.5,2.8-3.7,5.4-3.8,7.7
									c0.1,0.7,0.3,1.1,0.6,1.2c0.8-0.2,1.5-0.8,2.1-1.9c0.7-0.6,1.3-1.7,1.8-3.2c0.3-0.6,0.8-2.1,1.5-4.6
									c0.1-0.2,0.4-0.4,0.8-0.5c0.2,0.2,0.3,0.5,0.3,0.8c0,0.2,0,0.4-0.1,0.7c-0.1,0.4-0.2,0.6-0.2,0.7c-1,2.6-1.4,4.4-1.4,5.3
									c0,1.1,0.2,1.9,0.7,2.3c0.1,0,0.4-0.2,0.9-0.5c0.4-0.2,0.7-0.4,0.8-0.4c0,0.1,0,0.2,0,0.4
									C-419.9,1033.3-420,1033.6-420.2,1033.7z"/>
								<path class="st1" d="M-412.4,1032.6c-0.1,0.1-0.4,0.4-0.8,0.7c-0.9,0.8-2,1.2-3.2,1.2c-0.6,0-1.2-0.1-1.8-0.4
									c-0.9-0.6-1.4-1.8-1.4-3.5c0.8-3.9,2.2-6.4,4.3-7.5c0.8,0.1,1.3,0.6,1.5,1.3c0,0.1,0,0.3-0.1,0.4c-0.1,0.1-0.2,0.2-0.4,0.2
									c-0.1,0-0.2,0-0.3-0.1c-0.1-0.1-0.2-0.1-0.3-0.1c0,0-0.1,0-0.2,0c-0.1,0.1-0.4,0.4-0.9,0.8c-0.4,0.3-0.6,0.7-0.7,1
									c-0.3,0.3-0.6,0.9-0.9,1.8c-0.3,0.5-0.5,1-0.6,1.7v1.8c0.2,0.8,0.7,1.2,1.5,1.2c0.6,0,2-0.5,4-1.6l0,0
									c0.1-0.1,0.4-0.2,0.7-0.1C-411.9,1031.9-412,1032.3-412.4,1032.6z"/>
								<path class="st1" d="M-401.2,1023.4c0.3,0.4,0.4,1,0.4,1.7c0,0.8-0.2,1.7-0.6,2.6c0,0.3-0.1,0.8-0.2,1.5
									c-0.2,0.7-0.2,1.2-0.2,1.6c0.7-0.9,1.9-2.3,3.5-4.1c1.3-1.5,2.6-2.7,3.9-3.5c0.7,0.3,1,0.9,1,1.8c0,0.2,0,0.5-0.1,1.1
									c0,0.5-0.1,0.8,0,1.1c-0.3,1-0.7,2.4-1.2,4.5c0,0,0.1,0,0.1,0c0.7-0.6,1.5-1.6,2.4-3.1c0.9-1.4,1.7-2.4,2.2-2.9
									c1.1-1,1.7-1.6,1.9-1.7c0.3-0.2,0.8-0.6,1.6-1c0.4,0,0.6,0.2,0.8,0.6c0.1,0.9-0.1,1.9-0.5,3.1c-0.6,1.7-0.9,2.7-1,3
									c-0.5,2.6-0.7,4.4-0.7,5.4h0c0.1,0,0.3,0,0.5,0.1c0,0.3-0.2,0.5-0.4,0.7c0,0-0.3,0.1-0.8,0.3c-0.6-0.5-0.9-1.2-0.9-2.2
									c0-0.3,0-0.7,0.1-1.2c0-0.5,0.1-1,0.1-1.2c0.2-0.8,0.5-1.9,0.9-3.3c0.5-1.6,0.9-2.7,1-3.2l-0.1,0c-0.1,0-0.2,0.2-0.3,0.3
									c-0.1,0.2-0.2,0.3-0.2,0.3c-0.4,0.3-0.8,0.7-1.1,1.1c-0.6,0.8-1.1,1.4-1.5,1.8c-0.7,0.9-1.7,2.1-3,3.7
									c-0.6,0.8-1,1.2-1.3,1.4c-0.8,0.7-1.3,1-1.7,0.9c0-0.2,0-0.4,0-0.7c0.1-0.4,0.1-0.7,0.1-0.8c0-0.3,0.1-1.1,0.3-2.3
									c0.1-0.4,0.3-1.1,0.6-2.2c0.1-0.3,0.2-0.6,0.2-0.9c0-0.2,0-0.4,0-0.8c0-0.3,0-0.5,0-0.6c0-0.2,0-0.4,0-0.6
									c-0.5,0.3-1.1,0.9-1.7,1.8c-0.7,1-1.3,1.6-1.7,1.9c-0.5,0.7-1.2,1.5-2.3,2.5c-0.9,0.8-1.5,1.6-1.9,2.3c0,0-0.1,0-0.3,0.1
									c-0.2,0.1-0.2,0.2-0.3,0.2c0,0-0.1,0-0.2,0c-0.2,0-0.3,0-0.4,0c-0.2,0-0.4-0.1-0.5-0.2c0.1-1.1,0.5-2.6,1.1-4.5
									c0.6-2,1-3.5,1.1-4.5c0-0.6-0.2-1.2-0.4-1.7C-402.3,1023.2-401.8,1023.2-401.2,1023.4z"/>
								<path class="st1" d="M-377.3,1033.7c-0.3,0.1-0.7,0.3-1.3,0.7c-0.3,0-0.8-0.2-1.5-0.6c0-0.2-0.1-0.5-0.3-1
									c-0.2-0.5-0.3-0.8-0.3-1.1c-0.2,0.2-0.3,0.4-0.4,0.6c-0.9,1.1-1.4,1.7-1.5,1.9c-0.7,0.6-1.4,0.8-2.2,0.7
									c-0.6-0.5-1-1.2-1-2.2c0-1.7,0.2-3,0.5-3.9c0.8-2.3,2.5-4.3,5-6.1h0.6c0.6,0,0.8,0.3,0.8,1c0,0.2-0.1,0.6-0.2,1.3
									c-0.1,0.3-0.4,0.7-0.8,1.2c-0.1,0.2-0.4,0.3-0.9,0.5c0.1-0.6,0.3-1.1,0.6-1.4c0-0.1,0.1-0.3,0.2-0.6c0,0,0-0.1,0-0.2
									c0-0.1,0-0.2,0-0.3c0.1-0.1,0.2-0.2,0.2-0.3c-0.1,0-0.4,0.2-0.8,0.6c-0.1,0-0.2,0.2-0.4,0.3c-2.5,2.8-3.7,5.4-3.8,7.7
									c0.1,0.7,0.3,1.1,0.6,1.2c0.8-0.2,1.5-0.8,2.1-1.9c0.7-0.6,1.3-1.7,1.8-3.2c0.3-0.6,0.8-2.1,1.5-4.6
									c0.1-0.2,0.4-0.4,0.8-0.5c0.2,0.2,0.3,0.5,0.3,0.8c0,0.2,0,0.4-0.1,0.7c-0.1,0.4-0.2,0.6-0.2,0.7c-1,2.6-1.4,4.4-1.4,5.3
									c0,1.1,0.2,1.9,0.7,2.3c0.1,0,0.4-0.2,0.9-0.5c0.4-0.2,0.7-0.4,0.8-0.4c0,0.1,0,0.2,0,0.4
									C-376.9,1033.3-377,1033.6-377.3,1033.7z"/>
								<path class="st1" d="M-368.4,1027.2c-0.2,0.8-0.3,1.6-0.5,2.3c-0.2,1-0.3,1.8-0.3,2.3c0,1.1,0.3,2,0.8,2.8
									c-0.2,0.1-0.5,0.1-0.6,0.1c-0.3,0-0.6-0.1-0.9-0.3c-0.5-0.8-0.7-1.7-0.7-2.8c0-0.7,0.1-1.6,0.3-2.6l0.5-2.5l0-0.1
									c-0.9,0.7-1.9,1.9-3.1,3.6c-1.2,1.8-2.2,3.1-2.9,3.7c-0.3,0.1-0.6,0.2-0.9,0.2c-0.1,0-0.3,0-0.4-0.1
									c-0.4-0.3-0.5-0.8-0.3-1.6c0.3-1,0.6-2.4,1.1-4.1c0.4-1.6,0.7-3,0.9-4.2c0.2-0.2,0.4-0.3,0.6-0.3c0.2,0,0.5,0.1,0.7,0.4
									c0.2,0.3,0.3,0.5,0.2,0.8l-1.5,6.4c0.1-0.3,0.3-0.6,0.7-1c1.2-1.7,2-2.8,2.4-3.2c1-1.1,2-2,3-2.7c0.8,0,1.2,0.4,1.2,1.3
									c0,0.2,0,0.4-0.1,0.8C-368.3,1026.8-368.4,1027.1-368.4,1027.2z"/>
								<path class="st1" d="M-359.2,1033.7c-0.3,0.1-0.7,0.3-1.3,0.7c-0.3,0-0.8-0.2-1.5-0.6c0-0.2-0.1-0.5-0.3-1
									c-0.2-0.5-0.3-0.8-0.3-1.1c-0.2,0.2-0.3,0.4-0.4,0.6c-0.9,1.1-1.4,1.7-1.5,1.9c-0.7,0.6-1.4,0.8-2.2,0.7
									c-0.6-0.5-1-1.2-1-2.2c0-1.7,0.2-3,0.5-3.9c0.8-2.3,2.5-4.3,5-6.1h0.6c0.6,0,0.8,0.3,0.8,1c0,0.2-0.1,0.6-0.2,1.3
									c-0.1,0.3-0.4,0.7-0.8,1.2c-0.1,0.2-0.4,0.3-0.9,0.5c0.1-0.6,0.3-1.1,0.6-1.4c0-0.1,0.1-0.3,0.2-0.6c0,0,0-0.1,0-0.2
									c0-0.1,0-0.2,0-0.3c0.1-0.1,0.2-0.2,0.2-0.3c-0.1,0-0.4,0.2-0.8,0.6c-0.1,0-0.2,0.2-0.4,0.3c-2.5,2.8-3.7,5.4-3.8,7.7
									c0.1,0.7,0.3,1.1,0.6,1.2c0.8-0.2,1.5-0.8,2.1-1.9c0.7-0.6,1.3-1.7,1.8-3.2c0.3-0.6,0.8-2.1,1.5-4.6
									c0.1-0.2,0.4-0.4,0.8-0.5c0.2,0.2,0.3,0.5,0.3,0.8c0,0.2,0,0.4-0.1,0.7c-0.1,0.4-0.2,0.6-0.2,0.7c-1,2.6-1.4,4.4-1.4,5.3
									c0,1.1,0.2,1.9,0.7,2.3c0.1,0,0.4-0.2,0.9-0.5c0.4-0.2,0.7-0.4,0.8-0.4c0,0.1,0,0.2,0,0.4
									C-358.8,1033.3-358.9,1033.6-359.2,1033.7z"/>
								<path class="st1" d="M-353.8,1023c0.9-0.1,1.5,0.1,1.8,0.6c0.2,0.4,0.3,1,0.3,2.1v1.7c-0.2,0.1-0.3,0.3-0.3,0.5
									c-0.1,0.3-0.3,0.6-0.4,1.1l-0.1,0.3c0,0,0,0.1-0.1,0.3c-0.5,1.1-0.9,2.2-1.1,3.3c-0.2,0.4-0.4,1-0.5,1.6
									c-0.1,0.1-0.2,0.2-0.2,0.5c0,0.2,0,0.4-0.1,0.5c-0.8,3-1.4,4.9-1.7,5.6c-1.4,3.7-3,5.5-4.8,5.5c-0.2,0-0.4,0-0.6-0.1
									l-0.8-0.8c1.3,0.1,2.1-0.3,2.5-1.1c0.5-0.5,0.9-1,1.2-1.7c1.3-2.8,2.3-5.6,2.8-8.5c-0.5,0.3-1.2,0.3-2.1,0
									c-1.1-0.7-1.7-1.4-1.9-2.3c-0.2-0.7-0.3-1.3-0.3-1.9c0-0.6,0.1-1,0.3-1.5c0.9-2.3,1.9-3.9,3-4.7c0.6-0.3,1.2-0.6,1.9-0.8
									C-354.6,1023.2-354.2,1023.1-353.8,1023z M-353.1,1024.6L-353.1,1024.6c-0.1-0.2-0.1-0.3-0.2-0.3c-0.1,0-0.6,0.2-1.7,0.6
									c-0.8,0.3-1.2,0.5-1.3,0.8c-0.5,0.3-1.1,1.2-1.8,2.7c-0.3,0.7-0.5,1.4-0.5,2c0,0.4,0.1,0.8,0.2,1.4c0.1,0.4,0.5,0.9,1.2,1.5
									c0.5,0.1,1-0.2,1.6-0.9c0.5-0.7,0.8-1.5,1-2.3c0-0.5,0.3-1.2,0.7-1.9c0.1-0.3,0.3-0.6,0.5-0.9c0-0.1-0.2-0.3-0.5-0.4
									c0.5-0.2,0.7-0.5,0.7-0.9V1024.6z"/>
								<path class="st1" d="M-343.3,1032.3l-0.1,0.1c-0.1,0.1-0.2,0.2-0.1,0.4c-1.9,1.4-3.5,2.2-4.6,2.3c-0.6,0-1.3-0.1-1.9-0.4
									c-0.5-0.3-0.9-0.7-1.1-1.2c-0.2-0.4-0.3-1-0.4-1.9c0.7-3.8,2.5-6.8,5.4-8.9c0.1,0,0.4-0.1,0.8-0.1c0.4-0.1,0.7,0,1,0.2
									c0.3,0.2,0.4,0.5,0.4,0.9c0,0.3-0.1,0.6-0.1,0.9c-0.4,1.4-1.8,3-4.2,4.8c-0.1,0.1-0.5,0.2-1.2,0.4c-0.4,0.1-0.6,0.3-0.5,0.6
									c-0.3,0.5-0.4,1-0.4,1.5c0,0.2,0.1,0.6,0.3,1.1c0.4,0.6,1.1,0.9,2,0.9l0.1-0.1c0.4,0,0.9-0.1,1.6-0.4c0.7-0.4,1.7-1,3.2-1.7
									c0,0.1,0,0.2,0,0.3C-343.1,1032-343.2,1032.1-343.3,1032.3z M-345.4,1024.4c-0.1-0.1-0.2-0.1-0.3-0.2
									c-1.3,0.8-2.4,2.1-3.3,4c0.1,0,0.3,0,0.4-0.1c0.6-0.6,1.2-1.1,1.8-1.7C-346.1,1025.6-345.6,1025-345.4,1024.4z"/>
								<path class="st1" d="M-341.2,1026.3c0.8-1,1.6-1.9,2.4-2.8c0.8-0.9,1.8-1.4,2.8-1.5c0.5,0,0.9,0,1.3,0.2
									c0.3,0.4,0.4,0.7,0.5,1.2c0,0.2-0.1,0.9-0.3,2l-0.5,0.1c-0.1-0.1-0.1-0.6-0.2-1.4c0-0.5-0.2-0.8-0.3-0.9
									c-1.2,0.4-2.3,1.1-3.2,2.2c-0.5,0.5-0.9,1-1.3,1.4c-0.5,0.6-0.8,1.1-1,1.7c-0.2,0-0.3,0.3-0.5,0.9c-0.1,0.4-0.2,0.7-0.3,0.8
									c-0.2,0.4-0.5,1.2-1,2.4c0,0.2,0,0.6,0,1.2c-0.1,0.5-0.3,0.8-0.7,0.9c-0.1-0.2-0.2-0.2-0.3-0.1c-0.1,0.1-0.2,0.1-0.3,0.1
									c-0.2,0-0.4-0.2-0.5-0.5c0.4-1.4,1.2-4.6,2.5-9.7c-0.1-0.2-0.1-0.4-0.1-0.5c0-0.3,0.2-0.4,0.5-0.5c0.8-0.1,1.2,0,1.3,0.5
									c0,0,0,0.2-0.1,0.4c-0.1,0.2-0.1,0.5-0.1,0.9c-0.1,0-0.2,0.1-0.3,0.1c0,0,0,0.2,0,0.4l-0.1,0.3
									C-341.2,1026.2-341.2,1026.2-341.2,1026.3z"/>
								<path class="st1" d="M-337.1,1032.4c0,0.2,0,0.6-0.2,1.2c-0.5,1.8-1.5,3.2-3.1,4.3c-0.1-0.1-0.2-0.1-0.4-0.2
									c-0.2-0.1-0.3-0.2-0.3-0.3c0-0.1,0-0.2,0.1-0.3c0-0.1,0.1-0.2,0.3-0.3l0.1-0.1c0.1-0.1,0.2-0.2,0.3-0.3
									c0.7-1.1,1.2-1.8,1.4-2.2c0.4-0.8,0.7-1.7,0.8-2.4c0.1-0.1,0.3-0.2,0.5-0.2c0.4,0,0.6,0.2,0.8,0.6
									C-337,1032.2-337.1,1032.3-337.1,1032.4z"/>
								<path class="st1" d="M-318.5,1030.5c-0.2,0.1-0.3,0.3-0.5,0.6c-0.2,0.4-0.3,0.6-0.3,0.7c-0.3,0.4-0.8,0.9-1.6,1.6
									c-0.7,1-1.8,1.6-3.2,1.8c-0.4,0-0.8,0-1.2-0.1c-0.9-0.5-1.5-1.3-1.8-2.7c0.1-0.8,0.3-1.6,0.6-2.5c0.2-0.5,0.5-1.3,0.9-2.3
									c0.2-0.2,0.4-0.6,0.8-1.2c0.3-0.5,0.6-0.8,1-1c0.3-0.5,0.8-0.9,1.5-1c0.2,0,0.6-0.2,1.2-0.7c0-0.1,0-0.2,0.2-0.4
									c0.3,0,0.5,0,0.7,0c0.4,0,0.6,0,0.9,0.1c1,0.7,1.5,1.9,1.5,3.5c0,0.4,0,0.8-0.1,1.3C-318,1028.6-318.2,1029.4-318.5,1030.5z
									 M-319.2,1025.4c-0.1-0.5-0.3-0.9-0.7-1.1l-1.6,0.6l0.4,0.4c0,0.3,0,0.6,0.1,1.2c0,0.4-0.1,0.8-0.4,1
									c-0.1,0.1-0.2,0.1-0.4,0.1c-0.3,0-0.6-0.4-0.6-1.2c-0.2,0.1-0.5,0.3-0.8,0.8c-0.4,0.5-0.7,0.8-0.9,0.9
									c-0.7,1.4-1,2.3-1.1,2.5c-0.2,0.6-0.3,1.2-0.3,1.8c0,0.3,0,0.6,0.1,0.9c0.2,0.2,0.5,0.4,1.1,0.4c2.7-0.8,4.5-3,5.4-6.6
									C-319,1026.5-319.1,1025.9-319.2,1025.4z"/>
								<path class="st1" d="M-309.2,1027.2c-0.2,0.8-0.3,1.6-0.5,2.3c-0.2,1-0.3,1.8-0.3,2.3c0,1.1,0.3,2,0.8,2.8
									c-0.2,0.1-0.5,0.1-0.6,0.1c-0.3,0-0.6-0.1-0.9-0.3c-0.5-0.8-0.7-1.7-0.7-2.8c0-0.7,0.1-1.6,0.3-2.6l0.5-2.5l0-0.1
									c-0.9,0.7-1.9,1.9-3.1,3.6c-1.2,1.8-2.2,3.1-2.9,3.7c-0.3,0.1-0.6,0.2-0.9,0.2c-0.1,0-0.3,0-0.4-0.1
									c-0.4-0.3-0.5-0.8-0.3-1.6c0.3-1,0.6-2.4,1.1-4.1c0.4-1.6,0.7-3,0.9-4.2c0.2-0.2,0.4-0.3,0.6-0.3c0.2,0,0.5,0.1,0.7,0.4
									c0.2,0.3,0.3,0.5,0.2,0.8l-1.5,6.4c0.1-0.3,0.3-0.6,0.7-1c1.2-1.7,2-2.8,2.4-3.2c1-1.1,2-2,3-2.7c0.8,0,1.2,0.4,1.2,1.3
									c0,0.2,0,0.4-0.1,0.8C-309.2,1026.8-309.2,1027.1-309.2,1027.2z"/>
								<path class="st1" d="M-299.1,1030.9l3.5-4.4c1.4-1.7,2.7-3,4.1-3.8c0.3-0.2,0.8-0.2,1.3,0c0.2,0.2,0.4,0.4,0.5,0.8
									c0.1,0.4,0.2,0.7,0.3,0.8c-0.1,0.4-0.3,0.8-0.3,1.4c-0.1,0.8-0.2,1.3-0.2,1.5c-0.6,2.3-0.9,3.6-0.9,3.9
									c-0.3,1.5-0.5,2.8-0.6,4c-0.7-0.5-1.1-1.2-1.1-2c0-0.3,0-0.7,0.1-1.1c0.1-0.6,0.2-0.9,0.2-1.1c0-0.5,0.3-1.6,0.8-3.3
									c0.4-1.3,0.5-2.4,0.5-3.3c-0.2-0.1-0.5,0.2-1.1,0.7c-1,0.9-2.1,2.1-3.2,3.6l-2.9,3.9c-0.2,0.2-0.5,0.4-0.7,0.8
									c-0.3,0.5-0.5,0.8-0.7,0.9c-0.4,0.2-0.6,0.2-0.8,0.1c-0.2-0.4-0.3-0.8-0.3-1.3c0-0.4,0.1-1,0.4-1.7c0.2-0.7,0.4-1.3,0.4-1.7
									c0.9-2.6,2.2-6.5,3.9-11.8c0-0.3,0.1-0.6,0.4-0.9c0-0.3,0.1-0.5,0.2-0.7c0.2-0.2,0.4-0.3,0.7-0.3c0.2,0,0.5,0.1,0.7,0.4
									c0.1,0.8-0.1,1.5-0.5,2.3c-0.6,1.2-1,2.2-1.1,3c-0.1,0-0.1,0.1-0.1,0.2c-0.6,1.6-1.1,3.1-1.7,4.7
									C-298,1027.4-298.4,1028.8-299.1,1030.9z"/>
								<path class="st1" d="M-281.4,1033.7c-0.3,0.1-0.7,0.3-1.3,0.7c-0.3,0-0.8-0.2-1.5-0.6c0-0.2-0.1-0.5-0.3-1
									c-0.2-0.5-0.3-0.8-0.3-1.1c-0.2,0.2-0.3,0.4-0.4,0.6c-0.9,1.1-1.4,1.7-1.5,1.9c-0.7,0.6-1.4,0.8-2.2,0.7
									c-0.6-0.5-1-1.2-1-2.2c0-1.7,0.2-3,0.5-3.9c0.8-2.3,2.5-4.3,5-6.1h0.6c0.6,0,0.8,0.3,0.8,1c0,0.2-0.1,0.6-0.2,1.3
									c-0.1,0.3-0.4,0.7-0.8,1.2c-0.1,0.2-0.4,0.3-0.9,0.5c0.1-0.6,0.3-1.1,0.6-1.4c0-0.1,0.1-0.3,0.2-0.6c0,0,0-0.1,0-0.2
									c0-0.1,0-0.2,0-0.3c0.1-0.1,0.2-0.2,0.2-0.3c-0.1,0-0.4,0.2-0.8,0.6c-0.1,0-0.2,0.2-0.4,0.3c-2.5,2.8-3.7,5.4-3.8,7.7
									c0.1,0.7,0.3,1.1,0.6,1.2c0.8-0.2,1.5-0.8,2.1-1.9c0.7-0.6,1.3-1.7,1.8-3.2c0.3-0.6,0.8-2.1,1.5-4.6
									c0.1-0.2,0.4-0.4,0.8-0.5c0.2,0.2,0.3,0.5,0.3,0.8c0,0.2,0,0.4-0.1,0.7c-0.1,0.4-0.2,0.6-0.2,0.7c-1,2.6-1.4,4.4-1.4,5.3
									c0,1.1,0.2,1.9,0.7,2.3c0.1,0,0.4-0.2,0.9-0.5c0.4-0.2,0.7-0.4,0.8-0.4c0,0.1,0,0.2,0,0.4
									C-281,1033.3-281.1,1033.6-281.4,1033.7z"/>
								<path class="st1" d="M-272.5,1027.2c-0.2,0.8-0.3,1.6-0.5,2.3c-0.2,1-0.3,1.8-0.3,2.3c0,1.1,0.3,2,0.8,2.8
									c-0.2,0.1-0.5,0.1-0.6,0.1c-0.3,0-0.6-0.1-0.9-0.3c-0.5-0.8-0.7-1.7-0.7-2.8c0-0.7,0.1-1.6,0.3-2.6l0.5-2.5l0-0.1
									c-0.9,0.7-1.9,1.9-3.1,3.6c-1.2,1.8-2.2,3.1-2.9,3.7c-0.3,0.1-0.6,0.2-0.9,0.2c-0.1,0-0.3,0-0.4-0.1
									c-0.4-0.3-0.5-0.8-0.3-1.6c0.3-1,0.6-2.4,1.1-4.1c0.4-1.6,0.7-3,0.9-4.2c0.2-0.2,0.4-0.3,0.6-0.3c0.2,0,0.5,0.1,0.7,0.4
									c0.2,0.3,0.3,0.5,0.2,0.8l-1.5,6.4c0.1-0.3,0.3-0.6,0.7-1c1.2-1.7,2-2.8,2.4-3.2c1-1.1,2-2,3-2.7c0.8,0,1.2,0.4,1.2,1.3
									c0,0.2,0,0.4-0.1,0.8C-272.4,1026.8-272.5,1027.1-272.5,1027.2z"/>
								<path class="st1" d="M-265.3,1031.7c-0.6,0.8-1.2,1.6-1.8,2.4c-0.8,0.9-1.6,1.3-2.4,1.3c-0.4,0-0.7-0.1-1.1-0.2
									c-0.6-0.5-0.9-1.2-0.9-2c0-0.6,0.1-1.2,0.3-1.8c0.1-0.7,0.4-2.1,1-4.1c0.1-0.4,0.4-1.1,0.9-1.9l0.9-1.5
									c0.5-0.7,1-1.1,1.7-1.1c0.4,0,0.9,0.4,1.5,1.2c0,0.2,0.1,0.4,0.3,0.6c0.2-1.1,0.6-2.8,1.3-5c0-0.2,0.2-0.8,0.6-2
									c0.1-0.3,0.3-0.4,0.6-0.4c0.4,0,0.7,0.2,0.9,0.6c0.1,2.1-0.3,4.5-1,7.2c-0.2,0.7-0.6,1.6-1.2,2.7c-0.3,0.6-0.5,1.4-0.5,2.2
									c0,0.9,0.2,1.6,0.5,2.3c0.2,0.3,0.5,0.4,0.8,0.4c0.1,0,0.3,0,0.4-0.1c0.3-0.1,0.7-0.4,1-0.8c0.3-0.3,0.5-0.6,0.8-1
									c0.2-0.2,0.5-0.4,1-0.7c0,0.2,0.1,0.4,0.1,0.6c0,0.2-0.2,0.6-0.5,1.3c-0.7,0.7-1.2,1.2-1.3,1.3c-0.6,0.5-1.1,0.7-1.6,0.7
									c-0.2,0-0.5,0-0.8-0.1C-264.4,1033.4-264.9,1032.7-265.3,1031.7z M-265.4,1027.3c0-0.2,0-0.6,0.2-1.4
									c-0.4-0.1-0.7-0.4-0.9-0.8l-0.2-0.3c-0.1-0.2-0.3-0.4-0.4-0.5c-0.7,0.8-1.4,1.9-2.1,3.3l0,0.4c-0.3,0.3-0.6,1.2-0.9,2.5
									c-0.2,1.3-0.3,2.1-0.3,2.3c0,0.3,0,0.6,0.1,0.9c0,0.1,0.2,0.2,0.5,0.2c1.3-0.6,2.6-2.1,3.8-4.4c0-0.2,0-0.8,0.2-1.6
									C-265.4,1027.9-265.4,1027.6-265.4,1027.3z"/>
							</g>
						</g>
					</g>
					<g class="st0">
						<g>
							<g>
								<path class="st1" d="M-499.5,1064.7c-0.3,0.1-0.7,0.3-1.3,0.7c-0.3,0-0.8-0.2-1.5-0.6c0-0.2-0.1-0.5-0.3-1
									c-0.2-0.5-0.3-0.8-0.3-1.1c-0.2,0.2-0.3,0.4-0.4,0.6c-0.9,1.1-1.4,1.7-1.5,1.9c-0.7,0.6-1.4,0.8-2.2,0.7
									c-0.6-0.5-1-1.2-1-2.2c0-1.7,0.2-3,0.5-3.9c0.8-2.3,2.5-4.3,5-6.1h0.6c0.6,0,0.8,0.3,0.8,1c0,0.2-0.1,0.6-0.2,1.3
									c-0.1,0.3-0.4,0.7-0.8,1.2c-0.1,0.2-0.4,0.3-0.9,0.5c0.1-0.6,0.3-1.1,0.6-1.4c0-0.1,0.1-0.3,0.2-0.6c0,0,0-0.1,0-0.2
									c0-0.1,0-0.2,0-0.3c0.1-0.1,0.2-0.2,0.2-0.3c-0.1,0-0.4,0.2-0.8,0.6c-0.1,0-0.2,0.2-0.4,0.3c-2.5,2.8-3.7,5.4-3.8,7.7
									c0.1,0.7,0.3,1.1,0.6,1.2c0.8-0.2,1.5-0.8,2.1-1.9c0.7-0.6,1.3-1.7,1.8-3.2c0.3-0.6,0.8-2.1,1.5-4.6
									c0.1-0.2,0.4-0.4,0.8-0.5c0.2,0.2,0.3,0.5,0.3,0.8c0,0.2,0,0.4-0.1,0.7c-0.1,0.4-0.2,0.6-0.2,0.7c-1,2.6-1.4,4.4-1.4,5.3
									c0,1.1,0.2,1.9,0.7,2.3c0.1,0,0.4-0.2,0.9-0.5c0.4-0.2,0.7-0.4,0.8-0.4c0,0.1,0,0.2,0,0.4
									C-499.1,1064.3-499.3,1064.6-499.5,1064.7z"/>
								<path class="st1" d="M-493.5,1054.1c0.5,0.1,1,0.1,1.5,0.2c0.6,0.1,1,0.3,1.4,0.7l0,0.7c-0.4,0-1.1,0-2.1,0
									c-0.6,0-1.1,0-1.5,0.1c-1.6,3-2.3,5.5-2.2,7.5c0,0.3,0,0.6,0.1,0.8s0.3,0.4,0.7,0.4c0.2,0,0.5,0,0.9-0.1
									c0.3,0,0.7-0.2,1.3-0.6c0.6-0.4,1.1-0.6,1.7-0.6c-0.4,1.3-1.5,2.2-3.3,2.6c-0.2,0-0.4,0.1-0.6,0.1c-0.6,0-1.2-0.2-1.5-0.6
									c-0.4-0.7-0.7-1.5-0.7-2.5c0-1.3,0.3-2.9,1-4.7c0.2-0.4,0.5-1.1,0.8-2.1c-0.8,0-1.6,0.4-2.2,1.2c-0.4,0-0.8-0.4-1-1.2
									c0-0.3,0.3-0.6,0.9-0.9c0.4-0.3,0.8-0.5,1.4-0.6c0.5-0.1,1.1-0.2,1.6-0.3c1.1-2.2,1.9-4.3,2.3-6.3c0.2-0.2,0.3-0.4,0.5-0.4
									c0.3,0,0.6,0.2,0.9,0.7c-0.1,1.6-0.7,3.5-1.9,5.7C-493.5,1054.1-493.5,1054.1-493.5,1054.1z"/>
								<path class="st1" d="M-474.7,1064.7c-0.3,0.1-0.7,0.3-1.3,0.7c-0.3,0-0.8-0.2-1.5-0.6c0-0.2-0.1-0.5-0.3-1
									c-0.2-0.5-0.3-0.8-0.3-1.1c-0.2,0.2-0.3,0.4-0.4,0.6c-0.9,1.1-1.4,1.7-1.5,1.9c-0.7,0.6-1.4,0.8-2.2,0.7
									c-0.6-0.5-1-1.2-1-2.2c0-1.7,0.2-3,0.5-3.9c0.8-2.3,2.5-4.3,5-6.1h0.6c0.6,0,0.8,0.3,0.8,1c0,0.2-0.1,0.6-0.2,1.3
									c-0.1,0.3-0.4,0.7-0.8,1.2c-0.1,0.2-0.4,0.3-0.9,0.5c0.1-0.6,0.3-1.1,0.6-1.4c0-0.1,0.1-0.3,0.2-0.6c0,0,0-0.1,0-0.2
									c0-0.1,0-0.2,0-0.3c0.1-0.1,0.2-0.2,0.2-0.3c-0.1,0-0.4,0.2-0.8,0.6c-0.1,0-0.2,0.2-0.4,0.3c-2.5,2.8-3.7,5.4-3.8,7.7
									c0.1,0.7,0.3,1.1,0.6,1.2c0.8-0.2,1.5-0.8,2.1-1.9c0.7-0.6,1.3-1.7,1.8-3.2c0.3-0.6,0.8-2.1,1.5-4.6
									c0.1-0.2,0.4-0.4,0.8-0.5c0.2,0.2,0.3,0.5,0.3,0.8c0,0.2,0,0.4-0.1,0.7c-0.1,0.4-0.2,0.6-0.2,0.7c-1,2.6-1.4,4.4-1.4,5.3
									c0,1.1,0.2,1.9,0.7,2.3c0.1,0,0.4-0.2,0.9-0.5c0.4-0.2,0.7-0.4,0.8-0.4c0,0.1,0,0.2,0,0.4
									C-474.3,1064.3-474.4,1064.6-474.7,1064.7z"/>
								<path class="st1" d="M-465.8,1058.2c-0.2,0.8-0.3,1.6-0.5,2.3c-0.2,1-0.3,1.8-0.3,2.3c0,1.1,0.3,2,0.8,2.8
									c-0.2,0.1-0.5,0.1-0.6,0.1c-0.3,0-0.6-0.1-0.9-0.3c-0.5-0.8-0.7-1.7-0.7-2.8c0-0.7,0.1-1.6,0.3-2.6l0.5-2.5l0-0.1
									c-0.9,0.7-1.9,1.9-3.1,3.6c-1.2,1.8-2.2,3.1-2.9,3.7c-0.3,0.1-0.6,0.2-0.9,0.2c-0.1,0-0.3,0-0.4-0.1
									c-0.4-0.3-0.5-0.8-0.3-1.6c0.3-1,0.6-2.4,1.1-4.1c0.4-1.6,0.7-3,0.9-4.2c0.2-0.2,0.4-0.3,0.6-0.3c0.2,0,0.5,0.1,0.7,0.4
									c0.2,0.3,0.3,0.5,0.2,0.8l-1.5,6.4c0.1-0.3,0.3-0.6,0.7-1c1.2-1.7,2-2.8,2.4-3.2c1-1.1,2-2,3-2.7c0.8,0,1.2,0.4,1.2,1.3
									c0,0.2,0,0.4-0.1,0.8C-465.8,1057.8-465.8,1058.1-465.8,1058.2z"/>
								<path class="st1" d="M-461.1,1068.9c-1,1.9-2,3.6-3,5c-0.3,0.3-0.9,0.9-1.7,1.6c-0.3,0.3-0.6,0.5-0.7,0.5
									c-0.1,0-0.5,0.1-1.1,0.2c1.2-1.2,2.5-3,3.7-5.3c1.1-2,1.8-3.9,2.3-5.7c0-0.1-0.1-0.3-0.1-0.5c-0.1-0.3-0.3-0.5-0.5-0.6
									c-1-0.6-1.7-2.2-2.3-4.6c0-0.8-0.2-2.3-0.5-4.4c0,0.1,0-0.2,0-0.7c0-0.2,0.1-0.3,0.2-0.3c0.3,0,0.5,0.1,0.8,0.5
									c0.3,0.3,0.4,0.7,0.4,1c0.2,1.4,0.4,2.9,0.7,4.4c0.4,1.9,1.2,3.1,2.3,3.7c0.7-1.4,1.7-4.2,3-8.3c0.5-0.3,0.8-0.4,0.9-0.4
									c0.1,0,0.3,0.1,0.4,0.2l0.4,0.4c-0.1,0.6-0.4,1.5-0.9,2.6c-0.5,0.9-1.2,2.9-2.3,5.9C-460.4,1067-461,1068.7-461.1,1068.9z"
									/>
								<path class="st1" d="M-441.7,1054.1c0.5,0.1,1,0.1,1.5,0.2c0.6,0.1,1,0.3,1.4,0.7l0,0.7c-0.4,0-1.1,0-2.1,0
									c-0.6,0-1.1,0-1.5,0.1c-1.6,3-2.3,5.5-2.2,7.5c0,0.3,0,0.6,0.1,0.8s0.3,0.4,0.7,0.4c0.2,0,0.5,0,0.9-0.1
									c0.3,0,0.7-0.2,1.3-0.6c0.6-0.4,1.1-0.6,1.7-0.6c-0.4,1.3-1.5,2.2-3.3,2.6c-0.2,0-0.4,0.1-0.6,0.1c-0.6,0-1.2-0.2-1.5-0.6
									c-0.4-0.7-0.7-1.5-0.7-2.5c0-1.3,0.3-2.9,1-4.7c0.2-0.4,0.5-1.1,0.8-2.1c-0.8,0-1.6,0.4-2.2,1.2c-0.4,0-0.8-0.4-1-1.2
									c0-0.3,0.3-0.6,0.9-0.9c0.4-0.3,0.8-0.5,1.4-0.6c0.5-0.1,1.1-0.2,1.6-0.3c1.1-2.2,1.9-4.3,2.3-6.3c0.2-0.2,0.3-0.4,0.5-0.4
									c0.3,0,0.6,0.2,0.9,0.7c-0.1,1.6-0.7,3.5-1.9,5.7C-441.7,1054.1-441.7,1054.1-441.7,1054.1z"/>
								<path class="st1" d="M-434.8,1063.6c-0.2,0.4-0.6,0.9-1.1,1.5c-0.9,0.6-1.6,0.9-2.1,0.8c-0.4,0-0.9-0.4-1.4-1.1
									c0-0.4-0.1-0.9-0.1-1.3c0-2.5,0.4-5,1.1-7.5c0.1-0.4,0.4-1.2,1-2.4c0.1-0.2,0.3-0.3,0.6-0.3c0.2,0,0.5,0.1,0.7,0.3
									c0.2,0.2,0.3,0.4,0.3,0.6c0,0.1,0,0.2-0.1,0.3c-0.4,0.7-0.8,1.6-1.2,2.7l-0.8,3.7c-0.2,0.8-0.2,1.8-0.1,3
									c0,0.1,0.2,0.3,0.4,0.6c0.1,0,0.2-0.1,0.4-0.2c0.2-0.2,0.3-0.3,0.4-0.3c0.3-0.2,0.7-0.6,1.2-1.1s0.9-0.9,1.3-1.1l0.8-1
									C-433.9,1062.4-434.4,1063.3-434.8,1063.6z M-434.2,1050.8l-0.1,0.1c0,0-0.1,0.2-0.1,0.4c-1.2,0.1-1.8-0.2-1.8-0.8
									c0-0.4,0.1-0.6,0.4-0.7c0.1,0,0.4,0,0.9,0c0.1,0,0.3,0,0.5-0.1c0.2,0.1,0.4,0.3,0.6,0.6
									C-434,1050.5-434.1,1050.7-434.2,1050.8z"/>
								<path class="st1" d="M-430.8,1054.4c0.3,0.4,0.4,1,0.4,1.7c0,0.8-0.2,1.7-0.6,2.6c0,0.3-0.1,0.8-0.2,1.5
									c-0.2,0.7-0.2,1.2-0.2,1.6c0.7-0.9,1.9-2.3,3.5-4.1c1.3-1.5,2.6-2.7,3.9-3.5c0.7,0.3,1,0.9,1,1.8c0,0.2,0,0.5-0.1,1.1
									c0,0.5-0.1,0.8,0,1.1c-0.3,1-0.7,2.4-1.2,4.5c0,0,0.1,0,0.1,0c0.7-0.6,1.5-1.6,2.4-3.1c0.9-1.4,1.7-2.4,2.2-2.9
									c1.1-1,1.7-1.6,1.9-1.7c0.3-0.2,0.8-0.6,1.6-1c0.4,0,0.6,0.2,0.8,0.6c0.1,0.9-0.1,1.9-0.5,3.1c-0.6,1.7-0.9,2.7-1,3
									c-0.5,2.6-0.7,4.4-0.7,5.4h0c0.1,0,0.3,0,0.5,0.1c0,0.3-0.2,0.5-0.4,0.7c0,0-0.3,0.1-0.8,0.3c-0.6-0.5-0.9-1.2-0.9-2.2
									c0-0.3,0-0.7,0.1-1.2c0-0.5,0.1-1,0.1-1.2c0.2-0.8,0.5-1.9,0.9-3.3c0.5-1.6,0.9-2.7,1-3.2l-0.1,0c-0.1,0-0.2,0.2-0.3,0.3
									c-0.1,0.2-0.2,0.3-0.2,0.3c-0.4,0.3-0.8,0.7-1.1,1.1c-0.6,0.8-1.1,1.4-1.5,1.8c-0.7,0.9-1.7,2.1-3,3.7
									c-0.6,0.8-1,1.2-1.3,1.4c-0.8,0.7-1.3,1-1.7,0.9c0-0.2,0-0.4,0-0.7c0.1-0.4,0.1-0.7,0.1-0.8c0-0.3,0.1-1.1,0.3-2.3
									c0.1-0.4,0.3-1.1,0.6-2.2c0.1-0.3,0.2-0.6,0.2-0.9c0-0.2,0-0.4,0-0.8c0-0.3,0-0.5,0-0.6c0-0.2,0-0.4,0-0.6
									c-0.5,0.3-1.1,0.9-1.7,1.8c-0.7,1-1.3,1.6-1.7,1.9c-0.5,0.7-1.2,1.5-2.3,2.5c-0.9,0.8-1.5,1.6-1.9,2.3c0,0-0.1,0-0.3,0.1
									c-0.2,0.1-0.2,0.2-0.3,0.2c0,0-0.1,0-0.2,0c-0.2,0-0.3,0-0.4,0c-0.2,0-0.4-0.1-0.5-0.2c0.1-1.1,0.5-2.6,1.1-4.5
									c0.6-2,1-3.5,1.1-4.5c0-0.6-0.2-1.2-0.4-1.7C-431.9,1054.2-431.4,1054.2-430.8,1054.4z"/>
								<path class="st1" d="M-407.5,1063.3l-0.1,0.1c-0.1,0.1-0.2,0.2-0.1,0.4c-1.9,1.4-3.5,2.2-4.6,2.3c-0.6,0-1.3-0.1-1.9-0.4
									c-0.5-0.3-0.9-0.7-1.1-1.2c-0.2-0.4-0.3-1-0.4-1.9c0.7-3.8,2.5-6.8,5.4-8.9c0.1,0,0.4-0.1,0.8-0.1c0.4-0.1,0.7,0,1,0.2
									c0.3,0.2,0.4,0.5,0.4,0.9c0,0.3-0.1,0.6-0.1,0.9c-0.4,1.4-1.8,3-4.2,4.8c-0.1,0.1-0.5,0.2-1.2,0.4c-0.4,0.1-0.6,0.3-0.5,0.6
									c-0.3,0.5-0.4,1-0.4,1.5c0,0.2,0.1,0.6,0.3,1.1c0.4,0.6,1.1,0.9,2,0.9l0.1-0.1c0.4,0,0.9-0.1,1.6-0.4c0.7-0.4,1.7-1,3.2-1.7
									c0,0.1,0,0.2,0,0.3C-407.3,1063-407.4,1063.1-407.5,1063.3z M-409.6,1055.4c-0.1-0.1-0.2-0.1-0.3-0.2
									c-1.3,0.8-2.4,2.1-3.3,4c0.1,0,0.3,0,0.4-0.1c0.6-0.6,1.2-1.1,1.8-1.7C-410.3,1056.6-409.8,1056-409.6,1055.4z"/>
							</g>
						</g>
					</g>
					<g id="Line-Copy-6">
						<g>
							<g>
								<path class="st2" d="M-349.9,1182.5l-0.7-0.7c-53.6-48.6-65.4-96-65.5-96.5l-0.2-1l1.9-0.5l0.2,1
									c0.1,0.5,11.8,47.3,64.9,95.5l0.7,0.7L-349.9,1182.5z"/>
							</g>
						</g>
					</g>
					<g id="Line-Copy-6-decoration-1">
						<g>
							<g>
								<polygon class="st2" points="-345.9,1184.9 -359.9,1177.6 -358.9,1175.8 -351.3,1179.8 -355.8,1172.5 -354.1,1171.4 
																	"/>
							</g>
						</g>
					</g>
				</g>
			</g>
		</g>
	</g>
</g>
</svg>
